<?xml version="1.0" encoding="utf-8" ?>
<svg xmlns="http://www.w3.org/2000/svg" xmlns:xlink="http://www.w3.org/1999/xlink" width="1024" height="1024">
	<path fill="#E8EBEB" transform="scale(2 2)" d="M269.194 106.469L269.513 106.568C270.56 105.284 271.254 103.73 272.103 102.311C298.001 59.0281 364.193 64.6994 384.911 112.743C388.819 117.927 391.909 138.005 391.913 144.131C406.206 146.847 414.936 148.064 427.722 156.613C449.673 171.29 463.823 203.247 458.759 229.054C457.222 236.886 453.607 245.034 450.091 252.25C442.847 274.789 422.628 291.679 399.525 295.913C388.022 298.021 375.86 297.692 364.208 297.685L328.513 297.67C321.511 297.67 314.104 297.403 307.162 298.341C300.585 299.23 295.625 305.689 289.184 307.155C293.182 309.146 308.907 318.82 309.99 322.071C311.29 325.976 306.835 329.791 303.108 328.541C299.16 327.217 290.532 320.919 286.437 318.403C286.113 323.218 285.976 334.25 286.437 338.841C282.333 342.643 279.407 342.455 275.256 338.841C275.033 336.523 275.222 334.079 275.23 331.747L275.256 318.403C268.917 321.81 256.96 332.803 252.173 326.814C251.54 324.972 250.796 323.115 251.803 321.24C253.249 318.546 268.242 308.59 272.568 307.155C258.212 301.413 263.696 298.358 246.302 297.961C237.311 297.756 228.346 297.688 219.352 297.687L147.108 297.681C131.903 297.682 116.473 298.336 101.333 296.847C85.868 293.021 69.6666 286.042 61.7136 271.319C46.3665 252.69 49.8572 222.51 63.3886 204.042C73.3436 190.454 88.0376 182.635 104.443 180.138C105.851 175.326 107.004 170.463 108.857 165.79C120.802 135.667 148.55 124.323 178.777 129.364C187.801 104.572 213.986 88.0029 240.317 91.9013C249.66 93.2844 263.447 98.7434 269.194 106.469Z"/>
	<path fill="#BFD6E1" transform="scale(2 2)" d="M269.194 106.469L269.513 106.568C270.56 105.284 271.254 103.73 272.103 102.311C298.001 59.0281 364.193 64.6994 384.911 112.743C370.566 97.9633 361.17 87.9142 337.874 87.6006C313.353 87.2706 288.202 102.047 279.891 125.754C274.117 142.226 275.335 137.434 261.437 136.4C251.313 135.647 240.792 140.523 233.52 147.349C223.815 156.46 221.565 167.507 221.684 180.138C197.604 168.973 172.065 188.583 173.486 214.838C134.962 207.472 118.066 253.264 143.947 273.591C141.349 273.569 137.178 271.533 132.748 271.393C114.674 270.819 96.4897 271.449 78.3999 271.319C76.9953 271.339 75.5914 271.371 74.1871 271.319C79.897 282.535 87.56 288.23 98.4597 293.92C99.6813 294.557 101.735 295.195 101.333 296.847C85.868 293.021 69.6666 286.042 61.7136 271.319C46.3665 252.69 49.8572 222.51 63.3886 204.042C73.3436 190.454 88.0376 182.635 104.443 180.138C105.851 175.326 107.004 170.463 108.857 165.79C120.802 135.667 148.55 124.323 178.777 129.364C187.801 104.572 213.986 88.0029 240.317 91.9013C249.66 93.2844 263.447 98.7434 269.194 106.469Z"/>
	<path fill="#8FC2D9" transform="scale(2 2)" d="M178.777 129.364C187.801 104.572 213.986 88.0029 240.317 91.9013C249.66 93.2844 263.447 98.7434 269.194 106.469C266.211 110.889 257.103 105.491 253.318 104.761C230.414 100.343 206.249 113.724 196.545 134.641C188.337 152.333 193.173 148.462 175.763 145.265C150.875 140.694 126.366 160.018 122.882 184.611C120.448 201.791 119.87 196.94 107.158 198.763C79.9241 202.668 64.495 228.51 68.4438 254.724C69.2628 260.161 71.0876 266.719 74.1871 271.319C70.2049 271.224 65.6422 270.709 61.7136 271.319C46.3665 252.69 49.8572 222.51 63.3886 204.042C73.3436 190.454 88.0376 182.635 104.443 180.138C105.851 175.326 107.004 170.463 108.857 165.79C120.802 135.667 148.55 124.323 178.777 129.364Z"/>
	<defs>
		<linearGradient id="gradient_0" gradientUnits="userSpaceOnUse" x1="189.57515" y1="262.93619" x2="195.87494" y2="347.40469">
			<stop offset="0" stop-color="#E8E5E3"/>
			<stop offset="1" stop-color="#93D0EC"/>
		</linearGradient>
	</defs>
	<path fill="url(#gradient_0)" transform="scale(2 2)" d="M275.256 281.03C275.444 278.272 274.691 273.402 276.634 271.261C278.767 268.911 283.061 269.352 285.119 271.554C287.16 273.737 286.501 278.247 286.437 281.03L286.437 294.689C291.522 290.992 297.235 285.508 303.455 284.115C320.424 288.888 295.744 300.738 291.79 303.804C291.319 304.181 287.258 306.78 289.184 307.155C293.182 309.146 308.907 318.82 309.99 322.071C311.29 325.976 306.835 329.791 303.108 328.541C299.16 327.217 290.532 320.919 286.437 318.403C286.113 323.218 285.976 334.25 286.437 338.841C282.333 342.643 279.407 342.455 275.256 338.841C275.033 336.523 275.222 334.079 275.23 331.747L275.256 318.403C268.917 321.81 256.96 332.803 252.173 326.814C251.54 324.972 250.796 323.115 251.803 321.24C253.249 318.546 268.242 308.59 272.568 307.155C258.212 301.413 263.696 298.358 246.302 297.961C237.311 297.756 228.346 297.688 219.352 297.687L147.108 297.681C131.903 297.682 116.473 298.336 101.333 296.847C101.735 295.195 99.6813 294.557 98.4597 293.92C87.56 288.23 79.897 282.535 74.1871 271.319C75.5914 271.371 76.9953 271.339 78.3999 271.319C96.4897 271.449 114.674 270.819 132.748 271.393C137.178 271.533 141.349 273.569 143.947 273.591L144.257 273.738C145.562 274.376 146.7 275.438 147.97 276.172C159.955 283.089 182.456 281.026 196.99 281.028L275.256 281.03Z"/>
	<path fill="#8FC2D9" transform="scale(2 2)" d="M275.256 281.03C275.444 278.272 274.691 273.402 276.634 271.261C278.767 268.911 283.061 269.352 285.119 271.554C287.16 273.737 286.501 278.247 286.437 281.03L286.437 294.689C291.522 290.992 297.235 285.508 303.455 284.115C320.424 288.888 295.744 300.738 291.79 303.804C278.391 301.651 277.642 308.361 264.933 300.415C260.976 297.94 248.913 293.159 252.736 287.413C258.183 279.225 269.438 290.819 275.256 294.689C275.481 290.175 275.266 285.555 275.256 281.03Z"/>
	<path fill="#BFD6E1" transform="scale(2 2)" d="M286.437 281.03L374.436 281.035C397.921 281.032 419.086 280.233 437.699 264.444C440.095 262.412 448.15 252.646 450.091 252.25C442.847 274.789 422.628 291.679 399.525 295.913C388.022 298.021 375.86 297.692 364.208 297.685L328.513 297.67C321.511 297.67 314.104 297.403 307.162 298.341C300.585 299.23 295.625 305.689 289.184 307.155C287.258 306.78 291.319 304.181 291.79 303.804C295.744 300.738 320.424 288.888 303.455 284.115C297.235 285.508 291.522 290.992 286.437 294.689L286.437 281.03Z"/>
	<defs>
		<linearGradient id="gradient_1" gradientUnits="userSpaceOnUse" x1="163.59753" y1="373.99881" x2="184.28932" y2="316.06796">
			<stop offset="0" stop-color="#7CBDDD"/>
			<stop offset="1" stop-color="white"/>
		</linearGradient>
	</defs>
	<path fill="url(#gradient_1)" transform="scale(2 2)" d="M168.967 335.657C168.949 330.826 168.399 321.372 169.2 317.082C169.855 313.575 174.226 310.84 177.133 313.716C178.543 315.111 178.171 332.692 178.044 335.657L178.401 335.492C183.507 333.099 194.548 323.017 199.867 324.818C212.208 328.996 182.321 344.744 181.837 345.151C188.893 348.656 203.334 354.315 202.391 362.958C198.589 369.004 192.523 363.319 188.54 360.54C184.926 358.853 181.752 356.366 178.044 354.741C178.328 355.955 178.545 357.184 178.777 358.409C178.786 362.881 182.006 371.795 178.875 375.472C175.284 379.69 169.383 377.382 168.603 372.319C167.85 367.43 169.313 360.272 168.967 354.741C167.236 356.003 165.518 357.269 163.702 358.409C160.664 360.702 153.759 367.658 149.592 366.696C146.382 365.956 144.695 361.97 145.522 358.979C146.528 355.346 154.029 351.695 157.257 349.906C159.894 348.176 162.681 346.505 165.53 345.151C158.043 341.45 145.023 337.147 145.527 328.157C151.373 320.516 162.739 331.497 168.967 335.657Z"/>
	<path fill="#8FC2D9" transform="scale(2 2)" d="M157.257 349.906C158.437 349.729 159.21 349.408 160.154 348.679C162.402 351.352 164.797 353.163 167.581 355.22C166.329 355.998 164.216 356.985 163.702 358.409C160.664 360.702 153.759 367.658 149.592 366.696C146.382 365.956 144.695 361.97 145.522 358.979C146.528 355.346 154.029 351.695 157.257 349.906Z"/>
	<path fill="#8FC2D9" transform="scale(2 2)" d="M188.54 360.54L189.096 360.327C192.213 362.361 201.025 368.306 202.072 361.219C202.195 361.799 202.309 362.37 202.391 362.958C198.589 369.004 192.523 363.319 188.54 360.54Z"/>
	<defs>
		<linearGradient id="gradient_2" gradientUnits="userSpaceOnUse" x1="228.92448" y1="383.90268" x2="253.34227" y2="439.38919">
			<stop offset="0" stop-color="#61AFD1"/>
			<stop offset="1" stop-color="#91CBE5"/>
		</linearGradient>
	</defs>
	<path fill="url(#gradient_2)" transform="scale(2 2)" d="M239.178 407.905C236.052 406.614 221.678 398.305 218.856 395.838C215.847 393.209 217.766 387.35 221.632 386.713C228.006 385.663 241.432 401.245 242.082 396.098C246.45 396.612 251.443 404.114 256.234 407.357L256.324 407.822L256.654 407.826L256.77 407.905L257.583 407.905C262.196 407.113 270.35 408.5 263.463 413.332C266.608 415.282 274.387 419.274 276.017 422.476C277.221 424.842 275.572 429.097 273.071 430.006C270.018 431.115 256.732 421.69 252.734 419.793C252.702 425.73 256.109 450.921 242.082 439.827C240.739 435.559 241.404 424.634 241.416 419.793C235.78 422.618 229.574 426.848 224.211 429.281C218.743 431.762 214.593 423.435 218.86 419.651C222.741 416.209 234.083 411.074 239.178 407.905Z"/>
	<path fill="#BFD6E1" transform="scale(2 2)" d="M256.77 407.905L257.583 407.905C262.196 407.113 270.35 408.5 263.463 413.332C262.11 412.922 256.261 409.649 256.01 408.748L256.77 407.905Z"/>
	<path fill="#E8EBEB" transform="scale(2 2)" d="M347.628 341.667C361.372 332.349 357.81 356.302 357.946 362.958C362.653 360.304 371.825 351.766 377.092 353.329C381.123 354.526 382.263 358.931 379.287 361.738C373.555 367.146 366.729 369.704 361.185 373.928C358.996 373.258 356.907 372.06 354.954 370.88C352.9 370.39 337.164 382.309 332.847 380.679C336.089 378.096 339.785 376.051 343.333 373.928C338.374 371.444 323.036 365.841 323.922 358.972C324.642 355.795 325.078 354.6 327.896 352.787C333.376 352.45 341.618 359.065 346.768 362.165C346.454 356.752 346.534 346.838 347.628 341.667Z"/>
	<path fill="#BFD6E1" transform="scale(2 2)" d="M323.922 358.972C339.695 356.769 342.13 366.919 354.796 370.517L354.954 370.88C352.9 370.39 337.164 382.309 332.847 380.679C336.089 378.096 339.785 376.051 343.333 373.928C338.374 371.444 323.036 365.841 323.922 358.972Z"/>
	<path fill="#8FC2D9" transform="scale(2 2)" d="M332.847 380.679C337.164 382.309 352.9 370.39 354.954 370.88C356.907 372.06 358.996 373.258 361.185 373.928C367.055 376.12 374.242 381.161 379.827 384.561C382.372 389.75 379.206 395.458 373.284 393.496C368.176 391.804 363.054 386.718 357.946 384.561L357.966 396.802C357.999 403.275 358.343 409.196 349.906 407.905C343.5 403.713 347.23 391.136 346.768 384.561C343.813 387.254 332.797 394.885 329.08 394.766C326.072 394.669 323.366 391.859 323.684 388.803C324.096 384.85 329.803 382.336 332.847 380.679Z"/>
	<path fill="#8FC2D9" transform="scale(2 2)" d="M242.082 396.098C241.766 393.641 241.785 377.196 242.902 375.76C245.428 372.515 250.236 373.861 252.173 376.938C252.937 383.515 252.751 390.239 252.734 396.852C258.78 393.072 270.453 380.707 275.208 388.765C279.117 395.388 262.604 402.871 257.583 407.905L256.77 407.905L256.654 407.826L256.324 407.822L256.234 407.357C251.443 404.114 246.45 396.612 242.082 396.098Z"/>
	<path fill="#E8EBEB" transform="scale(2 2)" d="M378.512 367.239C382.982 367.102 387.441 367.502 391.913 367.239C395.379 370.707 397.639 377.899 390.562 378.764C386.815 378.74 378.227 379.624 375.255 377.88C370.82 375.277 372.069 368.626 378.512 367.239Z"/>
	<path fill="#BFD6E1" transform="scale(2 2)" d="M278.121 402.85C289.089 401.818 295.907 411.511 282.937 415.594C271.066 417.277 265.091 406.649 278.121 402.85Z"/>
	<path fill="#E8EBEB" transform="scale(2 2)" d="M309.601 299.115C322.225 299.466 323.621 310.955 312.24 312.674C299.295 314.152 299.287 300.131 309.601 299.115Z"/>
	<path fill="#8FC2D9" transform="scale(2 2)" d="M318.925 367.239C327.79 366.852 333.824 370.052 327.896 378.764C326.531 378.972 325.286 378.88 323.922 378.764C311.845 380.13 307.101 370.183 318.925 367.239Z"/>
	<path fill="#8FC2D9" transform="scale(2 2)" d="M248.432 299.115C259.018 301.825 262.737 310.552 250.313 312.674C238.843 312.107 237.337 303.168 248.432 299.115Z"/>
	<path fill="#8FC2D9" transform="scale(2 2)" d="M213.999 401.299C223.156 400.752 226.991 411.413 217.002 414.616C207.563 415.86 203.901 403.591 213.999 401.299Z"/>
	<path fill="#BFD6E1" transform="scale(2 2)" d="M203.144 338.035C212.593 337.217 215.484 347.627 205.951 351.197C196.588 350.872 193.188 341.359 203.144 338.035Z"/>
	<path fill="#8FC2D9" transform="scale(2 2)" d="M140.134 340.386C142.779 339.736 144.881 339.773 147.505 340.386C151.973 344.242 151.025 349.395 145.527 351.197C139.63 351.798 131.338 349.173 136.046 341.667C137.405 340.662 138.459 340.482 140.134 340.386Z"/>
</svg>
