<?xml version="1.0" encoding="utf-8" ?>
<svg xmlns="http://www.w3.org/2000/svg" xmlns:xlink="http://www.w3.org/1999/xlink" width="1024" height="1024">
	<path fill="#E2E7EF" transform="scale(2 2)" d="M171.664 191.894C172.954 189.071 173.635 185.938 174.855 183.062C196.383 132.34 262.923 123.069 300.448 162.66C304.169 165.753 307.703 170.169 310.774 173.928C327.632 170.408 340.665 169.226 357.075 175.798C387.002 187.784 396.846 210.803 400.173 240.168C423.388 240.683 435.448 239.597 453.913 258.887C482.832 289.097 468.236 344.525 427.786 356.255C420.72 358.304 413.771 358.575 406.501 359.021L340.79 362.538C333.848 362.975 326.521 362.713 319.743 364.441C317.023 363.875 315.804 367.971 313.726 369.251L313.364 369.175C314.059 366.412 314.078 363.537 313.985 360.705C307.081 350.355 307.559 366.429 307.768 370.497C306.367 368.532 305.01 366.805 303.239 365.156C301.776 365.278 299.122 365.069 298.563 366.795C294.011 367.876 244.889 370.872 240.695 368.256C238.171 368.023 235.421 365.695 233.228 364.441C233.446 366.963 234.397 371.599 232.665 373.678C231.636 374.915 229.257 375.2 228.101 373.99C226.448 372.26 227.209 366.828 227.237 364.441C225.514 365.715 223.929 367.121 222.1 368.256C215.731 369.128 213.293 369.479 206.563 369.494L149.087 369.486C141.848 369.488 130.681 368.914 123.917 370.497C113.603 370.493 106.695 370.853 96.6888 367.187C64.8827 355.533 48.9263 318.761 60.7563 287.252C68.5988 266.364 81.4504 258.438 100.115 249.882C102.203 245.222 104.11 237.605 105.978 232.383C119.833 207.091 140.676 194.79 170.161 198.588C170.483 196.308 170.833 194.053 171.664 191.894Z"/>
	<path fill="#BFC6E0" transform="scale(2 2)" d="M171.664 191.894C172.954 189.071 173.635 185.938 174.855 183.062C196.383 132.34 262.923 123.069 300.448 162.66C298.163 161.915 296.08 160.693 293.933 159.636C250.101 138.067 203.084 163.045 189.353 208.293C185.194 206.485 182.035 206.265 177.515 206.428C148.648 207.47 129.809 230.442 125.191 257.659L124.767 257.851C120.74 259.645 116.478 260.728 112.459 262.589C65.7697 284.212 68.5913 349.101 117.595 368.086C119.421 368.793 122.442 368.998 123.895 370.249L123.917 370.497C113.603 370.493 106.695 370.853 96.6888 367.187C64.8827 355.533 48.9263 318.761 60.7563 287.252C68.5988 266.364 81.4504 258.438 100.115 249.882C102.203 245.222 104.11 237.605 105.978 232.383C119.833 207.091 140.676 194.79 170.161 198.588C170.483 196.308 170.833 194.053 171.664 191.894Z"/>
	<path fill="#214CAF" transform="scale(2 2)" d="M227.878 312.149C227.874 310.008 227.211 302.415 228.455 301.227C235.041 294.934 233.512 309.966 233.228 312.149C235.211 310.88 238.997 307.572 241.453 308.206C249.73 310.345 234.655 318.337 233.228 319.232L233.228 333.382C237.286 330.83 241.85 327.56 246.452 326.181C246.423 323.466 245.711 316.241 247.898 314.32C252.229 310.52 252.521 320.441 252.484 322.16C254.851 320.701 259.561 316.74 262.47 317.498C270.807 319.67 256.68 326.667 255.521 327.319C257.662 328.212 260.583 328.952 261.579 331.249C265.297 339.823 250.933 331.434 249.362 330.564C244.799 332.771 240.527 335.517 236.002 337.799C240.469 340.235 244.754 343.105 249.362 345.254C251.977 344.028 257.215 340.407 260.151 341.641C265.264 343.789 257.2 348.35 255.521 349.281C257.974 350.507 263.411 352.495 264.234 355.309C266.523 363.133 253.807 354.723 253.218 354.4C253.277 356.411 254.08 360.814 252.489 362.273C246.445 367.816 247.544 351.857 247.537 350.825C242.852 347.804 238.141 344.856 233.228 342.216C233.217 347.154 232.976 352.227 233.228 357.151C236.456 358.627 241.042 361.39 242.995 364.441C242.392 365.912 241.838 367.111 240.695 368.256C238.171 368.023 235.421 365.695 233.228 364.441C233.446 366.963 234.397 371.599 232.665 373.678C231.636 374.915 229.257 375.2 228.101 373.99C226.448 372.26 227.209 366.828 227.237 364.441C225.514 365.715 223.929 367.121 222.1 368.256C215.565 363.82 223.686 359.216 227.878 357.151L227.878 342.216C223.762 344.321 219.575 346.7 215.74 349.281C215.671 351.323 217.141 364.381 212.724 363.211C208.975 362.218 210.278 355.796 210.259 353.088C209.702 353.391 194.568 363.66 197.503 354.918C198.546 351.811 204.398 349.668 207.09 348.136C204.982 347.448 194.809 343.906 201.745 340.811C204.545 339.562 210.465 342.961 213.176 344.261C216.965 342.099 220.696 339.869 224.538 337.799C220.679 335.51 216.824 333.182 213.176 330.564C210.844 331.451 203.252 335.023 201.28 334.353C194.461 332.035 204.279 327.974 207.09 327.319C206.016 326.734 191.535 319.262 199.563 317.245C202.55 316.495 207.621 320.764 210.259 322.16C210.122 320.143 209.399 316.208 210.826 314.618C216.951 307.8 215.771 325.344 215.74 326.181C219.817 328.494 223.729 331.23 227.878 333.382C228.183 329.615 228.348 323.003 227.878 319.232C227.26 318.762 211.279 308.391 221.417 308.029C223.927 307.94 226.149 310.617 227.878 312.149Z"/>
	<path fill="#214CAF" transform="scale(2 2)" d="M330.121 234.3C335.246 235.175 333.086 242.711 332.964 246.353C335.134 244.964 339.73 241.038 341.91 244.337C344.583 248.382 335.573 251.917 332.964 253.185C332.942 258.437 333.182 263.723 332.964 268.969C336.909 266.283 340.964 263.282 345.605 261.971C345.709 259.918 346.586 243.062 351.813 251.064C353.014 252.903 351.966 255.667 351.587 257.659C352.121 257.453 365.808 249.527 364.791 256.224C364.429 258.605 357.578 261.436 355.43 262.989C357.44 263.862 366.197 268.15 360.182 270.487C358.478 271.149 350.738 267.284 348.576 266.562C344.083 268.602 339.94 271.261 335.553 273.513C339.754 276.094 344.19 278.554 348.576 280.805C350.119 280.135 364.85 272.874 360.79 281.234C359.784 283.307 356.62 283.832 354.59 284.502C356.059 285.5 368.415 291.283 362.258 294.498C360.132 295.608 354.443 291.12 352.014 290.261L351.587 290.112C354.524 302.336 345.346 302.17 345.605 285.687C341.452 283.221 337.313 280.642 332.964 278.533C332.998 283.523 332.684 288.569 332.964 293.548C334.098 294.265 347.763 302.186 340.382 304.115C338.209 304.683 334.807 301.578 332.964 300.483C332.856 304.545 334.777 314.433 327.295 311.052C326.522 308.392 327.204 303.381 327.295 300.483C325.457 301.58 321.491 304.638 319.316 304.028C312.133 302.013 326.146 294.268 327.295 293.548L327.295 278.533C323.516 280.764 319.499 282.817 316.166 285.687C315.515 287.289 312.872 304.046 308.237 297.555C306.973 295.786 308.472 292.058 308.981 290.112C306.75 290.961 300.66 295.154 298.803 294.663C290.352 292.43 305.238 285.208 306.826 284.502C304.655 283.6 300.015 282.808 298.893 280.636C295.094 273.282 310.296 279.868 312.02 280.805C316.599 278.734 321.083 276.086 325.399 273.513C321.49 271.528 317.206 269.573 313.985 266.562C311.009 267.317 302.494 271.046 300.327 270.743C295.216 266.444 304.019 263.921 306.826 262.989C305.668 262.236 291.515 255.842 298.863 253.436C301.858 252.456 306.796 256.195 309.652 257.659C308.59 254.673 307.77 246.032 312.649 249.332C314.278 250.434 315.415 259.531 316.166 261.971C319.974 264.166 323.703 266.432 327.295 268.969L327.295 253.185C314.224 245.568 315.696 238.803 327.295 246.353C327.351 242.358 325.252 235.834 330.121 234.3Z"/>
	<defs>
		<linearGradient id="gradient_0" gradientUnits="userSpaceOnUse" x1="171.82564" y1="195.22058" x2="88.658577" y2="119.48854">
			<stop offset="0" stop-color="#3D69BA"/>
			<stop offset="1" stop-color="#4F9BDD"/>
		</linearGradient>
	</defs>
	<path fill="url(#gradient_0)" transform="scale(2 2)" d="M105.978 232.383L100.523 226.887C48.1652 173.799 79.6488 84.1641 158.627 85.3108C156.662 88.4339 154.078 91.1828 152.034 94.2776C130.227 127.297 138.555 170.077 171.664 191.894C170.833 194.053 170.483 196.308 170.161 198.588C140.676 194.79 119.833 207.091 105.978 232.383Z"/>
	<path fill="#ABE2FC" transform="scale(2 2)" d="M307.768 370.497C307.559 366.429 307.081 350.355 313.985 360.705C314.078 363.537 314.059 366.412 313.364 369.175L313.726 369.251C315.804 367.971 317.023 363.875 319.743 364.441C326.558 367.54 314.713 375.419 312.02 377.286C311.89 380.064 311.981 382.855 312.02 385.635L315.048 387.427C318.301 386.182 321.564 384.857 324.503 382.964C325.545 380.134 326.069 369.768 328.558 368.605C334.479 365.839 330.859 376.238 330.121 378.041C332.573 376.689 336.477 373.546 339.371 374.474C345.819 376.544 332.164 382.605 331.541 382.964C332.75 383.465 343.77 387.71 336.941 390.118C335.431 390.65 326.419 386.56 324.503 385.635C312.327 390.801 314.188 392.776 324.503 397.971C327.81 397.783 334.834 394.737 336.841 396.199C340.986 399.219 334.783 400.887 332.318 401.081C333.829 401.864 345.537 407.401 338.582 409.75C335.82 409.491 332.64 406.901 330.121 405.696C330.764 407.956 332.321 417.436 327.136 413.613C324.449 411.632 326.453 403.779 323.818 400.771C322.273 399.007 314.291 394.047 312.591 396.543C311.387 398.309 312.006 403.54 312.02 405.696C314.042 407.576 321.922 414.213 322.056 416.515C322.424 422.843 315.579 416.483 313.985 414.888C314.008 417.552 314.782 423.694 313.015 425.687C308.464 430.818 308.962 415.662 308.981 414.888C307.591 416.3 305.737 419.529 303.706 419.608C295.354 419.929 308.489 407.221 309.652 405.696C309.787 403.17 309.961 400.485 309.652 397.971C308.734 397.162 307.841 396.353 306.826 395.664C293.972 399.342 298.259 411.256 292.249 413.02C287.663 414.366 290.356 407.274 291.125 405.696C288.722 406.678 283.482 410.325 281.055 409.339C274.255 406.574 287.094 401.715 288.323 401.081C286.503 400.375 275.177 395.349 283.186 394.053C285.411 393.693 295.927 397.131 298.563 397.971C305.127 392.797 308.784 388.526 297.867 385.814L297.16 385.635C292.659 386.158 283.773 390.467 281.821 388.581C278.195 385.076 286.21 382.419 288.323 381.923C285.872 380.671 280.48 379.253 279.447 376.546C276.896 369.857 290.412 376.992 291.125 377.286C286.471 371.075 291.35 366.763 296.336 376.711C300.233 384.489 299.156 383.266 306.826 387.427L309.652 385.635C309.666 382.908 309.905 379.989 309.652 377.286C305.847 373.98 301.716 370.747 298.563 366.795C299.122 365.069 301.776 365.278 303.239 365.156C305.01 366.805 306.367 368.532 307.768 370.497Z"/>
</svg>
