<?xml version="1.0" encoding="utf-8" ?>
<svg xmlns="http://www.w3.org/2000/svg" xmlns:xlink="http://www.w3.org/1999/xlink" width="1024" height="1024">
	<path fill="#E2E4E5" transform="scale(2 2)" d="M199.614 134.159C218.749 94.2504 266.79 74.781 307.365 94.5263C335.568 108.251 353.324 136.47 354.929 167.456C375.489 165.443 394.332 166.899 411.103 180.662C432.548 198.261 440.572 224.984 431.651 251.171C426.024 264.792 416.161 279.733 401.903 285.582C398.906 286.811 395.575 287.455 392.691 288.912C417.225 287.735 438.459 273.604 448.424 251.217C449.706 248.338 451.21 241.332 455.117 241.158C468.895 240.544 451.587 266.601 448.85 270.147C428.648 296.321 407.6 298.458 377.814 298.461L335.158 298.452C307.894 298.451 290.835 297.703 270.084 320.601C267.098 323.896 259.863 337.447 254.257 330.76C248.19 323.524 274.086 302.449 282.243 297.757L281.801 297.545C277.579 297.959 247.804 297.833 243.743 296.758C241.972 298.29 240.209 299.729 238.819 301.642C236.109 305.371 228.829 323.508 222.518 315.374C219.132 311.01 227.407 300.468 229.466 296.758C229.296 296.664 217.733 297.243 215.962 297.247L164.299 297.227C150.883 297.231 137.409 297.473 124.011 296.645C82.9298 294.109 67.193 240.878 100.373 215.635C103.41 213.324 107.179 212.054 110 209.452C110.204 204.896 109.896 200.315 110.041 195.751C110.885 169.202 131.147 145.399 157.485 140.97C166.756 139.41 184.265 139.829 192.467 145.65C194.282 142.2 197.398 137.577 199.614 134.159Z"/>
	<path fill="#CCD6DB" transform="scale(2 2)" d="M199.614 134.159C218.749 94.2504 266.79 74.781 307.365 94.5263C335.568 108.251 353.324 136.47 354.929 167.456C375.489 165.443 394.332 166.899 411.103 180.662C432.548 198.261 440.572 224.984 431.651 251.171C427.374 250.636 415.994 254.518 411.463 256.06C414.095 217.192 386.724 182.312 345.206 191.049C340.795 191.978 336.58 193.532 332.338 195.026C333.618 181.585 328.582 164.167 322.049 152.575C298.742 111.218 244.23 99.0151 206.637 129.244C205.126 130.459 201.67 134.736 199.614 134.159Z"/>
	<path fill="#FEFEFE" transform="scale(2 2)" d="M110 209.452C110.204 204.896 109.896 200.315 110.041 195.751C110.885 169.202 131.147 145.399 157.485 140.97C166.756 139.41 184.265 139.829 192.467 145.65C190.516 149.584 188.832 153.617 187.229 157.703C181.051 157.483 174.63 157.601 168.544 158.742C116.89 168.433 100.114 234.107 134.765 271.112C143.479 280.417 154.876 287.714 167.828 288.109C190.863 288.812 213.379 287.945 236.601 288.912C234.83 291.442 231.867 295.183 229.466 296.758C229.296 296.664 217.733 297.243 215.962 297.247L164.299 297.227C150.883 297.231 137.409 297.473 124.011 296.645C82.9298 294.109 67.193 240.878 100.373 215.635C103.41 213.324 107.179 212.054 110 209.452Z"/>
	<path fill="#CCD6DB" transform="scale(2 2)" d="M236.601 288.172C269.138 253.659 294.311 259.761 335.798 261.024L362.766 262.023C366.863 262.136 383.501 261.324 386.31 263.824C389.624 266.775 387.655 272.405 383.323 272.758C377.856 273.203 371.963 272.432 366.459 272.258L323.874 270.588C312.843 270.079 297.913 268.804 287.21 270.425C276.473 272.051 257.586 280.059 251.247 288.912L251.247 288.912C248.928 288.653 246.898 288.537 244.579 288.912C241.913 288.408 239.313 288.187 236.601 288.172Z"/>
	<path fill="#FEFEFE" transform="scale(2 2)" d="M251.247 288.912C266.344 287.676 291.24 288.527 306.411 289.171C300.016 290.602 283.934 297.584 282.243 297.757L281.801 297.545C277.579 297.959 247.804 297.833 243.743 296.758C245.077 293.884 248.887 290.944 251.247 288.912L251.247 288.912Z"/>
	<path fill="#E2E4E5" transform="scale(2 2)" d="M454.339 294.778C458.617 294.323 461.626 298.299 459.562 302.356C457.757 305.905 450.008 312.22 446.674 314.626C424.436 330.673 409.522 329.093 383.273 329.089L345.817 329.064C318.641 329.007 300 332.235 283.064 356.479C280.578 360.039 278.967 365.994 274.519 367.451C258.16 367.194 279.1 344.857 282.619 341.31C304.869 318.886 322.337 319.235 350.522 319.243L389.959 319.248C410.546 319.241 429.855 318.254 445.384 302.765C448.085 300.071 450.674 296.813 454.031 294.946L454.339 294.778Z"/>
	<path fill="#E2E4E5" transform="scale(2 2)" d="M184.028 353.867C183.92 351.432 183.49 342.423 184.802 340.538C188.32 335.485 192.226 341.301 192.467 346.767C196.271 344.168 203.355 342.383 201.905 349.728C201.433 351.644 198.162 353.51 196.598 354.619C201.609 357.131 205.444 363.945 199.712 365.202C198.182 365.537 189.917 360.148 187.229 359.134C180.728 361.829 174.278 366.253 168.443 370.197C172.078 372.106 184.898 378.435 187.229 381.074C185.48 382.32 183.166 383.362 181.736 384.921C175.734 381.931 170.71 377.345 164.823 374.27C164.808 380.468 164.123 388.948 164.768 394.789L164.823 395.305C163.946 394.77 163.076 394.235 162.229 393.653C161.266 394.207 160.282 394.875 159.261 395.305C158.889 388.671 159.303 381.879 159.261 375.222C152.535 378.031 146.677 382.372 140.181 385.573C140.452 388.781 140.721 392.111 140.181 395.305C139.893 392.146 140.157 388.755 140.181 385.573C139.378 384.003 138.535 382.532 137.543 381.074C142.115 376.57 151.026 372.555 156.766 369.379C150.03 366.592 144.345 361.714 137.543 359.134C137.17 356.322 138.959 354.525 140.181 352.174C142.232 354.317 156.409 363.203 159.261 364.363C159.542 357.911 158.566 351.165 159.261 344.783C160.421 346.249 163.825 346.547 164.823 344.783C164.981 351.327 164.804 357.826 164.823 364.363C169.35 362.424 180.54 354.404 184.028 353.867Z"/>
	<path fill="#CCD6DB" transform="scale(2 2)" d="M184.028 353.867C183.92 351.432 183.49 342.423 184.802 340.538C188.32 335.485 192.226 341.301 192.467 346.767C196.271 344.168 203.355 342.383 201.905 349.728L201.521 349.487C202.104 346.77 200.941 345.916 198.693 344.783C190.67 346.164 188.886 352.31 184.028 353.867Z"/>
	<path fill="#FEFEFE" transform="scale(2 2)" d="M312.068 363.118C312.837 363.956 314.071 387.105 314.302 389.687C320.858 387.876 330.152 382.3 334.902 381.636C333.223 384.542 318.36 391.477 317.129 393.212C317.765 395.648 335.18 405.804 338.727 409.215C333.783 407.126 318.328 397.602 314.335 397.897C312.197 400.992 313.332 417.88 311.86 419.841C311.206 419.239 311.616 417.169 311.308 416.215C312.046 414.126 310.315 400.693 310.274 397.364C305.158 399.033 289.905 408.287 286.713 408.212L286.869 407.807C291.113 405.993 303.329 397.08 307.705 393.653C303.491 390.09 288.957 380.617 287.931 378.018L288.329 377.863C292.95 378.922 306.283 386.547 310.274 389.687C310.17 380.72 311.912 372.047 312.068 363.118Z"/>
	<path fill="#FEFEFE" transform="scale(2 2)" d="M53.1069 293.62C55.7307 294.363 58.4797 295.059 60.9511 296.225C63.5978 297.475 74.9252 306.236 75.7008 302.328L76.4751 302.526L76.9182 301.296C77.3325 303.213 77.7923 304.447 80.1008 303.718C83.0465 302.787 98.7788 290.864 98.0532 295.895C94.3559 300.371 85.3945 303.633 79.9608 307.288C83.3946 309.651 97.0776 317.029 98.3422 320.217L98.2515 320.611C94.785 321.947 83.1206 311.259 78.1571 311.246C75.7345 314.428 78.4227 331.495 76.2013 332.596C73.0216 330.185 75.0259 315.452 74.5419 311.266C67.091 313.479 60.8237 319.148 53.1069 320.609C55.7936 317.374 68.6634 309.917 72.9108 307.288C68.2131 304.55 57.042 297.511 53.1069 293.62Z"/>
	<path fill="#CCD6DB" transform="scale(2 2)" d="M187.229 381.074C193.796 376.942 201.693 369.026 201.905 381.074C200.612 383.128 198.581 384.268 196.598 385.573C205.599 391.471 201.533 398.726 190.593 392.633C190.587 394.45 190.785 397.003 189.412 398.416C182.753 405.272 182.262 386.391 181.736 384.921C183.166 383.362 185.48 382.32 187.229 381.074Z"/>
	<path fill="#FEFEFE" transform="scale(2 2)" d="M245.666 392.633C248.265 392.167 251.37 392.52 254.022 392.557C262.35 392.674 272.589 389.668 271.856 400.266C270.152 402.664 268.722 402.737 265.811 402.88C260.863 403.105 249.176 403.379 244.565 402.795C236.822 401.813 239.123 393.176 245.666 392.633Z"/>
	<path fill="#CCD6DB" transform="scale(2 2)" d="M162.229 393.653C163.076 394.235 163.946 394.77 164.823 395.305C167.35 397.336 179.083 403.551 175.22 407.862C172.45 410.954 168.06 406.748 165.747 405.066C165.77 406.923 165.928 421.438 159.845 415.166C157.932 413.193 158.692 407.735 158.72 405.066C156.269 406.877 146.719 412.298 149.114 404.49C149.818 402.191 156.612 397.177 159.261 395.305C160.282 394.875 161.266 394.207 162.229 393.653Z"/>
	<path fill="#FEFEFE" transform="scale(2 2)" d="M371.719 362.21C377.522 361.877 397.714 359.829 396.833 369.237C396.654 371.151 394.366 372.121 393.049 373.21L392.691 373.509C386.141 372.556 378.061 374.769 371.777 373.023C365.296 371.223 366.744 364.662 371.719 362.21Z"/>
	<path fill="#CCD6DB" transform="scale(2 2)" d="M132.217 346.767C131.677 341.08 134.614 335.485 139.634 341.029C140.339 344.561 140.236 348.576 140.181 352.174C138.959 354.525 137.17 356.322 137.543 359.134C133.297 360.37 129.543 362.507 125.56 364.363C119.72 360.194 121.958 355.546 128.606 353.867C118.695 349.71 125.244 339.152 132.217 346.767Z"/>
	<path fill="#CCD6DB" transform="scale(2 2)" d="M158.72 327.382C164.998 322.574 166.105 329.349 165.747 334.16C168.121 333.172 171.693 331.471 174.252 332.559C182.345 336 165.705 342.359 164.823 344.783C163.825 346.547 160.421 346.249 159.261 344.783C157.111 341.416 147.497 339.376 148.415 334.881C149.409 330.013 156.058 332.828 158.72 334.16C158.19 331.649 158.162 329.89 158.72 327.382Z"/>
	<path fill="#CCD6DB" transform="scale(2 2)" d="M127.555 385.573C122.976 383.331 119.841 377.603 125.385 376.253C128.837 375.413 134.552 379.363 137.543 381.074C138.535 382.532 139.378 384.003 140.181 385.573C140.157 388.755 139.893 392.146 140.181 395.305C140.143 400.614 132.493 400.77 131.142 394.613L131.409 394.288L131.091 393.904L131.132 393.653C121.958 397.232 121.844 390.224 127.555 385.573Z"/>
	<path fill="#FEFEFE" transform="scale(2 2)" d="M217.956 356.977C223.147 356.697 243.503 355.393 244.775 360.991C245.38 363.652 242.969 365.489 240.628 366.013C236.202 366.348 220.322 366.612 216.854 365.01C212.396 362.95 213.721 357.997 217.956 356.977Z"/>
	<path fill="#E2E4E5" transform="scale(2 2)" d="M75.7008 302.328C74.7637 297.397 75.4634 291.3 76.1865 286.36L76.1974 286.359C76.489 291.379 76.8515 296.236 76.9182 301.296L76.4751 302.526L75.7008 302.328Z"/>
</svg>
