<?xml version="1.0" encoding="utf-8" ?>
<svg xmlns="http://www.w3.org/2000/svg" xmlns:xlink="http://www.w3.org/1999/xlink" width="1024" height="1024">
	<path fill="#DADADC" transform="scale(2 2)" d="M245.577 136.782C261.684 87.0731 313.028 60.4287 362.994 76.9345C424.125 97.1288 449.306 177.138 403.916 225.302C406.72 225.413 409.871 224.786 412.604 225.302C434.742 225.682 453.156 245.509 452.741 267.489C452.346 288.406 435.457 306.459 414.569 308.245C413.097 308.792 413.046 312.764 412.133 315.232C401.379 344.332 381.587 348.377 353.78 348.252C349.463 348.232 317.131 347.993 316.312 347.053C315.676 346.323 315.927 344.427 314.547 344.765C310.679 353.318 302.303 358.712 293.094 359.352C287.771 359.723 241.955 359.877 239.943 359.01C237.049 357.762 237.592 353.752 240.605 352.984C242.393 352.528 247.712 352.974 249.89 352.976L278.213 352.994C285.4 352.996 295.718 354.428 301.834 349.634L301.689 349.249C298.518 350.98 295.859 351.318 293.918 352.384C288.305 355.466 245.891 350.345 236.493 353.057C232.221 354.29 226.25 352.045 224.437 352.5C219.882 350.878 215.211 344.538 211.571 341.42C202.807 333.912 196.02 343.155 189.219 343C188.496 343.208 188.03 343.391 187.419 343.858C182.02 347.988 168.093 348.012 160.788 347.437C160.463 346.984 160.566 346.419 160.549 345.869C165.974 347.681 163.092 342.027 160.774 344.654L160.845 343.707C162.003 342.25 176.314 343.378 181.011 341.881L181.052 341.479C174.941 343.287 141.366 345.407 139.266 335.353C138.58 332.071 140.983 332.123 143.489 331.957C149.03 330.83 162.027 333.336 166.238 331.64C162.867 330.801 152.399 333.629 147.661 331.207C144.321 329.5 145.688 327.239 145.529 331.455C144.795 331.192 144.172 331.065 143.394 330.99L143.131 330.966C137.114 325.964 144.787 327.656 146.437 327.422C151.312 323.907 159.821 325.371 165.553 325.143C177.819 324.654 191.45 325.331 203.029 324.68C199.943 324.031 196.638 324.352 193.515 324.546L193.174 324.301L139.212 324.277C124.581 324.312 130.319 317.849 135.064 317.663C135.498 317.338 151.328 317.566 153.202 317.385C149.219 317.518 145.315 317.691 141.318 317.663C140.003 312.691 138.503 314.185 134.126 312.921L134.035 312.684C136.365 311.201 140.272 311.739 140.985 308.595C139.569 308.568 138.235 308.602 136.853 308.245C131.812 307.97 126.564 308.242 121.504 308.245C113.698 308.677 99.0515 308.485 92.1062 307.065C69.4487 302.433 55.5668 279.589 60.4069 257.297C65.7067 232.887 87.7539 223.055 110.608 228.118L110.096 223.5C105.984 184.379 131.361 145.83 171.695 141.853C192.416 139.81 206.926 145.544 222.366 158.18C226.384 152.95 230.428 148.336 235.506 144.078C237.111 142.731 245.061 137.513 245.577 136.782Z"/>
	<path fill="#768699" transform="scale(2 2)" d="M245.577 136.782C261.684 87.0731 313.028 60.4287 362.994 76.9345C424.125 97.1288 449.306 177.138 403.916 225.302C394.329 229.379 398.54 219.336 398.754 214.33C400.132 182.076 369.809 158.206 338.874 168.691C335.961 169.678 333.201 171.057 330.428 172.376C319.193 139.806 284.137 122.188 251.377 134.776C249.451 135.516 247.657 136.536 245.577 136.782Z"/>
	<path fill="#F9F9F9" transform="scale(2 2)" d="M264.1 308.245C269.773 308.01 275.543 308.24 281.228 308.241L414.569 308.245C413.097 308.792 413.046 312.764 412.133 315.232C401.379 344.332 381.587 348.377 353.78 348.252C349.463 348.232 317.131 347.993 316.312 347.053C315.676 346.323 315.927 344.427 314.547 344.765C310.679 353.318 302.303 358.712 293.094 359.352C287.771 359.723 241.955 359.877 239.943 359.01C237.049 357.762 237.592 353.752 240.605 352.984C242.393 352.528 247.712 352.974 249.89 352.976L278.213 352.994C285.4 352.996 295.718 354.428 301.834 349.634L301.689 349.249C298.518 350.98 295.859 351.318 293.918 352.384C288.305 355.466 245.891 350.345 236.493 353.057C232.221 354.29 226.25 352.045 224.437 352.5C219.882 350.878 215.211 344.538 211.571 341.42C202.807 333.912 196.02 343.155 189.219 343C188.496 343.208 188.03 343.391 187.419 343.858C182.02 347.988 168.093 348.012 160.788 347.437C160.463 346.984 160.566 346.419 160.549 345.869C165.974 347.681 163.092 342.027 160.774 344.654L160.845 343.707C162.003 342.25 176.314 343.378 181.011 341.881L181.052 341.479C174.941 343.287 141.366 345.407 139.266 335.353C138.58 332.071 140.983 332.123 143.489 331.957C149.03 330.83 162.027 333.336 166.238 331.64C162.867 330.801 152.399 333.629 147.661 331.207C144.321 329.5 145.688 327.239 145.529 331.455C144.795 331.192 144.172 331.065 143.394 330.99L143.131 330.966C137.114 325.964 144.787 327.656 146.437 327.422C151.312 323.907 159.821 325.371 165.553 325.143C177.819 324.654 191.45 325.331 203.029 324.68C199.943 324.031 196.638 324.352 193.515 324.546L193.174 324.301C196.986 324.06 200.962 324.293 204.788 324.295L229.259 324.31C245.837 324.311 255.086 324.478 264.1 308.245Z"/>
	<path fill="#45658B" transform="scale(2 2)" d="M301.834 349.634C313.476 343.098 313.38 323.357 299.632 319.282C293.795 317.551 285.501 319.736 283.879 326.373C282.337 332.678 285.876 332.228 287.846 336.054C289.89 340.024 282.089 343.782 278.396 334.635C274.888 325.944 279.519 316.986 288.03 313.689C306.516 306.527 322.889 325.888 314.547 344.765C310.679 353.318 302.303 358.712 293.094 359.352C287.771 359.723 241.955 359.877 239.943 359.01C237.049 357.762 237.592 353.752 240.605 352.984C242.393 352.528 247.712 352.974 249.89 352.976L278.213 352.994C285.4 352.996 295.718 354.428 301.834 349.634Z"/>
	<path fill="#DADADC" transform="scale(2 2)" d="M143.489 331.957L175.25 331.948C181.034 331.947 189.533 331.39 195.049 332.679C190.692 335.835 185.879 339.112 181.052 341.479C174.941 343.287 141.366 345.407 139.266 335.353C138.58 332.071 140.983 332.123 143.489 331.957Z"/>
	<defs>
		<linearGradient id="gradient_0" gradientUnits="userSpaceOnUse" x1="200.90581" y1="274.21906" x2="196.01262" y2="329.26273">
			<stop offset="0" stop-color="#435F82"/>
			<stop offset="1" stop-color="#577595"/>
		</linearGradient>
	</defs>
	<path fill="url(#gradient_0)" transform="scale(2 2)" d="M231.965 282.326C241.673 275.329 247.472 277.412 256.648 281.704C264.853 290.527 265.879 297.039 264.1 308.245C255.086 324.478 245.837 324.311 229.259 324.31L204.788 324.295C200.962 324.293 196.986 324.06 193.174 324.301L139.212 324.277C124.581 324.312 130.319 317.849 135.064 317.663C135.498 317.338 151.328 317.566 153.202 317.385C149.219 317.518 145.315 317.691 141.318 317.663C140.003 312.691 138.503 314.185 134.126 312.921L134.035 312.684C136.365 311.201 140.272 311.739 140.985 308.595C139.569 308.568 138.235 308.602 136.853 308.245L256.648 308.245C264.666 292.066 245.783 276.104 234.488 289.362C228.937 295.877 233.112 297.664 237.585 301.387C241.989 305.054 235.042 310.39 228.832 303.739C222.475 296.931 225.816 287.9 231.965 282.326Z"/>
	<path fill="#F9F9F9" transform="scale(2 2)" d="M136.853 308.245L256.648 308.245C249.816 319.222 240.709 317.694 229.427 317.681L157.594 317.662C150.123 317.664 142.516 317.969 135.064 317.663C135.498 317.338 151.328 317.566 153.202 317.385C149.219 317.518 145.315 317.691 141.318 317.663C140.003 312.691 138.503 314.185 134.126 312.921L134.035 312.684C136.365 311.201 140.272 311.739 140.985 308.595C139.569 308.568 138.235 308.602 136.853 308.245Z"/>
	<path fill="#51B8DC" transform="scale(2 2)" d="M193.174 255.509C193.167 254.331 191.746 234.336 197.877 239.976C200.281 242.188 199.1 252.044 199.24 255.509C201.762 253.166 207.164 246.034 210.146 245.514C212.959 245.024 214.918 247.971 213.379 250.306C211.452 253.229 206.338 256.746 203.678 259.98C208.418 259.992 213.169 259.829 217.908 259.98C227.395 267.754 206.335 266.101 203.678 266.175C204.208 266.656 220.809 280.41 211.507 280.697C208.303 280.796 201.715 272.866 199.24 270.444C199.483 274.157 199.277 277.98 199.24 281.704C198.713 286.591 193.822 287.944 193.174 282.326L193.174 270.444C190.417 272.961 177.849 286.666 178.219 277.728C178.348 274.605 186.705 268.11 189.219 266.175C186.277 266.142 175.937 266.763 173.831 266.089C171.613 265.379 171.334 262.26 172.957 260.813C174.626 259.325 186.32 259.951 189.219 259.98C188.767 259.59 171.811 245.712 180.972 245.698C184.33 245.693 190.666 253.065 193.174 255.509Z"/>
	<path fill="#F9F9F9" transform="scale(2 2)" d="M157.18 164.566C159.211 164.729 161.15 165.515 161.698 167.716C162.767 172.014 154.512 175.1 151.729 177.149C143.778 183.004 138.053 192.492 135.946 202.052C135.056 206.092 136.465 213.934 131.223 214.971C124.855 214.884 125.568 211.049 126.287 205.643C128.359 190.084 140.969 167.795 157.18 164.566Z"/>
	<path fill="#51B8DC" transform="scale(2 2)" d="M144.839 390.026C151.491 389.811 148.789 402.731 148.761 408.364C151.049 406.231 160.043 393.268 163.76 398.931C166.469 403.061 154.658 408.716 154.188 411.593C156.115 413.455 166.688 410.388 169.894 412.876C179.518 420.343 154.258 418.381 152.775 418.253C156.141 420.683 163.273 425.666 163.501 429.63C164.084 439.736 149.264 423.1 149.079 422.945L148.761 422.682C148.799 426.952 150.634 437.059 146.599 439.716C140.391 440.509 142.57 426.388 142.612 422.682C138.872 425.993 135.796 430.864 131.223 433.018C122.821 429.126 134.349 422.003 138.902 418.253C137.682 418.254 115.148 420.219 121.917 413.074C123.61 411.286 135.847 412.06 138.902 412.012C137.783 410.833 120.796 397.092 131.294 397.125C133.999 397.134 140.46 406.087 142.612 408.364C142.608 404.067 140.673 392.824 144.839 390.026Z"/>
	<path fill="#DADADC" transform="scale(2 2)" d="M189.219 343C196.02 343.155 202.807 333.912 211.571 341.42C215.211 344.538 219.882 350.878 224.437 352.5C225.731 353.062 227.193 353.273 228.569 353.569C217.509 359.069 200.636 376.921 188.116 365.172C183.92 361.235 199.118 354.321 203.457 359.798L203.678 360.082C203.501 361.693 202.494 365.38 203.612 366.615C206.384 369.677 213.094 359.933 201.896 352.979C202.89 351.186 203.938 349.557 204.67 347.627C202.021 348.683 199.68 350.375 197.223 351.801C187.428 357.487 169.276 360.851 160.47 351.524C153.714 344.368 179.059 350.636 189.219 343Z"/>
	<path fill="#C5E8F2" transform="scale(2 2)" d="M95.0067 340.258C101.31 339.976 98.4611 351.007 98.7245 356.319C100.626 355.082 112.289 340.957 113.299 348.321C113.679 351.09 105.182 358.73 103.289 361.258C103.991 361.254 124.604 359.614 118.52 365.199C116.104 367.418 106.805 366.647 103.289 366.631C104.022 367.884 118.958 381.209 110.559 381.5C107.712 381.599 101.026 373.554 98.7245 371.482C98.7209 375.119 100.263 385.896 97.1015 388.247C90.466 389.309 93.2208 376.734 93.2478 371.482C90.1485 373.045 82.8546 383.152 79.4319 380.342C76.8073 378.187 86.2177 369.105 88.3763 366.631C85.2354 366.655 74.9191 367.272 72.7956 365.035C67.1978 359.139 87.1287 361.118 88.3763 361.258C86.372 357.894 76.7123 351.076 79.1425 346.946C81.3432 343.206 90.362 353.868 93.2478 356.319C92.7694 352.433 91.0113 342.695 95.0067 340.258Z"/>
	<path fill="#C5E8F2" transform="scale(2 2)" d="M262.539 385.042C268.809 384.598 266.442 395.65 266.385 399.518C268.011 397.287 272.648 390.809 275.808 391.104C284.104 391.878 272.184 402.202 270.335 403.619C273.901 403.115 281.133 401.45 283.745 403.753C291.225 410.348 271.562 409.7 270.335 409.703C272.405 411.885 279.467 417.252 279.417 420.124C279.262 429.059 267.156 414.485 266.385 413.565C266.134 417.311 267.847 425.989 264.1 428.108C257.608 428.804 260.006 418.786 259.996 413.565C257.643 415.825 253.774 422.467 250.202 422.564C240.918 422.815 255.348 410.377 256.059 409.703C254.329 409.841 236.883 410.591 243.164 404.514C245.486 402.267 252.958 403.463 256.059 403.619C254.934 402.525 241.3 390.495 249.814 389.841C252.401 389.643 258.089 397.455 259.996 399.518C259.966 395.909 258.142 386.473 262.539 385.042Z"/>
</svg>
