<?xml version="1.0" encoding="utf-8" ?>
<svg xmlns="http://www.w3.org/2000/svg" xmlns:xlink="http://www.w3.org/1999/xlink" width="1024" height="1024">
	<defs>
		<linearGradient id="gradient_0" gradientUnits="userSpaceOnUse" x1="255.48782" y1="226.83994" x2="256.80991" y2="449.34531">
			<stop offset="0" stop-color="#1F43BB"/>
			<stop offset="1" stop-color="#4992E0"/>
		</linearGradient>
	</defs>
	<path fill="url(#gradient_0)" transform="scale(2 2)" d="M99.7222 78.5978C101.281 76.9754 103.696 75.6255 105.582 74.3711C135.192 54.6784 165.957 59.2532 199.594 59.2541L336.516 59.252C348.781 59.25 361.339 58.3598 373.39 60.9919C390.736 64.7806 415.817 77.0759 426.337 92.0852C438.46 105.931 446.408 122.213 449.907 140.25C452.431 153.497 451.753 167.014 451.753 180.436L451.749 228.295L451.755 341.651C451.774 371.263 449.853 386.913 431.218 411.398C429.232 414.007 427.119 417.368 424.46 419.319C394.102 453.183 355.189 449.022 314.918 449.023L179.757 449.028C145.751 449.028 118.816 448.051 91.8166 422.547C78.9629 413.931 65.8547 387.646 62.3338 372.976C59.9232 362.931 60.2962 352.302 60.3017 342.047L60.3086 228.295C60.6232 212.469 60.3009 196.568 60.3005 180.736C60.2998 154.33 60.3403 123.777 77.8371 101.781C80.6335 96.6458 87.9421 88.3571 92.6513 84.7728C94.174 82.4704 97.4734 80.234 99.7222 78.5978Z"/>
	<defs>
		<linearGradient id="gradient_1" gradientUnits="userSpaceOnUse" x1="254.93524" y1="293.08017" x2="257.28159" y2="68.133995">
			<stop offset="0" stop-color="#547ACF"/>
			<stop offset="1" stop-color="#A0B9EB"/>
		</linearGradient>
	</defs>
	<path fill="url(#gradient_1)" transform="scale(2 2)" d="M99.7222 78.5978C101.281 76.9754 103.696 75.6255 105.582 74.3711C135.192 54.6784 165.957 59.2532 199.594 59.2541L336.516 59.252C348.781 59.25 361.339 58.3598 373.39 60.9919C390.736 64.7806 415.817 77.0759 426.337 92.0852C438.46 105.931 446.408 122.213 449.907 140.25C452.431 153.497 451.753 167.014 451.753 180.436L451.749 228.295C448.184 229.495 443.471 234.029 440.126 236.291C415.232 253.125 375.088 272.924 345.059 279.895C342.894 275.88 341.492 271.473 340.566 267.015C339.543 272.908 338.088 279.349 333.501 283.591C330.569 283.277 323.56 285.664 320.27 286.345C287.896 293.044 263.168 294.227 230.216 292.33C227.583 292.179 224.475 291.359 221.902 291.982L221.314 292.52C216.497 285.889 211.763 279.218 207.737 272.068C183.701 229.383 187.771 175.314 217.269 136.224C221.391 130.761 226.265 126.213 230.718 121.083C172.399 133.209 124.772 184.578 120.848 244.688C120.419 251.25 120.715 257.79 120.684 264.355C104.173 257.681 82.5344 245.024 68.8736 234.404C66.2015 232.327 63.5506 229.384 60.3086 228.295C60.6232 212.469 60.3009 196.568 60.3005 180.736C60.2998 154.33 60.3403 123.777 77.8371 101.781C80.6335 96.6458 87.9421 88.3571 92.6513 84.7728C94.174 82.4704 97.4734 80.234 99.7222 78.5978Z"/>
	<path fill="#9CB6EB" transform="scale(2 2)" d="M99.7222 78.5978C101.281 76.9754 103.696 75.6255 105.582 74.3711C135.192 54.6784 165.957 59.2532 199.594 59.2541L336.516 59.252C348.781 59.25 361.339 58.3598 373.39 60.9919C390.736 64.7806 415.817 77.0759 426.337 92.0852C426.027 92.784 426.089 93.1218 426.188 93.8574C424.108 94.9622 419.144 91.6382 416.874 91.2174C414.531 90.7832 411.445 91.1407 409.044 91.2822C402.687 91.6566 398.977 86.8795 395.004 86.1794C388.806 85.0871 382.875 82.1683 376.87 80.2504C361.187 75.242 350.319 74.9524 334.136 73.8141C329.122 73.4614 324.27 71.7942 319.266 71.508C312.759 71.1357 306.274 72.2682 299.876 71.0865C292.042 69.6397 284.789 71.0706 277.082 71.2692C274.79 71.3283 272.559 70.3006 270.251 70.1781C267.026 70.0068 263.759 70.529 260.502 70.3486L260.046 70.3214L259.987 70.9576C259.487 71.3858 254.017 70.5273 252.816 70.5608L252.367 71.8814L252.177 71.8582C251.461 69.6036 238.622 70.3499 236.064 70.478C227.192 70.9224 228.401 70.888 219.082 69.965C214.568 69.5178 210.07 69.7882 205.543 69.1717C192.045 67.3333 185.759 67.1862 171.645 69.1363C168.33 69.5944 167.751 70.3456 164.258 69.6096C159.357 68.5769 129.682 76.0972 120.109 77.6688C116.815 78.2095 111.998 76.9311 109.221 78.8287C105.361 81.4662 107.934 76.9926 104.062 80.1816C102.183 79.1034 99.8642 81.2456 98.2169 82.1663L98.031 82.0479C98.3281 80.6778 99.9358 80.2048 99.7222 78.5978Z"/>
	<path fill="#9CB6EB" transform="scale(2 2)" d="M77.8371 101.781C80.6335 96.6458 87.9421 88.3571 92.6513 84.7728L92.7707 85.2956C92.1766 85.9885 91.4653 86.5135 90.8096 87.1352L91.2865 87.2665L91.7507 86.7192L92.1454 86.7638C92.1415 87.5984 91.2319 87.6914 91.0815 88.4919C90.7336 90.3437 89.1281 92.5215 89.0944 89.3929C84.7107 91.7869 80.8217 100.247 77.8371 101.781Z"/>
	<path fill="#FCFCFC" transform="scale(2 2)" d="M264.12 158.206C262.082 151.989 270.189 150.07 270.838 144.62C271.208 141.51 268.408 133.801 272.31 132.4C275.967 131.086 280.351 135.937 284.045 135.534C287.049 135.206 297.175 128.489 298.099 134.477C298.664 138.138 296.595 141.88 297.605 145.576C299.064 150.92 309.721 152.755 304.227 159.673C304.66 160.449 304.231 170.91 304.227 172.77C299.535 172.798 294.844 172.833 290.152 172.77C288.065 176.038 286.03 186.151 279.968 182.193C277.388 180.508 276.095 174.888 275.451 172.047C271.278 171.993 267.101 172.038 262.928 172.047C263.008 169.033 261.343 159.957 264.12 158.206Z"/>
	<path fill="#6484D7" transform="scale(2 2)" d="M264.12 158.206C267.596 161.027 273.35 158.951 276.266 161.883C278.451 164.08 281.396 172.416 284.78 171.819C289.638 170.961 289.394 161.996 294.507 160.557C297.707 159.658 301.023 160.264 304.227 159.673C304.66 160.449 304.231 170.91 304.227 172.77C299.535 172.798 294.844 172.833 290.152 172.77C288.065 176.038 286.03 186.151 279.968 182.193C277.388 180.508 276.095 174.888 275.451 172.047C271.278 171.993 267.101 172.038 262.928 172.047C263.008 169.033 261.343 159.957 264.12 158.206Z"/>
	<path fill="#FCFCFC" transform="scale(2 2)" d="M352.428 223.652C345.233 221.658 349.233 217.671 352.355 213.582C357.27 207.145 351.827 201.909 354.68 198.543C357.603 195.094 363.467 199.953 367.008 200.301C370.573 200.651 373.711 196.761 377.331 196.579C382.699 196.309 380.332 206.009 380.408 209.031L380.419 209.406C383.335 214.441 392.924 218.399 384.035 223.652C394.052 234.028 376.982 237.144 373.788 239.594C372.048 240.929 368.892 246.321 367.491 246.519C362.276 244.183 364.716 239.024 353.806 238.636C351.45 238.553 349.077 238.463 346.72 238.541C346.489 232.203 347.352 227.809 352.428 223.652Z"/>
	<path fill="#6484D7" transform="scale(2 2)" d="M352.428 223.652C358.952 225.279 359.709 225.027 363.531 230.819C369.731 240.214 371.72 231.305 375.217 226.769C377.25 224.132 381.001 223.989 384.035 223.652C394.052 234.028 376.982 237.144 373.788 239.594C372.048 240.929 368.892 246.321 367.491 246.519C362.276 244.183 364.716 239.024 353.806 238.636C351.45 238.553 349.077 238.463 346.72 238.541C346.489 232.203 347.352 227.809 352.428 223.652Z"/>
	<path fill="#FCFCFC" transform="scale(2 2)" d="M120.684 264.355C120.715 257.79 120.419 251.25 120.848 244.688C124.772 184.578 172.399 133.209 230.718 121.083C226.265 126.213 221.391 130.761 217.269 136.224C187.771 175.314 183.701 229.383 207.737 272.068C211.763 279.218 216.497 285.889 221.314 292.52C252.748 328.966 303.463 344.95 350.086 331.688C357.542 329.566 364.622 326.496 371.744 323.475C349.862 355.989 320.075 381.223 280.06 387.592C207.6 399.126 139.7 353.801 123.411 282.23C122.062 276.302 121.625 270.341 120.684 264.355Z"/>
	<path fill="#06F1F5" transform="scale(2 2)" d="M340.566 267.015C341.492 271.473 342.894 275.88 345.059 279.895C350.117 287.451 356.011 287.642 363.965 290.322C348.199 291.427 342.764 298.907 340.566 313.646C338.942 299.077 332.075 291.33 317.342 290.322C322.898 289.256 329.492 287.949 333.501 283.591C338.088 279.349 339.543 272.908 340.566 267.015Z"/>
</svg>
