<?xml version="1.0" encoding="utf-8" ?>
<svg xmlns="http://www.w3.org/2000/svg" xmlns:xlink="http://www.w3.org/1999/xlink" width="1024" height="1024">
	<defs>
		<linearGradient id="gradient_0" gradientUnits="userSpaceOnUse" x1="328.89386" y1="388.95654" x2="322.52402" y2="241.68408">
			<stop offset="0" stop-color="#D9E4E7"/>
			<stop offset="1" stop-color="#FFFCFA"/>
		</linearGradient>
	</defs>
	<path fill="url(#gradient_0)" transform="scale(2 2)" d="M254.898 162.274C266.94 129.984 302.05 112.298 334.789 124.45C360.991 134.177 365.657 146.92 377.188 168.374C382.002 168.898 386.877 168.963 391.648 169.832C422.676 175.479 443.37 205.465 440.062 236.375C438.981 246.474 434.87 255.338 429.42 263.763C430.978 266.254 433.865 267.82 435.78 270.043C448.237 284.499 449.675 297.571 442.642 314.396C453.031 342.259 441.143 373.012 412.606 383.626C402.791 387.277 392.246 386.773 381.96 386.773L259.767 386.772C257.01 386.79 249.783 387.285 247.491 386.763C241.91 387.059 236.163 386.773 230.562 386.771L196.009 386.763L116.372 386.774C112.979 386.79 109.517 387.07 106.137 386.716C65.6061 382.477 58.8385 319.279 98.8412 303.927C104.865 301.616 124.03 299.894 123.993 297.575L124.261 297.865C123.43 296.542 125.727 297.832 126.481 296.991C127.9 295.409 129.115 288.608 132.584 284.925C134.031 283.389 140.509 279.02 140.937 277.849C149.43 271.886 160.791 274.594 168.899 279.814C173.653 267.694 180.074 261.294 190.324 253.816C188.131 252.551 185.47 243.873 184.541 241.124C175.148 213.325 191.674 181.602 219.297 172.568C227.41 169.915 244.825 168.207 252.672 172.217C253.345 168.892 254.324 165.616 254.898 162.274Z"/>
	<defs>
		<linearGradient id="gradient_1" gradientUnits="userSpaceOnUse" x1="310.65424" y1="261.27002" x2="312.11496" y2="120.72002">
			<stop offset="0" stop-color="#C9D5D7"/>
			<stop offset="1" stop-color="#FBF6F4"/>
		</linearGradient>
	</defs>
	<path fill="url(#gradient_1)" transform="scale(2 2)" d="M254.898 162.274C266.94 129.984 302.05 112.298 334.789 124.45C360.991 134.177 365.657 146.92 377.188 168.374C382.002 168.898 386.877 168.963 391.648 169.832C422.676 175.479 443.37 205.465 440.062 236.375C438.981 246.474 434.87 255.338 429.42 263.763L429.42 263.763C424.906 269.886 419.056 275.853 412.509 279.814C399.795 272.382 392.596 269.196 377.188 268.158C357.486 242.81 319.547 230.681 292.706 251.601C286.331 256.569 277.698 266.306 275.603 274.19C273.245 276.06 265.365 274.747 262.259 274.746C261.771 274.115 261.305 273.492 260.719 272.946C257.209 265.629 251.355 259.123 245.295 253.816C244.437 252.097 241.268 250.74 239.476 250.359C220.871 242.094 207.211 244.628 190.324 253.816C188.131 252.551 185.47 243.873 184.541 241.124C175.148 213.325 191.674 181.602 219.297 172.568C227.41 169.915 244.825 168.207 252.672 172.217C253.345 168.892 254.324 165.616 254.898 162.274Z"/>
	<path fill="#B3CBD3" transform="scale(2 2)" d="M275.603 258.192C279.676 246.337 293.629 232.753 304.745 227.348C331.247 214.461 362.497 221.02 379.389 245.736C382.142 249.764 384.347 254.145 387.069 258.192C396.054 253.572 405.023 251.966 414.851 255.091C417.847 256.044 428.093 261.177 429.42 263.763C424.906 269.886 419.056 275.853 412.509 279.814C399.795 272.382 392.596 269.196 377.188 268.158C357.486 242.81 319.547 230.681 292.706 251.601C286.331 256.569 277.698 266.306 275.603 274.19C273.245 276.06 265.365 274.747 262.259 274.746C261.771 274.115 261.305 273.492 260.719 272.946C257.209 265.629 251.355 259.123 245.295 253.816C255.381 250.195 267.088 251.606 275.603 258.192Z"/>
	<defs>
		<linearGradient id="gradient_2" gradientUnits="userSpaceOnUse" x1="209.23056" y1="394.25085" x2="153.02736" y2="270.49115">
			<stop offset="0" stop-color="#94BAC7"/>
			<stop offset="1" stop-color="#FBF7F4"/>
		</linearGradient>
	</defs>
	<path fill="url(#gradient_2)" transform="scale(2 2)" d="M190.324 253.816C207.211 244.628 220.871 242.094 239.476 250.359C241.268 250.74 244.437 252.097 245.295 253.816C251.355 259.123 257.209 265.629 260.719 272.946C261.305 273.492 261.771 274.115 262.259 274.746C265.365 274.747 273.245 276.06 275.603 274.19C273.859 278.127 272.619 282.229 271.328 286.33C256.004 283.727 242.347 284.857 229.321 294.163C199.925 315.164 199.755 356.935 228.717 378.721C235.972 383.086 242.967 384.125 247.491 386.763C241.91 387.059 236.163 386.773 230.562 386.771L196.009 386.763L116.372 386.774C112.979 386.79 109.517 387.07 106.137 386.716C65.6061 382.477 58.8385 319.279 98.8412 303.927C104.865 301.616 124.03 299.894 123.993 297.575L124.261 297.865C123.43 296.542 125.727 297.832 126.481 296.991C127.9 295.409 129.115 288.608 132.584 284.925C134.031 283.389 140.509 279.02 140.937 277.849C149.43 271.886 160.791 274.594 168.899 279.814C173.653 267.694 180.074 261.294 190.324 253.816Z"/>
	<path fill="#DCE6E9" transform="scale(2 2)" d="M239.476 250.359C241.268 250.74 244.437 252.097 245.295 253.816C251.355 259.123 257.209 265.629 260.719 272.946L260.372 273.295C259.463 273.266 258.879 272.615 258.009 272.444C247.852 270.453 235.093 270.746 225.301 274.746C229.618 265.672 235.357 257.45 245.295 253.816C243.388 252.61 241.322 251.662 239.476 250.359Z"/>
	<path fill="#B3CBD3" transform="scale(2 2)" d="M228.717 378.721C235.972 383.086 242.967 384.125 247.491 386.763C241.91 387.059 236.163 386.773 230.562 386.771L196.009 386.763C195.516 386.682 195.081 386.524 194.612 386.352C197.204 385.214 224.267 389.075 228.716 385.326C228.882 384.724 229.048 384.195 229.317 383.627L230.571 383.521C230.735 382.951 230.8 382.993 230.6 382.388L229.582 382.341C229.473 381.559 230.214 380.702 230.137 380.313C230.018 379.708 228.965 379.538 228.717 378.721Z"/>
	<path fill="#DCE6E9" transform="scale(2 2)" d="M429.42 263.763L429.42 263.763C430.978 266.254 433.865 267.82 435.78 270.043C448.237 284.499 449.675 297.571 442.642 314.396C441.68 313.04 440.937 311.514 440.025 310.117C427.191 290.48 407.531 282.775 385.174 282.781C382.355 278.112 379.75 272.995 377.188 268.158C392.596 269.196 399.795 272.382 412.509 279.814C419.056 275.853 424.906 269.886 429.42 263.763Z"/>
	<defs>
		<linearGradient id="gradient_3" gradientUnits="userSpaceOnUse" x1="109.49066" y1="297.26169" x2="186.1194" y2="120.75314">
			<stop offset="0" stop-color="#CCE0E6"/>
			<stop offset="1" stop-color="#F9F8F7"/>
		</linearGradient>
	</defs>
	<path fill="url(#gradient_3)" transform="scale(2 2)" d="M121.662 160.883C123.221 157.439 123.915 153.683 125.322 150.18C135.036 125.998 163.081 114.62 187.619 121.412C206.764 126.711 213.996 136.02 221.802 152.604C226.15 161.842 223.305 158.21 232.583 157.478C239.123 156.962 249.599 157.635 254.588 162.378L254.898 162.274C254.324 165.616 253.345 168.892 252.672 172.217C244.825 168.207 227.41 169.915 219.297 172.568C191.674 181.602 175.148 213.325 184.541 241.124C185.47 243.873 188.131 252.551 190.324 253.816C180.074 261.294 173.653 267.694 168.899 279.814C160.791 274.594 149.43 271.886 140.937 277.849C133.004 282.209 128.851 288.566 126.306 297.057C114.445 295.378 108.662 298.236 96.8838 292.37C73.4115 280.679 61.3494 250.426 73.333 226.875C58.2372 208.658 67.6605 173.572 89.2286 163.206C98.6077 158.698 111.752 157.419 121.662 160.883Z"/>
</svg>
