<?xml version="1.0" encoding="utf-8" ?>
<svg xmlns="http://www.w3.org/2000/svg" xmlns:xlink="http://www.w3.org/1999/xlink" width="1024" height="1024">
	<path fill="#FCFCFC" transform="scale(2 2)" d="M279.757 135.177C292.175 123.18 314.54 117.348 331.587 117.631C383.244 118.488 419.199 167.082 408.43 217.04C455.081 224.578 470.195 287.309 431.416 314.897C416.068 325.816 403.164 326.23 385.107 325.718L383.476 325.718C382.713 326.924 383.517 329.333 383.591 330.704C384.211 342.121 379.339 362.658 370.282 370.356C351.935 389.564 338.696 389.552 315.132 389.499L133.409 389.506C122.878 389.506 110.504 390.308 100.257 388.409C77.4422 384.181 60.1255 362.827 59.4484 339.896C58.3099 318.675 72.123 297.289 90.4713 287.049C106.826 277.921 100.708 286.845 102.391 264.979C105.724 221.671 142.514 188.587 185.339 187.044C199.988 170.804 216.869 161.063 239.582 161.658C244.125 161.777 248.626 162.604 253.167 162.834C259.59 155.043 271.859 138.504 279.757 135.177Z"/>
	<path fill="#C6C9D4" transform="scale(2 2)" d="M279.757 135.177C292.175 123.18 314.54 117.348 331.587 117.631C383.244 118.488 419.199 167.082 408.43 217.04C455.081 224.578 470.195 287.309 431.416 314.897C416.068 325.816 403.164 326.23 385.107 325.718L383.476 325.718C384.022 313.161 370.635 296.177 360.798 289.25C350.667 283.386 342.976 280.654 331.103 280.201C328.379 245.203 294.676 226.515 263.53 240.999C251.455 208.893 226.253 187.671 190.53 187.104C188.783 187.076 187.082 187.296 185.339 187.044C199.988 170.804 216.869 161.063 239.582 161.658C244.125 161.777 248.626 162.604 253.167 162.834C259.59 155.043 271.859 138.504 279.757 135.177Z"/>
	<path fill="#8E9EBE" transform="scale(2 2)" d="M279.757 135.177C292.175 123.18 314.54 117.348 331.587 117.631C383.244 118.488 419.199 167.082 408.43 217.04C455.081 224.578 470.195 287.309 431.416 314.897C416.068 325.816 403.164 326.23 385.107 325.718L383.476 325.718C384.022 313.161 370.635 296.177 360.798 289.25C363.022 285.569 365.382 282.054 367.371 278.229C371.849 271.173 375.692 259.182 377.454 250.994C390.218 191.692 347.446 137.93 287.012 135.191C284.619 135.083 282.104 135.82 279.757 135.177Z"/>
	<path fill="#7B8DB3" transform="scale(2 2)" d="M367.371 278.229L367.644 278.501C382.203 292.826 394.517 301.2 394.003 325.718C391.151 325.504 387.906 325.049 385.107 325.718L383.476 325.718C384.022 313.161 370.635 296.177 360.798 289.25C363.022 285.569 365.382 282.054 367.371 278.229Z"/>
</svg>
