<?xml version="1.0" encoding="utf-8" ?>
<svg xmlns="http://www.w3.org/2000/svg" xmlns:xlink="http://www.w3.org/1999/xlink" width="1024" height="1024">
	<path fill="#E7E7E7" transform="scale(2 2)" d="M72.3855 248.578C67.3592 237.192 70.429 210.087 74.2465 198.986C81.6142 177.562 99.6497 157.815 120.854 149.254C140.425 141.352 132.353 149.275 141.619 131.623C161.085 94.5406 202.964 72.956 243.836 87.2942C268.914 96.092 284.747 113.045 295.866 136.258C300.235 136.889 304.464 136.291 308.847 136.257C344.896 135.973 371.932 157.626 386.164 190.245C437.967 190.266 461.71 255.259 424.862 291.36C405.184 310.64 387.716 308.898 362.517 308.901L209.462 308.896C190.821 308.897 172.153 309.12 153.515 308.872C112.896 308.332 85.1986 285.798 72.3855 248.578Z"/>
	<path fill="#CACCCC" transform="scale(2 2)" d="M386.164 190.245C437.967 190.266 461.71 255.259 424.862 291.36C405.184 310.64 387.716 308.898 362.517 308.901L209.462 308.896C190.821 308.897 172.153 309.12 153.515 308.872C112.896 308.332 85.1986 285.798 72.3855 248.578C73.1801 247.956 76.131 251.921 76.6594 252.542C106.18 287.245 122.055 292.841 167.383 292.805L300.167 292.814C311.761 292.814 323.212 292.684 334.483 289.472C378.32 276.978 398.537 232.859 386.164 190.245Z"/>
	<path fill="#E7E7E7" transform="scale(2 2)" d="M124.941 370.461C136.011 368.432 150.65 370.412 162.149 370.454L400.876 370.593C406.804 370.617 422.157 368.517 426.678 372.66C431.489 377.069 429.441 385.29 422.858 386.61C415.427 388.099 397.698 387.184 389.719 387.172L141.805 387.174C137.54 387.17 133.244 386.865 128.994 386.922L106.239 387.186C98.4391 387.201 89.2174 388.784 84.243 381.501C83.7785 367.709 96.6557 370.497 106.188 370.453C112.456 370.424 118.674 370.167 124.941 370.461Z"/>
	<path fill="#E7E7E7" transform="scale(2 2)" d="M257.06 408.604L257.971 408.565C264.879 408.338 271.894 408.598 278.815 408.6L349.061 408.606C355.551 408.603 369.405 406.293 369.078 416.47C368.769 426.09 355.954 423.785 349.572 423.786L326.499 423.789C303.361 423.789 280.194 424.032 257.06 423.785L162.212 423.784C157.225 423.796 149.814 425.221 145.722 421.619C142.856 419.096 144.322 413.131 146.63 410.756C149.794 407.5 161.28 408.591 165.468 408.595L243 408.613C247.717 408.648 252.336 408.801 257.06 408.604Z"/>
</svg>
