<?xml version="1.0" encoding="utf-8" ?>
<svg xmlns="http://www.w3.org/2000/svg" xmlns:xlink="http://www.w3.org/1999/xlink" width="1024" height="1024">
	<defs>
		<linearGradient id="gradient_0" gradientUnits="userSpaceOnUse" x1="252.5119" y1="111.14899" x2="257.64566" y2="305.94244">
			<stop offset="0" stop-color="#C6CAE8"/>
			<stop offset="1" stop-color="#EEEFEE"/>
		</linearGradient>
	</defs>
	<path fill="url(#gradient_0)" transform="scale(2 2)" d="M247.674 127.711C265.093 83.3521 314.543 62.0423 359.078 79.441C403.37 96.7451 423.827 144.534 409.479 188.696C409.753 188.91 409.632 188.855 409.951 188.956C451.231 202.067 465.962 250.494 437.421 283.124C418.923 304.271 401.167 303.032 376.254 303.021L151.734 303.025C139.82 303.016 123.444 303.921 111.792 302.193C83.4838 297.994 62.1098 273.893 60.5061 245.376C58.7473 214.099 83.2138 188.303 113.89 185.868C118.238 185.523 122.616 185.985 126.98 185.76C127.806 172.754 130.13 162.58 136.245 151.008C154.628 116.221 198.85 102.146 234.099 119.539C238.931 121.924 243.981 126.076 247.674 127.711Z"/>
	<defs>
		<linearGradient id="gradient_1" gradientUnits="userSpaceOnUse" x1="334.02545" y1="74.17157" x2="329.02927" y2="184.11589">
			<stop offset="0" stop-color="#8A90D5"/>
			<stop offset="1" stop-color="#ABB6EC"/>
		</linearGradient>
	</defs>
	<path fill="url(#gradient_1)" transform="scale(2 2)" d="M247.674 127.711C265.093 83.3521 314.543 62.0423 359.078 79.441C403.37 96.7451 423.827 144.534 409.479 188.696C405.999 186.183 382.156 183.49 376.08 182.131C376.746 164.942 371.109 149.287 359.636 136.482C338.338 112.711 293.295 106.105 266.534 124.253C262.228 127.173 258.297 130.661 254.427 134.128C252.262 131.582 249.136 129.516 247.674 127.711Z"/>
	<path fill="#96DBEF" transform="scale(2 2)" d="M105.687 418.255C122.096 417.985 138.554 418.257 154.968 418.258L332.764 418.256C337.416 418.254 343.563 417.209 347.544 420.195C353.727 424.833 350.795 433.411 343.519 434.105C338.789 434.252 334.012 434.108 329.277 434.108L119.604 434.108C114.677 434.115 106.644 435.449 102.277 432.659C95.5113 428.338 98.7139 419.719 105.687 418.255Z"/>
	<path fill="#E4E7EE" transform="scale(2 2)" d="M146.161 338.979C148.906 338.516 152.084 338.916 154.87 338.946L207.229 338.977C215.812 338.945 224.421 338.766 233 339.017L232.124 339.099C236.631 339.497 256.172 338.507 258.467 339.793C260.139 343.637 257.728 351.405 259.678 344.937C260.091 346.825 259.758 349.535 259.748 351.52L259.123 351.044L259.042 351.109L259 354.124C257.092 354.053 240.459 352.857 239.565 353.698C240.195 354.109 241.017 354.057 241.748 354.107C237.219 354.067 231.8 354.388 227 354.43L188.375 354.722L83.2726 354.728C77.0168 354.726 62.4025 357.036 62.0383 347.566C61.6539 337.57 70.5574 338.948 77.9101 338.972L92.1097 338.985C110.116 338.983 128.159 339.229 146.161 338.979Z"/>
	<path fill="#E4E7EE" transform="scale(2 2)" d="M343.519 378.623C350.149 377.724 366.759 377.202 371.627 383.21C371.901 396.409 359.769 393.879 350.43 394.205C340.133 394.563 329.89 394.76 319.586 394.763L245.813 394.76L232.049 394.775C227.626 394.804 222.585 395.649 219.013 392.376C215.677 389.318 216.302 384.054 219.461 381.101C223.858 376.991 232.584 378.617 238.034 378.617L314.25 378.652C323.993 378.625 333.779 378.406 343.519 378.623Z"/>
	<defs>
		<linearGradient id="gradient_2" gradientUnits="userSpaceOnUse" x1="332.98453" y1="343.1832" x2="403.78433" y2="350.35016">
			<stop offset="0" stop-color="#D9DFEC"/>
			<stop offset="1" stop-color="#FFFFFC"/>
		</linearGradient>
	</defs>
	<path fill="url(#gradient_2)" transform="scale(2 2)" d="M381.875 338.979C386.527 338.996 404.467 337.729 404.525 345.918C404.599 356.63 389.06 354.559 382.876 354.579L356.137 354.722C350.367 354.371 339.217 356.034 334.609 352.635C330.243 349.415 332.066 341.015 337.078 339.502C340.179 338.565 344.604 338.971 347.87 338.965L370.637 338.984C374.217 339.004 377.911 339.406 381.468 339.026L381.875 338.979Z"/>
	<path fill="#E4E7EE" transform="scale(2 2)" d="M136.461 379.287L159.156 379.28C165.247 379.285 175.364 377.471 177.454 385.368C178.645 389.867 175.678 393.833 171.306 394.76L148.578 394.76C143.037 394.755 132.128 396.604 130.071 389.461C128.673 384.606 131.818 380.468 136.461 379.287Z"/>
</svg>
