<?xml version="1.0" encoding="utf-8" ?>
<svg xmlns="http://www.w3.org/2000/svg" xmlns:xlink="http://www.w3.org/1999/xlink" width="1024" height="1024">
	<path fill="#D5E7F1" transform="scale(2 2)" d="M203.321 166.377C221.162 132.571 251.54 108.992 290.237 104.551C353.158 97.3285 400.882 143.349 405.348 203.963C405.54 206.569 405.019 211.895 406.02 214.071C408.873 214.767 411.709 215.674 414.563 216.319C474.517 243.86 459.293 323.771 400.122 329.688C393.324 330.368 386.395 330.13 379.574 330.112L260.845 330.103C255.279 330.127 249.644 329.822 244.091 330.103C235.666 330.816 226.936 330.096 218.475 330.096L130.83 330.103C121.932 330.107 112.817 330.778 104.071 328.849C43.6791 315.533 46.2731 224.803 105.386 216.89C109.374 216.356 113.274 216.407 117.279 216.319C127.217 193.771 134.661 171.631 161.258 162.587C180.139 156.167 187.344 158.516 203.321 166.377Z"/>
	<path fill="#D5E7F1" transform="scale(2 2)" d="M414.563 216.319C474.517 243.86 459.293 323.771 400.122 329.688C393.324 330.368 386.395 330.13 379.574 330.112L260.845 330.103C261.578 327.138 266.737 324.792 268.851 322.574C296.626 293.432 323.178 311.264 353.951 302.125C386.636 292.418 406.086 266.777 411.97 233.901C412.678 229.943 412.644 219.053 414.563 216.319Z"/>
	<path fill="#B0D4EE" transform="scale(2 2)" d="M406.02 214.071C408.873 214.767 411.709 215.674 414.563 216.319C412.644 219.053 412.678 229.943 411.97 233.901C406.086 266.777 386.636 292.418 353.951 302.125C323.178 311.264 296.626 293.432 268.851 322.574C266.737 324.792 261.578 327.138 260.845 330.103C255.279 330.127 249.644 329.822 244.091 330.103C240.422 329.572 245.613 328.036 246.663 327.597C263.367 320.622 265.034 313.036 277.556 306.01C295.861 295.74 311.316 297.425 330.435 297.752C374.344 298.502 405.74 260.676 406.015 218.881C406.024 217.471 405.318 215.336 406.02 214.071Z"/>
	<path fill="#D5E7F1" transform="scale(2 2)" d="M370.084 367.739C372.535 367.689 375.038 367.585 377.478 367.882C399.358 370.55 402.684 403.625 371.781 403.255C362.231 403.14 358.613 400.736 350.551 406.945C338.559 417.461 324.231 412.18 333.947 397.362C341.953 385.152 355.114 370.804 370.084 367.739Z"/>
	<path fill="#D5E7F1" transform="scale(2 2)" d="M130.513 347.724C143.2 347.407 155.828 357.028 149.932 369.512C145.759 378.349 126.669 374.452 117.279 377.666C111.76 379.414 107.746 382.358 104.214 386.952C104.337 368.177 110.355 352.782 130.513 347.724Z"/>
	<path fill="#D5E7F1" transform="scale(2 2)" d="M185.176 368.805C187.897 368.534 189.333 369.864 190.745 372.109C190.785 374.902 190.171 377.701 189.719 380.448C191.434 377.979 192.344 375.95 194.977 374.26C197.865 373.666 202.384 373.711 201.847 378.064C201.4 381.696 197.625 383.938 194.977 385.974C197.823 385.57 200.399 384.754 203.321 384.642C210.262 388.163 204.3 392.874 199.862 394.646C197.937 393.842 196.169 393.183 194.086 392.925C196.798 395.235 202.192 397.407 201.676 401.834C200.945 408.106 193.572 404.198 190.745 399.8C190.651 403.187 191.756 408.277 188.346 410.415C181.321 411.696 181.797 404.763 182.714 399.8C175.053 412.161 163.688 403.342 177.062 394.646C169.319 395.175 158.64 391.55 168.79 385.974C171.701 385.912 174.229 386.387 177.062 386.952C173.621 383.227 170.142 382.56 170.557 376.751C171.303 375.722 171.996 375.027 173.019 374.26C174.113 374.233 175.209 374.254 176.303 374.26C178.834 376.047 180.593 378.241 182.714 380.448C182.07 377.544 181.232 375.122 181.276 372.109C182.319 370.4 183.323 369.557 185.176 368.805Z"/>
	<path fill="#D5E7F1" transform="scale(2 2)" d="M260.845 371.065C268.115 370.563 265.467 377.906 265.72 382.806C267.434 380.904 270.748 375.086 273.736 375.336C283.639 376.162 272.934 385.04 270.485 386.952C273.007 386.844 280.393 386.01 282.188 388.107C287.625 394.463 274.678 395.295 270.485 394.646C272.216 396.269 277.007 399.645 277.235 402.116C278.153 412.078 268.21 402.906 265.72 399.8C265.931 402.747 266.005 405.761 265.72 408.705C264.219 410.642 261.007 411.859 259.249 409.474C257.527 407.138 258.302 402.483 258.597 399.8C256.715 402.137 255.008 404.201 252.374 405.725C241.915 406.254 248.776 397.694 253.905 394.646C245.241 396.712 238.803 391.547 244.111 387.945C246.962 386.01 250.792 387.18 253.905 387.772C251.729 386.136 246.652 383.297 247.075 380.022C248.26 370.843 256.274 379.541 258.597 382.806C258.456 378.64 256.316 373.353 260.845 371.065Z"/>
	<path fill="#D5E7F1" transform="scale(2 2)" d="M315.223 350.316C325.384 349.346 340.715 357.134 331.93 365.987C326.695 371.264 317.772 369.79 310.958 369.772C305.462 370.603 300.714 371.903 296.574 375.769C298.069 363.528 301.899 353.625 315.223 350.316Z"/>
</svg>
