<?xml version="1.0" encoding="utf-8" ?>
<svg xmlns="http://www.w3.org/2000/svg" xmlns:xlink="http://www.w3.org/1999/xlink" width="1024" height="1024">
	<defs>
		<linearGradient id="gradient_0" gradientUnits="userSpaceOnUse" x1="224.75243" y1="316.24646" x2="222.49052" y2="114.82577">
			<stop offset="0" stop-color="#BDDFF4"/>
			<stop offset="1" stop-color="#FFFBF7"/>
		</linearGradient>
	</defs>
	<path fill="url(#gradient_0)" transform="scale(2 2)" d="M119.225 202.047C121.415 195.351 123.659 188.273 127.845 182.524C138.116 168.417 155.538 161.884 172.514 165.092C185.227 167.494 181.432 170.674 187.485 158.261C210.768 110.509 271.089 101.381 310.865 133.404C313.208 135.29 315.502 137.431 318.223 138.758L318.576 138.928C337.391 141.545 348.64 143.975 364.266 155.89C380.021 167.902 388.958 183.678 393.382 202.969C444.58 207.564 463.048 271.405 424.101 303.089C409.05 315.334 395.513 315.722 377.197 315.72L354.283 315.71C351.524 315.917 348.635 315.743 345.864 315.736L132.096 315.254C115.578 315.273 104.09 314.658 89.8259 304.507C65.0386 286.869 60.0483 249.971 77.7696 225.609C88.456 210.919 101.638 204.786 119.225 202.047Z"/>
	<defs>
		<linearGradient id="gradient_1" gradientUnits="userSpaceOnUse" x1="345.06354" y1="317.6138" x2="395.6329" y2="161.60754">
			<stop offset="0" stop-color="#98B9F0"/>
			<stop offset="1" stop-color="#E3EBF2"/>
		</linearGradient>
	</defs>
	<path fill="url(#gradient_1)" transform="scale(2 2)" d="M318.576 138.928C337.391 141.545 348.64 143.975 364.266 155.89C380.021 167.902 388.958 183.678 393.382 202.969C444.58 207.564 463.048 271.405 424.101 303.089C409.05 315.334 395.513 315.722 377.197 315.72L354.283 315.71C348.409 315.09 342.565 315.855 336.767 315.251C340.084 313.173 344.644 312.031 348.27 310.264C374.434 297.511 387.658 267.112 377.752 239.477C371.232 221.287 358.685 210.985 341.745 202.969C341.942 183.129 338.181 164.417 325.667 148.295C324.437 146.709 318.88 140.441 318.576 138.928Z"/>
	<path fill="#E1E4EE" transform="scale(2 2)" d="M118.424 382.745L315.622 382.731C319.605 382.732 323.662 382.618 327.633 382.911C336.927 383.595 338.943 398.533 324.383 397.709C320.473 398.037 316.57 397.735 312.655 397.721L129.475 397.713C124.554 397.711 113.207 398.967 109.369 395.374C106.351 392.55 106.459 387.381 109.461 384.549C111.814 382.328 115.436 382.72 118.424 382.745Z"/>
	<path fill="#699EE5" transform="scale(2 2)" d="M252.893 343.58L375.21 343.575C382.776 343.573 399.931 339.97 400.686 350.623C401.325 359.637 391.035 358.023 385.194 358.025L365.375 358.027L238.268 358.014C233.836 358.011 223.066 359.537 219.525 356.504C215.443 353.007 216.941 345.114 222.415 343.965C226.097 343.193 230.422 343.56 234.183 343.561L252.893 343.58Z"/>
	<path fill="#E1E4EE" transform="scale(2 2)" d="M221.444 419.377L283.265 419.378C287.108 419.364 293.237 418.429 296.235 421.442C300.469 425.696 298.388 432.758 292.546 433.728C283.799 435.18 273.166 434.466 264.199 434.455L218.812 434.458L156.354 434.473C152.222 434.489 146.667 435.314 143.341 432.249C140.323 429.467 140.859 424.448 143.604 421.68C146.754 418.504 153.649 419.379 157.706 419.366L221.444 419.377Z"/>
	<path fill="#A6D5F3" transform="scale(2 2)" d="M375.303 71.8064C382.584 71.0696 384.782 75.7341 384.773 82.1512C387.468 80.6076 390.078 78.7223 393.354 79.3997C402.727 81.3376 399.173 90.8316 391.03 95.1287C405.23 100.5 398.307 117.058 384.773 107.115C384.389 113.166 383.826 117.192 377.016 118.048C370.887 116.93 370.238 112.668 370.573 107.115C367.116 108.804 364.148 111.109 360.08 110.012C352.194 107.887 354.695 98.7134 362.534 95.1287C361.037 94.3699 359.304 93.641 357.959 92.6424C351.132 87.5748 357.929 72.1875 370.573 83.8073C369.642 78.5193 370.241 74.5108 375.303 71.8064Z"/>
	<path fill="#A6D5F3" transform="scale(2 2)" d="M423.695 126.57C429.827 127.025 430.477 132.567 430.542 137.608C432.774 136.257 434.73 135.255 437.262 134.602C449.76 138.2 443.479 145.607 437.262 150.778C451.004 155.099 443.167 172.726 430.542 162.848C430.385 168.296 429.853 172.521 423.695 173.402C417.326 172.935 416.709 168.361 416.752 162.848C401.516 172.446 398.037 153.763 409.985 150.778C407.479 148.992 404.389 147.776 403.367 144.614C400.427 135.511 408.172 132.252 416.752 137.608C415.986 131.564 417.095 127.664 423.695 126.57Z"/>
</svg>
