<?xml version="1.0" encoding="utf-8" ?>
<svg xmlns="http://www.w3.org/2000/svg" xmlns:xlink="http://www.w3.org/1999/xlink" width="1024" height="1024">
	<path fill="#FAFBFB" transform="scale(2 2)" d="M413.277 245.119C413.882 247.967 413.414 257.798 413.032 260.808C409.698 287.051 389.415 308.772 363.03 312.053C354.568 313.106 345.565 312.536 337.022 312.537L152.088 312.032C127.683 312.032 107.344 311.482 90.775 289.509C68.0352 259.351 79.6083 214 114.592 199.004C128.559 193.017 126.323 199.474 128.555 183.035C131.418 161.943 143.865 144.717 160.527 132.063C172.905 122.664 195.177 111.825 211.299 114.02C235.707 116.119 258.816 126.252 272.929 146.944C278.128 145.613 282.839 142.105 288.262 141.398C290.74 140.735 293.208 140.09 295.623 139.218C292.035 136.892 291.123 131.829 293.487 128.268C297.766 121.821 312.998 124.23 306.088 139.218C313.293 139.207 320.298 139.635 327.313 141.398C327.721 142.106 328.662 142.428 329.422 142.639C342.777 147.634 353.168 155.017 360.916 166.954C361.743 168.228 362.52 170.599 364.025 171.186L363.86 171.456C368.715 175.562 369.772 187.577 371.552 193.604C375.469 196.715 380.426 198.041 384.588 200.755C401.191 211.582 409.039 226.284 413.277 245.119Z"/>
	<path fill="#BBE4EF" transform="scale(2 2)" d="M211.299 114.02C235.707 116.119 258.816 126.252 272.929 146.944C269.574 147.975 266.734 149.515 263.675 151.2C245.818 127.259 230.637 120.746 203.63 114.02C206.144 113.694 208.737 114.207 211.299 114.02Z"/>
	<path fill="#BBE4EF" transform="scale(2 2)" d="M295.623 139.218C292.035 136.892 291.123 131.829 293.487 128.268C297.766 121.821 312.998 124.23 306.088 139.218C313.293 139.207 320.298 139.635 327.313 141.398C327.721 142.106 328.662 142.428 329.422 142.639C342.777 147.634 353.168 155.017 360.916 166.954C361.743 168.228 362.52 170.599 364.025 171.186L363.86 171.456C368.715 175.562 369.772 187.577 371.552 193.604C375.469 196.715 380.426 198.041 384.588 200.755C401.191 211.582 409.039 226.284 413.277 245.119C412.674 244.664 409.684 233.978 408.764 231.615C403.744 218.709 395.522 208.429 383.8 200.94C371.841 193.299 372.517 200.008 369.171 184.643C368.127 179.85 365.777 175.575 363.236 171.438C348.652 147.691 328.73 138.148 301.552 140.188C295.848 140.616 294.451 140.383 288.496 141.705L288.262 141.398C290.74 140.735 293.208 140.09 295.623 139.218Z"/>
	<path fill="#BBE4EF" transform="scale(2 2)" d="M327.313 141.398C324.416 107.537 361.163 89.0624 385.191 109.457C399.831 121.885 400.518 144.232 388.105 158.482C382.421 165.007 375.192 167.775 367.052 170.033C366.043 170.408 365.011 170.754 364.025 171.186C362.52 170.599 361.743 168.228 360.916 166.954C353.168 155.017 342.777 147.634 329.422 142.639C328.662 142.428 327.721 142.106 327.313 141.398Z"/>
	<path fill="#91C5F1" transform="scale(2 2)" d="M329.422 142.639C339.935 140.537 363.61 158.967 367.052 170.033C366.043 170.408 365.011 170.754 364.025 171.186C362.52 170.599 361.743 168.228 360.916 166.954C353.168 155.017 342.777 147.634 329.422 142.639Z"/>
	<path fill="#BBE4EF" transform="scale(2 2)" d="M130.808 360.52C133.937 356.04 144.319 343.966 148.502 340.708C153.311 348.868 164.662 367.036 158.65 376.751C149.148 397.172 116.785 380.434 130.808 360.52Z"/>
	<path fill="#91C5F1" transform="scale(2 2)" d="M130.808 360.52C131.097 362.429 130.784 364.287 130.862 366.195C131.217 374.891 139.58 382.511 148.327 381.345C153.735 380.625 154.837 378.082 158.65 376.751C149.148 397.172 116.785 380.434 130.808 360.52Z"/>
	<path fill="#BBE4EF" transform="scale(2 2)" d="M293.964 364.061C298.076 359.046 307.987 345.494 312.085 342.221C314.427 345.69 322.38 365.493 323.929 370.609C324.911 373.852 323.075 376.625 321.734 379.496C310.374 400.887 279.7 379.865 293.964 364.061Z"/>
	<path fill="#91C5F1" transform="scale(2 2)" d="M293.964 364.061C294.605 365.758 294.105 367.593 294.247 369.353C294.988 378.582 304.928 386.337 314.045 383.411C316.218 382.714 320.148 379.604 321.734 379.496C310.374 400.887 279.7 379.865 293.964 364.061Z"/>
	<path fill="#BBE4EF" transform="scale(2 2)" d="M162.143 411.925L162.284 411.764C167.993 405.212 172.933 398.13 179.56 392.361L186.311 406.23C188.736 411.203 193.457 419.096 190.839 424.773C185.143 449.764 146.633 432.42 162.143 411.925Z"/>
	<path fill="#91C5F1" transform="scale(2 2)" d="M162.143 411.925C162.33 413.484 162.111 415.034 162.126 416.595C162.266 431.206 180.344 438.299 190.484 424.716L190.839 424.773C185.143 449.764 146.633 432.42 162.143 411.925Z"/>
	<path fill="#BBE4EF" transform="scale(2 2)" d="M232.66 338.882C239.972 347.956 243.352 360.88 243.22 372.425C231.979 397.738 199.347 376.355 215.683 359.194C220.122 354.246 228.443 341.926 232.66 338.882Z"/>
	<path fill="#91C5F1" transform="scale(2 2)" d="M215.683 359.194C216.418 367.977 216.606 379.47 230.312 378.878C237.472 378.569 238.137 375.394 243.22 372.425C231.979 397.738 199.347 376.355 215.683 359.194Z"/>
	<path fill="#BBE4EF" transform="scale(2 2)" d="M239.668 421.96C244.621 416.959 251.257 404.708 256.112 401.434L256.481 401.181C260.239 407.501 268.825 425.437 268.225 431.334C261.405 459.891 223.427 440.808 239.668 421.96Z"/>
	<path fill="#91C5F1" transform="scale(2 2)" d="M239.668 421.96C240.496 423.681 239.949 425.796 240.04 427.64C240.739 441.844 261.159 446.117 267.301 431.632L267.889 430.213L268.225 431.334C261.405 459.891 223.427 440.808 239.668 421.96Z"/>
	<path fill="#BBE4EF" transform="scale(2 2)" d="M316.237 81.8534C320.832 80.9966 325.253 84.0224 326.118 88.6159C326.982 93.2094 323.964 97.6357 319.372 98.5084C314.769 99.3832 310.33 96.356 309.463 91.7513C308.596 87.1465 311.631 82.7123 316.237 81.8534Z"/>
	<path fill="#BBE4EF" transform="scale(2 2)" d="M421.093 125.444C425.472 124.173 430.055 126.671 431.362 131.038C432.668 135.406 430.209 140.01 425.852 141.352C421.444 142.71 416.775 140.216 415.453 135.797C414.131 131.378 416.664 126.729 421.093 125.444Z"/>
	<path fill="#BBE4EF" transform="scale(2 2)" d="M360.912 66.6686C365.373 66.193 369.388 69.3883 369.926 73.8416C370.464 78.2948 367.325 82.3544 362.88 82.9546C359.948 83.3504 357.031 82.1373 355.244 79.7797C353.458 77.4222 353.079 74.2854 354.253 71.5702C355.426 68.8551 357.971 66.9822 360.912 66.6686Z"/>
	<path fill="#BBE4EF" transform="scale(2 2)" d="M402.861 83.6268C407.226 82.663 411.555 85.3868 412.575 89.7388C413.595 94.0909 410.927 98.4545 406.589 99.5307C403.732 100.239 400.715 99.3562 398.691 97.219C396.667 95.0818 395.95 92.021 396.813 89.2071C397.676 86.3933 399.987 84.2614 402.861 83.6268Z"/>
	<path fill="#BBE4EF" transform="scale(2 2)" d="M402.186 168.484C405.04 167.876 408.001 168.847 409.939 171.029C411.877 173.21 412.493 176.265 411.553 179.027C410.613 181.789 408.261 183.833 405.394 184.379C401.029 185.211 396.808 182.374 395.929 178.019C395.05 173.663 397.84 169.411 402.186 168.484Z"/>
</svg>
