<?xml version="1.0" encoding="utf-8" ?>
<svg xmlns="http://www.w3.org/2000/svg" xmlns:xlink="http://www.w3.org/1999/xlink" width="1024" height="1024">
	<path fill="#FBFBFC" transform="scale(2 2)" d="M272.089 105.884C304.954 71.0356 360.266 63.5749 400.532 90.3647C428.945 109.269 447.349 140.618 448.175 175.03C448.574 191.639 442.954 220.952 431.685 234.253C427.498 240.546 421.889 245.133 417.127 250.869C416.433 255.418 417.067 259.635 417.136 264.185C417.35 278.231 413.851 285.089 408.192 296.805C394.653 319.194 374.074 322.452 349.827 322.456L128.951 322.453C120.134 322.448 111.637 322.632 103.103 320.028C73.5307 311.006 58.1281 279.54 67.2965 250.255C70.9286 238.654 80.0684 225.807 90.9906 220.053C93.5595 218.11 105.474 213.767 108.89 212.817C121.879 209.204 117.235 211.262 120.296 197.462C126.219 170.767 153.584 154.799 179.405 164.606C194.627 135.648 215.164 118.49 250.238 121.929C253.426 122.241 256.531 123.583 259.722 123.797L260.145 123.255L260.392 122.238C261.504 117.571 268.676 109.567 272.089 105.884Z"/>
	<path fill="#BEDDED" transform="scale(2 2)" d="M272.089 105.884C304.954 71.0356 360.266 63.5749 400.532 90.3647C428.945 109.269 447.349 140.618 448.175 175.03C448.574 191.639 442.954 220.952 431.685 234.253C429.93 233.303 429.05 230.49 428.163 228.807C418.559 210.593 398.175 192.847 377.193 189.916C372.919 158.155 342.132 138.587 311.41 139.058C305.114 128.336 297.46 119.96 286.678 113.592C283.831 111.911 273.196 107.427 272.089 105.884Z"/>
	<path fill="#BEDDED" transform="scale(2 2)" d="M90.9906 220.053C91.1929 220.551 89.8483 231.277 89.8055 233.502C89.1405 268.059 114.441 296.288 148.241 300.749C155.507 301.708 163.023 301.62 170.341 301.619L369.411 301.62C378.988 301.62 388.701 301.673 398.049 299.297C400.737 298.614 405.649 296.777 408.192 296.805C394.653 319.194 374.074 322.452 349.827 322.456L128.951 322.453C120.134 322.448 111.637 322.632 103.103 320.028C73.5307 311.006 58.1281 279.54 67.2965 250.255C70.9286 238.654 80.0684 225.807 90.9906 220.053Z"/>
	<path fill="#89C9F0" transform="scale(2 2)" d="M272.089 105.884C273.196 107.427 283.831 111.911 286.678 113.592C297.46 119.96 305.114 128.336 311.41 139.058C342.132 138.587 372.919 158.155 377.193 189.916C398.175 192.847 418.559 210.593 428.163 228.807C429.05 230.49 429.93 233.303 431.685 234.253C427.498 240.546 421.889 245.133 417.127 250.869C415.548 248.016 414.518 244.918 413.205 241.941C403.686 220.362 381.513 207.912 358.268 207.989C359.427 185.852 347.819 165.415 325.148 160.259C318.269 158.695 306.767 158.276 300.607 162.12C293.544 141.983 279.599 130.819 260.386 123.847L260.145 123.255L260.392 122.238C261.504 117.571 268.676 109.567 272.089 105.884Z"/>
	<path fill="#89C9F0" transform="scale(2 2)" d="M184.172 406.45C173.367 431.691 137.121 415.408 145.792 391.196C147.864 385.413 163.274 362.801 165.341 361.824L165.955 362.308C174.316 375.067 190.858 389.798 184.172 406.45Z"/>
	<path fill="#59A4E9" transform="scale(2 2)" d="M184.172 406.45C173.367 431.691 137.121 415.408 145.792 391.196C147.864 385.413 163.274 362.801 165.341 361.824L165.955 362.308C161.743 374.109 149.783 386.656 156.124 399.917C164.768 417.997 182.013 405.485 184.172 406.45Z"/>
	<defs>
		<linearGradient id="gradient_0" gradientUnits="userSpaceOnUse" x1="322.63956" y1="405.43701" x2="355.88324" y2="384.07822">
			<stop offset="0" stop-color="#52A7F1"/>
			<stop offset="1" stop-color="#79CDF6"/>
		</linearGradient>
	</defs>
	<path fill="url(#gradient_0)" transform="scale(2 2)" d="M342.366 362.308C347.885 367.738 361.681 393.062 361.921 399.169C362.367 410.487 353.554 419.456 342.366 419.78C328.278 419.102 318.115 405.718 323.333 391.953C325.933 385.094 337.207 367.216 342.366 362.308Z"/>
	<path fill="#BEDDED" transform="scale(2 2)" d="M248.017 402.038C248.053 397.645 246.919 386.692 249.91 383.655C251.743 381.794 255.241 381.473 256.957 383.644C259.451 386.8 258.423 397.706 258.462 402.038C262.639 398.111 265.348 392.489 270.78 390.091C286.427 394.585 267.584 405.3 264.433 409.258C268.453 409.242 278.765 408.312 281.551 411.197C286.138 415.948 280.445 420.726 275.252 420.059C272.809 419.745 261.81 416.305 261.461 416.328L261.242 416.599L261.646 417.548L260.145 417.548C258.556 415.043 256.239 412.695 254.461 410.267C251.155 410.152 247.024 410.763 243.986 409.258C242.731 405.899 232.642 402.834 230.122 396.253C233.88 382.116 244.069 396.428 248.017 402.038Z"/>
	<path fill="#59A4E9" transform="scale(2 2)" d="M246.407 417.548C241.599 418.353 232.962 422.683 228.528 419.046C226.409 417.308 226.116 413.478 227.944 411.444C230.745 408.327 239.878 409.385 243.986 409.258C247.024 410.763 251.155 410.152 254.461 410.267C256.239 412.695 258.556 415.043 260.145 417.548L261.646 417.548L264.433 421.597C266.826 424.459 272.041 429.986 270.055 434.16C268.847 436.699 265.307 437.16 262.994 436.006C258.636 433.831 255.93 425.97 254.461 421.597C252.301 425.757 250.229 434.862 245.373 436.506C242.848 437.361 239.322 435.699 238.628 433.057C237.202 427.631 244.143 421.989 246.407 417.548Z"/>
	<path fill="#89C9F0" transform="scale(2 2)" d="M260.145 417.548L261.646 417.548L264.433 421.597C262.133 421.511 261.172 419.316 260.145 417.548Z"/>
	<path fill="#89C9F0" transform="scale(2 2)" d="M126.829 341.003C131.807 347.647 139.561 356.72 138.008 365.582C133.388 376.582 118.323 376.402 115.748 364.157C114.4 357.747 118.831 352.23 122.184 347.25C123.663 345.08 125.148 343.024 126.829 341.003Z"/>
	<path fill="#59A4E9" transform="scale(2 2)" d="M122.184 347.25C124.919 351.34 118.223 363.629 128.767 366.278C132.05 367.103 134.81 365.907 138.008 365.582C133.388 376.582 118.323 376.402 115.748 364.157C114.4 357.747 118.831 352.23 122.184 347.25Z"/>
	<defs>
		<linearGradient id="gradient_1" gradientUnits="userSpaceOnUse" x1="200.19432" y1="367.74915" x2="218.29735" y2="352.00027">
			<stop offset="0" stop-color="#55A6F6"/>
			<stop offset="1" stop-color="#7CD4F9"/>
		</linearGradient>
	</defs>
	<path fill="url(#gradient_1)" transform="scale(2 2)" d="M210.358 341.003C213.848 349.394 226.578 360.025 218.906 369.648C216.686 372.432 213.779 373.584 210.358 374.033C204.053 373.859 198.666 369.312 198.492 362.747C198.348 357.31 206.49 344.919 210.358 341.003Z"/>
	<defs>
		<linearGradient id="gradient_2" gradientUnits="userSpaceOnUse" x1="289.48694" y1="367.48663" x2="306.59567" y2="350.7887">
			<stop offset="0" stop-color="#48A3F5"/>
			<stop offset="1" stop-color="#77D2F8"/>
		</linearGradient>
	</defs>
	<path fill="url(#gradient_2)" transform="scale(2 2)" d="M298.45 341.003C299.577 341.715 300.33 343.956 301.035 345.101C306.228 353.539 316.63 371.384 298.45 372.797C292.671 372.738 287.451 368.269 287.225 362.356C286.978 355.91 294.133 345.54 298.45 341.003Z"/>
</svg>
