<?xml version="1.0" encoding="utf-8" ?>
<svg xmlns="http://www.w3.org/2000/svg" xmlns:xlink="http://www.w3.org/1999/xlink" width="1024" height="1024">
	<path fill="#D9DFE2" transform="scale(2 2)" d="M269.813 163.563C269.366 113.899 304.636 71.5348 355.781 71.0898L359.513 71.0841C357.28 73.54 354.882 75.939 352.868 78.5787C331.454 106.652 336.092 145.857 362.053 169.3C384.245 189.34 418.331 192.489 443.533 176.331C446.411 174.486 449.039 172.283 451.9 170.423C449.502 202.654 426.826 228.291 400.273 244.38C416.319 282.596 388.791 326.966 347.416 330.147C343.654 330.437 339.809 330.284 336.034 330.272L187.606 330.1C184.466 330.127 181.066 330.521 177.957 330.249L140.094 330.258C130.87 330.256 121.33 330.788 112.207 329.275C71.9094 322.592 48.447 279.118 66.3405 242.31C74.3458 225.843 86.494 217.458 103.333 211.622C96.4051 191.377 111.058 177.586 130.967 177.745C135.487 155.508 153.741 136.958 174.684 129.333C208.746 116.732 247.991 127.678 266.737 159.679C267.278 160.602 268.688 163.62 269.813 163.563Z"/>
	<defs>
		<linearGradient id="gradient_0" gradientUnits="userSpaceOnUse" x1="298.07388" y1="204.6376" x2="416.38812" y2="121.58614">
			<stop offset="0" stop-color="#3D5BA0"/>
			<stop offset="1" stop-color="#4E7DB6"/>
		</linearGradient>
	</defs>
	<path fill="url(#gradient_0)" transform="scale(2 2)" d="M269.813 163.563C269.366 113.899 304.636 71.5348 355.781 71.0898L359.513 71.0841C357.28 73.54 354.882 75.939 352.868 78.5787C331.454 106.652 336.092 145.857 362.053 169.3C384.245 189.34 418.331 192.489 443.533 176.331C446.411 174.486 449.039 172.283 451.9 170.423C449.502 202.654 426.826 228.291 400.273 244.38C398.824 241.733 397.823 238.707 396.371 236.001C384.566 214 358.414 202.157 334.06 206.886C331.257 178.782 308.578 161.282 280.142 163.822C278.111 164.004 271.437 166.01 270.077 165.476L269.813 163.563Z"/>
	<path fill="#B3C2D0" transform="scale(2 2)" d="M174.684 129.333C153.386 154.591 143.039 183.05 153.958 216.113C139.237 226.735 128.823 239.47 125.813 257.851C120.629 289.514 140.941 319.084 171.234 328.065C172.915 328.563 176.604 329.12 177.912 330.015L177.957 330.249L140.094 330.258C130.87 330.256 121.33 330.788 112.207 329.275C71.9094 322.592 48.447 279.118 66.3405 242.31C74.3458 225.843 86.494 217.458 103.333 211.622C96.4051 191.377 111.058 177.586 130.967 177.745C135.487 155.508 153.741 136.958 174.684 129.333Z"/>
	<path fill="#78CAFC" transform="scale(2 2)" d="M231.443 348.752C231.99 348.376 232.516 348.034 233.103 347.722C242.266 355.493 251.244 369.18 248.686 381.757C244.204 392.426 229.792 395.11 221.84 386.248C211.745 374.999 222.403 356.924 231.443 348.752Z"/>
	<path fill="#4FB0FC" transform="scale(2 2)" d="M231.443 348.752C232.588 351.366 224.456 362.989 227.585 372.929C231.061 383.966 240.386 381.609 248.686 381.757C244.204 392.426 229.792 395.11 221.84 386.248C211.745 374.999 222.403 356.924 231.443 348.752Z"/>
	<path fill="#78CAFC" transform="scale(2 2)" d="M136.554 347.722C145.032 351.286 156.894 373.953 151.431 382.234C141.825 403.8 101.897 384.832 134.4 348.752C135.113 348.415 135.865 348.101 136.554 347.722Z"/>
	<path fill="#4FB0FC" transform="scale(2 2)" d="M134.4 348.752C134.953 348.963 134.736 348.839 135.08 349.07C136.101 352.31 126.207 363.189 131.938 374.74C137.304 385.555 145.527 380.791 151.431 382.234C141.825 403.8 101.897 384.832 134.4 348.752Z"/>
	<path fill="#78CAFC" transform="scale(2 2)" d="M346.103 381.757C341.083 394.324 322.285 393.767 316.568 381.875C310.457 369.161 326.956 346.742 331.197 348.752C340.173 356.794 348.828 369.066 346.103 381.757Z"/>
	<path fill="#4FB0FC" transform="scale(2 2)" d="M346.103 381.757C341.083 394.324 322.285 393.767 316.568 381.875C310.457 369.161 326.956 346.742 331.197 348.752C326.316 357.829 318.119 373.478 330.779 380.213C335.99 382.986 340.642 381.287 346.103 381.757Z"/>
	<defs>
		<linearGradient id="gradient_1" gradientUnits="userSpaceOnUse" x1="263.89984" y1="428.99316" x2="290.51404" y2="412.61688">
			<stop offset="0" stop-color="#47ABFD"/>
			<stop offset="1" stop-color="#81D0FD"/>
		</linearGradient>
	</defs>
	<path fill="url(#gradient_1)" transform="scale(2 2)" d="M277.959 397.079C285.703 398.097 309.464 438.287 279.883 439.978C253.787 439.228 262.852 407.728 277.959 397.079Z"/>
	<path fill="#78CAFC" transform="scale(2 2)" d="M195.688 430.714C190.331 442.74 172.629 443.263 167.219 430.921C162.622 420.436 172.428 400.892 181.181 397.079C190.031 404.41 198.311 418.775 195.688 430.714Z"/>
	<path fill="#4FB0FC" transform="scale(2 2)" d="M195.688 430.714C190.331 442.74 172.629 443.263 167.219 430.921C162.622 420.436 172.428 400.892 181.181 397.079C179.327 405.733 169.981 412.822 176.701 424.004C181.101 431.325 188.207 430.785 195.688 430.714Z"/>
</svg>
