<?xml version="1.0" encoding="utf-8" ?>
<svg xmlns="http://www.w3.org/2000/svg" xmlns:xlink="http://www.w3.org/1999/xlink" width="1024" height="1024">
	<path fill="#E4E5E4" transform="scale(2 2)" d="M242.687 123.915C265.224 86.6857 311.427 71.7308 349.061 96.2673C371.238 109.349 382.965 130.415 386.062 155.284C417.941 155.101 444.488 183.665 444.605 215.066C444.761 256.855 413.738 277.544 375.993 282.103C374.39 282.768 372.723 284.961 371.496 286.196C359.445 298.324 343.502 301.702 326.903 301.744L140.823 301.746C118.367 301.75 102.774 302.804 85.1923 285.173C63.4818 263.4 62.6787 225.932 84.7795 204.127C98.2921 190.795 110.106 187.004 128.707 187.135C129.904 172.986 131.3 162.774 141.908 152.221C150.758 143.418 164.203 138.966 176.574 140.267C180.255 140.654 183.682 142.341 187.432 142.26L187.432 142.26C193.74 114.218 220.57 107.156 242.687 123.915Z"/>
	<defs>
		<linearGradient id="gradient_0" gradientUnits="userSpaceOnUse" x1="315.03989" y1="154.60294" x2="438.34396" y2="244.13599">
			<stop offset="0" stop-color="#5C7498"/>
			<stop offset="1" stop-color="#9FAFC6"/>
		</linearGradient>
	</defs>
	<path fill="url(#gradient_0)" transform="scale(2 2)" d="M361.559 106.059C357.569 102.652 353.43 99.5269 348.95 96.787L349.061 96.2673C371.238 109.349 382.965 130.415 386.062 155.284C417.941 155.101 444.488 183.665 444.605 215.066C444.761 256.855 413.738 277.544 375.993 282.103L375.908 281.729C376.552 280.594 377.48 279.678 378.291 278.662C397.533 254.555 392.34 216.892 368.254 198.149C362.379 193.577 348.157 186.203 340.449 187.135C339.139 171.987 332.249 160.218 323.009 148.782C327.631 150.985 328.77 157.086 331.995 160.13C332.632 160.732 341.891 156.35 343.884 155.852C345.267 155.506 346.847 155.43 348.265 155.284C341.428 145.354 336.849 139.665 326.993 132.461L327.115 132.289C328.107 132.517 328.922 133.537 329.511 134.327C337.293 127.357 344.818 128.825 353.859 116.001C354.777 114.697 355.436 112.852 356.588 111.782L358.332 110.175C358.219 108.097 359.641 106.519 361.559 106.059Z"/>
	<path fill="#4C678E" transform="scale(2 2)" d="M242.687 123.915C265.224 86.6857 311.427 71.7308 349.061 96.2673L348.95 96.787C353.43 99.5269 357.569 102.652 361.559 106.059C359.641 106.519 358.219 108.097 358.332 110.175L356.588 111.782C355.436 112.852 354.777 114.697 353.859 116.001C344.818 128.825 337.293 127.357 329.511 134.327C328.922 133.537 328.107 132.517 327.115 132.289L326.993 132.461C336.849 139.665 341.428 145.354 348.265 155.284C346.847 155.43 345.267 155.506 343.884 155.852C341.891 156.35 332.632 160.732 331.995 160.13C328.77 157.086 327.631 150.985 323.009 148.782L322.69 148.528C319.088 145.622 316.061 142.242 312.234 139.527C283.228 118.953 242.264 124.204 218.298 150.004C215.007 143.18 198.757 140.661 191.919 141.322C190.395 141.47 188.971 142.112 187.432 142.26C193.74 114.218 220.57 107.156 242.687 123.915Z"/>
	<path fill="#245B94" transform="scale(2 2)" d="M187.432 142.26C188.971 142.112 190.395 141.47 191.919 141.322C198.757 140.661 215.007 143.18 218.298 150.004C214.77 153.687 211.721 158.017 209.33 162.507C204.305 152.306 197.129 147.369 187.432 142.647L187.432 142.26L187.432 142.26Z"/>
	<path fill="#245B94" transform="scale(2 2)" d="M313.151 338.751C318.947 339.036 317.828 345.764 317.767 349.828C320.851 347.811 329.037 345.039 327.953 351.277C327.307 354.998 320.08 358.699 317.004 360.742C316.881 365.894 316.987 371.066 317.004 376.22C321.184 373.66 325.416 371.134 329.511 368.44C329.527 365.379 328.563 358.583 330.6 356.225C334.83 351.332 338.551 356.406 338.507 362.123C341.339 360.907 345.195 357.124 348.378 357.905C356.43 359.881 347.861 367.333 343.516 369.376C346.919 371.016 353.655 375.217 347.997 379.105C344.282 381.658 338.026 376.959 334.178 376.22C329.043 377.327 324.222 380.029 319.893 382.99C324.098 385.876 329.528 388.629 334.178 390.746C337.507 389.602 344.259 385.776 347.513 386.985C353.535 389.223 348.157 395 343.516 396.759C345.315 398.106 357.861 406.154 347.845 408.381C345.059 409 340.788 405.756 338.507 404.211C338.772 409.45 335.423 415.135 331.06 410.867C328.785 408.641 329.514 401.489 329.511 398.402C325.938 395.392 321.291 392.609 317.004 390.746C317.163 395.803 316.969 400.907 317.004 405.971C320.221 408.292 326.655 411.11 327.605 415.225C329.144 421.894 320.286 418.871 317.004 416.742C317.606 421.748 318.874 427.63 311.996 427.19C307.705 425.416 308.606 420.543 309.27 416.742C307.403 417.833 304.599 420.123 302.373 419.873C300.211 419.629 298.13 416.908 298.528 414.754C299.172 411.261 306.428 407.923 309.27 405.971L309.27 389.819C305.008 392.235 299.863 394.812 296.504 398.402C296.533 401.391 297.515 408.975 294.994 411.129C291.233 414.341 287.264 409.901 288.289 404.211C285.151 405.569 282.303 407.909 279.006 408.767C270.647 404.583 277.565 399.679 283.103 396.759C278.916 395.344 273.384 390.095 278.616 387.664C282.209 385.995 288.165 389.544 291.68 390.746C296.578 388.806 301.423 385.539 306.056 382.99C302.278 380.721 297.394 377.373 293.182 376.22C289.686 376.855 282.516 381.281 279.424 379.876C274.434 377.609 277.63 372.259 283.103 370.762C278.973 367.194 269.268 363.077 279.006 358.019C282.371 359.352 285.459 361.469 288.289 363.697C286.744 357.305 290.928 351.571 295.009 355.606C297.588 358.156 296.569 365.015 296.504 368.44C300.805 370.961 304.963 373.716 309.27 376.22L309.27 360.742C305.062 357.731 290.882 350.1 303.317 346.674C305.341 347.371 306.878 348.58 308.594 349.828C308.677 345.115 307.617 340.229 313.151 338.751Z"/>
	<defs>
		<linearGradient id="gradient_1" gradientUnits="userSpaceOnUse" x1="149.13266" y1="333.80341" x2="173.19966" y2="394.38638">
			<stop offset="0" stop-color="#FFFCF6"/>
			<stop offset="1" stop-color="#96D4FC"/>
		</linearGradient>
	</defs>
	<path fill="url(#gradient_1)" transform="scale(2 2)" d="M161.875 337.921C161.248 332.295 163.84 322.541 169.92 328.663C171.651 330.406 170.463 336.176 170.361 338.751C173.688 336.721 181.918 332.007 183.619 338.91C183.314 343.127 172.912 349.255 169.953 352.661C169.832 357.908 169.95 363.189 169.953 368.44C174.626 365.696 179.109 362.621 184.224 360.742C184.251 358.124 185.1 345.359 186.535 343.908C188.115 342.31 192.112 342.518 193.556 344.194C195.152 346.046 194.384 350.43 194.147 352.661L201.666 349.828C210.693 353.555 203.423 358.494 199.165 362.123C202.881 363.588 205.689 364.081 206.584 368.44C204.67 377.147 192.359 368.735 187.432 367.304C182.76 368.942 178.312 372.01 174.139 374.642C177.374 376.347 183.829 379.888 186.478 382.12L186.314 382.242C189.028 383.38 192.388 380.34 194.618 380.899C193.829 382.793 193.708 384.66 191.711 385.877L191.279 386.135C189.814 387.021 188.478 388.358 186.922 389.055C184.397 390.187 184.542 388.784 184.224 391.815C184.162 390.821 184.136 389.876 184.224 388.883C179.549 385.973 174.406 383.393 169.953 380.202L169.953 391.815C168.578 393.692 165.261 393.744 163.085 393.929L162.974 394.184C162.197 392.787 162.917 382.56 162.974 380.202C158.377 383.063 153.584 385.557 148.816 388.116C148.718 391.765 147.769 401.214 145.165 403.735C138.935 409.767 136.926 401.866 137.82 395.894C134.75 397.158 130.86 400.466 127.388 398.923C121.189 396.168 127.031 389.628 132.747 388.116C129.421 386.195 122.907 380.508 129.082 377.665C132.003 376.32 141.897 380.958 145.084 382.12C149.694 379.446 154.723 376.317 159.776 374.642C155.602 371.693 150.965 369.407 146.752 366.461C143.192 367.985 134.437 372.196 131.017 372.145C126.549 372.08 125.056 365.359 128.707 362.123C130.127 361.788 131.412 361.323 132.747 360.742C119.511 355.672 124.587 340.68 137.82 352.661C137.353 346.243 137.17 343.661 143.692 340.951C149.543 347.4 146.972 355.983 150.221 359.999C151.992 362.188 160.033 366.477 162.974 368.44L162.974 352.661C159.021 348.3 153.889 345.191 149.826 340.951C148.594 336.751 151.139 334.988 154.972 334.017C157.577 334.864 159.783 336.175 161.875 337.921Z"/>
	<path fill="#81CEFD" transform="scale(2 2)" d="M162.974 394.184L163.085 393.929C165.261 393.744 168.578 393.692 169.953 391.815C169.915 393.466 169.87 395.109 169.953 396.759C173.438 398.421 189.591 409.498 179.714 411.756C176.046 412.595 173.054 409.951 170.361 407.892C170.358 410.244 171.121 416.055 169.504 417.782C168.059 419.325 164.667 419.921 163.064 418.285C161.349 416.536 161.855 410.313 161.875 407.892C158.83 409.966 147.761 415.308 150.408 407.012C152.193 401.414 162.911 398.891 162.974 394.184Z"/>
	<path fill="#E4E5E4" transform="scale(2 2)" d="M253.999 322.824C261.186 322.157 263.713 329.739 259.775 335.123C256.669 339.369 249.369 347.77 243.879 348.648C238.018 348.523 233.623 343.86 237.177 338C239.545 334.096 249.058 324.057 253.999 322.824Z"/>
	<path fill="#E4E5E4" transform="scale(2 2)" d="M109.487 401.05C113.833 399.372 119.015 402.669 117.941 407.68C116.961 412.252 104.867 423.797 100.895 426.208C97.45 426.202 94.0047 424.522 92.2935 421.459C91.8722 413.588 103.106 401.828 109.487 401.05Z"/>
	<path fill="#E4E5E4" transform="scale(2 2)" d="M412.887 306.519C417.591 306.028 423.318 310.969 421.244 315.852C419.564 319.804 409.856 329.87 405.29 331.58C399.198 332.582 393.811 327.045 397.101 320.998C399.074 317.372 408.309 307.9 412.887 306.519Z"/>
	<path fill="#E4E5E4" transform="scale(2 2)" d="M383.371 401.845C388.472 401.492 393.437 405.037 392.116 410.552C391.498 413.133 378.905 425.443 375.993 427.19C369.605 427.782 364.62 423.064 367.702 416.897C369.85 412.599 378.417 403.588 383.371 401.845Z"/>
	<path fill="#E4E5E4" transform="scale(2 2)" d="M243.879 401.05C248.334 400.824 253.524 405.144 251.377 409.875C249.56 413.877 239.34 424.438 234.477 426.208C227.293 427.779 224.286 420.185 228.097 414.591C231.093 410.194 238.294 402.162 243.879 401.05Z"/>
	<path fill="#E4E5E4" transform="scale(2 2)" d="M103.795 325.307C119.513 324.409 105.655 347.542 94.0082 350.667C87.7352 351.087 84.3851 345.59 87.5295 340.285C89.9303 336.235 98.7566 326.633 103.795 325.307Z"/>
	<path fill="#E4E5E4" transform="scale(2 2)" d="M367.305 316.298C368.628 316.203 369.938 316.255 371.261 316.298C384.075 323.102 365.005 338.351 359.542 340.951C353.755 341.719 348.448 337 351.69 331.019C354.009 326.741 362.236 317.87 367.305 316.298Z"/>
	<path fill="#81CEFD" transform="scale(2 2)" d="M186.478 382.12C191.757 382.911 201.073 374.756 204.717 381.086C204.965 386.479 202.538 387.354 197.847 388.883C200.286 390.337 204.37 392.084 205.203 395.02C207.155 401.899 198.437 399.954 194.147 396.759C193.984 399.223 194.193 402.512 192.116 404.227C184.703 410.344 184.205 395.485 184.224 391.815C184.542 388.784 184.397 390.187 186.922 389.055C188.478 388.358 189.814 387.021 191.279 386.135L191.711 385.877C193.708 384.66 193.829 382.793 194.618 380.899C192.388 380.34 189.028 383.38 186.314 382.242L186.478 382.12Z"/>
</svg>
