<?xml version="1.0" encoding="utf-8" ?>
<svg xmlns="http://www.w3.org/2000/svg" xmlns:xlink="http://www.w3.org/1999/xlink" width="1024" height="1024">
	<path fill="#CBD5E6" transform="scale(2 2)" d="M240.979 122.21C241.982 121.144 244.583 115.766 245.724 114.056C277.56 66.354 353.061 56.8869 393.884 98.2379C416.056 120.696 422.854 145.903 422.776 176.712C476.617 205.511 464.665 289.212 401.796 298.541C396.655 299.303 391.771 299.048 386.625 299.027L136.206 299.027C113.598 299.045 102.457 301.756 82.6921 287.409C31.7044 250.399 58.3503 163.801 127.325 170.789C145.355 172.615 137.783 178.997 144.908 160.458C153.756 137.434 181.101 116.782 206.15 116.133C222.35 115.502 227.321 119.034 240.979 122.21Z"/>
	<path fill="#77B9FC" transform="scale(2 2)" d="M122.944 347.313C125.224 344.488 138.723 331.065 142.468 333.933C145.447 336.215 148.835 354.855 148.929 359.122C149.023 363.452 146.886 367.068 144.189 370.334C130.035 387.026 103.366 365.408 122.944 347.313Z"/>
	<path fill="#1A9FFD" transform="scale(2 2)" d="M122.944 347.313C123.871 348.426 117.551 368.463 134.645 370.821C137.86 371.264 141.423 369.843 144.189 370.334C130.035 387.026 103.366 365.408 122.944 347.313Z"/>
	<path fill="#77B9FC" transform="scale(2 2)" d="M371.664 347.313C374.762 343.886 383.984 334.401 388.233 333.613C395.674 335.263 400.666 367.726 392.012 372.094C377.697 386.803 354.742 365.731 371.664 347.313Z"/>
	<path fill="#1A9FFD" transform="scale(2 2)" d="M371.664 347.313C373.641 350.079 368.629 359.318 376.37 367.064C384.053 374.75 386.459 369.993 392.012 372.094C377.697 386.803 354.742 365.731 371.664 347.313Z"/>
	<path fill="#77B9FC" transform="scale(2 2)" d="M204.447 348.546C206.51 345.775 218.618 331.643 222.267 333.857C226.503 336.426 237.587 362.458 225.976 370.334C211.361 383.146 189.296 366.626 204.447 348.546Z"/>
	<path fill="#1A9FFD" transform="scale(2 2)" d="M204.447 348.546L205.02 349.06C205.017 358.986 207.357 370.713 220.337 370.498C221.57 370.477 225.066 369.809 225.976 370.334C211.361 383.146 189.296 366.626 204.447 348.546Z"/>
	<path fill="#77B9FC" transform="scale(2 2)" d="M290.256 348.546C292.156 345.368 304.698 332.314 308.979 335.197C314.195 338.709 318.334 361.561 311.667 368.552C294.981 387.97 271.797 362.295 290.256 348.546Z"/>
	<path fill="#1A9FFD" transform="scale(2 2)" d="M290.256 348.546C291.122 350.142 290.194 352.982 290.13 354.75C289.769 364.693 299.336 372.15 308.795 369.153C309.7 368.867 310.741 368.221 311.667 368.552C294.981 387.97 271.797 362.295 290.256 348.546Z"/>
	<path fill="#77B9FC" transform="scale(2 2)" d="M322.647 413.271C324.723 409.636 336.056 399.331 339.965 398.49C345.638 397.27 353.028 426.752 343.432 433.822C326.947 450.182 305.714 426.479 322.647 413.271Z"/>
	<path fill="#1A9FFD" transform="scale(2 2)" d="M322.647 413.271L323.258 413.67C323.169 415.35 322.728 416.991 322.637 418.674C321.6 437.811 342.526 433.267 343.432 433.822C326.947 450.182 305.714 426.479 322.647 413.271Z"/>
	<path fill="#77B9FC" transform="scale(2 2)" d="M153.676 411.767C155.895 409.23 168.665 397.331 171.913 397.514C175.749 397.731 183.649 426.127 174.207 433.081C159.898 448.19 135.518 429.819 153.676 411.767Z"/>
	<path fill="#1A9FFD" transform="scale(2 2)" d="M153.676 411.767C156.317 413.407 148.125 428.644 164.125 433.316C166.918 434.132 173.423 432.711 174.207 433.081C159.898 448.19 135.518 429.819 153.676 411.767Z"/>
	<path fill="#77B9FC" transform="scale(2 2)" d="M236.332 413.271C237.348 410.238 249.556 396.258 253.752 398.057C259.58 400.556 265.345 424.653 257.921 433.081C245.157 449.182 219.731 429.589 236.332 413.271Z"/>
	<path fill="#1A9FFD" transform="scale(2 2)" d="M236.332 413.271C237.124 414.629 236.425 416.647 236.33 418.131C235.538 430.573 246.653 436.441 257.449 432.922L257.921 433.081C245.157 449.182 219.731 429.589 236.332 413.271Z"/>
</svg>
