<?xml version="1.0" encoding="utf-8" ?>
<svg xmlns="http://www.w3.org/2000/svg" xmlns:xlink="http://www.w3.org/1999/xlink" width="1024" height="1024">
	<path fill="#E3E2E2" transform="scale(2 2)" d="M298.64 76.7157C345.428 71.7204 385.866 114.095 386.294 160.361C401.14 160.628 416.899 169.3 427.25 179.634C466.148 218.466 446.484 285.54 393.462 297.107C382.978 299.393 372.194 298.763 361.531 298.757L202.125 298.748L160.372 298.756C134.544 298.751 112.586 300.259 90.7251 283.969C61.4873 262.182 55.2526 218.387 77.2235 189.237C92.5388 168.917 106.875 163.609 130.221 160.361C138.57 143.822 140.615 142.103 153.348 127.875C172.266 106.736 201.399 101.569 226.33 114.788C228.734 116.063 231.256 117.476 233.281 119.313C248.853 92.4017 268.988 80.5648 298.64 76.7157Z"/>
	<path fill="#ABDDFA" transform="scale(2 2)" d="M229.195 331.742C235.228 326.895 244.184 321.775 251.423 319.004C255.353 335.632 257.208 343.643 247.683 357.856C229.957 372.883 207.35 346.494 229.195 331.742Z"/>
	<path fill="#64C3FB" transform="scale(2 2)" d="M229.195 331.742C230.337 334.848 221.176 346.19 232.091 354.813C238.518 359.89 245.76 356.642 247.683 357.856C229.957 372.883 207.35 346.494 229.195 331.742Z"/>
	<path fill="#ABDDFA" transform="scale(2 2)" d="M299.424 333.525C302.127 328.698 316.235 321.883 321.557 319.881L321.6 320.236C322.974 331.152 329.767 349.664 317.966 357.856C298.403 375.652 279.967 342.806 299.424 333.525Z"/>
	<path fill="#64C3FB" transform="scale(2 2)" d="M299.424 333.525C299.352 334.984 298.424 336.276 297.962 337.632C295.218 345.693 298.687 357.019 308.045 358.738C311.857 359.439 314.931 357.539 317.966 357.856C298.403 375.652 279.967 342.806 299.424 333.525Z"/>
	<path fill="#ABDDFA" transform="scale(2 2)" d="M179.384 314.944C181.604 326.454 185.963 344.056 175.49 352.851C156.545 368.128 134.187 341.236 157.94 327.785C164.307 322.741 171.947 318.201 179.384 314.944Z"/>
	<path fill="#64C3FB" transform="scale(2 2)" d="M157.94 327.785C157.813 329.785 156.822 331.5 156.236 333.378C153.388 342.517 158.761 353.077 168.769 353.992C170.665 354.165 174.235 352.43 175.49 352.851C156.545 368.128 134.187 341.236 157.94 327.785Z"/>
	<path fill="#ABDDFA" transform="scale(2 2)" d="M208.059 389.732C211.875 404.733 212.541 416.23 202.125 427.814C181.772 441.165 164.419 414.633 185.465 402.307C192.869 397.914 200.561 393.97 208.059 389.732Z"/>
	<path fill="#64C3FB" transform="scale(2 2)" d="M185.465 402.307C185.305 404.256 184.407 405.947 183.927 407.812C181.702 416.443 185.451 426.823 195.313 427.744C196.95 427.896 200.929 427.254 202.125 427.814C181.772 441.165 164.419 414.633 185.465 402.307Z"/>
	<path fill="#ABDDFA" transform="scale(2 2)" d="M279.154 389.732C282.631 400.088 285.449 418.8 275.251 426.609C260.646 440.958 234.109 418.078 258.227 402.307C261.215 399 273.678 391.148 277.942 390.049L279.154 389.732Z"/>
	<path fill="#64C3FB" transform="scale(2 2)" d="M258.227 402.307C258.262 404.367 256.699 406.168 255.927 407.998C252.392 416.386 259.896 426.707 268.68 427.142C270.874 427.251 273.118 426.467 275.251 426.609C260.646 440.958 234.109 418.078 258.227 402.307Z"/>
	<path fill="#ABDDFA" transform="scale(2 2)" d="M370.712 333.525C374.945 329.036 387.733 323.883 393.414 322.173C394.731 331.226 397.203 352.768 387.443 358.522C370.138 374.83 351.116 346.872 370.712 333.525Z"/>
	<path fill="#64C3FB" transform="scale(2 2)" d="M370.712 333.525C370.824 335.903 369.568 338.026 368.927 340.253C366.316 349.323 373.163 358.982 382.781 358.859C384.325 358.839 385.907 358.385 387.443 358.522C370.138 374.83 351.116 346.872 370.712 333.525Z"/>
	<path fill="#ABDDFA" transform="scale(2 2)" d="M328.215 402.307C332.385 398.318 344.316 393.461 349.856 391.011C353.201 402.656 355.372 417.243 345.934 426.609C327.679 439.997 309.03 414.281 328.215 402.307Z"/>
	<path fill="#64C3FB" transform="scale(2 2)" d="M328.215 402.307C329.119 405.56 322.905 411.65 328.185 420.011C334.273 429.651 341.818 424.034 345.934 426.609C327.679 439.997 309.03 414.281 328.215 402.307Z"/>
</svg>
