<?xml version="1.0" encoding="utf-8" ?>
<svg xmlns="http://www.w3.org/2000/svg" xmlns:xlink="http://www.w3.org/1999/xlink" width="1024" height="1024">
	<defs>
		<linearGradient id="gradient_0" gradientUnits="userSpaceOnUse" x1="286.23907" y1="331.90219" x2="214.79279" y2="94.094131">
			<stop offset="0" stop-color="#99CFDF"/>
			<stop offset="1" stop-color="#DBEFF4"/>
		</linearGradient>
	</defs>
	<path fill="url(#gradient_0)" transform="scale(2 2)" d="M237.797 128.294C245.868 109.196 270.835 95.3977 290.582 93.0056C334.844 87.6442 373.831 122.201 379.174 165.504C438.042 161.434 471.782 237.653 428.226 281.155C410.362 298.998 394.545 301.249 370.898 301.245L287.605 301.236C285.007 300.705 281.987 300.994 279.366 301.236C275.042 301.354 270.685 301.239 266.357 301.236L265.611 301.528C261.216 301.488 255.071 301.034 250.857 301.528L248.1 301.528L248.1 301.236C241.846 301.991 235.036 301.248 228.721 301.241L151.781 301.239C124.212 301.24 106 302.847 84.7185 281.523C62.4797 259.24 57.4844 219.923 76.3429 194.024C91.3308 173.441 108.612 166.564 134.09 166.726C136.046 149.362 135.001 139.469 147.609 124.036C167.948 99.1408 204.991 96.3406 228.524 118.46C231.787 121.527 234.195 125.616 237.797 128.294Z"/>
	<path fill="#1AB2E1" transform="scale(2 2)" d="M253.757 280.938C256.513 280.803 259.281 280.806 262.037 280.938L262.037 294.063C264.952 292.067 267.32 289.529 270.433 287.753C272.072 288.609 273.166 289.701 274.342 291.089C272.432 295.058 268.798 297.665 266.357 301.236L265.611 301.528C261.216 301.488 255.071 301.034 250.857 301.528L248.1 301.528L248.1 301.236C246.188 298.029 241.964 294.911 239.746 291.089C241.08 289.376 242.019 288.542 244.063 287.753C247.591 288.914 250.592 291.311 253.757 293.22C253.412 289.067 253.225 285.085 253.757 280.938Z"/>
	<path fill="#D5ECF4" transform="scale(2 2)" d="M279.366 301.236C281.987 300.994 285.007 300.705 287.605 301.236C292.8 309.74 283.904 311.18 277.128 318.526L283.27 318.526L283.495 318.355C285.927 316.478 290.995 310.653 294.232 311.315C298.545 312.196 294.407 318.289 292.827 319.88C297.785 321.367 302.355 321.621 299.947 327.814L292.827 327.814C301.756 344.04 299.922 343.373 284.338 344.574L284.545 344.854C286.545 347.513 292.179 350.335 291.808 353.954C291.132 360.562 282.354 353.16 281.095 352.48C279.444 365.508 275.557 360.854 274.123 350.38C273.239 343.917 266.917 341.323 262.037 337.924C261.366 343.425 262.037 349.186 262.037 354.735C264.082 356.433 278.865 368.559 268.756 369.29C266.373 369.463 262.677 365.627 260.792 364.179C260.783 366.784 261.527 373.034 259.631 374.9C253.393 381.038 253.721 366.137 253.757 364.179L253.395 364.358C250.991 365.566 247.134 369.859 244.267 368.867C236.365 366.131 251.369 355.881 252.617 354.05C254.38 351.466 253.925 340.909 253.757 337.361C240.662 344.583 241.881 345.327 237.499 358.893C236.768 361.155 233.303 361.867 232.541 359.261C231.999 357.411 232.477 354.453 232.44 352.48C229.94 353.942 224.179 358.924 222.082 354.454C219.935 349.879 225.85 347.061 228.724 344.574C225.717 344.722 217.391 345.742 217.178 341.043C216.798 332.652 229.255 338.897 237.797 337.924C241.359 335.17 244.761 332.162 248.1 329.143C232.274 320.629 221.198 334.481 217.358 331.795C214.117 329.528 220.582 325.83 222.302 324.873C218.718 323.187 213.807 317.739 218.969 316.474C221.654 315.816 230.563 317.715 235.026 317.71C232.603 315.904 223.779 309.23 223.599 306.436C223.405 303.439 229.213 304.667 233.162 302.57C241.778 314.809 238.634 312.675 252.189 321.271C252.682 316.791 251.661 310.613 252.189 307.268C250.809 305.394 249.255 303.549 248.1 301.528L250.857 301.528C255.071 301.034 261.216 301.488 265.611 301.528C264.329 304.2 262.253 305.84 261.8 308.973C261.573 310.543 261.348 319.134 262.112 320.122C270.684 318.783 275.8 307.537 279.366 301.236ZM265.611 329.143C269.149 332.357 272.825 336.403 277.128 338.494C279.53 338.408 281.949 338.197 284.338 337.924L291.65 337.924C288.134 334.09 284.767 329.932 281.095 326.273C278.235 326.129 275.215 326.103 272.359 326.273C269.438 326.626 267.891 327.289 265.611 329.143Z"/>
	<path fill="#FBFCFC" transform="scale(2 2)" d="M248.1 301.528L250.857 301.528C253.557 301.918 252.351 302.635 250.857 303.994C251.412 304.98 252.28 306.106 252.189 307.268C250.809 305.394 249.255 303.549 248.1 301.528Z"/>
	<path fill="#D5ECF4" transform="scale(2 2)" d="M200.738 375.273C206.578 374.742 205.576 379.885 205.503 384.138C207.237 383.238 214.308 379.304 214.377 383.774C214.482 390.522 204.151 387.184 205.503 405.719C207.911 403.3 211.307 401.294 213.18 398.435C214.6 396.269 217.395 383.748 222.131 387.822C222.927 389.659 222.454 392.056 222.302 393.993C224.518 393.653 228.899 392.87 229.728 395.763C229.286 399.21 219.946 402.369 217.1 404.528C214.522 406.483 212.664 409.161 210.178 411.197C214.186 410.886 218.343 411.074 222.302 410.444C225.109 408.591 232.537 398.368 235.794 404.643C235.873 406.873 234.38 409.218 233.431 411.197C234.404 411.215 246.933 410.603 243.099 415.376C241.24 417.691 236.191 417.609 233.431 417.777C234.923 421.443 235.796 423.25 232.44 426.035L231.982 425.767C228.104 423.506 225.28 420.096 222.302 416.804C218.235 416.641 214.252 417.255 210.178 416.804C212 419.609 214.867 422.986 217.892 424.514C221.137 426.153 230.655 425.745 229.998 431.008C229.549 434.604 224.47 432.662 222.302 432.173C222.778 435.039 224.063 439.849 219.623 439.996C215.965 440.117 216.247 434.286 215.108 431.833C213.43 428.219 208.356 424.752 205.503 421.853C205.252 425.653 204.961 429.068 205.503 432.864C206.735 434.612 219.692 444.244 214.272 445.794C210.848 446.773 208.184 444.466 205.503 442.763C205.844 446.834 206.756 449.603 202.44 451.42C197.558 451.044 198.584 446.473 198.628 442.763C196.391 444.208 193.449 446.703 190.622 445.815C185.519 444.211 197.894 433.877 199.176 432.173C199.263 428.741 199.179 425.287 199.176 421.853C196.689 424.11 192.221 427.526 190.561 430.289C189.441 432.153 186.495 442.337 182.785 437.994C181.663 436.681 182.172 434.44 182.308 432.864C171.301 432.652 172.853 428.308 183.611 425.64C188.669 424.385 191.205 420.406 194.689 416.804C173.574 416.604 182.882 421.746 171.825 424.598C164.838 426.401 168.19 419.812 171.513 416.804C166.116 416.851 160.928 418.021 161.959 410.444C165.493 409.91 169.056 409.872 172.62 409.677L171.512 409.061C167.707 406.911 166.406 402.258 171.049 402.014C173.754 401.873 180.78 409.148 182.98 411.197C186.901 410.994 190.769 411.212 194.689 411.197C191.763 408.63 188.668 405.549 185.318 403.589C183.974 402.802 169.358 398.376 175.656 394.814C177.719 393.647 180.158 394.045 182.308 394.652C181.983 392.702 180.754 384.713 185.317 386.959C186.608 387.595 189.331 395.789 190.399 397.565C192.519 401.088 196.586 403.662 199.176 406.964L198.628 394.652C196.572 391.926 189.085 386.568 190.402 382.718C192.699 379.92 196.46 382.63 198.628 384.138C198.338 381.599 198.462 379.102 198.628 376.559L200.738 375.273Z"/>
	<path fill="#1AB2E1" transform="scale(2 2)" d="M287.605 375.273C292.291 374.345 290.763 383.145 290.841 385.761C292.665 384.094 296.273 380.45 299.048 382.296C303.017 384.937 292.509 392.559 291.102 394.321L290.841 394.652C290.94 397.895 290.313 403.171 290.875 406.091L291.297 406.231C294.014 404.628 308.905 376.291 308.25 394.652C310.032 394.224 312.602 393.923 314.07 395.225C316.454 397.342 298.743 408.284 295.209 411.613C299.558 411.548 303.902 411.469 308.25 411.613C315.08 403.522 326.539 397.132 318.161 411.197C320.305 411.194 324.837 410.665 326.267 412.485C330.192 417.481 320.35 417.039 318.161 416.804C319.36 418.548 323.141 425.317 318.379 425.395C315.122 425.448 310.342 419.001 308.25 416.804C304.306 416.97 300.232 417.785 296.332 416.804C299.32 420.172 314.724 430.687 314.785 432.049C314.951 435.799 310.548 434.48 308.25 434.022C308.48 435.545 309.07 437.81 307.968 439.103C304.61 443.043 301.473 435.681 300.113 433.485C297.349 429.021 294.526 424.479 290.841 420.711C290.992 425.152 290.824 429.581 290.841 434.022C292.213 435.399 305.175 446.247 296.962 446.679C294.534 446.807 292.496 444.3 290.841 442.763C291.062 446.565 292.004 455.991 285.215 451.42C284.75 448.662 285.179 445.568 285.215 442.763C283.346 444.336 277.41 449.495 276.053 444.195C275.327 441.361 283.209 435.545 284.96 433.209L285.215 432.864C284.017 429.448 284.325 425.425 284.338 421.853C279.115 426.008 273.249 438.448 270.638 439.778C266.808 441.732 267.405 436.495 267.067 434.58C251.725 435.178 274.029 422.603 279.366 416.804C275.787 417.071 272.047 416.745 268.438 416.804C267.159 417.601 255.64 431.061 255.347 423.189C255.249 420.547 257.284 418.589 258.933 416.804C256.205 416.837 250.411 418.289 248.19 416.328C241.451 410.377 257.962 411.58 258.933 411.613C257.399 409.601 253.595 405.896 255.628 403.147C258.6 399.128 266.113 409.465 268.438 411.197C272.096 411.277 275.719 411.242 279.366 411.613C275.541 407.125 261.359 397.64 260.957 395.785C260.312 392.801 265.919 393.7 267.423 393.993C266.372 391.872 265.501 388.107 268.601 387.203C271.458 387.413 280.778 402.884 284.338 406.964L284.338 393.993C282.274 391.824 275.31 386.822 275.744 383.463C276.499 377.628 282.807 383.841 284.338 385.761C284.5 381.509 282.444 376.721 287.605 375.273Z"/>
	<path fill="#1AB2E1" transform="scale(2 2)" d="M153.767 314.04C158.875 314.166 157.526 320.584 157.147 324.023C158.299 322.912 165.029 316.427 166.073 321.312C166.697 324.227 159.598 330.09 157.778 332.356L157.557 332.635C157.507 336.154 157.571 339.681 157.557 343.202C162.726 339.337 165.08 336.649 167.749 330.863C171.352 323.05 175.739 322.769 174.541 331.985C177.348 331.404 181.432 330.498 181.084 334.845C180.917 336.926 171.16 340.384 168.919 341.989C166.282 343.878 164.145 346.385 161.959 348.758C165.146 348.882 168.332 348.994 171.513 349.224C177.996 345.433 183.482 335.673 188.051 343.202C186.807 345.202 184.939 346.651 183.793 348.758C185.775 348.85 196.017 348.987 191.596 354.047C190.129 355.726 185.88 355.557 183.793 355.705C184.991 357.44 190.337 363.004 185.232 363.997C182.661 364.498 175.114 357.261 172.62 355.705C169.077 355.603 165.506 355.728 161.959 355.705C164.235 358.593 167.859 362.284 171.018 364.114C173.911 365.792 181.584 366.396 180.946 370.993C180.511 374.123 176.496 372.653 174.541 372.188C174.913 374.39 175.542 378.472 172.556 379.046C169.413 378.279 168.694 374.342 167.286 371.912C164.937 367.86 160.763 363.951 157.147 360.999L157.147 372.188C169.934 381.153 169.04 391.486 157.147 380.551C157.215 383.578 158.141 388.231 155.299 390.26C149.426 390.41 151.009 384.702 151.238 380.551C150.169 381.347 142.121 388.566 141.758 382.395C141.552 378.892 149.055 373.762 151.238 371.064C151.239 367.714 151.097 364.346 151.238 360.999C143.667 365.322 138.863 378.257 136.299 377.93C133.833 377.616 134.516 373.741 133.533 372.292C131.937 372.678 129.678 372.966 128.326 371.855C123.963 368.272 137.018 364.09 138.674 362.872C141.371 360.887 143.697 357.955 146.239 355.705C142.891 355.502 139.076 354.919 135.78 355.702C131.829 356.639 126.236 366.189 122.324 362.972C119.63 360.756 123.996 357.179 125.513 355.705C123.148 355.766 111.955 355.746 117.305 350.294C118.911 348.657 123.283 349.211 125.513 349.224C124.264 347.987 118.381 341.973 122.796 340.618C126.192 339.576 131.949 347.111 134.857 348.758C138.654 348.816 142.44 349.169 146.239 349.224C144.18 346.347 141.093 343.173 138.183 341.142C137.041 340.345 120.18 333.974 129.728 330.405C130.97 329.941 133.018 331.4 134.09 331.985C133.874 330.261 133.132 325.306 136.083 325.415C140.407 325.574 141.428 334.178 143.631 337.145C145.601 339.799 148.696 341.935 151.238 344.014L151.238 332.635C148.561 330.663 140.571 324.213 142.538 320.534L143.184 320.444L142.655 320.382C145.458 317.214 149.491 322.039 151.238 324.023C151.295 320.7 149.584 315.336 153.767 314.04Z"/>
	<path fill="#1AB2E1" transform="scale(2 2)" d="M359.172 314.04C364.834 313.37 363.054 318.993 362.98 322.957C364.609 321.826 368.166 318.667 370.35 319.859C375.223 322.519 364.747 330.16 363.202 332.321L362.98 332.635C362.962 336.622 362.792 340.586 362.98 344.574C367.397 340.581 370.276 335.647 373.51 330.736C376.974 325.476 379.715 325.326 380.26 331.67C383.01 333.365 383.51 330.343 386.092 335.07C381.181 339.991 374.673 342.424 368.193 349.224C372.073 349.2 375.958 349.14 379.837 349.224C381.497 347.894 390.918 335.476 392.765 342.464C393.257 344.324 390.554 347.528 389.683 349.224C403.516 349.497 401.189 356.195 389.683 354.735C390.229 356.1 395.701 364.529 389.767 364.054C387.107 363.841 381.472 357.039 379.837 354.735C375.958 354.789 372.066 355.02 368.193 354.735C373.2 360.597 394.115 371.567 379.837 372.188L379.805 372.975C379.744 374.779 378.98 377.285 376.755 377.134C374.744 376.998 365.563 361.994 362.98 359.2C363.099 363.729 362.972 368.289 362.98 372.823C365.291 375.193 372.614 379.844 371.152 383.778C368.783 386.545 364.956 383.296 362.98 381.672C362.646 386.116 363.897 393.058 356.78 390.26C355.995 387.686 356.406 384.358 356.466 381.672C354.72 383.048 347.59 387.385 348.163 382.11C348.508 378.934 354.373 374.799 356.78 372.823L356.78 359.2C353.717 362.408 343.52 380.811 340.627 377.607C339.293 376.13 339.396 374.02 339.538 372.188C324.718 372.826 342.695 362.661 345.237 360.82C347.785 358.974 350.092 356.728 352.53 354.735C348.239 354.874 343.848 354.687 339.538 354.735C337.118 356.909 331.477 365.625 327.473 363.115C325.478 360.304 328.328 356.822 330.124 354.735C328.076 354.769 316.312 354.903 321.229 349.334C322.649 347.726 328.036 348.078 330.124 347.898C328.475 345.926 324.646 339.07 329.952 339.845C333.188 340.318 336.951 346.237 338.861 348.758C343.411 348.881 347.974 348.648 352.53 348.758C349.161 345.047 330.205 334.563 335.108 332.072C336.6 331.314 338.003 331.599 339.538 331.985C339.328 329.779 339.247 326.249 341.834 325.44C345.221 326.019 353.32 340.297 356.78 344.574C357.379 322.411 349.852 329.353 348.848 321.802C348.191 316.867 354.455 320.041 356.78 322.957C357.112 320.078 355.826 315.278 359.172 314.04Z"/>
	<path fill="#D5ECF4" transform="scale(2 2)" d="M390.957 400.494C393.674 401.405 393.339 402.76 393.429 405.319C393.992 405.794 395.838 405.081 396.736 405.397C399.899 406.51 394.594 410.478 393.857 411.371C392.336 413.213 393.107 416.854 393.333 419.074C395.206 418.095 396.585 417.084 398.087 415.623C397.837 411.601 397.704 403.556 403.537 409.677C404.873 408.839 408.506 406.984 408.384 410.237C408.318 411.991 405.793 414.318 404.657 415.623L405.428 415.621C412.211 415.655 410.098 420.814 401.844 419.074C399.142 419.846 397.427 421.758 395.591 423.755C398.254 423.665 400.875 423.643 403.537 423.755C406.924 421.078 410.399 416.367 410.308 423.827C411.912 424.615 414.342 423.252 414.977 425.902C414.416 427.721 411.985 427.929 410.411 427.926C410.439 428.885 410.431 429.839 410.411 430.798C409.081 433.158 408.498 435.881 406.196 437.507C409.738 439.712 411.591 442.936 405.111 441.567C402.716 441.061 404.088 444.686 400.236 442.763C399.129 438.143 397.325 434.875 393.333 432.173C393.149 434.506 393.151 436.941 393.333 439.273C397.277 442.391 400.58 443.868 393.333 445.506C393.007 448.897 389.468 451.992 388.543 447.074L388.543 444.154C385.885 444.462 383.361 443.767 380.685 444.154L379.174 441.163C374.739 444.521 372.399 441.453 376.102 437.507C370.137 433.533 373.744 431.549 379.837 432.864C382.036 431.368 383.903 429.455 386.092 427.926C383.745 427.852 381.068 427.555 378.782 428.129C375.73 428.895 370.043 437.818 371.086 427.926C369.095 427.93 364.815 428.394 366.24 424.902C367.139 422.699 369.356 424.251 370.968 423.6C370.276 415.701 374.948 421.043 377.368 423.755C380.266 423.841 383.191 423.76 386.092 423.755C384.181 421.692 382.443 420.215 379.837 419.074C374.166 419.509 369.026 417.865 377.368 414.453C369.251 409.682 373.741 406.511 378.333 409.927C380.251 406.726 381.452 406.011 383.485 409.677C381.863 415.462 384.613 416.765 388.543 420.711C388.243 417.95 388.235 415.42 388.543 412.656C386.375 410.567 380.665 408.54 385.33 405.719L388.543 406.964C388.096 403.793 387.724 401.999 390.957 400.494Z"/>
	<path fill="#FBFCFC" transform="scale(2 2)" d="M396.769 427.926C399.011 427.832 401.291 427.929 403.537 427.926C404.589 429.78 406.348 430.972 407.627 432.645L407.29 432.864C405.474 432.896 403.66 432.88 401.844 432.864C400.004 431.949 397.291 430.193 396.426 428.261L396.769 427.926Z"/>
	<path fill="#FBFCFC" transform="scale(2 2)" d="M388.543 432.173C388.901 432.591 388.555 438.308 388.543 439.273C386.854 440.186 385.946 441.273 384.541 442.502L384.239 442.763C382.053 437.285 384.07 435.451 388.543 432.173Z"/>
	<path fill="#D5ECF4" transform="scale(2 2)" d="M98.2561 397.99C104.429 398.586 100.856 404.413 100.373 407.946C100.084 410.06 100.276 412.322 100.336 414.453C105.394 410.292 105.825 401.82 113.735 403.927C113.893 405.858 113.869 407.746 113.735 409.677C109.744 411.647 106.783 413.439 103.806 416.804C108.734 417.025 116.166 414.229 118.624 416.736C121.637 419.809 117.719 421.928 115.321 423.755L113.852 422.824C110.648 420.785 107.42 421.038 103.806 420.711C106.395 424.6 109.265 426.654 113.735 427.926C114.002 444.177 102.864 426.093 100.336 423.755C100.476 429.976 103.815 436.198 99.2581 440.333C92.482 441.68 97.1349 426.659 97.3321 423.755C90.8873 428.552 93.3934 434.862 84.2824 434.022C84.1856 431.972 84.1646 429.975 84.2824 427.926C88.0616 425.875 91.0339 423.244 94.4693 420.711C90.0416 421.021 86.1562 421.417 81.8844 422.723C76.6111 419.943 77.4718 417.468 81.8844 414.453C83.6585 415.07 85.3916 416.009 87.0966 416.804C89.6953 417.234 91.8615 417.116 94.4693 416.804C91.0614 413.833 88.1867 411.926 84.2824 409.677C84.2071 406.783 83.3921 402.873 87.7604 403.489C90.5794 403.887 94.2768 411.408 96.6732 414.453C96.6824 408.581 93.6226 401.171 98.2561 397.99Z"/>
</svg>
