<?xml version="1.0" encoding="utf-8" ?>
<svg xmlns="http://www.w3.org/2000/svg" xmlns:xlink="http://www.w3.org/1999/xlink" width="1024" height="1024">
	<path fill="#FBFBFB" transform="scale(2 2)" d="M177.865 188.024C184.635 172.481 192.374 162.984 206.446 153.348C235.969 133.13 281.54 141.578 301.715 171.236C302.927 170.712 304.131 170.234 305.221 169.479C308.726 168.317 311.878 166.269 315.393 165.1C342.138 156.203 371.411 179.03 377.585 205.59C378.64 209.557 378.783 213.963 379.159 218.051C383.632 220.136 388.147 222.168 392.373 224.731C418.612 240.647 426.735 275.828 410.307 301.755C393.571 328.168 358.903 333.881 333.178 317.337C314.863 332.753 303.708 333.998 279.959 333.954L253.872 333.925C233.106 333.821 226.804 336.455 207.722 328.221C206.22 331.392 204.78 334.73 202.643 337.534C186.068 359.289 151.013 349.29 148.047 326.998C142.692 327.302 137.031 327.405 131.773 326.28C108.501 321.298 79.9894 297.072 79.7755 271.505C79.5393 243.276 101.91 225.61 128.711 225.51C129.577 209.857 131.676 196.874 147.319 189.104C156.686 184.451 168.135 184.747 177.865 188.024Z"/>
	<path fill="#CDCED2" transform="scale(2 2)" d="M355.895 181.665C364.79 184.799 374.213 210.172 371.91 217.108C369.48 216.277 367.058 215.449 364.549 214.891C366.513 203.228 363.287 190.888 355.895 181.665Z"/>
	<path fill="#CDCED2" transform="scale(2 2)" d="M305.221 169.479C295.905 148.774 292.78 131.522 301.303 109.139C311.042 83.5654 340.004 64.6786 367.552 67.4846C372.758 68.0149 377.84 69.3436 382.897 70.6372C379.991 72.1871 376.932 73.3626 374.132 75.1205C342.795 94.7996 351.096 144.748 386.657 155.16C404.574 160.406 417.917 155.447 431.124 143.843C425.596 173.978 407.197 197.265 377.585 205.59C371.411 179.03 342.138 156.203 315.393 165.1C311.878 166.269 308.726 168.317 305.221 169.479Z"/>
	<path fill="#CDE0F1" transform="scale(2 2)" d="M127.41 346.247C137.306 353.109 145.851 374.406 127.41 378.595C107.98 372.83 116.524 355.716 127.41 346.247Z"/>
	<path fill="#FBFBFB" transform="scale(2 2)" d="M122.659 360.177C123.877 361.054 122.845 365.971 123.001 367.62C123.245 370.192 126.414 372.961 122.659 371.874C118.066 369.799 118.688 362.562 122.659 360.177Z"/>
	<path fill="#FBFBFB" transform="scale(2 2)" d="M229.749 409.188C239.26 416.529 248.465 438.403 229.749 440.149C208.675 437.877 220.639 418.265 229.749 409.188Z"/>
	<path fill="#84B6EA" transform="scale(2 2)" d="M218.361 351.131C228.759 358.569 237.669 376.4 219.17 380.813C199.2 380.969 207.507 361.133 218.361 351.131Z"/>
	<path fill="#CDE0F1" transform="scale(2 2)" d="M211.217 365.618C212.084 366.004 212.721 371.629 214.89 374.064C216.609 374.499 219.257 374.98 215.94 375.865C210.389 375.846 206.708 369.995 211.217 365.618Z"/>
	<path fill="#84B6EA" transform="scale(2 2)" d="M326.383 404.886C334.137 409.476 345.032 434.098 325.711 435.289C305.406 432.327 320.693 413.029 326.383 404.886Z"/>
	<path fill="#CDE0F1" transform="scale(2 2)" d="M321.805 418.398C325.124 418.952 321.198 422.434 321.805 427.269C322.593 428.694 323.846 429.582 324.858 430.827L324.518 431.117C322.945 431.029 321.87 430.714 320.477 429.965C317.848 426.113 318.473 421.653 321.805 418.398Z"/>
	<path fill="#84B6EA" transform="scale(2 2)" d="M272.9 370.683C280.97 379.898 291.297 398.796 271.759 399.901C251.769 398.629 266.295 378.21 272.9 370.683Z"/>
	<path fill="#FBFBFB" transform="scale(2 2)" d="M266.922 395.245C264.822 392.364 264.002 386.055 267.558 384.019C271.292 383.983 264.318 389.262 267.947 393.997C267.675 394.595 267.44 394.843 266.922 395.245Z"/>
	<path fill="#CDE0F1" transform="scale(2 2)" d="M267.947 393.997C268.992 394.51 270.126 394.935 270.889 395.84L270.949 396.391C269.519 397.388 267.913 396.42 266.922 395.245C267.44 394.843 267.675 394.595 267.947 393.997Z"/>
	<path fill="#84B6EA" transform="scale(2 2)" d="M326.383 346.247C333.606 353.65 344.433 374.839 326.383 375.865C307.219 374.354 317.976 355.082 326.383 346.247Z"/>
	<path fill="#CDE0F1" transform="scale(2 2)" d="M318.443 367.603C318.354 363.384 319.223 361.1 323.133 358.937C322.348 361.508 320.131 365.033 321.805 367.603C323.527 369.003 325.345 373.153 321.805 371.874C320.369 370.631 319.358 369.25 318.443 367.603Z"/>
	<path fill="#CDE0F1" transform="scale(2 2)" d="M169.17 378.595C177.696 387.232 185.617 406.364 168.101 407.351C150.643 405.515 161.083 383.009 169.17 378.595Z"/>
	<path fill="#FBFBFB" transform="scale(2 2)" d="M164.511 391.649L164.872 392.098C164.66 393.758 164.735 400.389 164.285 401.148L162.792 400.874C160.349 397.933 161.614 393.668 164.511 391.649Z"/>
</svg>
