<?xml version="1.0" encoding="utf-8" ?>
<svg xmlns="http://www.w3.org/2000/svg" xmlns:xlink="http://www.w3.org/1999/xlink" width="1024" height="1024">
	<path fill="#FAFBFB" transform="scale(2 2)" d="M259.482 79.2414C265.334 77.5744 270.96 75.5275 276.98 74.4567C319.744 66.8486 364.216 92.4343 376.09 134.821C376.972 137.972 377.722 141.165 378.662 144.299C463.498 183.877 426.218 304.28 339.379 296.611C337.477 296.443 335.643 296.007 333.762 295.785C328.605 296.528 321.716 295.779 316.342 295.78L150.045 295.802C143.006 295.797 135.386 296.34 128.508 294.746C81.5646 283.871 70.2874 220.509 110.397 192.927C113.39 190.869 116.628 189.386 119.694 187.478C122.192 177.147 119.741 170.907 130.701 162.642C138.427 156.815 145.257 157.594 154.207 158.879C155.19 125.783 181.268 106.741 210.519 124.138C222.836 95.4701 236.148 92.0661 259.482 79.2414Z"/>
	<path fill="#D0DAE5" transform="scale(2 2)" d="M259.482 79.2414C265.334 77.5744 270.96 75.5275 276.98 74.4567C319.744 66.8486 364.216 92.4343 376.09 134.821C376.972 137.972 377.722 141.165 378.662 144.299C463.498 183.877 426.218 304.28 339.379 296.611C337.477 296.443 335.643 296.007 333.762 295.785L333.635 295.46C334.337 294.74 340.44 293.718 341.904 293.258C360.092 287.544 376 277.016 386.914 261.211C410.153 227.556 402.589 180.406 368.674 156.882C363.831 153.522 358.248 151.399 353.447 147.994C352.632 144.377 352.203 140.692 351.298 137.083C341.561 98.254 306.061 76.3619 266.781 79.528C264.572 79.7061 261.288 80.866 259.482 79.2414Z"/>
	<defs>
		<linearGradient id="gradient_0" gradientUnits="userSpaceOnUse" x1="336.13171" y1="343.02545" x2="368.94565" y2="328.39807">
			<stop offset="0" stop-color="#8ACEE4"/>
			<stop offset="1" stop-color="#CDEBF2"/>
		</linearGradient>
	</defs>
	<path fill="url(#gradient_0)" transform="scale(2 2)" d="M351.469 317.27C358.035 316.883 355.864 325.043 355.762 329.497C357.298 328.419 365.438 319.115 366.886 324.525C367.645 327.36 362.544 330.819 361.098 332.999C362.22 332.998 377.6 332.291 371.84 337.683C369.783 339.61 363.649 338.743 361.098 338.494C361.928 339.82 371.479 348.36 365.967 349.631C363.391 350.225 358.68 344.387 355.762 342.763C355.975 345.399 357.493 358.031 351.469 354.706C349.406 351.637 350.132 346.324 350.143 342.763C349.429 343.343 339.102 355.664 339.07 348.127C339.055 344.724 344.059 340.942 346.35 338.494C346.066 338.485 326.527 339.945 333.643 333.499C334.684 332.556 344.498 333.003 346.35 332.999C343.637 330.376 340.314 327.626 338.474 324.308C341.835 317.033 347.253 326.274 350.143 329.497C350.143 326.199 348.455 319.487 351.469 317.27Z"/>
	<path fill="#A1D9EA" transform="scale(2 2)" d="M157.854 320.704C162.516 320.745 160.865 330.694 160.991 333.737C161.419 333.311 172.276 320.489 172.344 328.382C172.369 331.295 167.292 335.517 165.309 337.635C166.257 337.637 183.03 336.509 177.991 341.713C176.038 343.731 168.161 342.788 165.309 342.763C165.816 343.445 177.562 355.685 169.79 355.206C166.655 355.013 162.96 349.462 160.991 347.301C161.018 350.269 162.377 357.875 159.736 359.884C153.649 360.755 155.569 351.048 155.78 347.301C154.578 348.692 146.704 359.749 144.766 353.627C143.988 351.167 150.188 345.381 151.895 342.763C148.573 342.63 136.687 345.055 139.329 338.176C140.857 337.043 149.523 337.564 151.895 337.635C150.334 335.485 145.046 330.525 145.139 327.983C145.439 319.86 154.885 332.58 155.78 333.737C155.698 330.38 154.567 322.834 157.854 320.704Z"/>
	<path fill="#A1D9EA" transform="scale(2 2)" d="M254.979 400.98C260.549 401.179 257.732 410.073 257.779 414.595C258.138 414.328 270.6 401.115 270.431 409.292C270.353 413.064 263.27 416.135 260.847 418.634C263.283 418.835 271.013 417.901 272.601 419.2C280.171 425.397 261.912 423.347 260.847 423.239C262.892 426.09 268.5 429.37 268.791 432.917C268.906 434.329 267.582 435.622 266.172 435.493C262.498 435.158 259.707 428.765 257.244 426.356C256.898 430.096 258.728 436.5 255.988 439.425C249.838 442.867 252.114 429.017 252.031 426.8L252.012 426.356C250.139 428.632 246.234 434.481 243.21 434.446C234.588 434.346 247.377 424.99 248.5 424.17C248.352 422.108 238.429 424.301 236.638 422.255C230.879 415.676 246.885 418.007 249.359 418.634C249.3 418.551 249.243 418.466 249.183 418.383L248.879 417.973C247.242 415.734 241.925 412.04 241.939 409.381C241.947 407.958 243.501 406.375 244.966 406.606C248.17 407.111 251.235 413.522 252.809 416.165C252.813 412.299 251.042 403.346 254.979 400.98Z"/>
	<path fill="#D0DAE5" transform="scale(2 2)" d="M215.928 342.763C220.324 343.132 231.125 368.128 225.696 374.173C219.191 385.504 201.254 378.048 203.637 365.403C204.363 361.552 212.032 345.462 215.928 342.763Z"/>
	<path fill="#A1D9EA" transform="scale(2 2)" d="M215.928 342.763C217.408 351.322 205.772 359.506 206.753 367.923C207.349 373.038 213.478 377.022 218.355 376.215C220.656 375.834 223.47 373.981 225.696 374.173C219.191 385.504 201.254 378.048 203.637 365.403C204.363 361.552 212.032 345.462 215.928 342.763Z"/>
	<path fill="#D0DAE5" transform="scale(2 2)" d="M325.982 408.476C321.787 421.605 300.22 417.484 303.428 403.138C304.059 400.319 312.399 380.119 316.184 381.638L316.34 381.962C320.873 391.157 326.208 396.327 325.982 408.476Z"/>
	<path fill="#A1D9EA" transform="scale(2 2)" d="M325.982 408.476C321.787 421.605 300.22 417.484 303.428 403.138C304.059 400.319 312.399 380.119 316.184 381.638C313.585 387.245 307.498 398.098 306.441 403.606C304.91 411.59 313.948 414.992 320.12 412.09C321.349 411.512 324.76 408.005 325.722 408.009L325.982 408.476Z"/>
	<path fill="#D0DAE5" transform="scale(2 2)" d="M181.7 405.761C187.831 395.308 196.219 424.742 195.15 427.779C193.16 434.794 185.053 439.187 178.285 435.524C164.763 428.205 177.517 413.626 181.7 405.761Z"/>
	<path fill="#A1D9EA" transform="scale(2 2)" d="M181.7 405.761C184.488 408.311 171.809 422.728 178.777 430.17C186.368 438.276 191.121 429.07 194.886 427.683L195.15 427.779C193.16 434.794 185.053 439.187 178.285 435.524C164.763 428.205 177.517 413.626 181.7 405.761Z"/>
	<path fill="#D0DAE5" transform="scale(2 2)" d="M281.033 329.497C285.192 329.686 294.825 351.951 290.438 357.56C283.812 369.537 265.44 362.054 269.656 348.974C270.7 345.736 278.083 331.06 281.033 329.497Z"/>
	<path fill="#A1D9EA" transform="scale(2 2)" d="M281.033 329.497L281.453 329.863C281.342 333.871 272.501 346.595 272.293 352.298C272.104 357.465 277.728 360.648 282.299 360.585C285.495 360.542 288.321 357.504 290.438 357.56C283.812 369.537 265.44 362.054 269.656 348.974C270.7 345.736 278.083 331.06 281.033 329.497Z"/>
</svg>
