<?xml version="1.0" encoding="utf-8" ?>
<svg xmlns="http://www.w3.org/2000/svg" xmlns:xlink="http://www.w3.org/1999/xlink" width="1024" height="1024">
	<path fill="#D2D1D2" transform="scale(2 2)" d="M271.797 121.515C285.804 86.7715 322.65 69.8589 358.411 77.3384C315.412 125.197 379.879 187.831 427.04 152.9C429.412 151.142 431.553 149.116 433.859 147.283C440.323 175.625 426.788 199.193 411.358 221.72C413.65 224.093 417.644 225.766 420.309 228.141C439.372 245.126 440.56 277.19 423.236 296.038C408.058 312.55 388.405 310.672 368.241 310.661L153.38 310.661C129.799 310.664 109.05 313.695 90.32 296.35C60.1289 268.391 79.089 216.796 122.825 215.677C125.499 188.288 147.2 168.307 175.174 178.533C190.376 134.679 228.247 117.729 271.797 121.515Z"/>
	<path fill="#2F5A93" transform="scale(2 2)" d="M271.797 121.515C285.804 86.7715 322.65 69.8589 358.411 77.3384C315.412 125.197 379.879 187.831 427.04 152.9C429.412 151.142 431.553 149.116 433.859 147.283C440.323 175.625 426.788 199.193 411.358 221.72C405.725 217.144 396.182 215.822 389.191 215.677C390.121 191.268 369.814 168.261 344.607 173.68C341.622 174.321 338.75 175.494 335.784 176.25C326.809 150.556 307.488 132.169 281.583 124.105C279.97 123.603 272.565 122.354 271.797 121.515Z"/>
	<path fill="#93C6F5" transform="scale(2 2)" d="M332.904 415.72C335.51 413.795 342.889 407.433 345.919 407.306C350.189 408.817 350.622 427.949 342.725 431.152C332.112 436.115 323.651 424.571 332.904 415.72Z"/>
	<path fill="#28A1F3" transform="scale(2 2)" d="M332.904 415.72C333.798 419.345 339.789 428.69 342.725 431.152C332.112 436.115 323.651 424.571 332.904 415.72Z"/>
	<defs>
		<linearGradient id="gradient_0" gradientUnits="userSpaceOnUse" x1="352.47235" y1="366.45831" x2="364.93939" y2="358.18951">
			<stop offset="0" stop-color="#6CB1F1"/>
			<stop offset="1" stop-color="#C2DEFC"/>
		</linearGradient>
	</defs>
	<path fill="url(#gradient_0)" transform="scale(2 2)" d="M350.699 356.586C351.91 355.248 358.697 351.046 360.248 351.029C363.881 350.989 364.469 368.05 361.371 371.611C360.617 372.892 359.546 373.921 358.411 374.872C347.063 379.585 339.265 367.474 347.392 359.846C348.285 358.506 349.321 357.43 350.699 356.586Z"/>
	<path fill="#28A1F3" transform="scale(2 2)" d="M347.392 359.846C350.55 365.091 352.802 371.648 358.411 374.872C347.063 379.585 339.265 367.474 347.392 359.846Z"/>
	<path fill="#93C6F5" transform="scale(2 2)" d="M347.392 359.846C348.285 358.506 349.321 357.43 350.699 356.586L350.822 357.12C347.895 359.662 353.208 371.388 360.032 372.13C360.445 371.887 360.878 371.622 361.371 371.611C360.617 372.892 359.546 373.921 358.411 374.872C352.802 371.648 350.55 365.091 347.392 359.846Z"/>
	<path fill="#93C6F5" transform="scale(2 2)" d="M134.131 415.72C136.039 413.944 144.119 407.436 146.518 407.315C150.968 407.09 150.494 427.116 144.46 431.152C132.839 436.323 125.179 424.796 134.131 415.72Z"/>
	<path fill="#28A1F3" transform="scale(2 2)" d="M134.131 415.72C135.15 421.311 139.263 428.439 144.46 431.152C132.839 436.323 125.179 424.796 134.131 415.72Z"/>
	<defs>
		<linearGradient id="gradient_1" gradientUnits="userSpaceOnUse" x1="269.62698" y1="423.55975" x2="282.91739" y2="413.71118">
			<stop offset="0" stop-color="#77B8F3"/>
			<stop offset="1" stop-color="#BCDCFB"/>
		</linearGradient>
	</defs>
	<path fill="url(#gradient_1)" transform="scale(2 2)" d="M265.383 415.72C269.018 412.297 274.074 408.477 278.867 406.886C281.684 413.712 282.333 426.169 275.612 431.152C264.682 436.639 257.296 424.95 265.383 415.72Z"/>
	<path fill="#28A1F3" transform="scale(2 2)" d="M265.383 415.72C267.352 420.974 270.976 427.768 275.612 431.152C264.682 436.639 257.296 424.95 265.383 415.72Z"/>
	<defs>
		<linearGradient id="gradient_2" gradientUnits="userSpaceOnUse" x1="214.41852" y1="368.9538" x2="227.06137" y2="354.96982">
			<stop offset="0" stop-color="#6BB4F2"/>
			<stop offset="1" stop-color="#BAD8F9"/>
		</linearGradient>
	</defs>
	<path fill="url(#gradient_2)" transform="scale(2 2)" d="M210.514 359.846C213.138 357.72 220.618 351.816 223.628 351.308C227.792 353.013 227.211 371.328 220.394 375.434C209.553 380.099 202.112 368.25 210.514 359.846Z"/>
	<path fill="#28A1F3" transform="scale(2 2)" d="M210.514 359.846C213.085 367.349 216.124 369.711 220.394 375.434C209.553 380.099 202.112 368.25 210.514 359.846Z"/>
	<defs>
		<linearGradient id="gradient_3" gradientUnits="userSpaceOnUse" x1="282.82297" y1="367.8024" x2="295.98917" y2="358.07812">
			<stop offset="0" stop-color="#60B1F2"/>
			<stop offset="1" stop-color="#CEE5FB"/>
		</linearGradient>
	</defs>
	<path fill="url(#gradient_3)" transform="scale(2 2)" d="M278.867 359.846C280.184 358.288 289.176 351.206 290.92 351.204C294.768 351.199 295.55 372.339 288.198 375.434C277.137 379.262 269.706 367.978 278.867 359.846Z"/>
	<path fill="#28A1F3" transform="scale(2 2)" d="M278.867 359.846C280.579 366.031 284.489 370.409 288.198 375.434C277.137 379.262 269.706 367.978 278.867 359.846Z"/>
	<path fill="#93C6F5" transform="scale(2 2)" d="M200.189 415.72C201.888 413.586 210.219 407.691 212.698 407.157C217.351 408.412 215.973 425.374 210.514 431.152C199.033 435.523 191.296 424.987 200.189 415.72Z"/>
	<path fill="#28A1F3" transform="scale(2 2)" d="M200.189 415.72C203.311 421.525 205.118 426.625 210.514 431.152C199.033 435.523 191.296 424.987 200.189 415.72Z"/>
	<path fill="#93C6F5" transform="scale(2 2)" d="M145.593 359.846C146.882 358.468 157.66 349.748 159.184 352.261C162.106 357.08 160.692 370.08 156.52 374.872C145.356 380.915 135.758 369.01 145.593 359.846Z"/>
	<path fill="#28A1F3" transform="scale(2 2)" d="M145.593 359.846C148.012 366.018 151.306 370.712 156.52 374.872C145.356 380.915 135.758 369.01 145.593 359.846Z"/>
</svg>
