<?xml version="1.0" encoding="utf-8" ?>
<svg xmlns="http://www.w3.org/2000/svg" xmlns:xlink="http://www.w3.org/1999/xlink" width="1024" height="1024">
	<defs>
		<linearGradient id="gradient_0" gradientUnits="userSpaceOnUse" x1="436.06766" y1="162.78769" x2="66.794312" y2="210.73749">
			<stop offset="0" stop-color="#BED2F2"/>
			<stop offset="1" stop-color="#DEEAF5"/>
		</linearGradient>
	</defs>
	<path fill="url(#gradient_0)" transform="scale(2 2)" d="M252.153 57.3052C255.675 56.9066 259.834 57.374 263.373 57.6516C306.86 61.0625 343.346 87.9477 358.875 129.063C361.1 134.954 362.427 141.05 364.089 147.108C407.962 147.097 443.732 178.617 443.874 223.301C443.99 260.105 419.956 291.033 384.055 299.206C375.712 301.106 367.401 300.778 358.918 300.775L260.807 300.767L185.123 300.771C168.768 300.771 142.801 302.529 127.155 298.817C68.671 284.942 49.1864 209.484 91.9968 168.639C108.318 153.066 125.571 147.165 147.83 147.735C149.293 142.702 150.108 137.472 151.585 132.415C164.676 87.6276 206.61 60.176 252.153 57.3052Z"/>
	<path fill="#6F90EB" transform="scale(2 2)" d="M184.414 397.299C190.711 396.872 203.986 405.664 207.902 409.365C210.924 412.222 210.485 433.063 208.729 436.378C207.322 439.033 189.435 449.107 186.075 450.099C181.029 450.74 166.245 441.664 163.258 438.761C158.487 434.125 159.02 415.308 161.718 410.803C163.242 408.258 180.959 398.236 184.414 397.299Z"/>
	<path fill="#BFD0F2" transform="scale(2 2)" d="M179.893 411.31C187.55 410.931 187.162 419.4 181.065 421.982C174.409 422.52 173.48 412.965 179.893 411.31Z"/>
	<path fill="#BFD0F2" transform="scale(2 2)" d="M190.892 427.047C197.876 426.725 198.639 434.65 192.515 437.307C188.876 437.432 187.104 436.147 186.075 432.582C186.986 429.568 187.597 427.957 190.892 427.047Z"/>
	<path fill="#BFD0F2" transform="scale(2 2)" d="M172.385 426.949C175.126 426.499 177.729 428.307 178.265 431.032C178.802 433.757 177.078 436.416 174.371 437.039C172.542 437.459 170.629 436.851 169.379 435.45C168.13 434.05 167.742 432.08 168.368 430.311C168.993 428.542 170.533 427.253 172.385 426.949Z"/>
	<path fill="#BFD0F2" transform="scale(2 2)" d="M198.376 411.965C201.11 411.604 203.616 413.537 203.96 416.274C204.303 419.01 202.354 421.504 199.615 421.83C196.901 422.154 194.435 420.225 194.094 417.514C193.754 414.802 195.666 412.323 198.376 411.965Z"/>
	<path fill="#6F90EB" transform="scale(2 2)" d="M273.715 308.31C277.46 308.375 298.311 320.705 299.57 323.19C301.03 326.071 301.65 345.955 298.657 348.305C294.384 351.66 281.958 358.567 277.057 360.929C272.576 362.322 251.528 349.906 250.561 345.721C249.84 342.603 249.258 325.021 251.342 321.889C253.536 318.59 269.529 309.275 273.715 308.31Z"/>
	<path fill="#BFD0F2" transform="scale(2 2)" d="M279.034 337.884C282.528 336.858 286.187 338.879 287.18 342.383C288.173 345.886 286.117 349.527 282.604 350.486C279.138 351.433 275.556 349.411 274.577 345.954C273.597 342.497 275.586 338.896 279.034 337.884Z"/>
	<path fill="#BFD0F2" transform="scale(2 2)" d="M284.394 322.138C287.881 321.198 291.466 323.282 292.374 326.778C293.283 330.273 291.167 333.839 287.663 334.716C284.203 335.583 280.692 333.499 279.795 330.047C278.898 326.595 280.95 323.065 284.394 322.138Z"/>
	<path fill="#BFD0F2" transform="scale(2 2)" d="M263.354 336.687C265.195 336.387 267.077 336.894 268.519 338.08C269.96 339.265 270.821 341.013 270.883 342.878C270.991 346.169 268.618 349.019 265.363 349.509C261.834 350.041 258.538 347.623 257.985 344.097C257.433 340.571 259.831 337.26 263.354 336.687Z"/>
	<path fill="#BFD0F2" transform="scale(2 2)" d="M269.17 320.87C271.438 320.339 273.815 321.075 275.388 322.793C276.961 324.511 277.484 326.944 276.755 329.157C276.027 331.369 274.161 333.016 271.876 333.464C268.429 334.14 265.076 331.93 264.338 328.496C263.6 325.062 265.749 321.669 269.17 320.87Z"/>
	<path fill="#6F90EB" transform="scale(2 2)" d="M367.935 317.27C373 317.066 390.828 327.878 392.695 331.48C394.323 334.623 394.162 351.027 393.075 354.503C391.739 358.775 376.278 367.284 370.824 370.194C366.861 371.078 363.851 368.446 360.587 366.628C344.094 357.444 345.195 360.971 345.08 342.127C345.059 338.611 344.768 334.993 345.078 331.495C348.707 328.115 363.368 318.987 367.935 317.27Z"/>
	<path fill="#BFD0F2" transform="scale(2 2)" d="M362.456 329.82C366.164 329.36 369.542 331.992 370.004 335.699C370.465 339.406 367.834 342.786 364.127 343.248C360.418 343.711 357.037 341.079 356.576 337.37C356.114 333.661 358.747 330.281 362.456 329.82Z"/>
	<path fill="#BFD0F2" transform="scale(2 2)" d="M358.581 345.607C362.261 345.411 365.409 348.223 365.628 351.902C365.847 355.581 363.054 358.747 359.377 358.989C355.666 359.233 352.466 356.41 352.245 352.698C352.025 348.986 354.868 345.804 358.581 345.607Z"/>
	<path fill="#BFD0F2" transform="scale(2 2)" d="M378.651 330.033C387.796 329.371 389.384 339.259 381.667 343.171C372.585 345.33 370.2 332.681 378.651 330.033Z"/>
	<path fill="#BFD0F2" transform="scale(2 2)" d="M372.722 346.033C381.986 345.403 384.654 353.341 376.537 359.009C367.718 359.051 364.857 349.887 372.722 346.033Z"/>
	<path fill="#EBF1F7" transform="scale(2 2)" d="M129.594 366.091C118.562 343.461 147.148 320.988 164.87 340.833C176.496 347.896 180.957 361.548 173.547 373.358C162.271 391.33 135.856 384.391 129.594 366.091Z"/>
	<path fill="#BFD0F2" transform="scale(2 2)" d="M164.87 340.833C176.496 347.896 180.957 361.548 173.547 373.358C162.271 391.33 135.856 384.391 129.594 366.091C130.43 364.917 133.588 368.636 134.348 369.22C148.099 379.792 170.937 366.434 166.558 347.419C166.046 345.196 165.136 343.119 164.87 340.833Z"/>
	<path fill="#EBF1F7" transform="scale(2 2)" d="M245.267 433.459C245.364 428.476 244.394 414.867 246.499 410.953C248.299 407.606 264.689 398.014 269.453 398.686C273.228 399.219 281.849 403.723 285.279 405.846C288.208 407.548 291.271 409.591 293.579 412.093C294.162 417.806 293.959 430.193 293.579 436.348C289.797 440.155 285.014 442.195 280.401 444.808C275.431 447.624 271.768 451.222 265.8 448.54C260.038 445.951 246.621 440.083 245.267 433.459Z"/>
	<path fill="#BFD0F2" transform="scale(2 2)" d="M285.279 405.846C288.208 407.548 291.271 409.591 293.579 412.093C294.162 417.806 293.959 430.193 293.579 436.348C289.797 440.155 285.014 442.195 280.401 444.808C275.431 447.624 271.768 451.222 265.8 448.54C260.038 445.951 246.621 440.083 245.267 433.459C252.087 436.411 258.257 441.571 265.532 443.368C269.882 442.285 282.514 435.961 285.279 432.582C285.285 423.683 285.063 414.741 285.279 405.846Z"/>
	<path fill="#EBF1F7" transform="scale(2 2)" d="M324.542 429.22C323.7 424.937 323.6 416.073 326.602 412.947C332.503 406.8 341.373 407.58 347.218 413.444C351.271 417.325 352.045 428.759 348.991 432.101C347.026 434.251 341.684 437.45 338.614 437.564C334.734 437.709 326.732 432.682 324.542 429.22Z"/>
	<path fill="#BFD0F2" transform="scale(2 2)" d="M346.392 427.994C347.801 423.7 347.175 417.962 347.218 413.444C351.271 417.325 352.045 428.759 348.991 432.101C347.026 434.251 341.684 437.45 338.614 437.564C334.734 437.709 326.732 432.682 324.542 429.22C333.572 430.893 336.715 437.292 346.392 427.994Z"/>
	<path fill="#EBF1F7" transform="scale(2 2)" d="M225.811 387.027C215.563 373.284 234.002 354.881 247.57 373.734C257.388 388.501 234.297 403.168 225.811 387.027Z"/>
	<path fill="#BFD0F2" transform="scale(2 2)" d="M247.57 373.734C257.388 388.501 234.297 403.168 225.811 387.027C227.122 386.59 234.544 393.31 242.781 386.554C247.336 382.818 247.042 379.172 247.547 373.951L247.57 373.734Z"/>
	<path fill="#EBF1F7" transform="scale(2 2)" d="M298.499 388.552C289.749 380.181 300.928 360.275 317.303 371.853C331.924 381.776 313.259 405.353 298.499 388.552Z"/>
	<path fill="#BFD0F2" transform="scale(2 2)" d="M317.303 371.853C331.924 381.776 313.259 405.353 298.499 388.552C302.686 388.894 304.146 391.834 310.728 389.254C319.558 385.793 318 378.385 317.303 371.853Z"/>
	<path fill="#EBF1F7" transform="scale(2 2)" d="M195.825 366.091C186.749 356.511 200.2 334.848 215.574 353.469C216.375 354.616 217.054 355.726 217.668 356.985C217.345 361.213 217.514 366.257 214.072 369.288C208.617 374.093 199.208 372.771 195.825 366.091Z"/>
	<path fill="#BFD0F2" transform="scale(2 2)" d="M195.825 366.091C203.547 368.498 213.781 368.69 215.098 358.122C215.295 356.543 215.013 355.003 215.574 353.469C216.375 354.616 217.054 355.726 217.668 356.985C217.345 361.213 217.514 366.257 214.072 369.288C208.617 374.093 199.208 372.771 195.825 366.091Z"/>
</svg>
