<?xml version="1.0" encoding="utf-8" ?>
<svg xmlns="http://www.w3.org/2000/svg" xmlns:xlink="http://www.w3.org/1999/xlink" width="1024" height="1024">
	<path fill="#FBFBFB" transform="scale(2 2)" d="M285.724 107.865C286.979 106.041 289.663 104.464 291.505 103.289C366.417 55.4859 455.013 137.472 409.57 216.528C429.554 249.224 414.462 293.238 374.935 299.202C368.924 300.109 362.928 299.953 356.875 299.998L151.874 300.029C146.753 300.049 141.739 300.333 136.628 299.699C77.706 292.39 72.827 202.755 139.384 194.148C140.554 190.017 140.796 185.435 141.658 181.196C152.638 127.202 207.3 92.4383 260.551 114.711C264.786 116.482 268.833 118.783 272.875 120.948C274.975 116.3 281.469 110.577 285.724 107.865Z"/>
	<path fill="#D7D7D7" transform="scale(2 2)" d="M285.724 107.865C286.979 106.041 289.663 104.464 291.505 103.289C366.417 55.4859 455.013 137.472 409.57 216.528C404.384 206.955 394.461 200.355 384.48 196.647C383.732 195.795 376.555 177.509 373.916 173.236C358.052 147.55 323.762 132.785 294.54 142.068C289.584 135.343 280.378 124.366 272.875 120.948C274.975 116.3 281.469 110.577 285.724 107.865Z"/>
	<path fill="#04C2E3" transform="scale(2 2)" d="M315.898 382.212C318.931 384.29 325.432 403.103 324.683 407.552C323.212 416.284 314.922 420.97 306.505 419.402C300.374 417.398 296.021 412.349 296.715 405.638C297.69 396.218 308.812 387.831 315.898 382.212Z"/>
	<path fill="#A9E4F1" transform="scale(2 2)" d="M244.972 382.212C248.625 385.633 255.067 401.638 254.663 406.293C253.921 414.854 245.136 418.541 237.443 417.529C230.625 415.759 226.433 410.15 227.259 402.99C228.176 395.042 238.837 387.219 244.972 382.212Z"/>
	<path fill="#A9E4F1" transform="scale(2 2)" d="M216.745 328.168L217.056 328.349C219.953 334.013 226.326 346.778 225.659 352.883C224.699 361.663 215.811 365.091 208.004 364.153C199.904 361.43 195.204 352.529 200.058 344.642C202.92 339.992 212.376 332.227 216.745 328.168Z"/>
	<path fill="#A9E4F1" transform="scale(2 2)" d="M288.93 327.172C292.594 330.577 298.177 348.2 296.803 353.259C294.664 361.135 286.699 364.391 279.214 362.096C271.182 358.481 267.757 349.644 272.805 342.278C275.598 338.203 284.771 329.966 288.93 327.172Z"/>
</svg>
