<?xml version="1.0" encoding="utf-8" ?>
<svg xmlns="http://www.w3.org/2000/svg" xmlns:xlink="http://www.w3.org/1999/xlink" width="1024" height="1024">
	<path fill="#F5F6F8" transform="scale(2 2)" d="M289.143 110.925L289.403 110.66C293.061 106.897 295.978 102.534 299.749 98.8158C346.928 52.2989 429.749 85.9325 430.904 154.231C431.272 176.024 421.863 200.892 404.368 214.638C400.812 217.914 396.425 221.337 392.131 223.539C393.71 226.158 394.387 229.483 395.113 232.42C401.233 257.183 391.44 285.152 367.23 296.093C356.214 301.071 344.961 300.626 333.184 300.558L144.629 300.555C134.169 300.553 123.932 300.92 113.96 297.123C71.3249 280.891 70.7471 221.788 111.257 203.596C114.601 202.094 118.173 201.187 121.529 199.713C121.673 196.509 121.449 193.279 121.555 190.068C122.434 163.454 153.624 149.565 173.463 166.855C175.092 163.783 175.866 160.262 176.969 156.977C190.018 118.111 236.209 99.1987 272.414 118.264C275.982 120.143 279.309 122.532 282.641 124.793C284.114 119.894 286.696 115.391 289.143 110.925Z"/>
	<path fill="#F5F6F8" transform="scale(2 2)" d="M289.143 110.925L289.403 110.66C293.061 106.897 295.978 102.534 299.749 98.8158C346.928 52.2989 429.749 85.9325 430.904 154.231C431.272 176.024 421.863 200.892 404.368 214.638C400.812 217.914 396.425 221.337 392.131 223.539C385.98 210.41 375.851 202.869 362.732 198.045C363.2 166.37 334.868 144.349 305.734 159.235C300.765 145.872 294.522 133.403 282.641 124.793C284.114 119.894 286.696 115.391 289.143 110.925Z"/>
	<path fill="#A8D7F0" transform="scale(2 2)" d="M289.143 110.925C291.195 113.822 294.987 115.678 297.662 118.038C305.08 124.582 309.817 132.214 314.285 140.899C325.509 137.692 339.868 140.634 349.909 146.166C368.108 156.192 372.908 169.652 378.183 187.876C386.168 192.818 393.56 197.899 398.973 205.814C400.783 208.461 402.319 212.325 404.368 214.638C400.812 217.914 396.425 221.337 392.131 223.539C385.98 210.41 375.851 202.869 362.732 198.045C363.2 166.37 334.868 144.349 305.734 159.235C300.765 145.872 294.522 133.403 282.641 124.793C284.114 119.894 286.696 115.391 289.143 110.925Z"/>
	<path fill="#A8D7F0" transform="scale(2 2)" d="M239.728 331.95C244.339 332.845 255.74 355.777 255.944 360.627C256.346 370.158 248.82 376.524 239.728 376.845C230.556 376.625 220.927 369.054 223.088 359.009C224.517 352.369 233.939 335.711 239.728 331.95Z"/>
	<path fill="#A8D7F0" transform="scale(2 2)" d="M156.534 331.95C161.629 336.042 172.107 352.908 172.579 359.363C173.287 369.059 165.826 376.176 156.534 376.845C146.32 376.635 137.207 367.716 139.986 356.999C141.68 350.466 150.916 335.233 156.534 331.95Z"/>
	<path fill="#21B8E4" transform="scale(2 2)" d="M198.638 385.627C203.378 388.538 211.508 403.206 213.576 408.545C217.96 419.866 210.379 430.406 198.638 430.855C188.879 430.743 181.527 421.921 182.677 412.194C183.494 405.286 194.047 389.286 198.638 385.627Z"/>
	<path fill="#21B8E4" transform="scale(2 2)" d="M322.977 333.632C324.515 334.505 325.523 336.492 326.569 337.876C336.912 351.566 347.519 373.438 322.977 377.764C313.453 377.906 306.286 370.066 307.022 360.688C307.575 353.646 317.554 338.289 322.977 333.632Z"/>
	<path fill="#21B8E4" transform="scale(2 2)" d="M280.452 387.409C287.803 395.91 301.183 411.507 292.451 423.084C289.404 427.124 285.282 428.535 280.452 429.244C271.145 429.156 262.703 421.251 264.681 411.447C265.989 404.963 275 391.072 280.452 387.409Z"/>
</svg>
