<?xml version="1.0" encoding="utf-8" ?>
<svg xmlns="http://www.w3.org/2000/svg" xmlns:xlink="http://www.w3.org/1999/xlink" width="1024" height="1024">
	<path fill="#E6E6E5" transform="scale(2 2)" d="M300.974 110.289C311.867 83.0686 341.525 66.1549 370.172 65.7606C374.421 65.7022 378.668 66.146 382.907 65.7552C380.644 68.3437 377.968 70.5105 375.739 73.1104C343.371 110.873 392.856 162.931 430.576 134.023C432.599 132.473 434.382 130.638 436.381 129.072C437.407 159.545 422.508 185.674 394.222 197.416C399.32 205.515 403.557 211.439 406.365 220.891C417.336 257.813 398.913 296.284 361.257 307.44C349.852 310.819 338.301 310.641 326.564 310.635L158.878 310.635C146.31 310.639 133.445 311.203 120.926 310.057C68.2803 305.238 59.4567 232.611 106.061 213.734C109.718 212.253 113.628 211.31 117.428 210.264C106.29 170.459 139.591 133.779 179.794 146.927C183.126 148.017 186.347 149.547 189.589 150.882C201.283 127.234 219.573 110.295 246.143 104.31C261.787 100.786 286.828 101.345 300.974 110.289Z"/>
	<path fill="#678BAD" transform="scale(2 2)" d="M300.974 110.289C311.867 83.0686 341.525 66.1549 370.172 65.7606C374.421 65.7022 378.668 66.146 382.907 65.7552C380.644 68.3437 377.968 70.5105 375.739 73.1104C343.371 110.873 392.856 162.931 430.576 134.023C432.599 132.473 434.382 130.638 436.381 129.072C437.407 159.545 422.508 185.674 394.222 197.416C385.179 182.306 361.533 173.817 344.838 172.354C342.246 146.48 323.982 121.665 300.974 110.289Z"/>
	<path fill="#AFDFF2" transform="scale(2 2)" d="M131.048 376.278C123.706 366.277 142.038 338.078 147.312 339.881C151.3 341.244 156.652 349.59 158.449 353.227C179.46 388.629 138.662 391.516 131.048 376.278Z"/>
	<path fill="#72D1F3" transform="scale(2 2)" d="M131.048 376.278C131.985 376.183 133.232 376.873 134.158 377.152C147.835 381.276 158.934 376.53 158.608 360.357C158.569 358.416 157.636 354.829 158.449 353.227C179.46 388.629 138.662 391.516 131.048 376.278Z"/>
	<path fill="#AFDFF2" transform="scale(2 2)" d="M285.642 373.541C280.585 362.454 298.691 339.166 303.037 340.262C306.664 341.177 311.91 348.84 313.833 352.061C317.402 357.775 321.482 363.888 319.805 370.931C315.616 388.526 290.682 390.152 285.642 373.541Z"/>
	<path fill="#72D1F3" transform="scale(2 2)" d="M313.833 352.061C317.402 357.775 321.482 363.888 319.805 370.931C315.616 388.526 290.682 390.152 285.642 373.541C286.826 373.638 291.71 376.871 294.095 377.515C306.064 380.749 314.915 368.596 314.105 357.348C313.995 355.81 313.113 353.481 313.833 352.061Z"/>
	<path fill="#AFDFF2" transform="scale(2 2)" d="M206.619 372.203C205.7 362.664 218.314 336.276 225.95 340.448C229.239 342.244 235.09 350.704 236.132 354.233C257.654 390.153 209.639 391.291 206.619 372.203Z"/>
	<path fill="#72D1F3" transform="scale(2 2)" d="M236.132 354.233C257.654 390.153 209.639 391.291 206.619 372.203C210.628 374.377 212.223 376.417 217.065 377.398C227.746 379.564 235.874 372.452 235.979 361.502C236.002 359.059 235.572 356.648 236.132 354.233Z"/>
	<path fill="#678BAD" transform="scale(2 2)" d="M263.572 399.262C266.469 399.129 268.048 399.794 269.871 402.206C270.391 405.842 269.847 410.009 269.871 413.723C272.542 411.712 277.812 406.975 281.353 407.874C284.062 408.562 286.425 411.565 285.514 414.4C284.216 418.443 278.465 420.757 274.996 422.583C279.874 425.876 293.981 433.362 279.889 437.943C276.459 436.533 273.019 433.835 269.871 431.841L269.871 442.766C268.88 444.059 267.741 444.668 266.312 445.363C263.338 445.686 261.644 445.128 259.582 442.766C259.419 439.143 259.552 435.468 259.582 431.841C255.859 433.741 252.887 436.558 248.864 437.943C237.096 433.071 248.951 425.544 254.511 422.583C251.358 420.46 245.922 418.753 244.708 414.836C243.848 412.064 245.279 408.99 248.176 408.274C252.29 407.257 256.372 411.655 259.582 413.723L259.582 402.206C260.786 400.853 261.918 400.011 263.572 399.262Z"/>
	<path fill="#AFDFF2" transform="scale(2 2)" d="M166.3 435.984C160.987 426.972 177.046 399.05 182.953 400.806C186.305 401.802 192.326 411.693 194.079 414.991C213.764 445.971 173.633 452.679 166.3 435.984Z"/>
	<path fill="#72D1F3" transform="scale(2 2)" d="M194.079 414.991C213.764 445.971 173.633 452.679 166.3 435.984C167.733 435.576 169.114 436.624 170.491 437.029C182.186 440.469 193.576 436.406 193.828 422.506C193.867 420.35 192.752 416.822 194.079 414.991Z"/>
</svg>
