<?xml version="1.0" encoding="utf-8" ?>
<svg xmlns="http://www.w3.org/2000/svg" xmlns:xlink="http://www.w3.org/1999/xlink" width="1024" height="1024">
	<path fill="#FCFCFC" transform="scale(2 2)" d="M296.968 146.317C292.752 112.486 321.782 76.5996 355.866 72.4874C359.761 72.0175 363.858 71.6128 367.757 72.1235C359.24 85.6175 355.213 99.7227 358.906 115.841C365.445 144.387 394.772 162.299 423.175 155.553C427.503 154.525 431.316 152.535 435.492 151.185C432.014 186.289 411.861 205.09 379.576 214.218C379.144 215.901 383.872 222.147 384.86 223.937C409.622 268.781 381 329.67 328.049 332.444C317.416 333.001 306.778 332.473 296.147 332.293L280.745 332.137C277.639 332.101 274.455 332.49 271.312 332.482L162.125 332.463C156.535 332.434 150.701 332.996 145.161 332.462C116.256 329.678 89.1819 310.317 79.8813 282.355C68.7756 248.966 85.2395 208.922 118.481 195.627C122.682 193.947 127.019 193.257 131.25 191.826L131.485 191.745C133.185 186.286 133.902 180.505 135.627 175.004C153.056 119.423 221.355 102.872 266.505 138.154C278.35 147.411 274.271 148.044 288.011 146.362C290.055 146.112 295.603 147.276 296.968 146.317Z"/>
	<path fill="#7E8EC0" transform="scale(2 2)" d="M296.968 146.317C292.752 112.486 321.782 76.5996 355.866 72.4874C359.761 72.0175 363.858 71.6128 367.757 72.1235C359.24 85.6175 355.213 99.7227 358.906 115.841C365.445 144.387 394.772 162.299 423.175 155.553C427.503 154.525 431.316 152.535 435.492 151.185C432.014 186.289 411.861 205.09 379.576 214.218C369.655 202.248 356.166 192.809 340.209 191.745C340.536 174.409 332.28 158.711 316.469 150.545C311.838 148.153 302.133 144.688 296.968 146.317Z"/>
	<path fill="#64D0F8" transform="scale(2 2)" d="M296.968 353.707C297.479 354.279 297.937 354.895 298.408 355.5C304.362 362.042 310.886 369.771 310.374 379.205C310.139 383.543 307.652 388.517 303.359 390.166C293.99 395.318 282.698 389.189 282.628 378.482C282.58 371.044 291.516 359.33 296.968 353.707Z"/>
	<path fill="#26BDF9" transform="scale(2 2)" d="M296.968 353.707C297.479 354.279 297.937 354.895 298.408 355.5C295.646 362.468 288.365 374.383 291.319 381.593C294.038 388.227 298.354 387.305 303.359 390.166C293.99 395.318 282.698 389.189 282.628 378.482C282.58 371.044 291.516 359.33 296.968 353.707Z"/>
	<path fill="#64D0F8" transform="scale(2 2)" d="M230.88 397.229L232.574 399.101C239.97 407.474 253.065 425.475 237.309 433.174C228.223 437.424 216.711 432.171 216.748 421.21C216.771 414.471 226.058 401.893 230.88 397.229Z"/>
	<path fill="#26BDF9" transform="scale(2 2)" d="M230.88 397.229L232.574 399.101C228.209 407.189 218.245 424.332 230.626 430.505C232.779 431.579 235.218 431.982 237.309 433.174C228.223 437.424 216.711 432.171 216.748 421.21C216.771 414.471 226.058 401.893 230.88 397.229Z"/>
	<path fill="#64D0F8" transform="scale(2 2)" d="M173.71 390.166C167.575 392.932 159.208 391.525 155.425 385.641C149.556 376.512 157.482 366.73 162.942 359.619C164.709 357.317 165.829 354.063 168.214 356.298C176.94 365.091 187.522 380.7 173.71 390.166Z"/>
	<path fill="#26BDF9" transform="scale(2 2)" d="M173.71 390.166C167.575 392.932 159.208 391.525 155.425 385.641C149.556 376.512 157.482 366.73 162.942 359.619C164.709 357.317 165.829 354.063 168.214 356.298L168.094 356.671C165.591 364.318 157.858 374.534 161.682 382.603C165.155 389.931 169.645 387.252 173.71 390.166Z"/>
</svg>
