<?xml version="1.0" encoding="utf-8" ?>
<svg xmlns="http://www.w3.org/2000/svg" xmlns:xlink="http://www.w3.org/1999/xlink" width="1024" height="1024">
	<path fill="#FBFBFB" transform="scale(2 2)" d="M154.944 158.779C155.714 155.625 155.856 152.152 156.329 148.925C166.996 76.1218 256.948 44.1978 310.202 95.5611C315.604 100.771 324.779 110.68 328.147 117.043C366.703 103.442 398.784 165.412 386.417 171.413C387.133 171.924 391.347 173.041 392.797 173.771C418.524 186.722 433.349 218.991 427.145 247.063C421.665 271.862 403.217 288.82 378.458 293.381C367.883 295.329 356.899 294.712 346.194 294.711L158.98 294.72C135.195 294.639 117.996 291.183 100.576 273.476C75.0057 247.485 76.4193 203.186 102.047 177.838C117.701 162.355 133.698 158.674 154.944 158.779Z"/>
	<path fill="#D5E2E8" transform="scale(2 2)" d="M328.147 117.043C366.703 103.442 398.784 165.412 386.417 171.413C383.481 169.674 376.114 168.561 372.459 167.481C365.697 157.844 361.94 151.103 350.631 144.837C346.65 142.63 342.346 141.018 338.514 138.54C337.669 137.22 337.163 135.775 336.61 134.317C335.802 132.271 334.914 130.256 334.048 128.234C332.204 124.431 330.237 120.716 328.147 117.043Z"/>
	<path fill="#D5E2E8" transform="scale(2 2)" d="M278.762 408.97C283.459 404.156 294.041 398.568 299.788 404.673C302.511 407.567 308.294 418.949 308.004 422.814C307.524 429.202 296.808 432.373 292.128 434.786C283.716 440.11 271.545 435.505 271.963 424.837C272.113 421.008 275.945 411.595 278.762 408.97Z"/>
	<path fill="#97DCF0" transform="scale(2 2)" d="M278.762 408.97C281.907 415.9 288.403 428.956 292.128 434.786C283.716 440.11 271.545 435.505 271.963 424.837C272.113 421.008 275.945 411.595 278.762 408.97Z"/>
	<path fill="#D5E2E8" transform="scale(2 2)" d="M330.649 336.298C333.208 333.803 341.469 329.758 345.058 329.79C352.945 329.862 360.072 344.492 359.876 349.947C359.604 357.544 349.532 360.732 343.795 363.306C334.767 366.885 322.535 363.693 324.41 351.827C325.013 348.013 328.513 339.589 330.649 336.298Z"/>
	<path fill="#97DCF0" transform="scale(2 2)" d="M330.649 336.298C333.134 344.323 340.035 355.332 343.795 363.306C334.767 366.885 322.535 363.693 324.41 351.827C325.013 348.013 328.513 339.589 330.649 336.298Z"/>
	<path fill="#D5E2E8" transform="scale(2 2)" d="M243.943 337.534C246.493 333.439 259.37 328.08 264.303 331.172C268.264 333.655 272.485 342.703 273.449 347.276C275.608 357.519 263.086 358.379 257.074 362.825C249.151 365.779 238.62 365.572 237.84 354.724C237.537 350.505 241.082 340.747 243.943 337.534Z"/>
	<path fill="#97DCF0" transform="scale(2 2)" d="M243.943 337.534C246.126 339.821 254.889 358.531 257.074 362.825C249.151 365.779 238.62 365.572 237.84 354.724C237.537 350.505 241.082 340.747 243.943 337.534Z"/>
	<path fill="#D5E2E8" transform="scale(2 2)" d="M192.907 408.97C195.304 406.434 205.104 402.328 208.564 402.22C215.437 402.005 222.567 417.661 222.611 422.804C222.674 430.026 211.532 432.374 206.356 434.786C199.914 438.467 189.878 437.398 187.489 429.342C185.937 424.111 190.349 413.626 192.907 408.97Z"/>
	<path fill="#97DCF0" transform="scale(2 2)" d="M192.907 408.97C196.592 412.735 201.77 429.717 206.356 434.786C199.914 438.467 189.878 437.398 187.489 429.342C185.937 424.111 190.349 413.626 192.907 408.97Z"/>
	<path fill="#D5E2E8" transform="scale(2 2)" d="M159.42 337.534C163.551 333.608 176.014 327.517 181.269 333.497C183.079 335.558 188.046 345.36 188.982 348.115C191.96 356.873 178.805 360.541 172.758 362.825C155.327 371.263 147.2 353.584 159.42 337.534Z"/>
	<path fill="#97DCF0" transform="scale(2 2)" d="M159.42 337.534C160.62 341.06 170.781 360.058 172.758 362.825C155.327 371.263 147.2 353.584 159.42 337.534Z"/>
</svg>
