<?xml version="1.0" encoding="utf-8" ?>
<svg xmlns="http://www.w3.org/2000/svg" xmlns:xlink="http://www.w3.org/1999/xlink" width="1024" height="1024">
	<path fill="#FAFAFA" transform="scale(2 2)" d="M136.421 163.58C138.091 159.611 139.022 155.301 140.333 151.202C158.735 93.6455 223.358 62.2601 280.342 80.835C308.817 90.1169 331.816 109.417 346.65 135.3C349.943 141.047 351.992 147.244 355.03 153.066L355.24 153.463C379.58 158.645 389.345 168.55 398.888 192.142L399.173 192.323C403.329 194.935 408.007 196.649 412.158 199.307C441.133 217.863 450.529 257.39 432.293 286.726C416.245 312.541 394.459 317.288 366.892 317.243L188.539 317.249C162.503 317.246 134.402 319.791 110.801 306.847C106.284 305.585 99.6223 299.493 96.2584 296.445C84.3934 285.693 76.5011 273.566 72.4111 258.023C62.6904 221.083 83.461 180.437 119.752 167.775C125.22 165.868 130.842 165.023 136.421 163.58Z"/>
	<path fill="#D8D9DD" transform="scale(2 2)" d="M355.24 153.463C379.58 158.645 389.345 168.55 398.888 192.142L399.173 192.323C403.329 194.935 408.007 196.649 412.158 199.307C441.133 217.863 450.529 257.39 432.293 286.726C416.245 312.541 394.459 317.288 366.892 317.243L188.539 317.249C162.503 317.246 134.402 319.791 110.801 306.847C112.141 306.252 117.512 308.851 119.051 309.421C132.388 314.355 147.989 313.751 162.074 313.763L305.331 313.77C313.387 313.769 321.53 314.01 329.564 313.343C357.451 311.028 382.831 294.84 395.887 269.884C412.107 238.88 404.088 196.277 373.925 176.767C370.592 174.611 361.777 171.616 359.859 168.774C358.222 166.35 356.286 156.996 355.24 153.463Z"/>
	<path fill="#86D3EC" transform="scale(2 2)" d="M241.034 426.545C219.124 408.991 251.947 373.348 256.774 374.274C260.798 375.045 268.913 385.65 270.883 389.227C292.043 422.315 261.256 443.044 241.034 426.545Z"/>
	<path fill="#27BFE5" transform="scale(2 2)" d="M270.883 389.227C292.043 422.315 261.256 443.044 241.034 426.545C243.178 425.522 246.204 425.715 248.561 424.883C259.662 420.968 267.795 410.87 269.549 399.24C270.031 396.042 269.283 392.146 270.883 389.227Z"/>
	<path fill="#86D3EC" transform="scale(2 2)" d="M326.67 392.356C319.883 385.203 318.538 376.479 322.204 367.256C325.321 359.416 334.082 345.145 342.209 341.641C347.13 344.044 350.609 348.458 354.239 352.415C359.941 361.883 367.085 371.248 364.19 382.999C360.126 399.501 338.345 404.238 326.67 392.356Z"/>
	<path fill="#27BFE5" transform="scale(2 2)" d="M326.67 392.356C362.668 384.814 351.537 355.254 354.239 352.415C359.941 361.883 367.085 371.248 364.19 382.999C360.126 399.501 338.345 404.238 326.67 392.356Z"/>
	<path fill="#86D3EC" transform="scale(2 2)" d="M153.692 392.356C149.57 386.344 146.837 378.992 148.892 371.702C150.452 366.17 164.16 340.566 171.589 343.22C175.081 344.468 181.291 352.139 183.023 355.529C210.99 387.157 173.097 410.716 153.692 392.356Z"/>
	<path fill="#27BFE5" transform="scale(2 2)" d="M153.692 392.356C168.614 388.627 181.113 381.065 182.782 363.909C183.04 361.261 182.189 358.037 183.023 355.529C210.99 387.157 173.097 410.716 153.692 392.356Z"/>
</svg>
