<?xml version="1.0" encoding="utf-8" ?>
<svg xmlns="http://www.w3.org/2000/svg" xmlns:xlink="http://www.w3.org/1999/xlink" width="1024" height="1024">
	<path fill="#FBFBFB" transform="scale(2 2)" d="M264.549 138.796C277.911 94.6912 311.242 69.6504 358.082 69.5802C341.598 89.8653 335.397 103.164 339.948 131.007C349.785 167.984 386.306 190.15 423.604 180.039C430.136 178.268 435.493 175.185 441.578 172.48C437.639 201.257 428.466 224.884 404.154 243.217C399.1 247.029 393.653 250.565 387.727 252.844C394.349 265.992 397.551 274.47 395.615 290.224C392.555 315.121 374.351 335.241 349.198 338.283C344.449 338.858 339.663 338.614 334.892 338.596L137.259 338.578C113.859 338.572 97.9465 337.163 82.0337 316.576C62.1666 290.873 71.0004 251.947 98.0349 234.956C99.8165 233.837 101.748 233.027 103.396 231.692C103.493 230.17 103.417 228.62 103.396 227.095C107.615 204.507 119.453 194.039 142.274 189.644C143.776 188.681 149.175 178.549 150.949 176.064C173.597 144.35 218.026 124.87 256.217 136.398C258.759 137.165 261.764 138.924 264.349 139.158L264.549 138.796Z"/>
	<defs>
		<linearGradient id="gradient_0" gradientUnits="userSpaceOnUse" x1="418.80408" y1="230.65779" x2="297.57516" y2="88.343422">
			<stop offset="0" stop-color="#35438C"/>
			<stop offset="1" stop-color="#7791CF"/>
		</linearGradient>
	</defs>
	<path fill="url(#gradient_0)" transform="scale(2 2)" d="M264.549 138.796C277.911 94.6912 311.242 69.6504 358.082 69.5802C341.598 89.8653 335.397 103.164 339.948 131.007C349.785 167.984 386.306 190.15 423.604 180.039C430.136 178.268 435.493 175.185 441.578 172.48C437.639 201.257 428.466 224.884 404.154 243.217C399.1 247.029 393.653 250.565 387.727 252.844C383.502 243.61 373.082 236.196 364.118 231.692C371.988 201.478 347.623 173.197 316.733 178.485C315.822 174.195 311.367 169.406 308.621 166.003C299.626 155.211 288.307 146.112 274.906 141.514C273.248 140.945 269.683 139.146 268.196 140.633C267.047 140.265 265.228 139.828 264.549 138.796Z"/>
	<path fill="#DEE0EA" transform="scale(2 2)" d="M142.274 189.644C142.281 189.678 136.465 206.469 135.999 208.239C135.626 209.658 134.923 213.848 134.377 214.911C131.646 212.414 113.468 220.808 110.317 222.718C108.167 224.021 105.764 226.375 103.396 227.095C107.615 204.507 119.453 194.039 142.274 189.644Z"/>
	<path fill="#C3CEE5" transform="scale(2 2)" d="M103.396 227.095C105.764 226.375 108.167 224.021 110.317 222.718C113.468 220.808 131.646 212.414 134.377 214.911C133.837 218.673 133.679 222.442 133.563 226.236C125.286 226.231 117.538 226.39 109.602 229.049C104.331 230.816 103.789 232.431 103.396 231.692C103.493 230.17 103.417 228.62 103.396 227.095Z"/>
	<path fill="#405EC0" transform="scale(2 2)" d="M268.196 140.633C269.683 139.146 273.248 140.945 274.906 141.514C288.307 146.112 299.626 155.211 308.621 166.003C311.367 169.406 315.822 174.195 316.733 178.485C315.012 178.846 313.306 179.321 311.601 179.754C299.965 160.62 288.94 149.809 268.196 140.633Z"/>
	<path fill="#405EC0" transform="scale(2 2)" d="M311.601 363.227C320.951 371.574 333.95 395.346 313.149 398.978C306.349 399.093 301.326 394.981 300.367 388.132C299.089 379.007 306.455 369.99 311.601 363.227Z"/>
	<defs>
		<linearGradient id="gradient_1" gradientUnits="userSpaceOnUse" x1="219.02025" y1="371.55545" x2="240.81068" y2="376.72125">
			<stop offset="0" stop-color="#9DD8F5"/>
			<stop offset="1" stop-color="#79C1F8"/>
		</linearGradient>
	</defs>
	<path fill="url(#gradient_1)" transform="scale(2 2)" d="M228.71 356.137C235.677 357.6 249.988 389.014 229.825 391.442C210.323 390.891 217.751 364.004 228.71 356.137Z"/>
	<path fill="#86CBF6" transform="scale(2 2)" d="M147.376 363.227C152.935 365.335 169.302 394.13 148.51 398.978C128.439 398.82 137.647 369.572 147.376 363.227Z"/>
	<path fill="#86CBF6" transform="scale(2 2)" d="M266.208 403.962C273.979 413.126 288.792 436.396 267.377 439.886C261.675 440.255 256.61 436.083 255.376 430.548C253.436 421.851 261.728 410.908 266.208 403.962Z"/>
	<path fill="#86CBF6" transform="scale(2 2)" d="M187.877 405.131C192.928 405.569 211.024 435.536 188.877 439.886C169.383 438.442 177.841 412.816 187.877 405.131Z"/>
</svg>
