<?xml version="1.0" encoding="utf-8" ?>
<svg xmlns="http://www.w3.org/2000/svg" xmlns:xlink="http://www.w3.org/1999/xlink" width="1024" height="1024">
	<path fill="#F8F8F8" transform="scale(2 2)" d="M269.845 79.0236C288.084 76.8813 311.771 83.8845 327.385 93.194C357.167 110.951 371.095 140.494 372.287 173.96C376.106 174.638 379.913 175.265 383.644 176.359C436.463 191.848 452.425 261.135 413.99 299.152C397.294 315.666 375.487 322.126 352.536 322.293L238.625 322.08L175.563 322.088C162.047 322.093 148.192 322.753 134.755 321.144C72.0728 313.637 54.9771 227.867 106.404 196.573C124.033 185.846 114.433 192.65 121.921 173.077C131.611 147.751 152.643 138.435 177.96 148.361C180.052 144.459 181.71 140.288 183.707 136.324C199.879 104.233 233.51 80.5276 269.845 79.0236Z"/>
	<path fill="#85CDF2" transform="scale(2 2)" d="M144.198 361.62C147.632 361.97 147.152 365.675 147.277 368.338C150.249 365.412 152.493 362.423 155.099 367.224C152.285 370.223 149.292 373.134 147.277 376.752C147.261 381.459 147.437 386.186 147.277 390.889C150.766 386.963 155.383 383.87 158.544 379.694C158.548 378.416 157.859 363.835 162.561 367.588C164.327 368.998 163.784 373.838 163.743 375.917C164.49 375.365 171.189 368.325 171.759 373.426C171.971 375.315 169.416 377.556 168.277 378.818C170.316 378.422 177.658 378.091 174.844 382.065C172.26 385.713 161.236 378.795 151.743 394.045C156.147 394.67 160.755 394.498 165.173 394.045C167.959 392.378 172.83 386.851 175.395 386.253C182.583 384.577 174.075 393.28 173.305 394.045C183.797 393.404 184.412 398.485 173.305 398.244C174.754 400.116 178.848 403.257 177.338 405.918C174.603 407.822 170.264 402.613 168.253 401.148C163.726 397.85 157.073 398.832 151.743 398.861C154.829 403.229 158.914 406.334 162.43 410.288C178.809 411.065 176.508 416.661 166.947 415.749C174.879 420.991 170.155 427.155 163.743 417.926C164.036 420.096 164.676 427.943 160.045 425.714C158.008 422.379 158.134 416.883 158.036 413.095C154.285 409.869 151.222 405.912 147.277 402.881C147.418 407.654 147.271 412.466 147.277 417.243C148.682 419.746 159.357 428.9 153.168 430.419C150.864 430.056 148.762 427.225 147.277 425.592C146.85 432.649 143.539 437.027 142.504 430.812C142.529 429.037 142.835 427.337 143.139 425.592C142.392 426.282 135.179 434.071 134.688 428.529C134.476 426.142 140.944 420.209 142.504 417.926C142.518 412.913 142.368 407.892 142.504 402.881C139.101 406.197 134.975 409.334 132.083 413.095C132.011 413.595 131.109 429.084 127.332 425.986C125.574 424.543 125.985 420.04 125.973 417.926C120.624 424.634 114.872 423.687 122.141 415.749C120.521 415.869 112.655 416.032 115.831 412.095C117.471 410.063 124.939 410.33 127.457 410.288C131.659 406.819 135.343 402.517 139.432 398.861C135.677 398.767 127.715 398.202 124.434 399.474C122.808 400.104 111.778 410.501 111.715 404.51C111.692 402.26 115.614 399.57 117.243 398.244C116.585 398.24 104.717 398.417 109.914 394.379C111.544 393.113 115.283 393.9 117.243 394.045C116.392 393.235 107.675 385.635 114.553 385.756C116.474 385.79 123.054 392.492 124.851 394.045C129.427 393.97 134 394.19 138.575 394.045C135.065 390.632 131.652 386.606 127.457 384.055C127.392 384.056 112.318 385.1 116.298 380.717C117.698 379.174 122.012 379.687 123.964 379.694C123.702 379.457 113.318 371.732 119.815 371.485C122.087 371.399 125.746 375.334 127.457 376.752C126.961 374.448 124.352 367.438 128.24 366.753C131.59 366.162 131.136 378.281 133.5 382.088C135.458 385.242 139.54 388.656 142.504 390.889C142.453 385.892 142.289 380.913 142.504 375.917C140.522 372.381 137.855 369.278 134.323 367.224C137.21 360.95 139.16 365.157 142.867 368.124L143.139 368.338C142.8 365.766 142.229 363.735 144.198 361.62Z"/>
	<path fill="#85CDF2" transform="scale(2 2)" d="M217.274 343.499C221.974 343.851 234.608 366.154 236.656 370.551C242.196 382.45 230.845 394.208 218.614 394.949C205.494 394.857 194.394 384.643 198.811 371.192C200.238 366.846 213.491 345.417 217.274 343.499Z"/>
	<path fill="#85CDF2" transform="scale(2 2)" d="M279.458 343.499C284.662 343.785 298.654 368.908 299.291 373.803C300.805 385.453 291.852 394.365 280.712 395.729C267.587 395.893 257.633 382.93 261.668 370.414C263.141 365.844 275.683 345.461 279.458 343.499Z"/>
	<path fill="#85CDF2" transform="scale(2 2)" d="M342.696 343.499C345.304 343.596 347.281 347.226 348.689 349.075C361.124 365.399 372.184 391.43 343.49 395.729C329.176 393.788 321.068 385.281 325.323 370.705C327.415 363.542 336.075 347.152 342.696 343.499Z"/>
</svg>
