<?xml version="1.0" encoding="utf-8" ?>
<svg xmlns="http://www.w3.org/2000/svg" xmlns:xlink="http://www.w3.org/1999/xlink" width="1024" height="1024">
	<path fill="#93B0C4" transform="scale(2 2)" d="M278.923 117.715C280.235 114.705 274.244 114.741 283.612 102.381C305.948 72.9119 343.247 65.5476 377.053 76.4931C373.324 78.831 369.455 80.9393 365.957 83.626C331.291 110.253 345.254 165.454 387.749 174.784C404.932 178.557 416.044 173.946 430.44 165.255C424.317 191.65 412.796 212.478 388.808 227.4C386.133 229.063 382.421 231.315 379.307 231.948C379.293 261.192 357.12 286.567 327.495 288.305C320.793 288.698 314.202 288.594 307.5 288.589L159.431 288.677C150.391 288.677 140.546 289.452 131.648 287.834C66.5814 275.995 68.6066 176.951 137.697 173.625C148.842 137.246 171.097 118.332 206.235 108.324C230.486 101.416 257.077 105.584 278.923 117.715Z"/>
	<path fill="#DAE3E7" transform="scale(2 2)" d="M278.923 117.715C280.235 114.705 274.244 114.741 283.612 102.381C305.948 72.9119 343.247 65.5476 377.053 76.4931C373.324 78.831 369.455 80.9393 365.957 83.626C331.291 110.253 345.254 165.454 387.749 174.784C404.932 178.557 416.044 173.946 430.44 165.255C424.317 191.65 412.796 212.478 388.808 227.4C386.133 229.063 382.421 231.315 379.307 231.948C376.857 206.493 362.798 185.316 337.673 177.044C332.952 175.49 328.042 174.834 323.233 173.625C315.997 149.097 299.773 131.391 278.923 117.715Z"/>
	<path fill="#DAE3E7" transform="scale(2 2)" d="M177.694 397.422C188.582 396.17 198.416 403.998 199.638 414.889C200.86 425.78 193.006 435.593 182.112 436.786C171.259 437.974 161.492 430.156 160.274 419.307C159.056 408.457 166.848 398.669 177.694 397.422Z"/>
	<path fill="#FEFEFE" transform="scale(2 2)" d="M178.037 423.422C181.429 423.641 181.072 430.678 176.53 430.975C170.188 430.236 175.211 424.968 178.037 423.422Z"/>
	<path fill="#FEFEFE" transform="scale(2 2)" d="M190.958 410.98C194.439 411.198 194.243 416.78 188.4 416.922C181.968 416.258 187.285 411.701 190.958 410.98Z"/>
	<path fill="#FEFEFE" transform="scale(2 2)" d="M182.313 423.422C185.419 424.149 189.179 427.915 186.559 430.975C181.762 431.387 178.802 427.3 182.313 423.422Z"/>
	<path fill="#FEFEFE" transform="scale(2 2)" d="M184.854 405.299C190.777 404.213 186.148 410.944 184.854 412.907C180.337 413.879 180.402 406.47 184.854 405.299Z"/>
	<path fill="#FEFEFE" transform="scale(2 2)" d="M186.559 418.518C190.357 418.51 194.935 421.316 190.958 424.673C187.595 425.03 182.002 420.604 186.559 418.518Z"/>
	<path fill="#FEFEFE" transform="scale(2 2)" d="M175.26 405.299C179.739 404.874 180.653 408.86 179.287 412.688L178.733 412.907C175.763 411.534 171.458 408.181 175.26 405.299Z"/>
	<path fill="#FEFEFE" transform="scale(2 2)" d="M170.329 410.98C173.773 411.089 178.241 416.312 172.624 416.922C167.817 417.091 165.702 413.012 170.329 410.98Z"/>
	<path fill="#FEFEFE" transform="scale(2 2)" d="M171.547 418.518L175.26 418.518L175.186 418.816C174.573 421.187 173.768 423.387 171.547 424.673C165.759 424.203 166.858 419.424 171.547 418.518Z"/>
	<path fill="#6D89AD" transform="scale(2 2)" d="M255.75 308.861C260.611 311.87 265.275 318.863 268.888 323.401C287.436 356.506 249.912 365.59 240.148 346.801C231.709 336.418 246.644 313.564 255.75 308.861Z"/>
	<path fill="#3B619D" transform="scale(2 2)" d="M268.888 323.401C287.436 356.506 249.912 365.59 240.148 346.801C241.617 346.614 243.202 347.226 244.625 347.576C256.087 350.392 267.791 344.136 268.42 331.429C268.549 328.836 267.409 325.734 268.888 323.401Z"/>
	<path fill="#6D89AD" transform="scale(2 2)" d="M180.583 308.861C186.22 312.743 190.455 319.119 194.139 324.779C209.422 354.461 178.303 364.038 165.73 348.445C158.584 333.543 168.141 317.387 180.583 308.861Z"/>
	<path fill="#3B619D" transform="scale(2 2)" d="M194.139 324.779C209.422 354.461 178.303 364.038 165.73 348.445C168.928 345.97 184.018 354.208 191.633 338.809C194.669 332.668 192.352 326.466 194.139 324.779Z"/>
	<path fill="#6D89AD" transform="scale(2 2)" d="M315.58 346.801C308.238 334.303 321.08 316.193 330.635 308.861C335.477 312.663 341.856 320.336 344.928 325.682C360.941 353.873 325.334 364.618 315.58 346.801Z"/>
	<path fill="#3B619D" transform="scale(2 2)" d="M344.928 325.682C360.941 353.873 325.334 364.618 315.58 346.801C317.249 345.995 322.457 347.9 324.51 348.141C346.418 350.715 342.841 328.009 344.928 325.682Z"/>
	<path fill="#DAE3E7" transform="scale(2 2)" d="M297.077 399.21C307.641 398.936 316.431 407.27 316.718 417.834C317.005 428.397 308.681 437.197 298.118 437.497C287.537 437.797 278.719 429.456 278.432 418.875C278.144 408.293 286.496 399.485 297.077 399.21Z"/>
	<path fill="#FEFEFE" transform="scale(2 2)" d="M286.011 412.907C292.687 413.246 295.358 419.145 288.709 423.422C285.381 423.97 281.176 422.139 284.859 419.094L285.25 418.774C285.012 416.116 281.104 415.711 286.011 412.907Z"/>
	<path fill="#FEFEFE" transform="scale(2 2)" d="M306.935 414.056C314.088 413.631 312.257 423.663 306.935 423.422C304.559 422.74 303.289 420.698 302.399 418.518C303.625 416.182 304.53 415.141 306.935 414.056Z"/>
	<path fill="#FEFEFE" transform="scale(2 2)" d="M293.103 422.485C298.454 422.609 297.793 429.896 293.103 430.975C286.623 430.753 288.238 424.497 293.103 422.485Z"/>
	<path fill="#FEFEFE" transform="scale(2 2)" d="M300.61 422.485C305.63 422.641 307.495 428.157 303.382 430.975C297.503 430.86 295.792 425.573 300.61 422.485Z"/>
	<path fill="#FEFEFE" transform="scale(2 2)" d="M300.61 406.292C306.564 405.927 307.569 410.803 303.382 414.056C298.006 415.859 296.546 409.234 300.61 406.292Z"/>
	<path fill="#FEFEFE" transform="scale(2 2)" d="M291.776 406.292C297.218 405.777 298.68 411.765 294.406 414.751C290.508 413.184 285.774 408.441 291.776 406.292Z"/>
	<path fill="#0ABBE0" transform="scale(2 2)" d="M234.282 385.302C241.987 384.831 240.209 388.023 240.148 394.191C244.835 389.349 247.955 386.284 251.328 394.191C249.632 396.166 247.717 397.962 245.863 399.789C247.908 399.729 252.015 399.044 253.689 400.344C255.388 401.663 255.153 405.522 253.782 406.94C252.138 408.641 248.015 408.022 245.863 408.002C250.437 412.07 253.784 414.558 246.376 419.023C244.167 417.588 242.288 415.62 240.148 414.056C240.363 419.362 242.308 422.306 235.649 422.485C234.229 422.336 233.372 421.982 232.209 421.143C231.871 418.414 232.14 415.65 232.209 412.907C230.65 414.412 228.335 418.335 226.175 418.682C216.743 416.9 222.988 410.925 226.605 408.002L218.806 408.002C217.269 405.22 217.336 402.661 218.806 399.789L226.605 399.789C222.559 395.12 216.291 392.886 226.605 388.577C228.601 390.268 230.311 392.373 232.209 394.191C232.323 390.834 230.491 386.964 234.282 385.302Z"/>
	<path fill="#0ABBE0" transform="scale(2 2)" d="M124.339 309.689C130.085 309.015 128.066 320.088 128.034 323.401C128.798 322.795 140.094 308.959 140.814 317.082C141.091 320.217 134.27 325.059 132.215 327.262C135.389 327.332 143.224 326.447 145.594 328.411C152.499 334.132 132.896 332.988 132.215 332.979C133.262 335.16 144.974 344.559 138.609 346.076C135.805 346.745 130.537 339.775 128.034 337.907C127.926 341.507 129.711 349.475 126.062 351.656C120.334 351.74 122.479 341.573 122.511 337.907C120.578 339.597 112.675 350.032 110.073 344.275C108.568 340.946 116.924 337.041 117.755 333.945C117.033 332.099 99.9283 334.135 105.051 328.529C107.062 326.328 115.188 327.242 118.182 327.262L118.091 327.155C115.299 323.821 105.228 315.307 111.629 314.372C115.239 313.845 119.669 321.439 122.511 323.401C122.745 319.341 120.122 312.106 124.339 309.689Z"/>
</svg>
