<?xml version="1.0" encoding="utf-8" ?>
<svg xmlns="http://www.w3.org/2000/svg" xmlns:xlink="http://www.w3.org/1999/xlink" width="1024" height="1024">
	<path fill="#FBFBFB" transform="scale(2 2)" d="M209.88 168.521C214.89 142.801 223.49 123.508 246.406 108.049C293.089 76.5563 359.767 98.6968 376.537 153.26C377.693 157.02 378.549 160.938 379.87 164.633C383.798 165.862 387.714 167.081 391.475 168.772C431.384 186.708 445.076 241.249 419.112 276.038C406.352 295.944 382.396 306.298 359.249 306.245C356.293 306.238 353.057 305.989 350.132 306.249C346.031 307.299 332.525 306.729 327.339 306.726L183.667 306.677C164.313 306.763 135.453 307.933 116.506 305.226C80.516 300.084 67.3403 252.851 93.1366 226.247C101.62 217.498 110.212 212.852 122.187 211.861C137.394 210.602 135.918 215.668 135.881 198.751C135.819 169.942 164.421 149.715 191.865 158.476C197.357 160.229 203.46 162.345 207.562 166.591L209.651 168.753L209.88 168.521Z"/>
	<defs>
		<linearGradient id="gradient_0" gradientUnits="userSpaceOnUse" x1="345.43442" y1="292.10278" x2="294.06583" y2="90.91906">
			<stop offset="0" stop-color="#B9C4D4"/>
			<stop offset="1" stop-color="#ECEEF1"/>
		</linearGradient>
	</defs>
	<path fill="url(#gradient_0)" transform="scale(2 2)" d="M209.88 168.521C214.89 142.801 223.49 123.508 246.406 108.049C293.089 76.5563 359.767 98.6968 376.537 153.26C377.693 157.02 378.549 160.938 379.87 164.633C383.798 165.862 387.714 167.081 391.475 168.772C431.384 186.708 445.076 241.249 419.112 276.038C418.632 274.998 419.668 274.179 420.168 273.338C415.726 272.425 392.611 274.287 391.363 273.306L391.728 272.317L391.512 271.93C389.504 271.341 386.576 271.726 384.449 271.648L384.155 271.436L384.022 271.606C383.845 267.278 388.151 262.857 387.682 258.371C386.78 256.203 387.665 250.811 387.679 248.278C387.834 219.053 364.439 194.342 335.437 192.259C330.387 191.896 325.343 192.231 320.287 192.233C313.886 158.475 280.497 136.487 247.186 146.472C232.393 150.906 224.533 156.583 217.48 169.693C214.938 169.701 212.129 169.869 209.88 168.521Z"/>
	<path fill="#BDCCDD" transform="scale(2 2)" d="M387.682 258.371C388.151 262.857 383.845 267.278 384.022 271.606L384.155 271.436L384.449 271.648C386.576 271.726 389.504 271.341 391.512 271.93L391.728 272.317L391.363 273.306C392.611 274.287 415.726 272.425 420.168 273.338C419.668 274.179 418.632 274.998 419.112 276.038C406.352 295.944 382.396 306.298 359.249 306.245C356.293 306.238 353.057 305.989 350.132 306.249C349.392 306.237 348.722 306.131 347.996 305.991L348.63 305.267L348.113 305.921L352.155 304.064C375.503 293.149 379.983 279.585 387.682 258.371Z"/>
	<path fill="#00A1E0" transform="scale(2 2)" d="M160.412 323.764C167.255 323.32 165.887 332.471 165.908 336.824C168.804 334.569 171.351 332.573 175.004 331.727C187.565 335.182 173.781 342.766 169.344 344.94C173.055 346.807 180.07 348.569 179.873 353.912C179.544 362.834 169.419 356.31 165.908 352.11C166.19 356.76 167.628 363.105 161.98 364.935C154.373 365.361 156.391 357.134 155.937 352.11C153.098 354.519 150.124 356.68 146.696 358.173C137.266 353.064 145.156 347.168 151.67 344.94C148.536 342.583 141.772 340.577 141.818 335.759C141.904 326.847 152.397 333.491 155.937 337.783C156.321 331.896 153.782 326.654 160.412 323.764Z"/>
	<path fill="#00A1E0" transform="scale(2 2)" d="M341.329 370.778C348.584 370.244 346.758 377.244 346.746 382.239C350.427 381.608 356.114 377.113 359.315 380.594C364.977 386.748 354.652 388.534 351.734 391.103C351.623 391.859 368.134 401.792 357.489 404.569C354.289 405.404 349.438 401.848 346.746 400.314C346.686 405.202 348.346 412.211 341.329 411.997C336.041 409.879 337.435 405.167 337.493 400.314C334.479 401.426 323.08 409.25 323.368 399.638C323.497 395.329 329.836 393.851 332.533 391.364C330.124 389.582 324.765 387.934 323.556 385.245C322.4 382.675 324.413 379.431 326.895 378.548C329.308 377.69 334.639 381.683 337.493 383.1C338.121 378.193 336.05 373.507 341.329 370.778Z"/>
	<path fill="#00A1E0" transform="scale(2 2)" d="M236.478 352.11C243.711 350.035 241.995 359.637 242.137 363.949C245.28 361.44 255.33 353.789 256.324 362.721C256.915 368.026 248.163 368.718 246.205 371.677C244.652 374.025 255.583 375.523 256.553 380.048C257.023 382.241 255.601 384.963 253.29 385.341C249.496 385.96 244.972 381.942 242.137 379.823C242.095 384.562 243.875 391.673 237.675 392.998C231.663 391.877 233.482 384.343 233.509 379.823C229.938 381.589 226.942 384.433 223.245 385.897C211.681 380.754 225.285 375.331 229.235 371.819L229.537 371.548C224.61 368.594 211.499 363.49 223.245 358.173C226.969 359.442 230.267 361.775 233.509 363.949C233.609 360.051 231.421 353.325 236.478 352.11Z"/>
	<path fill="#FBFBFB" transform="scale(2 2)" d="M301.657 337.783C302.014 337.794 302.337 337.906 302.419 338.262C302.961 340.616 298.219 359.809 297.068 363.151C294.123 371.71 286.303 374.22 279.152 368.949C274.825 365.391 273.504 357.857 276.68 353.12C279.923 348.284 295.929 339.04 301.657 337.783Z"/>
	<path fill="#BDCCDD" transform="scale(2 2)" d="M183.81 399.044L184.209 399.069C180.555 408.794 183.344 429.017 168.86 430.379C165.435 430.701 162.935 429.268 160.412 427.158C155.983 423.724 155.486 416.182 158.35 411.682C162.604 404.997 176.353 400.747 183.81 399.044Z"/>
</svg>
