<?xml version="1.0" encoding="utf-8" ?>
<svg xmlns="http://www.w3.org/2000/svg" xmlns:xlink="http://www.w3.org/1999/xlink" width="1024" height="1024">
	<path fill="#FDFDFD" transform="scale(2 2)" d="M65.3019 272.529C52.8084 250.009 48.6837 227.529 56.3806 202.201C65.0227 173.762 86.874 150.931 114.741 140.681C130.752 134.791 126.633 141.939 133.924 127.145C177.181 39.3788 301.513 39.9818 348.049 127.984C350.404 130.84 351.586 134.397 353.804 137.364C358.656 136.765 363.464 135.898 368.364 135.772C414.743 134.581 453.912 169.766 459.315 215.626C464.004 255.425 439.994 295.523 402.726 310.056C388.855 315.465 376.642 315.795 362.007 315.794L148.962 315.793C123.828 315.793 106.738 312.86 85.9972 296.171C79.358 290.828 68.7076 280.126 65.3019 272.529Z"/>
	<path fill="#9DBFE6" transform="scale(2 2)" d="M339.478 130.023C341.677 127.183 344.776 127.522 348.049 127.984C350.404 130.84 351.586 134.397 353.804 137.364C358.656 136.765 363.464 135.898 368.364 135.772C414.743 134.581 453.912 169.766 459.315 215.626C464.004 255.425 439.994 295.523 402.726 310.056C388.855 315.465 376.642 315.795 362.007 315.794L148.962 315.793C123.828 315.793 106.738 312.86 85.9972 296.171C79.358 290.828 68.7076 280.126 65.3019 272.529C66.6611 269.872 68.3554 266.529 70.3134 264.262C75.7593 273.875 83.5507 284.119 92.9043 290.223C94.0073 291.629 96.4086 292.929 97.9345 293.891C119.419 307.435 133.132 307.282 157.946 307.274L343.783 307.272C356.032 307.272 368.858 307.942 381.015 306.663C432.005 301.297 463.186 244.781 446.424 197.947C438.695 176.352 418.571 155.384 396.439 149.336C385.736 145.317 373.904 143.835 362.552 145.325C347.272 147.331 346.571 147.514 339.478 130.023Z"/>
	<path fill="#D0D3E1" transform="scale(2 2)" d="M65.3019 272.529C52.8084 250.009 48.6837 227.529 56.3806 202.201C65.0227 173.762 86.874 150.931 114.741 140.681C130.752 134.791 126.633 141.939 133.924 127.145C177.181 39.3788 301.513 39.9818 348.049 127.984C344.776 127.522 341.677 127.183 339.478 130.023C324.517 100.509 292.014 77.8045 259.56 71.6052C213.851 62.8741 165.141 85.9348 143.408 127.242C140.378 133.002 138.262 139.077 135.73 145.049C120.565 144.694 99.2644 156.284 88.4968 166.551C61.2852 192.499 53.3745 230.613 70.3134 264.262C68.3554 266.529 66.6611 269.872 65.3019 272.529Z"/>
	<path fill="#9DBFE6" transform="scale(2 2)" d="M350.077 361.787C351.451 355.288 363.611 331.874 368.293 329.857C374.709 327.093 385.788 351.914 387.4 356.533C389.844 361.965 390.485 366.963 388.339 372.643C380.146 394.325 346.026 384.267 350.077 361.787Z"/>
	<path fill="#118CFE" transform="scale(2 2)" d="M387.4 356.533C389.844 361.965 390.485 366.963 388.339 372.643C380.146 394.325 346.026 384.267 350.077 361.787C350.848 361.979 351.905 365.652 352.33 366.456C360.564 382.023 381.69 380.332 386.18 362.542C386.683 360.55 386.758 358.5 387.4 356.533Z"/>
	<path fill="#9DBFE6" transform="scale(2 2)" d="M149.806 361.787C150.837 353.023 160.826 332.989 168.027 329.357C175.334 325.671 184.608 350.66 187.599 356.533C196.07 371.903 180.191 386.956 164.193 382.119C155.333 379.441 149.401 370.972 149.806 361.787Z"/>
	<path fill="#118CFE" transform="scale(2 2)" d="M187.599 356.533C196.07 371.903 180.191 386.956 164.193 382.119C155.333 379.441 149.401 370.972 149.806 361.787C150.76 362.816 151.368 365.057 151.965 366.357C159.425 382.622 184.858 379.237 187.219 361.126C187.421 359.577 186.962 358.023 187.599 356.533Z"/>
	<path fill="#9DBFE6" transform="scale(2 2)" d="M249.423 365.536C246.266 357.625 265.765 327.98 270.401 330.223C274.668 332.288 284.622 350.795 286.62 355.752C299.796 385.495 253.425 397.632 249.423 365.536Z"/>
	<path fill="#118CFE" transform="scale(2 2)" d="M286.62 355.752C299.796 385.495 253.425 397.632 249.423 365.536L249.548 365.464C250.825 365.856 252.496 369.831 253.579 371.021C263.918 382.386 280.698 376.277 284.956 361.998C285.575 359.922 285.722 357.748 286.62 355.752Z"/>
	<path fill="#9DBFE6" transform="scale(2 2)" d="M202.383 429.906C200.705 422.263 217.466 395.033 223.101 396.762C227.404 398.082 236.543 413.548 238.63 417.946C241.369 424.027 243.9 429.907 241.35 436.561C234.219 455.166 206.755 452.009 202.383 429.906Z"/>
	<path fill="#118CFE" transform="scale(2 2)" d="M202.383 429.906L202.618 428.423C203.323 428.945 203.707 430.358 204.093 431.173C212.55 449.071 234.362 442.572 237.422 424.492C237.791 422.312 237.666 419.983 238.63 417.946C241.369 424.027 243.9 429.907 241.35 436.561C234.219 455.166 206.755 452.009 202.383 429.906Z"/>
	<path fill="#9DBFE6" transform="scale(2 2)" d="M299.646 431.284C296.574 423.328 314.414 395.415 319.516 396.56C323.648 397.487 332.92 414.842 335.343 418.984C352.874 450.815 303.028 460.308 299.646 431.284Z"/>
	<path fill="#118CFE" transform="scale(2 2)" d="M299.646 431.284L299.853 431.19C301.671 432.143 303.474 438.378 310.388 440.92C322.469 445.363 331.961 435.215 334.461 424.196C334.853 422.468 334.601 420.631 335.343 418.984C352.874 450.815 303.028 460.308 299.646 431.284Z"/>
</svg>
