<?xml version="1.0" encoding="utf-8" ?>
<svg xmlns="http://www.w3.org/2000/svg" xmlns:xlink="http://www.w3.org/1999/xlink" width="1024" height="1024">
	<path fill="#F7F9F9" transform="scale(2 2)" d="M225.463 75.2635L228.39 75.2536C258.434 75.1639 286.028 85.1554 305.139 109.677C306.569 111.512 307.74 113.523 309.453 115.125C335.674 115.306 354.562 119.371 372.091 142.24C375.073 146.13 376.994 150.64 380.075 154.468C382.909 156.218 386.49 156.969 389.531 158.351C416.951 170.82 436.491 197.748 436.556 228.351C436.625 260.505 414.859 291.095 383.613 299.817C372.313 302.971 360.895 302.714 349.294 302.663L281.625 302.677L159.515 302.673C132.234 302.646 113.638 301.502 92.1843 281.544C45.2497 237.882 75.1097 154.014 141.193 151.737C142.421 147.804 143.131 143.703 144.325 139.751C156.13 100.676 187.3 80.9952 225.463 75.2635Z"/>
	<path fill="#F7F9F9" transform="scale(2 2)" d="M431.558 80.3104C432.478 79.1051 437.633 70.1275 440.244 74.9682C441.557 77.4022 438.487 81.5032 437.709 83.875C439.554 83.753 450.559 79.6066 446.939 87.1162C445.466 90.1718 438.4 89.9137 435.464 90.8972C432.789 93.5255 430.86 97.8078 428.878 101.033C432.489 101.185 436.152 101.024 439.771 101.033C446.058 90.7484 455.147 84.9879 447.837 101.033C461.429 100.823 462.207 108.368 447.837 108.261C448.754 110.272 451.572 113.342 450.768 115.646C448.091 123.317 440.937 111.29 439.771 108.261C435.932 108.327 432.106 108.346 428.267 108.261C430.017 112.345 432.186 115.998 434.811 119.579C435.876 119.994 453.327 123.201 445.622 127.849C443.596 129.071 439.826 127.791 437.709 127.269C438.427 130.833 441.307 137.425 434.811 136.937C432.317 135.112 431.935 132.815 431.558 129.934C428.486 133.847 427.04 136.618 422.204 133.454C424.008 129.984 425.574 126.353 427.225 122.807C425.71 119.535 424.112 116.371 422.204 113.308C419.798 116.068 418.161 119.54 416.573 122.807C417.126 123.986 424.459 137.273 417.35 135.298C415.403 134.757 414.095 131.593 413.172 129.934C407.64 141.33 400.344 138.545 406.978 127.269C404.6 127.48 395.67 128.725 398.523 123.541C399.672 121.454 407.151 120.226 409.711 119.579C412.599 116.34 414.34 111.975 416.573 108.261L405.027 108.261C404.417 109.13 395.139 125.654 393.63 116.957C393.163 114.269 396.542 110.381 398.013 108.261C395.572 108.034 382.53 107.966 387.529 102.205C389.041 100.463 394.626 101.159 396.891 101.033C396.704 100.513 390.02 88.7734 396.553 90.4236C398.919 91.0212 403.552 98.8202 405.027 101.033C408.872 100.97 412.727 101.03 416.573 101.033C413.97 97.8536 412.391 93.9458 409.711 90.8972C406.56 89.8611 398.02 89.4217 396.748 87.3462C393.425 81.9262 403.654 82.7126 406.978 83.875C404.292 80.429 400.826 76.701 405.882 73.6872C409.197 74.0455 410.957 78.2354 413.172 80.3104C414.155 78.3262 418.351 71.5372 420.378 76.6838C421.352 79.155 417.637 85.0904 416.573 87.4457C418.362 91.028 420.594 94.3713 422.204 98.0398C424.266 94.7932 426.139 91.4365 428.267 88.23C426.278 83.443 419.835 77.2624 427.225 74.5786C428.973 76.1206 430.276 78.3766 431.558 80.3104Z"/>
	<path fill="#AED4ED" transform="scale(2 2)" d="M235.017 438.287C231.805 436.27 230.43 428.389 230.532 424.908C230.882 412.902 244.253 396.973 252.91 388.911C257.494 393.825 261.872 399.056 265.786 404.52C271.121 411.772 277.291 419.428 275.842 429.052C272.863 448.841 245.708 454.986 235.017 438.287Z"/>
	<path fill="#84BDE4" transform="scale(2 2)" d="M235.017 438.287C236.597 437.696 255.323 451.258 266.725 433.775C275.202 420.777 263.886 407.259 265.786 404.52C271.121 411.772 277.291 419.428 275.842 429.052C272.863 448.841 245.708 454.986 235.017 438.287Z"/>
	<path fill="#AED4ED" transform="scale(2 2)" d="M289.77 327.128C294.524 331.817 299.154 337.297 303.163 342.64C323.207 370.131 283.783 386.756 274.385 364.013C267.055 350.513 280.877 335.825 289.77 327.128Z"/>
	<path fill="#84BDE4" transform="scale(2 2)" d="M274.385 364.013C275.686 363.831 278.415 366.893 279.773 367.606C293.431 374.772 307.265 361.985 303.384 346.64C302.966 344.99 302.369 344.187 303.163 342.64C323.207 370.131 283.783 386.756 274.385 364.013Z"/>
	<path fill="#AED4ED" transform="scale(2 2)" d="M138.887 320.821C142.304 324.108 145.634 327.371 148.37 331.27C166.953 357.946 137.518 368.2 126.536 355.862C116.738 348.075 131.951 326.089 138.887 320.821Z"/>
	<path fill="#84BDE4" transform="scale(2 2)" d="M148.37 331.27C166.953 357.946 137.518 368.2 126.536 355.862C128.252 355.203 132.052 356.659 134.003 356.846C145.972 357.994 152.764 347.758 149.06 336.938C148.403 335.018 146.776 333.003 148.37 331.27Z"/>
	<path fill="#AED4ED" transform="scale(2 2)" d="M354.87 348.715C352.29 342.024 364.21 324.233 369.694 318.9C373.012 322.552 377.56 328.163 380.075 332.339C398.737 360.206 358.907 369.535 354.87 348.715Z"/>
	<path fill="#84BDE4" transform="scale(2 2)" d="M380.075 332.339C398.737 360.206 358.907 369.535 354.87 348.715C360.568 351.036 364.768 361.44 376.541 353.167C386.866 345.911 378.564 336.146 380.075 332.339Z"/>
	<path fill="#AED4ED" transform="scale(2 2)" d="M221.15 320.821C225.215 324.774 229.429 329.176 232.468 333.969C247.142 355.906 222.43 366.861 210.916 355.862C210.086 355.519 209.181 354.339 208.654 353.63C201.358 343.806 213.339 326.461 221.15 320.821Z"/>
	<path fill="#84BDE4" transform="scale(2 2)" d="M232.468 333.969C247.142 355.906 222.43 366.861 210.916 355.862C214.952 355.211 218.277 359.379 226.454 355.038C237.871 348.977 230.646 337.926 232.468 333.969Z"/>
	<path fill="#AED4ED" transform="scale(2 2)" d="M331.874 376.967C335.765 381.307 338.855 386.346 342.392 390.979C357.455 411.462 327.975 426.379 318.816 407.536C313.671 398.315 325.942 382.783 331.874 376.967Z"/>
	<path fill="#84BDE4" transform="scale(2 2)" d="M342.392 390.979C357.455 411.462 327.975 426.379 318.816 407.536C321.339 406.749 333.827 418.571 341.604 405.656C345.34 399.451 340.764 393.601 342.392 390.979Z"/>
	<path fill="#AED4ED" transform="scale(2 2)" d="M175.71 376.205C182.724 384.57 197.796 397.061 187.968 408.736C185.341 411.856 181.298 413.467 177.312 413.796C172.668 413.914 168.723 412.451 165.328 409.272C154.567 399.195 168.191 383.706 175.71 376.205Z"/>
</svg>
