<?xml version="1.0" encoding="utf-8" ?>
<svg xmlns="http://www.w3.org/2000/svg" xmlns:xlink="http://www.w3.org/1999/xlink" width="1024" height="1024">
	<path fill="#FCFCFC" transform="scale(2 2)" d="M253.208 136.954C263.492 110.842 275.612 92.4488 302.977 80.5252C319.006 73.5405 336.194 72.9393 353.228 75.8166L353.076 76.0217C350.725 79.1239 347.882 81.7351 345.622 84.9606C310.544 135.029 364.988 197.691 417.127 168.615C419.608 167.231 421.992 165.663 424.528 164.378C423.294 169.753 423.361 175.331 422.346 180.745C418.626 200.575 409.28 215.97 395.517 230.454C400.447 236.807 404.729 243.163 407.685 250.716C421.696 286.517 403.395 328.822 364.361 337.426C354.05 339.699 334.618 338.947 323.599 338.949L181.746 338.84C168.052 338.805 153.784 339.76 140.156 338.125C114.911 335.096 93.069 314.387 87.6924 289.727C80.8851 258.505 96.6594 223.985 128.291 214.142C133.325 212.576 138.464 211.959 143.599 210.883C146.28 208.222 150.88 196.974 153.274 192.781C170.993 161.757 204.145 139.01 240.304 137.553C244.278 137.393 249.455 138.219 253.208 136.954Z"/>
	<path fill="#D1D2D8" transform="scale(2 2)" d="M253.208 136.954C263.492 110.842 275.612 92.4488 302.977 80.5252C319.006 73.5405 336.194 72.9393 353.228 75.8166L353.076 76.0217C350.725 79.1239 347.882 81.7351 345.622 84.9606C310.544 135.029 364.988 197.691 417.127 168.615C419.608 167.231 421.992 165.663 424.528 164.378C423.294 169.753 423.361 175.331 422.346 180.745C418.626 200.575 409.28 215.97 395.517 230.454C383.774 217.712 365.614 207.629 347.937 209.081C335.047 166.24 296.52 140.18 253.208 136.954Z"/>
	<path fill="#44A3F7" transform="scale(2 2)" d="M163.477 432.681C141.786 424.406 148.604 402.322 159.817 387.985C164.811 381.6 169.853 378.224 176.648 384.15C183.829 391.734 190.821 403.573 190.472 414.379C189.982 429.528 176.54 434.62 163.477 432.681Z"/>
	<path fill="#108EF1" transform="scale(2 2)" d="M163.477 432.681C141.786 424.406 148.604 402.322 159.817 387.985C164.811 381.6 169.853 378.224 176.648 384.15C167.293 387.054 157.753 415.601 160.911 425.729C161.611 427.976 163.254 430.37 163.477 432.681Z"/>
	<path fill="#44A3F7" transform="scale(2 2)" d="M341.731 380.926C345.404 382.132 348.124 384.972 350.737 387.69C356.678 394.064 364.143 404.368 363.799 413.126C363.269 426.615 349.422 436.947 336.301 432.681C324.01 427.807 316.524 414.39 323.464 401.834C326.518 396.309 336.541 384.185 341.731 380.926Z"/>
	<path fill="#108EF1" transform="scale(2 2)" d="M341.731 380.926C345.404 382.132 348.124 384.972 350.737 387.69C343.788 391.078 335.63 403.498 333.182 410.703C328.622 424.13 335.939 426.194 336.301 432.681C324.01 427.807 316.524 414.39 323.464 401.834C326.518 396.309 336.541 384.185 341.731 380.926Z"/>
	<path fill="#44A3F7" transform="scale(2 2)" d="M251.737 432.681C239.379 430.929 233.193 419.295 236.003 407.68C237.368 402.042 248.219 378.332 256.266 380.856C259.032 381.724 260.885 385.344 262.228 387.69C268.242 394.519 276.747 405.473 276.159 414.576C275.385 426.55 262.374 438.357 251.737 432.681Z"/>
	<path fill="#108EF1" transform="scale(2 2)" d="M251.737 432.681C239.379 430.929 233.193 419.295 236.003 407.68C237.368 402.042 248.219 378.332 256.266 380.856C259.032 381.724 260.885 385.344 262.228 387.69C255.637 394.131 249.43 399.11 246.61 408.265C243.928 416.971 244.673 425.812 251.942 431.902L251.737 432.681Z"/>
</svg>
