<?xml version="1.0" encoding="utf-8" ?>
<svg xmlns="http://www.w3.org/2000/svg" xmlns:xlink="http://www.w3.org/1999/xlink" width="1024" height="1024">
	<path fill="#F8F9F9" transform="scale(2 2)" d="M294.691 53.0219C340.449 48.5871 380.193 86.6628 385.186 131.506C385.787 136.907 385.78 142.303 385.775 147.731C419.655 158.364 444.097 185.344 444.497 222.1C444.868 256.175 421.104 285.956 387.965 293.208C377.308 295.541 366.306 294.909 355.463 294.848L210.688 294.872C205.522 294.272 199.898 294.873 194.677 294.875L162.619 294.884C146.299 294.882 128.319 295.963 112.896 289.66C53.6011 265.429 50.6643 180.272 111.663 154.323C115.803 152.562 120.24 151.762 124.364 150.042L124.685 149.906C126.468 146.837 127.318 143.067 128.454 139.708C142.384 98.5121 181.38 82.0602 220.94 98.8096C224.589 93.7527 227.187 88.2173 231.389 83.5219C247.753 65.2388 270.19 54.3502 294.691 53.0219Z"/>
	<path fill="#A2D3EF" transform="scale(2 2)" d="M358.281 245.733C370.574 247.172 355.863 259.846 352.169 262.514C341.356 270.325 329.625 271.486 316.79 269.363C315.213 268.892 313.874 268.291 312.51 267.374C312.083 258.805 316.486 260.963 323.118 261.824C334.28 263.274 344.633 259.404 352.439 251.19C354.287 249.246 355.802 246.945 358.281 245.733Z"/>
	<path fill="#A2D3EF" transform="scale(2 2)" d="M174.333 415.55C167.118 401.378 160.631 394.641 174.999 382.693C181.436 377.34 192.092 376.345 197.851 383.447C201.218 388.062 206.982 399.377 206.069 405.556C205.225 411.267 199.672 413.533 195.226 416.011C188.179 419.939 179.557 425.141 174.333 415.55Z"/>
	<path fill="#7DBBF2" transform="scale(2 2)" d="M174.333 415.55C183.728 407.879 197.511 409.035 197.849 392.929C197.903 390.335 196.321 385.615 197.851 383.447C201.218 388.062 206.982 399.377 206.069 405.556C205.225 411.267 199.672 413.533 195.226 416.011C188.179 419.939 179.557 425.141 174.333 415.55Z"/>
	<path fill="#A2D3EF" transform="scale(2 2)" d="M146.173 352.916C143.41 347.856 138.751 338.884 139.47 333.161C141.297 318.618 162.173 311.933 168.261 320.26C173.879 323.155 175.541 329.669 177.372 335.338C180.72 345.704 173.452 350.812 165.062 354.92C158.569 358.099 150.178 361.081 146.173 352.916Z"/>
	<path fill="#7DBBF2" transform="scale(2 2)" d="M168.261 320.26C173.879 323.155 175.541 329.669 177.372 335.338C180.72 345.704 173.452 350.812 165.062 354.92C158.569 358.099 150.178 361.081 146.173 352.916C148.152 352.46 160.779 346.066 162.601 344.821C172.229 338.241 166.532 327.595 168.261 320.26Z"/>
	<path fill="#A2D3EF" transform="scale(2 2)" d="M302.399 352.916C300.377 347.127 296.946 341.965 296.599 335.687C295.775 320.761 314.734 310.351 325.466 320.26C328.742 323.99 334.919 337.899 334.531 342.802C334.172 347.334 327.809 349.996 324.504 352.219C316.682 357.481 308.5 365.084 302.399 352.916Z"/>
	<path fill="#7DBBF2" transform="scale(2 2)" d="M325.466 320.26C328.742 323.99 334.919 337.899 334.531 342.802C334.172 347.334 327.809 349.996 324.504 352.219C316.682 357.481 308.5 365.084 302.399 352.916C306.911 350.311 311.5 347.502 315.868 344.656C331.888 334.215 322.898 330.687 325.466 320.26Z"/>
	<path fill="#A2D3EF" transform="scale(2 2)" d="M216.841 449.443C213.328 441.973 205.805 433.523 211.347 425.134C216.025 418.054 230.326 411.59 239.01 417.299C242.513 420.598 248.476 432.694 248.559 437.401C248.729 447.165 231.613 456.204 225.09 456.013C221.098 455.896 218.419 452.787 216.841 449.443Z"/>
	<path fill="#7DBBF2" transform="scale(2 2)" d="M239.01 417.299C242.513 420.598 248.476 432.694 248.559 437.401C248.729 447.165 231.613 456.204 225.09 456.013C221.098 455.896 218.419 452.787 216.841 449.443C220.855 448.879 225.074 445.943 228.521 443.993C246.065 434.072 236.17 422.421 239.01 417.299Z"/>
	<path fill="#A2D3EF" transform="scale(2 2)" d="M271.337 414.166C266.778 406.659 262.458 397.252 267.584 388.889C273.356 379.472 285.714 377.814 294.691 383.447C298.061 387.328 303.887 398.723 303.524 403.875C302.922 412.424 284.92 421.629 279.633 421.266C275.514 420.984 273.064 417.5 271.337 414.166Z"/>
	<path fill="#7DBBF2" transform="scale(2 2)" d="M271.337 414.166C274.742 413.784 278.215 410.681 281.121 408.985C300.434 397.715 291.155 397.34 294.598 383.804L294.691 383.447C298.061 387.328 303.887 398.723 303.524 403.875C302.922 412.424 284.92 421.629 279.633 421.266C275.514 420.984 273.064 417.5 271.337 414.166Z"/>
	<path fill="#A2D3EF" transform="scale(2 2)" d="M234.337 323.47C237.15 322.549 239.841 323.156 241.736 325.445C243.953 328.123 254.806 345.975 255.785 348.972C258.905 358.528 247.878 367.257 239.863 369.499C233.785 371.198 229.927 367.784 225.518 364.32C221.343 361.835 218.892 357.835 219.251 352.852C219.585 348.221 229.79 327.297 234.337 323.47Z"/>
	<path fill="#7DBBF2" transform="scale(2 2)" d="M234.337 323.47C237.15 322.549 239.841 323.156 241.736 325.445C243.953 328.123 254.806 345.975 255.785 348.972C258.905 358.528 247.878 367.257 239.863 369.499C233.785 371.198 229.927 367.784 225.518 364.32C228.553 360.883 240.857 362.809 244.497 351.932C248.139 341.047 238.825 332.374 234.337 323.47Z"/>
	<defs>
		<linearGradient id="gradient_0" gradientUnits="userSpaceOnUse" x1="339.82339" y1="363.82739" x2="364.4639" y2="392.70093">
			<stop offset="0" stop-color="#A0D8F0"/>
			<stop offset="1" stop-color="#80BDF3"/>
		</linearGradient>
	</defs>
	<path fill="url(#gradient_0)" transform="scale(2 2)" d="M350.515 358.332C358.132 357.595 363.976 361.394 367.129 368.24C374.738 384.758 375.37 389.503 355.644 397.761C342.149 403.046 341.323 394.258 337.56 383.859C336.702 381.49 335.377 379.201 334.916 376.704C333.14 367.081 341.848 359.78 350.515 358.332Z"/>
</svg>
