<?xml version="1.0" encoding="utf-8" ?>
<svg xmlns="http://www.w3.org/2000/svg" xmlns:xlink="http://www.w3.org/1999/xlink" width="1024" height="1024">
	<path fill="#B9E2F5" transform="scale(2 2)" d="M205.955 131.014C211.478 111.443 227.966 94.5144 245.369 84.7588C294.723 57.0921 361.184 92.7843 366.043 149.878C366.479 155.001 366.279 160.222 366.258 165.362C380.497 170.312 391.311 176.816 398.111 190.922C408.674 212.834 398.78 241.535 376.04 251.115C366.324 256.244 358.871 255.893 348.315 255.876L164.935 255.866C147.049 255.875 132.995 255.192 120.226 239.878C105.249 221.916 107.389 193.625 123.502 177.081C126.564 173.937 130.17 171.369 133.538 168.568C138.913 165.147 146.841 163.407 153.105 162.942C153.027 161.601 152.933 160.192 153.105 158.858C154.316 152.196 156.062 145.706 160.163 140.179C169.992 126.932 191.913 120.602 205.955 131.014ZM299.518 88.4869C293.754 88.5426 289.638 96.2912 294.353 100.413C296.356 102.163 303.008 104.054 306.121 105.973C314.423 111.089 321.302 118.827 324.852 127.944C326.161 131.306 327.238 138.872 331.288 140.114C334.896 141.221 338.819 139.079 339.73 135.38C343.365 120.604 317.912 96.5155 305.482 90.6521C303.792 90.2602 301.049 89.3279 299.518 88.4869ZM281.485 99.4957C289.766 97.6277 287.481 85.2554 279.145 85.8018C270.733 88.3005 272.284 99.7095 281.485 99.4957Z"/>
	<path fill="#8CD3EB" transform="scale(2 2)" d="M133.538 168.568C135.096 170.535 133.701 176.004 133.569 178.369C131.962 207 154.186 231.992 183.58 232.011C189.086 252.304 207.125 248.977 223.441 248.962L269.293 248.478C277.945 248.378 286.933 249.912 295.527 248.521C293.453 247.432 277.82 248.052 274.605 247.865C248.983 246.379 229.455 232.406 216.949 209.92C215.082 206.561 210.835 200.086 210.73 196.298L210.7 196.521L210.947 196.405C211.933 197.485 212.534 199.877 213.242 201.256C228.789 231.526 252.727 230.704 281.025 230.707L322.636 230.71C329.155 230.709 336.409 230.263 342.838 230.713C357.865 246.059 358.754 244.19 376.04 251.115C366.324 256.244 358.871 255.893 348.315 255.876L164.935 255.866C147.049 255.875 132.995 255.192 120.226 239.878C105.249 221.916 107.389 193.625 123.502 177.081C126.564 173.937 130.17 171.369 133.538 168.568Z"/>
	<path fill="#8CD3EB" transform="scale(2 2)" d="M153.105 158.858C154.316 152.196 156.062 145.706 160.163 140.179C169.992 126.932 191.913 120.602 205.955 131.014C205.441 132.19 205.027 133.321 204.667 134.556C185.53 126.354 164.233 133.362 155.812 153.027C155.388 154.019 153.864 161.619 153.105 158.858Z"/>
	<path fill="#CFF1F7" transform="scale(2 2)" d="M299.518 88.4869C297.208 86.1677 292.371 88.8056 290.594 85.3586C290.838 82.2556 296.815 81.2498 299.124 81.5957C310.62 83.3173 328.6 94.7112 337.097 102.813C352.802 117.788 362.597 140.368 361.272 162.123C361.134 164.386 361.667 170.629 359.889 172.128L360.201 172.251L359.978 172.258C359.734 170.713 359.988 168.985 359.905 167.404C358.277 136.038 340.92 104.645 311.377 92.0268C309.707 91.3137 308.015 90.2179 306.141 90.3055L305.482 90.6521C303.792 90.2602 301.049 89.3279 299.518 88.4869Z"/>
	<path fill="#E9EBF5" transform="scale(2 2)" d="M159.94 281.786C169.613 274.399 173.236 286.034 177.025 293.038C187.58 312.551 186.41 307.114 175.422 327.409C173.036 331.644 163.986 329.677 159.94 329.691C158.235 329.757 155.901 330.087 154.447 329.005C153.204 328.08 143.357 311.065 143.069 309.255C142.7 306.936 143.894 305.01 145.168 303.206C145.814 301.576 148.57 298.145 149.682 296.501C150.309 294.36 158.01 283.445 159.94 281.786Z"/>
	<path fill="#B9E2F5" transform="scale(2 2)" d="M159.94 281.786L160.224 282.381C157.292 288.615 152.479 296.703 154.901 303.713C158.024 312.755 168.186 317.994 172.656 326.026C173.605 326.454 174.525 326.877 175.422 327.409C173.036 331.644 163.986 329.677 159.94 329.691C158.235 329.757 155.901 330.087 154.447 329.005C153.204 328.08 143.357 311.065 143.069 309.255C142.7 306.936 143.894 305.01 145.168 303.206C145.814 301.576 148.57 298.145 149.682 296.501C150.309 294.36 158.01 283.445 159.94 281.786Z"/>
	<path fill="#87B0F0" transform="scale(2 2)" d="M145.168 303.206C148.606 308.235 155.783 325.69 159.662 326.884C160.445 327.126 161.332 326.101 162.19 326.026L162.19 326.026C162.908 327.228 163.425 328.38 163.907 329.691C162.599 329.615 161.231 329.428 159.94 329.691C158.235 329.757 155.901 330.087 154.447 329.005C153.204 328.08 143.357 311.065 143.069 309.255C142.7 306.936 143.894 305.01 145.168 303.206Z"/>
	<path fill="#A3C5F7" transform="scale(2 2)" d="M149.682 296.501C150.606 298.526 149.354 302.189 149.448 304.561C149.674 310.236 158.003 322.123 162.19 326.026C161.332 326.101 160.445 327.126 159.662 326.884C155.783 325.69 148.606 308.235 145.168 303.206C145.814 301.576 148.57 298.145 149.682 296.501Z"/>
	<path fill="#A3C5F7" transform="scale(2 2)" d="M172.656 326.026C173.605 326.454 174.525 326.877 175.422 327.409C173.036 331.644 163.986 329.677 159.94 329.691C161.231 329.428 162.599 329.615 163.907 329.691C163.425 328.38 162.908 327.228 162.19 326.026C165.678 326.066 169.169 326.03 172.656 326.026Z"/>
	<path fill="#E9EBF5" transform="scale(2 2)" d="M308.297 275.402C313.878 273.473 325.324 294.098 326.717 298.307C329.107 305.527 321.774 313.288 318.704 319.314C315.649 324.414 300.414 322.756 299.853 322.419C297.303 320.887 288.696 307.124 288.065 303.992C287.335 300.37 291.51 295.46 293.407 292.511C294.696 287.517 302.162 276.789 308.297 275.402Z"/>
	<path fill="#B9E2F5" transform="scale(2 2)" d="M308.297 275.402L308.011 275.742C303.482 281.028 297.969 288.547 298.601 296.08C299.184 303.019 312.359 313.296 316.701 318.755L318.704 319.314C315.649 324.414 300.414 322.756 299.853 322.419C297.303 320.887 288.696 307.124 288.065 303.992C287.335 300.37 291.51 295.46 293.407 292.511C294.696 287.517 302.162 276.789 308.297 275.402Z"/>
	<path fill="#87B0F0" transform="scale(2 2)" d="M293.407 292.511C294.588 294.514 293.113 297.834 293.486 300.117C294.011 303.334 302.044 316.683 304.986 318.209C307.221 319.368 313.914 318.779 316.701 318.755L318.704 319.314C315.649 324.414 300.414 322.756 299.853 322.419C297.303 320.887 288.696 307.124 288.065 303.992C287.335 300.37 291.51 295.46 293.407 292.511Z"/>
	<path fill="#E9EBF5" transform="scale(2 2)" d="M175.422 374.837C182.525 368.921 188.478 380.389 191.044 384.758C199.088 398.458 199.761 403.462 188.628 417.576C188.118 418.318 187.635 419.062 187.015 419.716C183.53 419.775 180.001 419.762 176.515 419.716C174.242 419.765 171.97 419.843 169.699 419.716C167.663 417.158 158.683 402.795 158.524 400.181C158.343 397.207 162.076 393.475 163.907 391.458C163.121 388.619 172.802 376.421 175.422 374.837Z"/>
	<path fill="#B9E2F5" transform="scale(2 2)" d="M175.422 374.837C175.172 376.371 174.047 377.495 173.39 378.855C160.998 404.506 177.768 400.966 185.993 416.071C186.908 416.532 187.774 417.009 188.628 417.576C188.118 418.318 187.635 419.062 187.015 419.716C183.53 419.775 180.001 419.762 176.515 419.716C174.242 419.765 171.97 419.843 169.699 419.716C167.663 417.158 158.683 402.795 158.524 400.181C158.343 397.207 162.076 393.475 163.907 391.458C163.121 388.619 172.802 376.421 175.422 374.837Z"/>
	<path fill="#87B0F0" transform="scale(2 2)" d="M163.907 391.458C164.284 393.484 163.247 395.422 163.637 397.426C164.254 400.592 173.156 415.659 176.515 416.071C177.665 417.152 178.519 418.411 179.392 419.716C178.462 419.665 177.429 419.513 176.515 419.716C174.242 419.765 171.97 419.843 169.699 419.716C167.663 417.158 158.683 402.795 158.524 400.181C158.343 397.207 162.076 393.475 163.907 391.458Z"/>
	<path fill="#A3C5F7" transform="scale(2 2)" d="M185.993 416.071C186.908 416.532 187.774 417.009 188.628 417.576C188.118 418.318 187.635 419.062 187.015 419.716C183.53 419.775 180.001 419.762 176.515 419.716C177.429 419.513 178.462 419.665 179.392 419.716C178.519 418.411 177.665 417.152 176.515 416.071C179.575 415.767 182.908 416.048 185.993 416.071Z"/>
	<path fill="#E9EBF5" transform="scale(2 2)" d="M332.26 358.714C339.65 356.212 350.277 377.87 351.531 382.179C353.161 387.778 347.383 396.263 344.102 401.037C341.502 407.239 325.629 404.744 324.923 404.302C323.037 403.119 316.227 392.284 314.973 389.867C312.087 384.304 314.571 381.186 317.702 376.277C321.37 370.686 325.167 360.315 332.26 358.714Z"/>
	<path fill="#B9E2F5" transform="scale(2 2)" d="M332.26 358.714C331.329 360.293 329.391 360.639 328.364 362.086C326.903 364.145 323.301 373.686 322.692 376.357C320.388 386.469 336.032 394.155 340.055 401.037C341.425 401.192 342.73 401.119 344.102 401.037C341.502 407.239 325.629 404.744 324.923 404.302C323.037 403.119 316.227 392.284 314.973 389.867C312.087 384.304 314.571 381.186 317.702 376.277C321.37 370.686 325.167 360.315 332.26 358.714Z"/>
	<path fill="#87B0F0" transform="scale(2 2)" d="M317.702 376.277C318.549 377.364 317.796 382.304 318.409 384.237C319.853 388.79 326.383 397.481 329.797 401.037C333.193 401.045 336.669 401.216 340.055 401.037C341.425 401.192 342.73 401.119 344.102 401.037C341.502 407.239 325.629 404.744 324.923 404.302C323.037 403.119 316.227 392.284 314.973 389.867C312.087 384.304 314.571 381.186 317.702 376.277Z"/>
	<path fill="#E9EBF5" transform="scale(2 2)" d="M232.919 300.903C241.438 297.038 249.686 315.299 252.088 321.138C256.077 330.833 247.105 335.24 244.431 343.306C242.44 347.751 236.513 345.742 231.714 345.748C230.303 345.854 228.276 346.184 227.045 345.301C224.833 343.716 216.223 330.864 215.804 328.302C215.222 324.746 217.53 321.492 219.451 318.755C222.244 313.453 227.934 302.671 232.919 300.903Z"/>
	<path fill="#B9E2F5" transform="scale(2 2)" d="M232.919 300.903C232.66 302.506 231.188 303.835 230.397 305.211C218.654 325.654 230.336 327.426 242.147 342.104L244.431 343.306C242.44 347.751 236.513 345.742 231.714 345.748C230.303 345.854 228.276 346.184 227.045 345.301C224.833 343.716 216.223 330.864 215.804 328.302C215.222 324.746 217.53 321.492 219.451 318.755C222.244 313.453 227.934 302.671 232.919 300.903Z"/>
	<path fill="#87B0F0" transform="scale(2 2)" d="M219.451 318.755C220.458 320.374 220.169 323.269 220.79 325.139C222.549 330.428 227.899 337.97 231.714 342.104C231.903 343.385 231.855 344.476 231.714 345.748C230.303 345.854 228.276 346.184 227.045 345.301C224.833 343.716 216.223 330.864 215.804 328.302C215.222 324.746 217.53 321.492 219.451 318.755Z"/>
	<path fill="#A3C5F7" transform="scale(2 2)" d="M231.714 342.104C235.189 341.892 238.67 342.271 242.147 342.104L244.431 343.306C242.44 347.751 236.513 345.742 231.714 345.748C231.855 344.476 231.903 343.385 231.714 342.104Z"/>
	<path fill="#E9EBF5" transform="scale(2 2)" d="M247.69 387.967C258.446 377.764 270.711 408.038 270.34 412.38C269.916 417.35 265.476 425.347 262.261 429.249C260.42 432.579 252.819 430.964 249.628 430.917C247.484 430.927 245.379 431.189 243.237 430.917C241.4 428.77 240.147 425.857 238.675 423.442C232.576 413.439 230.586 414.284 237.374 403.729C238.263 399.972 245.054 390.359 247.69 387.967Z"/>
	<path fill="#B9E2F5" transform="scale(2 2)" d="M247.69 387.967C248.349 391.535 242.235 400.555 242.622 405.514C243.323 414.506 255.444 421.429 259.059 427.466C260.163 428.011 261.209 428.612 262.261 429.249C260.42 432.579 252.819 430.964 249.628 430.917C247.484 430.927 245.379 431.189 243.237 430.917C241.4 428.77 240.147 425.857 238.675 423.442C232.576 413.439 230.586 414.284 237.374 403.729C238.263 399.972 245.054 390.359 247.69 387.967Z"/>
	<path fill="#87B0F0" transform="scale(2 2)" d="M237.374 403.729C238.211 405.702 237.147 408.004 237.566 410.071C238.571 415.022 244.974 424.039 248.755 427.466C249.467 428.509 251.449 430.169 249.628 430.917C247.484 430.927 245.379 431.189 243.237 430.917C241.4 428.77 240.147 425.857 238.675 423.442C232.576 413.439 230.586 414.284 237.374 403.729Z"/>
	<path fill="#A3C5F7" transform="scale(2 2)" d="M248.755 427.466C252.185 427.463 255.63 427.389 259.059 427.466C260.163 428.011 261.209 428.612 262.261 429.249C260.42 432.579 252.819 430.964 249.628 430.917C251.449 430.169 249.467 428.509 248.755 427.466Z"/>
</svg>
