<?xml version="1.0" encoding="utf-8" ?>
<svg xmlns="http://www.w3.org/2000/svg" xmlns:xlink="http://www.w3.org/1999/xlink" width="1024" height="1024">
	<path fill="#FAFBFB" transform="scale(2 2)" d="M300.441 67.0111C302.195 66.6602 304.321 66.866 306.125 66.9454C345.767 68.6908 380.16 96.9062 391.108 135.021C392.161 138.686 393.027 142.547 394.589 146.037L394.732 146.347C403.819 151.789 411.879 156.149 419.587 163.656C466.293 209.148 448.078 291.639 383.116 306.075C372.189 308.503 361.117 307.995 350.002 307.991L194.188 307.991C168.986 302.64 164.912 298.417 148.514 281.422C138.113 290.997 129.106 296.79 114.397 296.841C70.0392 296.992 49.8186 241.173 80.5468 211.165C93.0892 198.917 104.245 197.299 121.04 197.562C122.524 192.609 123.031 187.471 124.424 182.501C133.502 150.119 163.219 127.1 197.25 129.683C201.269 129.989 205.222 130.838 209.216 131.361C220.847 91.7405 259.982 66.7998 300.441 67.0111Z"/>
	<path fill="#FAFBFB" transform="scale(2 2)" d="M233.245 327.939C244.405 326.65 236.577 341.072 237.409 346.309L237.741 346.527C242.101 344.8 244.294 338.067 248.259 335.282C251.091 335.038 254.788 335.755 255.64 338.972C257.138 344.624 244.627 347.731 241.522 353.137L241.337 353.463C246.188 353.129 251.005 352.403 255.865 352.096C258.516 354.034 261.587 357.146 258.926 360.469C255.634 364.581 246.921 359.446 239.986 360.329C242.795 363.118 255.819 376.934 244.108 377.871C236.743 378.46 237.53 365.545 234.852 363.313L234.491 363.704C232.506 366.986 228.395 385.522 220.744 375.251C216.784 369.934 227.977 363.887 228.537 360.069L228.216 359.777C221.761 358.853 214.721 365.311 209.216 360.329C204.422 346.955 222.064 353.527 226.799 353.247C229.18 348.992 207.271 344.511 215.162 336.411C221.577 329.826 227.953 343.838 232.001 348.1C231.607 342.006 229.29 336.218 229.771 330.062C230.819 329.09 231.938 328.498 233.245 327.939Z"/>
	<path fill="#9ECDEE" transform="scale(2 2)" d="M285.029 375.969C290.091 375.931 302.408 401.196 303.2 406.237C304.77 416.229 295.274 423.082 286.45 424.274C276.266 424.108 265.99 415.802 268.205 404.904C269.698 397.56 278.892 380.045 285.029 375.969Z"/>
	<path fill="#BADBF0" transform="scale(2 2)" d="M122.346 363.704C119.577 355.136 133.568 335.38 139.293 327.939C140.345 329.264 141.398 330.568 142.307 331.998C148.318 340.876 158.53 352.679 156.238 364.188C152.941 380.744 127.412 383.692 122.346 363.704Z"/>
	<path fill="#9ECDEE" transform="scale(2 2)" d="M122.346 363.704L122.801 363.553C125.662 364.438 134.563 376.166 143.016 362.964C151.387 349.888 140.005 334.37 142.307 331.998C148.318 340.876 158.53 352.679 156.238 364.188C152.941 380.744 127.412 383.692 122.346 363.704Z"/>
	<path fill="#BADBF0" transform="scale(2 2)" d="M330.22 371.111C320.589 360.947 334.376 336.125 343.272 331.998C344.695 332.621 345.827 333.147 346.948 334.259C379.591 368.394 343.298 388.662 330.22 371.111Z"/>
	<path fill="#9ECDEE" transform="scale(2 2)" d="M346.948 334.259C379.591 368.394 343.298 388.662 330.22 371.111C344.864 370.458 351.644 355.621 348.82 342.523C348.233 339.802 346.786 337.093 346.948 334.259Z"/>
	<path fill="#BADBF0" transform="scale(2 2)" d="M164.358 425.936C161.019 416.949 177.205 399.968 181.281 392.13C182.139 393.747 183.368 395.232 184.451 396.71C190.224 404.877 198.798 416.839 196.956 427.361C193.901 444.81 168.465 444.728 164.358 425.936Z"/>
	<path fill="#9ECDEE" transform="scale(2 2)" d="M184.451 396.71C190.224 404.877 198.798 416.839 196.956 427.361C193.901 444.81 168.465 444.728 164.358 425.936L164.783 425.626C166.794 426.291 176.173 439.201 184.824 425.182C192.094 413.401 182.315 400.67 184.451 396.71Z"/>
</svg>
