<?xml version="1.0" encoding="utf-8" ?>
<svg xmlns="http://www.w3.org/2000/svg" xmlns:xlink="http://www.w3.org/1999/xlink" width="1024" height="1024">
	<defs>
		<linearGradient id="gradient_0" gradientUnits="userSpaceOnUse" x1="396.72769" y1="251.88501" x2="105.88319" y2="148.82317">
			<stop offset="0" stop-color="#D4E3F7"/>
			<stop offset="1" stop-color="#FEFCF8"/>
		</linearGradient>
	</defs>
	<path fill="url(#gradient_0)" transform="scale(2 2)" d="M345.193 294.752C340.465 295.251 335.498 294.754 330.742 294.747L162.723 294.754C151.334 294.782 135.644 295.47 124.539 293.447C69.1927 283.367 59.4127 203.742 117.01 184.132C142.098 175.59 127.087 187.442 140.1 162.143C152.793 137.464 178.455 123.457 206.075 124.238C220.29 124.639 217.636 131.339 226.139 118.386C265.245 58.8131 355.91 75.056 371.015 144.344C373.551 155.975 372.062 164.36 373.079 175.249L373.123 175.684C375.672 177.877 378.608 179.687 381.935 180.364C451.705 189.484 451.188 284.908 384.574 294.135C372.4 295.821 357.655 294.519 345.193 294.752Z"/>
	<path fill="#AED4FA" transform="scale(2 2)" d="M345.193 294.752C346.003 293.646 359.862 290.385 363.255 288.819C400.239 271.749 415.696 218.869 387.705 187.477C386.66 186.304 381.476 181.651 381.373 180.562L381.935 180.364C451.705 189.484 451.188 284.908 384.574 294.135C372.4 295.821 357.655 294.519 345.193 294.752Z"/>
	<path fill="#AED4FA" transform="scale(2 2)" d="M302.154 107.925C329.493 106.992 355.733 121.145 367.951 146.145C368.924 148.136 371.795 155.502 371.027 157.586L370.779 157.208L370.88 157.799L371.127 157.885L370.949 158.058L370.911 157.77L370.89 157.94C350.066 103.375 268.508 97.4352 240.987 149.302C233.634 163.159 237.86 160.779 223.128 155.481C196.468 145.896 170.002 161.344 160.897 187.189C159.292 192.562 159.081 203.395 157.921 205.991C156.454 209.274 152.178 207.304 149.554 207.037C124.823 204.522 108.816 217.733 98.5768 238.49L98.4034 238.32C98.7804 238.166 98.884 236.931 98.9879 236.481C101.745 224.526 110.159 213.876 120.699 207.814C131.617 201.535 141.022 201.8 153.164 201.962C154.901 160.98 196.879 132.683 232.678 153.981C244.638 125.776 271.383 108.398 302.154 107.925Z"/>
	<path fill="#FEFEFE" transform="scale(2 2)" d="M177.127 344.297C184.155 345.175 182.302 359.315 182.153 364.333L183.272 363.889C188.555 361.851 192.631 358.325 198.334 356.59C211.144 362.061 191.101 370.846 186.901 373.434C190.266 375.152 211.72 387.283 198.334 390.398C192.684 388.356 187.986 384.355 182.153 382.856C182.131 387.92 184.321 401.086 177.127 401.972C175.37 401.637 174.487 400.921 173.206 399.754C171.7 394.974 172.38 386.894 172.29 381.669C168.054 383.731 149.429 396.746 153.164 382.856C155.153 378.559 164.041 374.94 168.342 373.434C164.761 370.445 152.883 365.497 152.219 360.916C150.667 350.204 169.869 362.507 172.29 364.333C172.147 358.382 170.492 346.026 177.127 344.297Z"/>
	<path fill="#FEFEFE" transform="scale(2 2)" d="M329.527 346.791C338.078 346.212 336.072 359.396 336.155 365.939C337.595 365.231 356.331 351.76 354.952 362.654C354.452 366.604 343.977 371.648 339.91 374.888C343.439 376.528 352.796 380.762 354.144 384.286C359.184 397.457 338.147 384.027 336.155 382.856C336.211 388.046 337.694 401.465 331.066 401.972C323.345 400.754 326.159 389.73 326.224 382.856C321.058 385.107 316.578 389.147 311.028 390.398L310.827 390.327C297.617 385.56 317.076 376.765 321.896 374.888C317.653 370.247 310.222 368.379 307.654 364.333C307.491 362.843 307.325 361.409 307.654 359.933C312.407 354.776 321.739 362.662 326.224 365.939C325.769 361.119 324.421 349.264 329.527 346.791Z"/>
	<path fill="#AED4FA" transform="scale(2 2)" d="M235.103 400.76C236.132 400.989 237.1 401.526 238.051 401.972C239.438 403.051 239.268 403.925 240.12 405.016C248.697 403.686 248.262 409.212 243.504 412.93C249.283 416.739 245.976 422.659 239.626 419.908C239.398 422.311 238.898 424.213 236.406 425.048C232.688 424.858 231.889 423.431 231.463 419.908C230.596 420.544 229.65 421.051 228.717 421.582C224.099 419.106 223.142 416.381 227.491 412.93C221.3 407.98 226.787 402.837 230.212 404.725C232.803 406.153 231.014 402.628 235.103 400.76Z"/>
	<path fill="#AED4FA" transform="scale(2 2)" d="M392.073 329.466C394.254 329.586 395.516 331.549 396.9 333.05C400.337 327.2 406.179 329.022 403.208 336.545C404.245 337.347 410.534 337.579 408.018 341.824C407.092 343.388 404.753 343.906 403.122 344.297C403.867 347.016 404.76 349.369 401.871 350.912C399.407 350.997 398.325 350.403 396.9 348.298C392.663 353.148 385.822 350.331 390.557 344.297C383.263 342.103 382.902 337.222 390.557 336.781C389.054 333.16 388.187 331.379 392.073 329.466Z"/>
</svg>
