<?xml version="1.0" encoding="utf-8" ?>
<svg xmlns="http://www.w3.org/2000/svg" xmlns:xlink="http://www.w3.org/1999/xlink" width="1024" height="1024">
	<defs>
		<linearGradient id="gradient_0" gradientUnits="userSpaceOnUse" x1="180.93889" y1="343.93512" x2="335.80093" y2="117.78185">
			<stop offset="0" stop-color="#9AD9F5"/>
			<stop offset="1" stop-color="#FFFFFC"/>
		</linearGradient>
	</defs>
	<path fill="url(#gradient_0)" transform="scale(2 2)" d="M304.491 97.7164C304.058 95.5273 308.83 92.6995 310.352 91.448C378.042 35.7762 467.016 109.266 431.124 183.103C429.176 187.109 426.356 191.019 424.593 194.769C423.58 196.459 425.835 198.404 426.797 199.741C434.631 210.63 437.339 234.378 435.144 247.162C430.56 273.869 409.558 297.193 382.485 301.984C373.928 303.499 362.819 302.775 353.916 302.771L304.702 302.739C299.71 302.739 282.417 303.625 278.752 302.76L155.48 302.769C146.68 302.767 137.582 303.1 128.927 301.297C98.3135 294.919 74.3349 269.671 73.4175 237.609C72.4615 204.197 98.0759 174.92 131.067 170.931C152.214 168.374 148.887 169.383 156.925 150.142C158.618 146.088 164.593 134.74 167.301 131.853C171.458 123.901 178.29 117.562 185.009 111.786C215.549 85.5332 257.73 79.5829 294.918 94.0299C297.929 95.1997 301.147 97.9357 304.491 97.7164Z"/>
	<path fill="#37427E" transform="scale(2 2)" d="M304.491 97.7164C304.058 95.5273 308.83 92.6995 310.352 91.448C378.042 35.7762 467.016 109.266 431.124 183.103C429.176 187.109 426.356 191.019 424.593 194.769C410.163 174.556 388.644 165.715 364.01 166.099C357.998 139.632 338.47 119.583 316.684 104.728C313.124 102.3 308.626 98.9664 304.491 97.7164Z"/>
	<path fill="#6F9DEC" transform="scale(2 2)" d="M211.895 382.775C219.563 382.307 217.5 392.916 217.457 397.866L217.784 397.618C219.112 396.632 232.181 382.794 233.082 393.419C233.413 397.334 227.138 402.012 224.872 404.945L224.638 405.251C228.037 405.229 236.312 404.381 238.841 406.555C240.669 408.126 240.798 411.462 239.14 413.2C236.708 415.748 228.014 414.8 224.638 414.769C225.785 416.347 239.67 429.492 229.02 430.29C225.375 430.562 220.168 424.583 217.457 422.163C217.482 426.917 219.285 435.697 213.496 437.784C206.351 437.82 208.683 427.32 208.186 422.642L208.132 422.163C205.653 423.609 194.54 437 192.645 426.806C191.816 422.349 198.217 418.103 200.464 414.769C196.197 414.53 191.954 415.161 187.762 414.102C177.148 404.548 195.853 405.21 200.464 405.251C198.672 402.837 185.698 391.116 196.334 389.475C199.527 388.983 205.392 396.796 208.132 398.823C208.119 392.847 205.78 385.289 211.895 382.775Z"/>
	<path fill="#6F9DEC" transform="scale(2 2)" d="M265.318 329.271C274.199 328.766 271.317 336.212 271.732 342.416L271.757 342.743C273.989 341.066 284.114 329.569 285.906 338.873C286.627 342.617 280.921 346.825 278.978 349.703L278.752 350.043C282.105 350.024 288.626 349.245 291.274 351.535C293.07 353.089 293.016 356.326 291.318 357.933C288.802 360.314 282.682 359.546 279.44 359.527C281.083 362.217 290.58 371.505 282.683 373.831C279.21 374.854 275.037 369.686 272.084 368.188L271.757 368.025C271.793 373.31 272.912 381.235 265.318 380.439C261.555 376.947 262.319 372.692 262.504 368.025C259.036 370.663 256.213 374.271 252.002 375.707C241.565 371.737 252.305 363.983 255.776 359.174L256.009 358.847C252.784 358.716 245.948 360.203 243.591 358.165C241.656 356.492 240.949 353.201 242.859 351.238C245.473 348.552 251.712 349.257 255.192 349.263C253.796 347.532 241.787 335.443 252.052 334.941C255.666 334.764 260.019 340.363 262.504 342.743C262.631 338.244 260.761 332.014 265.318 329.271Z"/>
	<path fill="#D4DDED" transform="scale(2 2)" d="M358.208 332.084C365.725 332.175 363.603 341.567 363.495 346.639C365.439 344.6 376.21 333.889 377.581 342.572C378.157 346.229 372.397 351.019 370.248 353.766C372.814 353.746 389.567 353.744 382.395 361.033C379.856 363.612 373.584 362.828 370.248 362.78C372.905 365.898 376.345 369.144 377.946 372.922C374.366 381.81 367.528 374.425 363.495 369.947C363.43 375 365.408 382.045 359.037 383.815C352.549 382.927 354.299 374.669 354.355 369.947C351.507 372.117 347.584 377.435 344.014 377.117C334.212 376.245 344.971 365.25 348.257 362.78L347.127 362.533C345.794 362.236 327.16 361.301 335.051 354.214C337.667 351.865 343.762 352.792 347.098 353.026C344.841 350.384 339.865 346.749 340.089 343.036C340.245 340.455 342.51 338.304 345.134 338.555C348.543 338.88 352.196 344.146 354.355 346.639C354.305 342.37 352.635 333.609 358.208 332.084Z"/>
	<path fill="#6F9DEC" transform="scale(2 2)" d="M158.652 342.743C172.957 341.518 171.896 351.288 168.92 362.59C166.324 372.45 159.208 383.577 147.461 380.439C128.869 374.37 129.462 347.321 158.652 342.743Z"/>
	<path fill="#6F9DEC" transform="scale(2 2)" d="M308.547 395.291C323.962 394.059 327.151 441.581 298.557 434.927C288.808 432.066 282.488 420.053 288.098 410.908C291.464 405.422 302.338 396.68 308.547 395.291Z"/>
</svg>
