<?xml version="1.0" encoding="utf-8" ?>
<svg xmlns="http://www.w3.org/2000/svg" xmlns:xlink="http://www.w3.org/1999/xlink" width="1024" height="1024">
	<path fill="#7F99B7" transform="scale(2 2)" d="M271.162 146.245C273.181 139.74 275.494 133.323 278.634 127.263C297.148 91.5398 340.133 72.613 378.917 84.7265C424.487 98.9597 452.35 147.83 437.85 193.811C433.864 206.449 427.494 216.388 418.843 226.289C409.526 219.028 398.124 215.473 386.451 214.601C385.921 209.319 385.346 204.057 384.016 198.904C375.897 167.456 344.877 145.268 312.361 148.676C302.799 149.678 294.207 152.875 285.527 156.808C280.586 153.538 276.5 148.975 271.162 146.245Z"/>
	<path fill="#D3D5D8" transform="scale(2 2)" d="M122.853 216.407C123.808 212.634 123.903 208.609 124.734 204.787C139.553 136.608 215.026 105.54 271.162 146.245C276.5 148.975 280.586 153.538 285.527 156.808C282.524 158.74 278.899 154.923 276.164 153.651C222.476 128.683 168.019 166.036 161.52 222.913C158.48 223.616 155.316 223.887 152.254 224.541C97.782 236.186 93.7386 319.18 159.275 332.71C137.834 333.208 114.448 334.874 96.0805 322.632C56.4105 296.192 64.358 233.448 110.986 219.01C114.886 217.803 118.856 217.176 122.853 216.407Z"/>
	<path fill="#325D8F" transform="scale(2 2)" d="M170.99 354.786C179.051 352.78 176.03 368.271 176.011 373.988C179.487 370.863 190.356 355.582 193.525 366.353C191.028 371.174 184.787 375.447 181.231 379.854C181.917 379.859 207.853 377.874 200.569 385.74C198.551 387.919 194.581 387.267 191.953 387.259L181.231 387.242C182.036 388.274 201.209 404.686 189.735 404.8C186.561 404.831 178.392 395.185 176.011 392.643C175.903 397.222 177.736 407.371 174.554 410.817C165.725 414.773 168.524 398.183 168.282 394.036L168.254 393.583C166.064 395.041 152.389 411.604 151.16 401.645C150.786 398.614 160.596 390.489 163.047 387.242C158.827 387.236 147.434 388.755 144.192 385.877C141.384 383.385 143.715 380.458 146.633 379.916C150.023 379.286 159.021 379.906 163.047 379.854C161.778 378.437 144.183 363.444 154.031 362.64C157.749 362.336 165.157 371.199 168.254 373.988C168.522 368.776 165.822 356.086 170.99 354.786Z"/>
	<path fill="#325D8F" transform="scale(2 2)" d="M281.448 354.786C289.488 353.796 286.206 368.62 286.419 373.988C288.438 372.639 301.736 356.699 303.876 365.087C304.978 369.401 294.414 376.405 292.022 379.854C295.648 379.834 307.278 378.94 309.946 381.162C312.729 383.48 310.364 386.516 307.621 387.091C304.218 387.805 295.886 387.264 292.022 387.242C293.338 388.803 311.181 403.474 300.92 404.284C297.368 404.564 289.957 395.494 286.419 392.643C286.414 396.927 287.869 407.689 284.601 410.817C276.182 413.488 279.025 397.483 279.031 392.643C278.029 393.612 262.251 412.557 262.215 400.847C262.206 397.924 271.991 389.446 274.367 387.242C269.795 387.521 255.558 388.902 254.252 384.031C252.488 377.451 270.502 380.213 274.016 379.889L274.367 379.854C272.73 378.032 255.074 363.278 265.736 362.435C268.406 362.224 276.182 371.668 278.715 373.733L279.031 373.988C278.767 369.503 277.142 357.525 281.448 354.786Z"/>
	<path fill="#B9E7FB" transform="scale(2 2)" d="M370.547 375.802C374.684 375.464 376.071 377.207 376.902 381.108C384.813 376.758 388.028 382.816 384.49 389.476C384.574 389.482 384.659 389.487 384.743 389.493L385.154 389.528C392.691 390.103 391.413 398.685 384.49 399.822C388.319 406.269 382.575 412.695 376.902 406.49C376.508 410.39 375.835 411.808 371.866 412.751C367.925 412.81 367.207 410.538 366.632 407.073C357.753 411.948 355.373 406.06 359.355 398.815C351.693 399.702 349.359 389.873 359.355 389.476C355.605 381.758 358.526 375.99 366.327 381.616C367.595 380.692 366.665 377.646 370.547 375.802Z"/>
	<path fill="#B9E7FB" transform="scale(2 2)" d="M432.245 356.721C436.047 356.486 439.333 359.346 439.626 363.144C439.918 366.942 437.108 370.272 433.315 370.622C430.81 370.853 428.374 369.716 426.942 367.648C425.51 365.579 425.304 362.899 426.402 360.636C427.501 358.372 429.734 356.876 432.245 356.721Z"/>
	<path fill="#B9E7FB" transform="scale(2 2)" d="M227.398 426.491C231.165 425.665 234.886 428.055 235.702 431.823C236.519 435.592 234.121 439.308 230.351 440.116C226.593 440.921 222.892 438.533 222.077 434.777C221.263 431.02 223.643 427.314 227.398 426.491Z"/>
	<path fill="#B9E7FB" transform="scale(2 2)" d="M78.1197 412.601C81.7832 412.166 85.102 414.793 85.5196 418.459C85.9373 422.124 83.2945 425.431 79.627 425.831C75.9841 426.229 72.7047 423.607 72.2899 419.966C71.875 416.325 74.4807 413.033 78.1197 412.601Z"/>
</svg>
