<?xml version="1.0" encoding="utf-8" ?>
<svg xmlns="http://www.w3.org/2000/svg" xmlns:xlink="http://www.w3.org/1999/xlink" width="1024" height="1024">
	<path fill="#F9F9F8" transform="scale(2 2)" d="M346.444 86.4132C355.682 85.9769 365.55 86.6715 374.381 89.4911C408.186 100.285 428.362 136.294 420.02 170.774C418.938 175.245 417.016 179.373 415.621 183.736C430.218 199.415 442.784 207.782 449.988 230.463C458.588 257.54 450.044 287.162 430.074 307.153C405.05 332.202 377.776 330.685 345.529 330.69L156.375 330.685C146.608 330.709 136.227 331.267 126.562 329.833C81.7168 323.18 52.9966 279.145 59.8744 235.154C66.2848 194.151 106.186 164.019 147.38 170.599C150.002 164.094 151.588 157.239 154.367 150.748C174.195 104.424 230.006 81.6743 276.848 98.9951C284.188 101.709 290.747 105.826 297.889 108.903C315.077 95.1783 322.671 89.2345 346.444 86.4132Z"/>
	<path fill="#EAF0F3" transform="scale(2 2)" d="M272.688 423.686L177.746 423.694C172.24 423.718 165.709 425.392 162.265 419.948C159.788 416.032 160.829 410.209 164.873 407.784C168.661 405.511 195.476 406.842 201.125 406.842L311.104 406.776C315.317 406.765 321.271 405.989 325.225 407.005C323.886 407.737 321.446 407.236 320.523 408.514L320.756 409.072C325.905 409.02 325.992 410.198 330.624 408.401L330.707 408.72L330.353 408.963C330.705 409.283 338.244 408.877 339.314 408.86C337.124 408.51 338.053 408.207 339.635 408.175C339.685 408.204 346.961 408.872 347.211 408.767L347.359 407.886C353.885 406.685 354.482 418.886 347.546 421.921L347.708 422.39C346.251 422.084 344.923 421.982 343.439 421.966C346.882 424.912 325.085 423.664 322.511 423.679L279.265 423.717C277.194 423.73 274.717 424.006 272.688 423.686Z"/>
	<path fill="#F9F9F8" transform="scale(2 2)" d="M272.688 423.686C275.665 423.106 279.362 423.784 282.432 423.725C289.933 423.58 297.331 423.109 304.859 423.133C301.381 422.455 295.824 423.384 291.732 422.872C307.214 421.258 329.696 424.708 343.439 421.966C346.882 424.912 325.085 423.664 322.511 423.679L279.265 423.717C277.194 423.73 274.717 424.006 272.688 423.686Z"/>
	<path fill="#EAF0F3" transform="scale(2 2)" d="M365.625 357.875C371.22 357.745 378.185 357.516 382.923 361.09C386.126 363.506 385.94 368.718 383.583 371.633C380.154 375.876 371.622 374.898 366.809 374.888C349.658 374.854 332.514 375.784 315.355 375.793L292.081 375.77C285.577 375.768 279.165 375.661 272.688 376.395C266.534 375.121 256.977 377.839 254.243 370.028C249.224 355.69 274.719 358.7 281.379 358.7L323.417 358.721C329.692 358.742 361.295 359.42 365.625 357.875Z"/>
	<defs>
		<linearGradient id="gradient_0" gradientUnits="userSpaceOnUse" x1="129.81233" y1="362.67947" x2="245.08284" y2="372.10281">
			<stop offset="0" stop-color="#A4D3EA"/>
			<stop offset="1" stop-color="#EFF0EF"/>
		</linearGradient>
	</defs>
	<path fill="url(#gradient_0)" transform="scale(2 2)" d="M217.053 358.716C223.918 358.718 238.778 357.142 243.362 361.335C246.976 364.64 246.55 370.26 243.176 373.584C239.109 377.59 215.386 376.405 209.343 376.399L158.375 376.395L144.504 376.442C140.165 376.453 134.843 377.17 131.416 373.866C127.971 370.544 128.452 364.472 131.742 361.249C135.442 357.625 141.042 358.702 145.79 358.703L217.053 358.716Z"/>
</svg>
