<?xml version="1.0" encoding="utf-8" ?>
<svg xmlns="http://www.w3.org/2000/svg" xmlns:xlink="http://www.w3.org/1999/xlink" width="1024" height="1024">
	<path fill="#F8F9F9" transform="scale(2 2)" d="M273.457 87.0712L273.673 86.8613C309.763 51.9464 364.852 48.2504 406.062 75.9597C409.531 78.2928 413.363 80.8152 416.274 83.8258C459.049 118.483 464.727 186.937 429.966 229.805C428.881 231.144 427.782 232.464 426.52 233.641C428.115 236.448 431.716 239.593 433.769 242.334C452.497 267.338 452.921 305.222 432.683 329.558C413.103 353.101 394.815 353.74 367.544 353.739L135.498 353.744C115.839 353.746 101.007 352.279 85.0152 338.74C37.0483 298.128 64.0936 220.843 124.447 217.095C131.316 216.668 138.271 217.35 145.068 216.812L145.537 216.772C146.766 211.95 147.032 206.811 147.906 201.904C156.402 154.207 195.21 122.329 242.873 120.58C245.104 120.498 248.335 121.513 250.39 120.712C253.657 109.59 264.804 94.7905 273.457 87.0712Z"/>
	<defs>
		<linearGradient id="gradient_0" gradientUnits="userSpaceOnUse" x1="349.40771" y1="94.382851" x2="356.60956" y2="236.0529">
			<stop offset="0" stop-color="#424C78"/>
			<stop offset="1" stop-color="#7D87A5"/>
		</linearGradient>
	</defs>
	<path fill="url(#gradient_0)" transform="scale(2 2)" d="M273.457 87.0712L273.673 86.8613C309.763 51.9464 364.852 48.2504 406.062 75.9597C409.531 78.2928 413.363 80.8152 416.274 83.8258C459.049 118.483 464.727 186.937 429.966 229.805C428.881 231.144 427.782 232.464 426.52 233.641C425.463 231.602 422.515 229.665 420.668 228.385C406.474 218.542 389.384 213.472 372.201 217.268C360.018 219.96 353.851 226.103 341.525 217.261C332.894 211.069 333.572 203.936 331.924 194.46C325.452 157.238 295.894 127.366 258.633 121.279C256.068 120.86 252.971 120.261 250.39 120.712C253.657 109.59 264.804 94.7905 273.457 87.0712Z"/>
	<path fill="#39436F" transform="scale(2 2)" d="M273.457 87.0712L273.673 86.8613C309.763 51.9464 364.852 48.2504 406.062 75.9597C409.531 78.2928 413.363 80.8152 416.274 83.8258C417.171 86.2129 424.669 91.6561 424.496 92.905C421.209 95.9506 411.557 97.1324 406.188 98.1976C388.993 101.609 365.835 102.902 348.684 102.298C335.666 101.84 323.273 101.683 310.178 102.189C298.694 102.632 287.337 104.819 275.837 102.855C271.514 102.117 267.648 98.4702 263.346 98.9627C266.469 95.11 269.734 90.9301 273.616 87.8189L273.457 87.0712Z"/>
	<defs>
		<linearGradient id="gradient_1" gradientUnits="userSpaceOnUse" x1="286.88025" y1="375.36011" x2="146.33138" y2="426.47214">
			<stop offset="0" stop-color="#C0C7E1"/>
			<stop offset="1" stop-color="#FDFBF6"/>
		</linearGradient>
	</defs>
	<path fill="url(#gradient_1)" transform="scale(2 2)" d="M356.901 393.093L399.456 393.09C405.376 393.086 421.085 389.808 420.708 399.87C420.412 407.756 412.94 406.804 407.392 406.762L355.074 406.732L166.98 406.731C158.401 406.732 139.637 410.174 136.496 400.874C139.383 389.115 153.035 393.212 163.499 393.148L356.901 393.093Z"/>
	<path fill="#A2AEDC" transform="scale(2 2)" d="M356.901 393.093L399.456 393.09C405.376 393.086 421.085 389.808 420.708 399.87C420.412 407.756 412.94 406.804 407.392 406.762L355.074 406.732L355.294 406.606L355.285 406.325C351.858 405.857 348.436 406.787 344.985 406.756C332.725 406.649 320.514 406.217 308.086 406.209C304.464 406.207 300.171 405.429 296.647 406.262L296.582 406.107C297.038 405.913 297.476 405.704 297.916 405.477C297.393 402.7 286.487 394.388 293.352 393.746C309.302 392.253 330.507 393.742 347.027 393.489C350.299 393.439 353.68 393.828 356.901 393.093Z"/>
	<path fill="#F8F9F9" transform="scale(2 2)" d="M180.963 446.786C179.456 432.605 190.399 436.266 200.332 435.957C219.669 435.354 239.059 435.546 258.416 435.548L332.494 435.553C344.777 435.553 357.091 435.345 369.371 435.546C386.959 435.29 382.002 450.275 375.19 451.237C373.235 451.513 371.108 451.32 369.131 451.303L321.625 451.273C318.938 451.738 314.655 451.297 311.785 451.291L237.824 451.163C221.625 451.266 207.075 451.097 191.004 450.466C185.883 450.265 184.644 450.767 180.963 446.786Z"/>
	<path fill="#A2AEDC" transform="scale(2 2)" d="M369.371 435.546C386.959 435.29 382.002 450.275 375.19 451.237C373.235 451.513 371.108 451.32 369.131 451.303L321.625 451.273C326.482 449.357 337.702 451.683 343.452 450.269L343.63 449.97L342.716 449.92L342.484 449.637C344.464 444.499 340.971 436.441 343.449 436.184L343.364 436.618L343.826 436.173C342.1 434.438 331.116 436.181 327.666 435.977C330.588 435.113 334.504 435.527 337.548 435.529L358.708 435.553C362.254 435.574 365.835 435.974 369.371 435.546Z"/>
</svg>
