<?xml version="1.0" encoding="utf-8" ?>
<svg xmlns="http://www.w3.org/2000/svg" xmlns:xlink="http://www.w3.org/1999/xlink" width="1024" height="1024">
	<path fill="#FAFAFA" transform="scale(2 2)" d="M130.514 149.901C125.637 71.7521 219.51 32.4589 275.829 86.6613C280.981 91.6198 285.126 97.3423 290.116 102.391C296.771 100.144 302.767 97.4225 309.807 96.3148C344.964 90.783 373.718 115.815 378.884 149.901C383.553 150.342 398.965 151.902 402.544 154.608C405.453 155.767 408.148 157.496 410.755 159.218C456.516 189.426 453.375 258.003 401.792 279.787C389.071 285.159 367.442 286.125 354.504 280.811C333.044 303.649 320.189 304.366 289.07 304.359L236.145 304.355C210.498 304.338 197.631 302.748 177.394 284.252C172.521 286.325 167.873 288.549 162.759 290.03C134.662 298.163 104.663 286.039 86.6224 264.014C84.9362 261.956 82.7328 259.47 81.6144 257.069C75.4265 251.109 69.9657 229.255 69.605 220.89C68.1298 186.682 95.4224 151.289 130.514 149.901Z"/>
	<path fill="#C5D0DE" transform="scale(2 2)" d="M402.544 154.608C405.453 155.767 408.148 157.496 410.755 159.218C456.516 189.426 453.375 258.003 401.792 279.787C389.071 285.159 367.442 286.125 354.504 280.811C333.044 303.649 320.189 304.366 289.07 304.359L236.145 304.355C210.498 304.338 197.631 302.748 177.394 284.252C172.521 286.325 167.873 288.549 162.759 290.03C134.662 298.163 104.663 286.039 86.6224 264.014C84.9362 261.956 82.7328 259.47 81.6144 257.069C82.7815 257.473 85.7824 260.95 86.9416 262.022C106.146 279.779 134.315 284.383 157.113 270.238C159.622 268.682 161.752 266.559 164.135 264.813C166.99 266.543 169.466 268.905 172.133 270.909C190.565 284.76 207.037 286.999 228.913 287.014L278.072 287.017C303.541 287.009 319.5 285.825 338.508 264.813C377.82 282.631 424.712 250.34 425.085 205.859C425.266 184.218 417.053 169.381 402.544 154.608Z"/>
	<path fill="#9EDAEE" transform="scale(2 2)" d="M235.753 443.711C212.919 430.69 238.18 399.704 246.968 386.04C249.202 389.83 252.206 393.179 254.342 397.035C260.706 407.298 271.332 418.854 268.276 431.545C264.931 445.433 247.5 452.278 235.753 443.711Z"/>
	<path fill="#42C5E8" transform="scale(2 2)" d="M254.342 397.035C260.706 407.298 271.332 418.854 268.276 431.545C264.931 445.433 247.5 452.278 235.753 443.711C254.371 440.581 259.37 421.785 255.964 405.171C255.541 403.108 253.714 398.912 254.342 397.035Z"/>
	<path fill="#9EDAEE" transform="scale(2 2)" d="M160.99 412.079C144.476 401.509 164.534 379.183 171.248 369.444C172.905 372.445 175.146 375.467 177.394 378.048L177.589 378.495C181.529 387.423 190.6 394.317 186.412 405.122C182.528 415.142 169.548 418.11 160.99 412.079Z"/>
	<path fill="#42C5E8" transform="scale(2 2)" d="M177.394 378.048L177.589 378.495C181.529 387.423 190.6 394.317 186.412 405.122C182.528 415.142 169.548 418.11 160.99 412.079C186.367 408.93 175.851 381.048 177.394 378.048Z"/>
	<path fill="#9EDAEE" transform="scale(2 2)" d="M275.503 360.088C259.286 348.958 276.77 328.004 284.741 317.375C286.145 319.684 287.954 321.723 289.338 324.058C296.367 334.36 308.06 350.835 293.816 360.533C288.195 364.36 281.003 363.668 275.503 360.088Z"/>
	<path fill="#42C5E8" transform="scale(2 2)" d="M289.338 324.058C296.367 334.36 308.06 350.835 293.816 360.533C288.195 364.36 281.003 363.668 275.503 360.088C275.668 360.003 275.846 359.955 276.021 359.893C298.595 351.922 288.193 326.438 289.338 324.058Z"/>
	<path fill="#9EDAEE" transform="scale(2 2)" d="M316.032 411.322C301.712 401.253 316.665 377.88 325.116 369.444C326.809 371.819 328.977 373.814 330.58 376.283C335.636 383.12 342.414 391.268 341.102 400.358C339.353 412.47 326.171 417.625 316.032 411.322Z"/>
	<path fill="#42C5E8" transform="scale(2 2)" d="M330.58 376.283C335.636 383.12 342.414 391.268 341.102 400.358C339.353 412.47 326.171 417.625 316.032 411.322C319.825 409.346 323.031 409.14 326.424 405.912C337.883 395.01 329.959 384.415 330.58 376.283Z"/>
	<path fill="#9EDAEE" transform="scale(2 2)" d="M199.971 359.34C183.653 350.076 203.485 326.471 210.457 317.375C212.315 320.559 214.565 323.508 216.352 326.731C220.68 333.513 227.273 342.505 225.478 350.928C223.055 362.295 208.77 365.054 199.971 359.34Z"/>
	<path fill="#42C5E8" transform="scale(2 2)" d="M199.971 359.34C211.505 353.138 218.852 347.314 217.033 331.96C216.841 330.335 215.637 328.322 216.352 326.731C220.68 333.513 227.273 342.505 225.478 350.928C223.055 362.295 208.77 365.054 199.971 359.34Z"/>
	<path fill="#9EDAEE" transform="scale(2 2)" d="M350.985 359.34C337.549 345.224 352.622 329.912 361.348 317.375C362.947 320.241 365.14 322.696 366.806 325.513C371.92 332.619 378.231 341.334 376.737 350.54C374.801 362.475 359.885 365.571 350.985 359.34Z"/>
	<path fill="#42C5E8" transform="scale(2 2)" d="M366.806 325.513C371.92 332.619 378.231 341.334 376.737 350.54C374.801 362.475 359.885 365.571 350.985 359.34C363.557 355.638 368.957 345.124 367.696 332.264C367.472 329.973 366.523 327.855 366.806 325.513Z"/>
	<path fill="#9EDAEE" transform="scale(2 2)" d="M124.753 359.34C109.804 346.372 126.242 330.719 134.585 317.98C136.266 320.413 138.281 322.739 139.373 325.513C142.449 329.208 148.646 338.862 149.977 343.256C154.333 357.634 136.021 367.008 124.753 359.34Z"/>
	<path fill="#42C5E8" transform="scale(2 2)" d="M139.373 325.513C142.449 329.208 148.646 338.862 149.977 343.256C154.333 357.634 136.021 367.008 124.753 359.34C136.991 357.585 142.822 343.881 140.954 332.695C140.696 331.149 139.006 326.568 139.373 325.513Z"/>
</svg>
