<?xml version="1.0" encoding="utf-8" ?>
<svg xmlns="http://www.w3.org/2000/svg" xmlns:xlink="http://www.w3.org/1999/xlink" width="1024" height="1024">
	<path fill="#E6E6E6" transform="scale(2 2)" d="M138.124 127.458C138.629 123.681 138.983 119.873 139.722 116.132C150.211 63.0283 210.612 43.4691 250.764 78.6151C252.607 80.5206 254.502 82.1218 256.761 83.5146C274.279 70.3889 285.485 64.6279 309.236 68.0331C337.092 72.0268 367.463 89.4076 373.654 118.76C374.362 122.118 374.732 125.569 375.587 128.892C380.219 130.132 384.953 130.831 389.531 132.303C423.939 143.363 444.141 180.592 434.632 215.469C427.829 240.424 406.799 261.908 380.359 264.563C366.594 265.945 352.4 265.26 338.573 265.26L156.941 265.268C146.294 265.276 132.53 265.829 122.403 263.022C106.804 258.698 92.1962 246.75 84.3527 232.839C61.5482 192.394 85.3031 141.295 130.109 130.245C131.926 129.797 137.405 129.59 138.124 127.458Z"/>
	<path fill="#FEFEFE" transform="scale(2 2)" d="M132.651 150.1C137.675 149.855 143.232 151.626 145.146 156.778C152.775 177.317 119.633 164.755 114.415 191.147C112.796 199.336 113.847 204.364 104.385 207.4C76.7625 211.25 93.3258 153.467 132.651 150.1Z"/>
	<path fill="#FEFEFE" transform="scale(2 2)" d="M293.923 82.3565C303 81.8404 310.001 88.0169 306.229 97.1279C303.543 103.616 296.283 103.058 290.52 104.229C274.459 107.493 275.126 117.996 266.924 121.564C243.596 126.024 251.657 86.6216 293.923 82.3565Z"/>
	<path fill="#9ECAE2" transform="scale(2 2)" d="M133.733 417.092C108.248 395.696 144.423 380.011 152.431 387.189C164.201 400.969 151.962 429.024 133.733 417.092Z"/>
	<path fill="#79B3D5" transform="scale(2 2)" d="M152.431 387.189C164.201 400.969 151.962 429.024 133.733 417.092C136.29 413.049 140.06 409.74 142.657 405.644C146.359 399.809 148.811 393.325 152.294 387.417L152.431 387.189Z"/>
	<path fill="#9ECAE2" transform="scale(2 2)" d="M268.444 379.587C251.181 362.357 276.781 346.092 288.533 351.027C292.287 353.853 294.699 360.009 295.327 364.561C297.402 379.574 279.566 391.097 268.444 379.587Z"/>
	<path fill="#79B3D5" transform="scale(2 2)" d="M288.533 351.027C292.287 353.853 294.699 360.009 295.327 364.561C297.402 379.574 279.566 391.097 268.444 379.587C269.584 378.697 271.017 378.23 272.331 377.645C281.89 373.393 288.51 361.088 288.533 351.027Z"/>
	<path fill="#9ECAE2" transform="scale(2 2)" d="M239.48 323.323C238.038 322.066 236.764 319.882 235.875 318.203C229.838 306.801 232.4 301.65 243.604 296.173C248.126 293.963 253.329 292.055 258.33 293.759C265.344 299.63 266.808 315.214 260.729 322.223C254.999 328.83 245.679 329.942 239.48 323.323Z"/>
	<path fill="#79B3D5" transform="scale(2 2)" d="M258.33 293.759C265.344 299.63 266.808 315.214 260.729 322.223C254.999 328.83 245.679 329.942 239.48 323.323C241.065 322.239 242.959 321.661 244.503 320.471C252.346 314.426 257.03 303.205 258.33 293.759Z"/>
	<path fill="#9ECAE2" transform="scale(2 2)" d="M315.181 335.601C297.161 314.186 330.642 303.591 335.585 307.489C339.621 311.4 341.529 318.804 341.635 324.262C341.91 338.413 324.296 346.926 315.181 335.601Z"/>
	<path fill="#79B3D5" transform="scale(2 2)" d="M335.585 307.489C339.621 311.4 341.529 318.804 341.635 324.262C341.91 338.413 324.296 346.926 315.181 335.601C331.604 329.568 331.675 320.635 335.585 307.489Z"/>
	<path fill="#9ECAE2" transform="scale(2 2)" d="M269.311 442.57C248.365 420.598 282.257 409.839 289.365 414.963C305.102 434.055 284.023 456.061 269.311 442.57Z"/>
	<path fill="#79B3D5" transform="scale(2 2)" d="M289.365 414.963C305.102 434.055 284.023 456.061 269.311 442.57C281.374 437.099 286.817 427.22 289.365 414.963Z"/>
	<path fill="#9ECAE2" transform="scale(2 2)" d="M155.872 331.354C132.497 315.043 159.752 296.478 171.221 301.275C178.683 305.585 179.486 321.187 175.579 327.841C171.247 335.218 162.047 337.721 155.872 331.354Z"/>
	<path fill="#79B3D5" transform="scale(2 2)" d="M171.221 301.275C178.683 305.585 179.486 321.187 175.579 327.841C171.247 335.218 162.047 337.721 155.872 331.354C160.418 322.141 170.824 317.847 171.221 301.275Z"/>
	<path fill="#9ECAE2" transform="scale(2 2)" d="M187.22 369.386C163.303 345.054 197.417 335.471 203.791 340.065C221.063 354.583 201.526 382.7 187.22 369.386Z"/>
	<path fill="#79B3D5" transform="scale(2 2)" d="M203.791 340.065C221.063 354.583 201.526 382.7 187.22 369.386C194.377 361.027 198.708 358.331 202.467 346.293C203.061 344.391 203.097 342.351 203.668 340.458L203.791 340.065Z"/>
	<path fill="#9ECAE2" transform="scale(2 2)" d="M201.879 441.698C178.53 422.564 211.644 406.779 220.379 413.93C233.302 427.999 219.789 452.98 201.879 441.698Z"/>
	<path fill="#79B3D5" transform="scale(2 2)" d="M220.379 413.93C233.302 427.999 219.789 452.98 201.879 441.698C204.102 438.758 207.267 436.611 209.552 433.595C214.592 426.943 216.416 421.071 220.239 414.178L220.379 413.93Z"/>
	<path fill="#9ECAE2" transform="scale(2 2)" d="M339.782 405.829C325.89 393.743 338.761 376.756 356.913 376.552C363.893 380.736 366.538 395.651 362.418 402.436C357.427 410.656 346.772 412.12 339.782 405.829Z"/>
	<path fill="#79B3D5" transform="scale(2 2)" d="M356.913 376.552C363.893 380.736 366.538 395.651 362.418 402.436C357.427 410.656 346.772 412.12 339.782 405.829C341.15 403.735 344.62 402.238 346.552 400.454C353.413 394.115 356.497 385.753 356.913 376.552Z"/>
</svg>
