<?xml version="1.0" encoding="utf-8" ?>
<svg xmlns="http://www.w3.org/2000/svg" xmlns:xlink="http://www.w3.org/1999/xlink" width="1024" height="1024">
	<path fill="#E4E9EE" transform="scale(2 2)" d="M245.599 120.635C248.987 111.038 263.49 98.0023 271.813 92.1286C344.447 40.8756 442.792 109.007 420.809 195.778C421.718 197.436 423.238 198.575 424.525 199.919C438.375 214.394 444.13 229.254 444.475 249.636C444.516 252.046 444.795 255.77 444.469 258.036C432.002 309.469 400.95 314.956 353.432 312.853C352.667 313.228 351.905 313.61 351.134 313.971C348.041 312.943 344.978 311.965 342.063 310.487C339.56 312.347 337.273 314.184 334.47 315.593C336.867 317.154 339.184 318.716 341.437 320.483C343.959 319.467 350.053 316.327 352.652 317.439C357.591 319.55 352.892 323.488 349.16 324.294L348.889 324.654C351.244 326.295 354.168 324.555 354.951 328.615C355.963 333.862 349.738 332.142 346.638 329.179C346.588 335.529 343.069 338.281 340.865 332.647C338.231 325.91 338.632 323.847 331.199 320.829L330.875 320.968C330.814 321.374 330.748 321.759 330.744 322.17C332.576 326.869 330.409 324.686 333.033 324.773C336.307 327.072 338.919 332.826 332.311 330.203C332.984 331.331 334.003 331.862 334.47 333.196C335.533 334.928 338.026 335.899 338.305 338.124C339.058 344.129 332.114 339.253 330.152 337.192C330.722 338.871 332.671 342.107 332.054 343.809C330.72 347.487 320.088 347.81 325.877 337.192C324.858 337.847 318.234 343.946 317.717 338.404C317.414 335.158 322.834 331.995 324.759 329.755C325.102 326.57 325.031 323.663 324.759 320.483C322.283 322.602 319.307 324.001 316.844 326.124C313.623 341.102 307.939 336.868 309.979 329.179C301.694 336.795 297.344 326.239 305.961 324.89C300.902 322.512 299.08 317.662 305.961 317.757C308.626 317.62 310.137 318.64 312.51 319.492C315.001 320.387 318.094 316.589 320.224 315.551C319.688 314.676 316.61 313.47 315.402 312.886C315.654 318.205 308.937 318.906 308.015 315.393C307.788 314.525 307.516 313.7 307.222 312.853C305.596 313.503 304.755 313.834 303.161 312.853C300.876 313.202 298.355 312.914 296.04 312.886L142.228 312.865C130.253 312.868 119.615 312.7 108.345 308.276C61.9081 290.05 51.6709 228.02 91.4457 198.215C107.12 185.501 125.792 183.63 145.192 187.119C143.263 140.529 186.483 108.647 230.767 116.376C235.772 117.25 240.573 120.284 245.599 120.635ZM346.638 301.245C347.554 300.293 348.425 299.341 349.509 298.575C348.875 297.536 347.897 296.574 346.638 296.408C346.71 298.035 346.754 299.619 346.638 301.245ZM309.979 301.245L308.554 297.99L308.336 297.219C307.374 297.351 306.507 297.756 305.961 298.575C307.386 299.327 308.67 300.31 309.979 301.245Z"/>
	<defs>
		<linearGradient id="gradient_0" gradientUnits="userSpaceOnUse" x1="324.1973" y1="173.43633" x2="372.66757" y2="86.733437">
			<stop offset="0" stop-color="#3061A5"/>
			<stop offset="1" stop-color="#4E8BC2"/>
		</linearGradient>
	</defs>
	<path fill="url(#gradient_0)" transform="scale(2 2)" d="M245.599 120.635C248.987 111.038 263.49 98.0023 271.813 92.1286C344.447 40.8756 442.792 109.007 420.809 195.778C419.54 195.588 412.835 190.441 411.084 189.364C399.628 182.313 387.152 181.214 374.086 181.247C367.677 135.519 313.274 122.683 278.34 148.743L277.146 146.911C272.006 139.181 255.29 122.572 245.599 120.635Z"/>
	<path fill="#CCD8E5" transform="scale(2 2)" d="M91.4457 198.215C91.864 248.756 127.231 291.453 178.649 296.57C184.612 297.163 190.52 297.09 196.501 297.072L289.313 297.045C294.434 297.05 299.12 297.119 304.144 297.99C298.688 300.298 299.752 306.388 307.222 307.211C303.624 307.798 300.149 309.074 303.161 312.853C300.876 313.202 298.355 312.914 296.04 312.886L142.228 312.865C130.253 312.868 119.615 312.7 108.345 308.276C61.9081 290.05 51.6709 228.02 91.4457 198.215Z"/>
	<path fill="#2E9EE4" transform="scale(2 2)" d="M324.759 294.259C321.678 285.744 332.843 281.596 330.744 294.259L333.231 292.491C335.838 290.676 337.479 291.505 338.752 294.259L339.382 293.964C340.723 294.55 340.723 295.906 341.437 297.046C342.767 294.257 344.496 294.674 346.638 296.408C346.71 298.035 346.754 299.619 346.638 301.245C347.554 300.293 348.425 299.341 349.509 298.575C350.062 298.458 350.607 298.194 351.134 297.99C354.044 298.797 354.74 300.936 354.631 303.735C353.742 304.449 352.887 305.102 351.899 305.679L348.334 307.211C351.076 307.776 352.8 308.221 354.631 310.487L353.432 312.853C352.667 313.228 351.905 313.61 351.134 313.971C348.041 312.943 344.978 311.965 342.063 310.487C339.56 312.347 337.273 314.184 334.47 315.593C336.867 317.154 339.184 318.716 341.437 320.483C343.959 319.467 350.053 316.327 352.652 317.439C357.591 319.55 352.892 323.488 349.16 324.294L348.889 324.654C351.244 326.295 354.168 324.555 354.951 328.615C355.963 333.862 349.738 332.142 346.638 329.179C346.588 335.529 343.069 338.281 340.865 332.647C338.231 325.91 338.632 323.847 331.199 320.829L330.875 320.968C330.814 321.374 330.748 321.759 330.744 322.17C332.576 326.869 330.409 324.686 333.033 324.773C336.307 327.072 338.919 332.826 332.311 330.203C332.984 331.331 334.003 331.862 334.47 333.196C335.533 334.928 338.026 335.899 338.305 338.124C339.058 344.129 332.114 339.253 330.152 337.192C330.722 338.871 332.671 342.107 332.054 343.809C330.72 347.487 320.088 347.81 325.877 337.192C324.858 337.847 318.234 343.946 317.717 338.404C317.414 335.158 322.834 331.995 324.759 329.755C325.102 326.57 325.031 323.663 324.759 320.483C322.283 322.602 319.307 324.001 316.844 326.124C313.623 341.102 307.939 336.868 309.979 329.179C301.694 336.795 297.344 326.239 305.961 324.89C300.902 322.512 299.08 317.662 305.961 317.757C308.626 317.62 310.137 318.64 312.51 319.492C315.001 320.387 318.094 316.589 320.224 315.551C319.688 314.676 316.61 313.47 315.402 312.886C315.654 318.205 308.937 318.906 308.015 315.393C307.788 314.525 307.516 313.7 307.222 312.853C305.596 313.503 304.755 313.834 303.161 312.853C300.149 309.074 303.624 307.798 307.222 307.211C299.752 306.388 298.688 300.298 304.144 297.99L305.961 298.575C307.386 299.327 308.67 300.31 309.979 301.245L308.554 297.99C308.757 296.32 310.222 293.151 312.326 294.44C314.75 295.925 316.059 302.931 316.844 305.679C319.49 307.27 322.096 308.921 324.759 310.487C325.136 307.753 325.146 305.569 324.759 302.826C323.185 300.233 315.218 295.173 317.93 291.738C319.846 289.312 323.267 292.792 324.759 294.259Z"/>
	<path fill="#E4E9EE" transform="scale(2 2)" d="M338.752 294.259L339.382 293.964C340.723 294.55 340.723 295.906 341.437 297.046C340.239 299.856 339.47 302.72 338.752 305.679C336.201 307.411 333.492 309.088 330.744 310.487C330.663 307.936 330.723 305.378 330.744 302.826C333.008 299.897 337.257 297.574 338.752 294.259Z"/>
	<path fill="#E4E9EE" transform="scale(2 2)" d="M307.222 312.853C309.319 312.243 311.301 311.554 313.214 310.487C315.704 312.6 318.635 314.336 321.652 315.593C318.886 316.989 316.786 318.377 314.513 320.483C312.859 320.022 307.171 318.416 305.961 317.757C308.626 317.62 310.137 318.64 312.51 319.492C315.001 320.387 318.094 316.589 320.224 315.551C319.688 314.676 316.61 313.47 315.402 312.886C315.654 318.205 308.937 318.906 308.015 315.393C307.788 314.525 307.516 313.7 307.222 312.853Z"/>
	<path fill="#E4E9EE" transform="scale(2 2)" d="M330.744 322.17C332.576 326.869 330.409 324.686 333.033 324.773C336.307 327.072 338.919 332.826 332.311 330.203C332.984 331.331 334.003 331.862 334.47 333.196C333.182 332.095 331.965 330.93 330.744 329.755C330.922 327.2 330.869 324.723 330.744 322.17Z"/>
	<path fill="#CCD8E5" transform="scale(2 2)" d="M351.134 297.99L352.324 297.686C360.1 295.661 380.673 297.521 390.066 296.95C408.846 295.809 425.04 285.433 435.926 270.575C438.532 267.019 441.572 260.713 444.04 257.912L444.469 258.036C432.002 309.469 400.95 314.956 353.432 312.853L354.631 310.487C352.8 308.221 351.076 307.776 348.334 307.211L351.899 305.679C352.887 305.102 353.742 304.449 354.631 303.735C354.74 300.936 354.044 298.797 351.134 297.99Z"/>
	<path fill="#2E9EE4" transform="scale(2 2)" d="M320.807 374.26C326.38 373.99 325.733 377.639 324.759 381.845C334.354 374.935 334.432 384.501 324.759 389.136C324.642 392.853 324.751 396.604 324.759 400.324C328.456 398.184 331.897 395.613 335.641 393.539C333.529 381.977 342.731 380.384 340.787 390.806C341.811 389.766 343.207 387.988 344.544 387.462C347.754 386.198 354.554 392.757 343.77 395.045C352.597 397.064 348.82 406.933 337.672 398.151L327.222 404.943C330.58 406.843 334.133 408.699 337.672 410.228C339.551 408.539 342.477 405.028 345.156 405.025C351.981 405.016 345.949 411.366 343.77 413.165C352.58 413.196 350.101 420.223 346.314 420.733C344.705 420.949 342.584 418.742 341.437 417.797C342.179 419.615 343.936 426.885 339.762 425.472C336.867 424.493 335.351 417.705 334.47 415.11L324.759 409.305C324.605 412.522 324.744 415.802 324.759 419.025C334.196 424.272 335.046 433.515 324.759 426.483C325.539 428.871 326.655 430.76 324.307 432.566C319.025 434.337 318.728 430.496 319.495 426.483C311.31 432.842 307.521 425.038 319.495 419.025L319.495 409.305C303.833 415.546 311.105 419.595 306.211 423.483C301.985 426.841 302.629 420.028 302.562 418.924C300.842 418.822 299.296 420.852 297.503 420.174C294.184 418.919 295.047 414.98 298.62 413.165C296.429 411.757 294.029 408.195 297.258 407.283C299.756 406.577 304.517 409.229 306.776 410.228C310.039 408.203 313.314 406.458 316.844 404.943C313.952 402.813 310.493 400.736 307.222 399.254C304.348 399.854 299.327 403.145 297.198 402.498C292.433 401.049 295.7 397.495 299.758 396.356C290.307 393.593 292.229 382.111 304.144 391.827C301.994 388.363 301.069 381.787 305.93 384.298C308.206 385.474 309.261 392.485 309.979 395.045C313.362 396.437 316.386 398.417 319.495 400.324L319.495 389.136C315.812 386.602 305.324 381.694 314.513 378.676C316.318 379.505 317.92 380.649 319.495 381.845C318.908 378.643 318.001 376.562 320.807 374.26Z"/>
	<path fill="#2E9EE4" transform="scale(2 2)" d="M184.811 331.219C189.869 331.191 188.215 334.923 188.297 338.609C189.353 338.07 197.221 332.498 195.967 337.585C195.374 339.992 190.333 342.976 188.297 344.418C188.587 348.267 188.503 352.424 188.297 356.278C191.596 354.227 194.964 352.204 198.141 349.971C198.976 347.404 199.491 340.564 202.701 339.846C205.477 340.9 204.493 344.794 204.197 346.995C206.478 345.754 211.134 341.069 213.635 344.093C214.434 347.695 209.094 349.776 206.648 351.188C208.706 352.07 215.233 354.083 211.461 357.17C208.961 357.599 202.091 354.872 199.428 354.047C196.185 355.853 193.078 357.975 189.997 360.044C193.553 361.503 196.743 363.596 200.23 365.171C201.165 364.855 214.592 359.041 212.665 364.755C212.079 366.492 208.187 368.111 206.648 368.982C210.158 369.913 217.478 374.611 211.818 376.078C209.6 376.653 206.126 373.679 204.197 372.623C204.603 384.882 199.462 377.414 198.141 368.982C195.031 367.323 191.65 364.702 188.297 363.731C188.151 367.767 188.289 371.851 188.297 375.891C196.974 381.17 198.226 389.131 188.297 381.381C188.218 383.96 188.303 386.555 188.297 389.136C182.519 392.005 183.74 384.682 183.999 381.381C173.332 389.222 171.919 381.335 183.999 375.891L183.999 363.731C180.262 365.826 176.493 367.959 173.012 370.465C173.045 373.958 174.912 383.081 168.576 380.031C168.49 378.118 168.565 376.176 168.576 374.26C166.409 374.905 164.522 375.893 162.549 376.976C157.141 373.762 163.972 371.019 166.771 368.982C157.417 366.518 156.716 359.82 171.271 366.416C174.614 364.051 178.005 361.99 181.6 360.044C178.364 357.69 174.753 355.992 171.271 354.047C168.639 354.536 162.478 358.209 160.306 355.749C159.727 352.635 163.465 351.661 165.797 351.188C164.681 350.204 155.304 344.852 161.167 343.341C163.389 342.768 166.715 345.849 168.576 346.995C168.079 345.028 167.417 343.127 168.056 341.129C172.044 336.478 173.601 348.239 174.014 349.971L183.999 356.278C183.903 352.318 183.915 348.377 183.999 344.418C174.164 338.96 171.953 331.403 183.999 338.609C183.923 336.315 183.096 333.054 184.811 331.219Z"/>
	<path fill="#E4E9EE" transform="scale(2 2)" d="M251.075 347.448C256.233 332.351 276.08 343.749 269.723 356.278C263.878 366.485 247.678 361.733 251.075 347.448Z"/>
	<path fill="#CCD8E5" transform="scale(2 2)" d="M251.075 347.448C254.166 348.82 253.154 361.925 265.71 357.467C266.975 357.019 268.366 356.077 269.723 356.278C263.878 366.485 247.678 361.733 251.075 347.448Z"/>
	<path fill="#E4E9EE" transform="scale(2 2)" d="M113.914 382.738C122.305 371.849 137.096 386.177 129.703 395.045L129.621 395.154C120.32 407.788 104.506 393.441 113.914 382.738Z"/>
	<path fill="#CCD8E5" transform="scale(2 2)" d="M113.914 382.738C114.26 383.83 114.073 384.845 114.02 385.965C113.298 401.335 128.446 394.586 129.703 395.045L129.621 395.154C120.32 407.788 104.506 393.441 113.914 382.738Z"/>
	<path fill="#E4E9EE" transform="scale(2 2)" d="M241.945 402.315C245.425 399.476 250.362 399.28 254.056 401.835C257.749 404.39 259.308 409.079 257.878 413.336C256.514 417.401 252.729 420.158 248.443 420.21C244.156 420.262 240.305 417.598 238.842 413.569C237.379 409.539 238.624 405.025 241.945 402.315Z"/>
	<path fill="#CCD8E5" transform="scale(2 2)" d="M241.945 402.315C242.095 403.458 241.793 404.421 241.573 405.533C240.438 411.252 245.207 417.155 251.193 416.579C253.827 416.326 255.661 414.542 257.878 413.336C256.514 417.401 252.729 420.158 248.443 420.21C244.156 420.262 240.305 417.598 238.842 413.569C237.379 409.539 238.624 405.025 241.945 402.315Z"/>
	<path fill="#E4E9EE" transform="scale(2 2)" d="M176.733 415.11C187.427 411.059 192.833 431.582 178.551 434.77C165.027 435.689 163.62 416.371 176.733 415.11Z"/>
	<path fill="#E4E9EE" transform="scale(2 2)" d="M380.797 354.42C386.243 354.009 391.013 358.041 391.514 363.479C392.015 368.917 388.062 373.752 382.633 374.343C379.04 374.733 375.517 373.156 373.414 370.217C371.312 367.278 370.958 363.434 372.488 360.161C374.018 356.887 377.194 354.693 380.797 354.42Z"/>
</svg>
