<?xml version="1.0" encoding="utf-8" ?>
<svg xmlns="http://www.w3.org/2000/svg" xmlns:xlink="http://www.w3.org/1999/xlink" width="1024" height="1024">
	<path fill="#FCFCFC" transform="scale(2 2)" d="M303.211 104.915C331.099 69.982 385.559 66.9108 414.697 102.267C436.432 128.64 437.37 168.136 415.572 194.946C413.422 197.591 411.122 200.15 408.837 202.679C415.931 205.318 424.677 217.264 427.663 223.806C442.79 256.944 420.826 294.439 384.49 298.327C380.234 298.783 375.892 298.492 371.616 298.461L352.581 298.412C345.926 298.369 322.875 299.958 317.866 297.94C316.125 297.238 314.603 295.267 312.85 294.844L312.501 295.658C315.454 302.176 318.46 309.361 315.724 316.505C308.961 334.165 275.032 325.935 289.829 298.466C270.71 297.487 248.695 298.238 229.367 298.225C224.045 298.222 212.771 298.975 208.129 297.846C204.848 297.047 204.918 293.541 202.503 292.379L202.127 292.588C201.887 293.323 201.928 293.834 202.014 294.581C203.22 317.691 171.789 318.941 170.195 297.45L169.749 297.303C164.825 299.642 156.534 298.439 151.166 298.481C133.951 298.615 117.154 299.622 102.439 288.993C69.1538 264.947 76.9153 206.937 118.122 196.057C121.189 195.248 124.349 194.902 127.477 194.412C129.011 191.011 129.51 187.281 130.627 183.74C136.681 164.561 157.806 154.891 176.753 160.071C180.662 161.14 184.404 162.8 188.275 164.011C190.819 160.029 192.397 155.518 194.757 151.43C212.362 120.93 244.799 100.433 280.569 101.75C288.356 102.036 295.611 103.379 303.211 104.915Z"/>
	<path fill="#C2CDE9" transform="scale(2 2)" d="M303.211 104.915C331.099 69.982 385.559 66.9108 414.697 102.267C436.432 128.64 437.37 168.136 415.572 194.946C413.422 197.591 411.122 200.15 408.837 202.679C407.924 203.103 405.433 200.41 404.445 199.859C394.446 194.284 382.072 191.777 370.69 191.813C370.424 158.427 348.87 126.569 319.499 111.606C314.242 108.928 308.72 106.987 303.211 104.915Z"/>
	<path fill="#0197EB" transform="scale(2 2)" d="M170.195 297.45C170.619 288.937 182.319 267.28 189.666 271.537C194.956 274.602 200.638 288.795 202.014 294.581C203.22 317.691 171.789 318.941 170.195 297.45Z"/>
	<path fill="#0197EB" transform="scale(2 2)" d="M289.829 298.466C298.631 283.997 302.893 277.489 312.501 295.658C315.454 302.176 318.46 309.361 315.724 316.505C308.961 334.165 275.032 325.935 289.829 298.466Z"/>
	<path fill="#C2CDE9" transform="scale(2 2)" d="M240.059 331.766C246.867 331.302 244.808 339.584 244.765 344.136C247.274 342.555 249.469 341.027 252.447 340.495C260.25 345.714 248.618 349.727 245.125 352.875L244.765 353.203C244.75 370.916 240.692 375.758 259.297 360.973C259.247 358.829 259.28 342.51 265.656 349.082C267.436 350.916 266.785 355.431 266.735 357.809C267.924 357.32 282.57 348.33 279.621 357.905C278.656 361.04 272.409 363.215 269.646 364.695C281.534 368.544 276.419 374.915 272.853 374.298C270.705 373.927 264.186 369.703 261.612 368.422C257.314 371.048 252.724 373.27 248.58 376.13C252.95 379.139 257.848 381.826 262.584 384.218C264.507 383.151 278.342 373.742 276.875 383.308C276.502 385.742 272.417 387.784 270.558 389.07C273.205 390.095 284.453 395.8 277.211 398.9C274.901 399.889 269.952 396.6 267.683 395.682C267.764 398.82 266.747 405.318 261.995 402.303C259.084 400.456 259.975 394.487 259.297 391.48C255.275 387.459 249.456 384.534 244.535 381.746C244.659 387.461 245.443 393.217 244.765 398.912C246.375 399.733 260.427 407.702 252.966 410.492C250.714 411.334 246.727 408.759 244.765 407.764C244.738 410.105 246.609 426.681 238.584 418.638C238.35 415.053 238.732 411.38 238.584 407.764C236.492 409.029 229.708 413.516 228.845 408.916C227.116 399.7 243.125 408.299 237.959 381.746C233.839 383.782 227.545 387.257 224.462 390.7C224.01 391.708 221.794 410.331 216.098 404.274C214.526 402.603 215.193 397.937 215.241 395.682C213.213 396.772 207.539 401.287 205.579 400.629C196.902 397.715 210.941 390.214 213.012 389.07C207.148 388.617 200.63 384.345 206.676 380.589C209.853 378.615 215.621 383.348 218.8 384.095C222.923 385.063 231.364 378.229 235.044 376.13C231.508 374.295 224.344 369.146 220.545 368.746C218.46 368.528 212.185 372.123 209.58 372.867L209.173 372.98C203.784 368.401 208.241 365.246 213.012 363.324C210.335 361.732 203.779 359.439 203.502 355.716C202.82 346.558 213.107 355.615 215.241 357.809C215.135 355.521 214.818 342.533 220.844 347.011C223.664 349.107 223.772 358.562 224.462 362.193C229.232 364.981 233.789 368.172 238.584 370.878C238.394 364.982 237.978 359.11 237.959 353.203C236.176 352.002 220.201 343.288 230.343 340.669C232.413 340.134 236.223 343.025 237.959 344.136C237.728 340.535 235.903 333.581 240.059 331.766Z"/>
	<path fill="#97DFF3" transform="scale(2 2)" d="M360.901 344.136C369.271 345.429 389.099 387.864 359.159 388.016C349.11 387.506 343.153 378.457 344.844 368.902C346.304 360.651 354.046 348.924 360.901 344.136Z"/>
	<path fill="#97DFF3" transform="scale(2 2)" d="M123.354 329.267C134.73 328.889 150.559 368.079 123.354 369.287C99.2002 368.927 106.611 338.587 123.354 329.267Z"/>
	<path fill="#97DFF3" transform="scale(2 2)" d="M175.44 390.7C185.304 389.066 202.607 429.962 173.76 430.382C147.96 428.149 162.001 393.995 175.44 390.7Z"/>
</svg>
