<?xml version="1.0" encoding="utf-8" ?>
<svg xmlns="http://www.w3.org/2000/svg" xmlns:xlink="http://www.w3.org/1999/xlink" width="1024" height="1024">
	<path fill="#B7C3D6" transform="scale(2 2)" d="M154.564 157.236C161.247 136.871 171.395 121.945 191.51 112.272C219.797 98.6692 256.531 107.511 274.526 133.566L275.551 134.314C282.087 132.347 292.263 139.796 298.328 141.727C298.639 144.518 299.171 147.392 299.331 150.183C309.459 155.746 319.118 169.602 321.234 170.727C327.168 171.047 333.031 170.347 338.989 170.866C359.041 172.61 387.012 187.032 396.078 205.997C396.107 206.722 396.495 207.548 396.874 208.163C397.22 211.116 399.209 213.556 400.372 216.214C404.552 225.767 404.763 238.454 404.007 248.892C402.063 275.728 382.464 299.312 357.177 307.724C342.788 312.51 324.632 313.354 309.608 315.323C295.36 317.19 281.2 319.443 266.929 321.191C258.836 322.492 226.129 326.3 220.079 328.993C239.541 364.138 190.401 360.538 199.705 337.219C200.486 335.261 201.492 333.371 202.435 331.486C200.899 331.606 199.241 332.212 197.741 332.588C173.397 338.69 135.763 346.296 114.046 333.674C104.005 327.838 94.8759 318.683 91.7977 307.203C85.2097 293.961 90.4944 274.196 99.088 263.052C96.2302 261.952 93.4177 259.725 91.0362 257.835C64.0624 235.224 74.8048 193.088 111.715 189.344C110.202 165.684 132.647 149.323 154.564 157.236Z"/>
	<path fill="#E3E6EE" transform="scale(2 2)" d="M321.234 170.727C327.168 171.047 333.031 170.347 338.989 170.866C359.041 172.61 387.012 187.032 396.078 205.997C396.107 206.722 396.495 207.548 396.874 208.163C397.22 211.116 399.209 213.556 400.372 216.214C404.552 225.767 404.763 238.454 404.007 248.892C402.063 275.728 382.464 299.312 357.177 307.724C342.788 312.51 324.632 313.354 309.608 315.323C295.36 317.19 281.2 319.443 266.929 321.191C258.836 322.492 226.129 326.3 220.079 328.993C239.541 364.138 190.401 360.538 199.705 337.219C200.486 335.261 201.492 333.371 202.435 331.486C200.899 331.606 199.241 332.212 197.741 332.588C173.397 338.69 135.763 346.296 114.046 333.674C104.005 327.838 94.8759 318.683 91.7977 307.203C94.1699 308.122 96.2051 310.823 98.0871 312.518C104.962 318.712 115.191 322.161 124.283 322.113C142.845 322.013 151.134 310.92 162.454 299.512C182.402 308.878 202.138 301.972 214.706 284.307C240.329 296.398 271.623 288.361 284.222 261.875C285.784 258.592 286.885 255.125 288.017 251.677C296.066 255.525 304.809 256.466 313.261 253.332C316.147 251.29 318.481 248.706 321.234 246.512C329.796 225.235 336.592 211.909 328.258 186.969C326.392 181.385 322.859 176.291 321.234 170.727Z"/>
	<path fill="#0139E7" transform="scale(2 2)" d="M211.796 316.557C215.114 320.304 217.177 324.956 220.079 328.993C239.541 364.138 190.401 360.538 199.705 337.219C200.486 335.261 201.492 333.371 202.435 331.486C206.031 326.939 208.092 321.178 211.796 316.557Z"/>
	<path fill="#8590AD" transform="scale(2 2)" d="M154.564 157.236C161.247 136.871 171.395 121.945 191.51 112.272C219.797 98.6692 256.531 107.511 274.526 133.566C267.344 131.458 265.389 130.906 257.202 131.01C224.101 131.429 186.03 155.423 183.431 190.479C178.845 190.622 174.266 190.19 169.691 190.556C144.051 192.608 124.155 214.288 124.453 239.947C115.933 241.6 95.9443 250.405 91.0362 257.835C64.0624 235.224 74.8048 193.088 111.715 189.344C110.202 165.684 132.647 149.323 154.564 157.236Z"/>
	<path fill="#737EA0" transform="scale(2 2)" d="M183.431 190.479C186.03 155.423 224.101 131.429 257.202 131.01C265.389 130.906 267.344 131.458 274.526 133.566L275.551 134.314C277.26 136.753 279.011 139.168 280.538 141.727C276.569 141.442 271.955 139.778 267.019 139.377C225.434 136.004 194.566 161.15 189.883 201.958C186.552 201.059 183.23 200.118 179.807 199.633C149.688 195.365 129.132 219.898 131.229 248.57C119.809 248.761 105.998 253.319 99.088 263.052C96.2302 261.952 93.4177 259.725 91.0362 257.835C95.9443 250.405 115.933 241.6 124.453 239.947C124.155 214.288 144.051 192.608 169.691 190.556C174.266 190.19 178.845 190.622 183.431 190.479Z"/>
	<path fill="#E3E6EE" transform="scale(2 2)" d="M275.551 134.314C282.087 132.347 292.263 139.796 298.328 141.727C298.639 144.518 299.171 147.392 299.331 150.183C292.96 146.312 287.615 143.917 280.538 141.727C279.011 139.168 277.26 136.753 275.551 134.314Z"/>
	<path fill="#495986" transform="scale(2 2)" d="M355.488 71.6988C359.418 72.9552 360.888 75.2389 359.616 79.2525L359.422 79.4319C353.207 85.1117 352.708 87.6412 350.972 96.2008C342.629 137.347 387.074 176.355 423.878 158.984C426.985 157.517 429.387 155.688 432.908 155.263C435.62 155.509 436.397 155.976 437.733 158.23C438.087 167.006 428.337 181.689 422.569 187.953C414.675 196.527 406.459 201.131 396.078 205.997C387.012 187.032 359.041 172.61 338.989 170.866C333.031 170.347 327.168 171.047 321.234 170.727C319.118 169.602 309.459 155.746 299.331 150.183C299.171 147.392 298.639 144.518 298.328 141.727C297.414 112.195 315.084 86.3562 342.566 76.2956C346.482 74.8618 351.575 72.9727 355.488 71.6988Z"/>
	<path fill="#B7C3D6" transform="scale(2 2)" d="M253.95 367.205C256.594 366.931 256.206 370.508 256.329 372.282L256.617 372.105C258.126 371.192 259.898 370.461 260.779 372.476C260.528 374.573 257.743 376.623 256.329 378.16C256.006 381.221 256.16 384.18 256.329 387.243C258.846 385.477 262.084 382.699 263.764 380.126C263.846 377.983 263.109 372.838 265.393 371.603C267.932 371.393 268.442 373.979 268.935 375.945C273.204 371.893 276.076 374.835 271.99 379.229C272.07 379.232 272.151 379.233 272.231 379.236L272.634 379.258C278.582 379.549 276.911 385.825 266.929 382.716C265.205 385.82 262.945 388.528 260.912 391.428L268.935 391.428C275.708 383.05 279.03 385.93 274.526 391.428C281.214 389.921 282.839 393.315 275.551 395.467C281.866 403.254 274.017 401.153 268.935 396.543C266.307 396.315 263.557 396.54 260.912 396.543C262.865 398.84 264.839 401.072 266.929 403.246C269.253 403.173 274.679 401.851 276.254 404.112C276.572 407.163 274.462 407.116 271.99 407.355C276.62 412.789 274.522 415.012 268.935 411.245C265.304 420.562 264.98 412.546 263.587 407.838C262.725 404.928 258.693 402.099 256.329 400.432C256.407 403.335 256.341 406.253 256.329 409.157C262.842 414.624 263.19 422.292 257.306 416.158C255.255 413.86 256.748 425.706 252.875 421.697C251.706 420.488 251.694 416.925 251.516 415.256C250.675 416.191 250.06 417.315 248.908 417.879C242.912 417.885 250.32 410.4 251.516 409.157C251.737 406.493 251.679 403.86 251.516 401.195C248.57 402.768 245.419 405.141 243.783 408.104C243.341 416.152 240.476 417.658 239.636 410.113C234.104 414.915 231.225 411.698 236.783 407.355C227.707 404.333 237.871 403.183 241.266 403.246C243.194 401.397 244.971 399.518 247.054 397.826C244.568 397.509 242.149 396.833 239.636 396.543C238.897 397.179 231.989 404.765 231.413 400.13C231.271 398.99 232.286 397.882 232.981 397.121L233.204 396.88C233.051 396.321 230.726 396.429 229.993 395.683C229.495 393.249 232.051 393.443 233.75 393.506C227.065 386.323 232.564 385.761 239.089 392.168C242.052 392.109 245 392.074 247.963 392.168C245.604 389.768 243.648 387.02 241.266 384.641C237 385.403 230.379 385.501 236.181 380.448L236.04 379.885C232.003 375.746 235.866 373.485 239.636 378.16C244.725 369.8 244.278 378.614 244.488 382.716C247.106 383.94 249.242 385.482 251.516 387.243L251.516 378.16C244.672 371.923 246.852 368.569 251.516 372.282C251.716 369.889 251.421 368.232 253.95 367.205Z"/>
	<path fill="#B7C3D6" transform="scale(2 2)" d="M170.156 387.243C173.335 388.073 172.778 390.739 172.728 393.506C173.861 392.436 177.119 389.257 178.044 392.179C178.669 394.154 174.06 396.962 172.873 399.228L172.728 399.512L172.728 408.104C178.505 404.41 179.875 403.775 180.549 396.543C184.948 392.909 187.036 393.082 184.827 399.512C191.335 394.884 194.935 396.58 187.757 402.782C194.458 403.459 194.679 408.838 183.431 405.257C180.817 407.378 178.317 409.902 176.341 412.63L186.665 412.63C188.5 411.355 189.942 409.497 191.926 408.425C196.208 406.11 195.842 409.6 193.317 412.63C201.496 413.378 198.529 416.192 192.055 417.125C195.816 420.293 193.052 423.754 186.665 417.125C183.222 416.87 179.765 417.473 176.341 417.125C178.842 419.164 180.894 421.748 183.431 423.831C192.039 422.08 197.474 424.57 186.665 427.464C193.831 431.425 190.309 435.995 184.827 430.373L184.781 430.734C184.567 432.381 184.325 434.658 182.926 435.731C180.277 435.805 180.286 429.607 179.723 427.816C178.774 424.792 175.353 422.582 172.728 421.101C172.511 424.395 172.703 427.803 172.728 431.109C180.923 437.088 179.097 441.582 172.728 436.287C172.589 438.131 173.012 442.561 170.156 441.731C168.722 440.013 168.813 438.384 168.944 436.287C167.597 437.349 165.896 439.348 164.027 438.54C161.925 435.757 166.68 432.91 168.293 431.109C168.588 427.773 168.444 424.439 168.293 421.101C158.042 426.814 163.835 432.68 160.772 434.446C158.509 434.043 158.579 432.298 158.428 430.373C157.601 431.77 156.237 434.735 154.653 435.19C153.075 434.328 153.2 432.692 153.619 431.15C151.978 430.72 150.582 432.938 149.212 430.495C149.574 428.506 152.9 427.791 154.564 427.464C153.385 426.804 149.481 425.21 150.901 423.411C152.842 422.56 156.295 423.623 158.428 423.831C160.189 421.355 162.216 419.233 164.392 417.125C161.212 417.576 157.809 416.944 154.564 417.125C152.879 418.12 147.072 424.768 145.993 420.02C146.255 418.319 148.356 417.16 149.626 416.158C140.402 416.975 141 412.356 148.263 412.63C147.18 411.499 144.895 409.628 146.653 408.098C148.654 406.356 152.093 411.668 153.699 412.474C155.293 413.274 161.987 412.451 164.392 412.63C162.558 410.493 160.323 408.453 158.845 406.062C157.115 406.203 150.324 407.791 149.932 405.362C150.966 403.332 153.093 403.009 155.155 402.782C153.505 401.796 147.986 399.794 150.896 397.322C151.929 397.132 152.902 397.572 153.879 397.882C154.463 397.51 153.933 392.678 156.418 394.435C157.737 395.367 158.057 398.082 158.39 399.587L158.603 399.505C158.969 398.345 159.534 396.028 161.097 396.251C162.529 398.019 161.886 401.11 162.454 403.246C164.076 405.481 166.273 407.292 168.293 409.157C168.216 405.382 168.27 401.602 168.293 397.826C161.449 393.249 162.731 387.627 168.944 393.506C168.957 391.343 168.588 388.935 170.156 387.243Z"/>
	<path fill="#B7C3D6" transform="scale(2 2)" d="M115.319 390.337C105.056 383.034 119.031 361.754 124.453 356.011C126.601 359.763 129.436 363.265 131.229 367.205C132.47 369.668 133.917 372.168 134.962 374.713C142.531 388.867 126.44 400.7 115.319 390.337Z"/>
	<path fill="#2EB6F7" transform="scale(2 2)" d="M133.409 376.764C133.535 375.59 133.999 375.341 134.962 374.713C142.531 388.867 126.44 400.7 115.319 390.337C117.401 390.021 120.034 391.152 122.291 391.034C129.735 390.644 133.966 383.666 133.409 376.764Z"/>
	<path fill="#4CC2F3" transform="scale(2 2)" d="M131.229 367.205C132.47 369.668 133.917 372.168 134.962 374.713C133.999 375.341 133.535 375.59 133.409 376.764C133.014 374.46 129.881 369.062 131.229 367.205Z"/>
	<path fill="#B7C3D6" transform="scale(2 2)" d="M299.331 354.053C294.12 346.395 306.646 329.526 310.692 323.197C312.253 326.025 314.414 328.412 315.538 331.486C335.313 355.887 307.978 372.092 299.331 354.053Z"/>
	<path fill="#2EB6F7" transform="scale(2 2)" d="M315.538 331.486C335.313 355.887 307.978 372.092 299.331 354.053C303.472 354.585 311.437 363.026 317.764 350.505C320.951 344.198 317.199 337.897 315.211 331.947L315.538 331.486Z"/>
	<path fill="#B7C3D6" transform="scale(2 2)" d="M409.439 119.176C409.784 119.486 407.325 126.76 407.098 128.077C410.764 128.463 414.279 128.814 417.905 129.511C414.291 130.462 410.668 130.673 407.098 131.934C408.242 135.234 409.725 138.405 410.832 141.727C408.248 139.179 405.82 136.351 403.492 133.566C401.466 136.042 399.228 138.305 396.874 140.465L396.527 140.804C396.537 139.151 399.25 133.704 400.109 131.934C396.539 130.601 392.573 130.184 388.836 129.511C392.554 128.749 396.338 128.452 400.109 128.077C399.221 125.054 397.801 122.203 396.874 119.176C399.05 121.551 401.211 123.937 403.492 126.214C405.675 124.22 407.551 121.474 409.439 119.176Z"/>
	<path fill="#B7C3D6" transform="scale(2 2)" d="M374.869 103.058C376.982 100.03 378.626 97.4982 381.989 95.7261C380.479 98.7359 379.275 101.856 378.168 105.031C381.037 105.179 384.631 105.04 387.327 105.997L387.367 106.278C384.574 107.78 381.131 107.485 378.168 108.543C379.521 111.606 380.864 114.648 381.989 117.804C379.422 116.26 376.827 112.62 374.869 110.331C372.465 112.601 370.452 115.184 368.451 117.804C369.326 114.614 370.478 111.562 371.819 108.543C368.128 107.44 364.28 106.733 360.497 106.016C364.183 105.448 368.09 105.071 371.819 105.031C371.222 102.967 368.237 97.3975 368.451 95.7261C370.836 97.3924 372.84 100.873 374.869 103.058Z"/>
</svg>
