<?xml version="1.0" encoding="utf-8" ?>
<svg xmlns="http://www.w3.org/2000/svg" xmlns:xlink="http://www.w3.org/1999/xlink" width="1024" height="1024">
	<path fill="#F8FAFA" transform="scale(2 2)" d="M181.131 125.34C182.691 121.956 183.521 118.289 184.999 114.87C197.895 85.0435 227.086 68.7354 259.389 72.0413C276.187 73.7603 296.883 84.3579 307.719 97.6993C323.006 86.4092 340.311 80.7822 359.372 83.6037C391.442 88.3509 417.153 120.3 412.088 152.925C411.555 156.359 410.748 159.748 410.513 163.222C411.764 163.402 413.606 164.689 414.764 165.304C437.83 177.556 453.453 197.861 452.139 225.3C450.679 255.779 428.3 282.894 397.872 287.987C389.768 289.343 381.906 289.282 373.718 289.283L138.98 289.272C129.42 289.251 119.423 289.953 110.019 287.837C61.1533 276.839 43.2859 210.851 81.6203 177.014C91.2105 168.55 104.571 162.404 117.596 163.222C118.685 153.532 119.856 144.358 125.346 135.988C137.449 117.538 163.022 113.159 181.131 125.34Z"/>
	<path fill="#B7D9E7" transform="scale(2 2)" d="M307.719 97.6993C323.006 86.4092 340.311 80.7822 359.372 83.6037C391.442 88.3509 417.153 120.3 412.088 152.925C411.555 156.359 410.748 159.748 410.513 163.222C407.527 162.689 404.491 161.156 401.459 160.471C393.946 158.773 386.792 158.756 379.164 158.782C370.477 129.696 352.977 110.291 321.87 104.073C318.701 103.439 315.489 103.068 312.313 102.472C311.003 101.412 308.147 99.2606 307.719 97.6993Z"/>
	<path fill="#14A5E3" transform="scale(2 2)" d="M234.726 384.188C240.11 383.862 237.868 388.999 237.772 394.139C241.338 392.171 244.268 387.082 246.8 393.314C243.76 395.265 240.736 397.165 237.772 399.235L237.772 411.127C241.873 409.127 245.75 406.65 249.527 404.103C249.557 403.682 249.222 389.84 253.671 394.657C254.892 395.978 254.278 399.921 254.268 401.687C254.881 401.318 265.111 395.211 262.825 400.996C262.016 403.045 257.513 404.434 255.54 405.234C256.869 406.018 265.951 409.097 261.225 411.599C259.724 412.393 253.851 409.262 251.971 408.693L251.555 408.57C247.184 409.719 243.823 412.561 240.037 414.862C243.699 416.356 246.853 418.798 250.486 420.289C252.694 419.625 259.075 416.305 260.755 416.431C266.338 419.535 257.271 422.109 255.042 422.985C255.378 423.2 266.549 428.926 261.131 430.262C258.979 430.792 255.711 428.121 253.792 427.15C253.792 427.702 254.872 438.096 250.731 434.397C248.927 432.785 249.5 427.358 249.527 425.024C246.019 422.248 241.709 420.081 237.772 417.947C237.612 421.985 237.745 426.08 237.772 430.125C239.42 430.705 250.835 436.575 245.149 438.705C243.822 439.202 239.623 435.988 238.124 435.373L237.772 435.231C237.935 438.019 239.579 447.908 233.77 443.937C233.659 441.049 233.757 438.123 233.77 435.231C231.893 436.367 228.301 440.6 226.159 438.067C224.15 435.692 232.231 431.354 233.77 430.125C234.06 426.15 233.774 421.946 233.77 417.947C229.951 420.218 226.207 422.559 222.509 425.024C222.516 427.084 223.235 438.98 219.317 434.514C217.995 433.008 218.805 428.992 218.941 427.15C218.01 427.55 207.107 434.913 208.6 427.798C208.824 426.731 215.279 424.355 217.75 422.985C215.67 422.137 211.46 420.969 210.407 418.975C207.173 412.851 221.066 420.077 221.488 420.289C225.049 418.739 228.21 416.392 231.807 414.862C228.02 412.977 224.37 410.675 220.699 408.57C218.735 409.503 208.052 416.74 209.22 410.644C210.535 408.46 214.312 407.717 216.632 407.031C214.088 405.402 206.733 403.289 207.688 400.268C210.486 397.941 215.389 401.715 217.75 403.229C217.668 401.987 216.268 392.781 219.823 394.599C221.943 395.683 222.077 402.96 222.509 405.234C226.462 406.568 230.116 409.145 233.77 411.127L233.77 399.235C232.886 398.674 221.157 392.407 226.538 390.667C228.509 390.03 231.673 393.088 233.44 393.975L233.77 394.139C233.818 391.912 233.086 385.986 233.902 384.364L234.726 384.188Z"/>
	<defs>
		<linearGradient id="gradient_0" gradientUnits="userSpaceOnUse" x1="266.73212" y1="346.99634" x2="254.38187" y2="306.32227">
			<stop offset="0" stop-color="#8ED1F3"/>
			<stop offset="1" stop-color="#DBEDF5"/>
		</linearGradient>
	</defs>
	<path fill="url(#gradient_0)" transform="scale(2 2)" d="M262.219 310.572C262.378 307.22 260.903 304.201 264.588 302.573C265.845 303.133 266.773 303.75 267.797 304.677C267.611 306.145 267.853 307.823 267.797 309.328C269.224 308.059 270.522 307.095 272.22 306.23C278.274 311.038 269.515 313.152 266.466 319.427C266.257 323.602 266.697 327.771 266.466 331.953C268.744 330.453 270.918 328.808 272.594 326.631C274.623 323.995 279.854 309.088 283.047 310.469C285.049 313.072 283.33 316.034 282.113 318.58C292.498 313.37 297.217 317.619 283.863 324.544C278.528 327.31 273.756 330.885 269.93 335.54C275.618 334.762 280.141 336.063 285.327 333.03L285.912 333.255C288.677 331.989 290.943 330.394 288.398 334.814C286.957 337.318 287.251 339.359 284.51 341.079C279.033 337.236 275.988 338.778 269.93 338.735C271.147 340.24 272.377 341.393 273.944 342.546C272.653 343.145 271.953 343.948 270.815 344.64C269.425 343.305 268.108 342.101 266.466 341.079C266.426 343.099 266.384 345.112 266.466 347.132C265.485 347.459 264.516 347.78 263.508 348.017C263.496 345.879 263.432 343.727 263.508 341.591C261.249 344.204 258.282 346.827 255.54 348.931C256.082 347.534 258.824 345.789 255.657 344.743C254.967 344.943 254.405 345.292 253.792 345.654C256.117 343.198 258.603 340.922 261.181 338.735C243.924 339.091 250.227 339.074 234.974 347.006L234.726 347.132C228.926 342.583 234.653 340.287 238.86 337.677C236.366 336.308 233.859 335.037 231.807 333.03C232.449 331.026 233.038 329.8 234.726 328.487C248.127 334.625 243.264 335.801 261.181 335.54C257.583 333.344 254.791 330.116 251.19 327.871C247.231 325.401 243.721 324.831 239.822 322.897C236.3 321.15 238.921 313.087 246.8 319.427C246.054 317.797 243.93 315.581 245.029 313.691C248.152 308.318 250.902 315.402 252.269 318.132C255.263 324.113 257.838 328.17 263.508 331.953L263.508 320.625C260.863 316.735 257.82 313.124 255.042 309.328C257.853 304.798 259.391 307.212 262.219 310.572Z"/>
	<path fill="#B7D9E7" transform="scale(2 2)" d="M339.67 341.079C344.244 341.604 342.614 347.496 342.353 350.777C348.939 342.994 354.717 342.797 346.701 350.846C341.015 356.555 342.337 361.881 342.353 369.297C345.878 366.748 349.831 364.539 353.857 362.869C354.422 360.25 355.556 352.905 356.962 351.019C359.97 351.381 358.316 357.832 358.344 359.906C360.548 358.412 365.486 353.977 367.556 357.31C367.851 360.113 361.488 361.865 359.364 362.869C361.787 363.771 369.282 363.877 368.12 367.908C366.141 369.422 358.978 365.815 356.188 365.779C353.426 365.744 347.229 370.099 344.463 371.448C348.465 373.671 352.003 376.686 356.003 378.934C358.391 378.502 366.194 375.846 367.815 376.612C369.572 380.2 363.555 380.376 360.604 382.284C362.33 384.368 364.938 385.061 366.841 386.884C367.37 388.255 366.011 390.689 364.443 390.012C363.355 389.542 359.682 386.316 358.344 385.324C358.386 387.125 359.879 394.164 356.567 393.763C355.139 391.979 354.343 384.833 353.857 382.284C350.785 378.77 346.239 376.554 342.353 374.058L342.353 389.649C343.091 390.409 354.447 398.583 350.261 399.319C348.404 399.645 343.986 395.343 342.353 394.139C342.266 396.082 343.351 403.443 340.241 403.466C338.83 402.418 338.877 400.823 339.256 399.235L339.256 394.139C333.485 398.579 329.778 400.666 330.243 398.29C330.683 396.045 337.262 391.197 339.256 389.649L339.256 374.058C335.66 376.45 330.735 378.44 327.8 381.608C325.461 384.133 326.505 390.843 323.85 393.35C323.349 393.823 322.488 394.038 322.221 393.248C321.469 391.021 323.12 386.314 323.885 384.188C321.841 385.115 314.819 389.559 313.243 389.182L313.121 388.679C313.899 385.469 318.424 383.167 320.98 381.268C318.85 380.842 308.078 376.98 314.629 375.405C316.031 375.068 323.39 378.166 325.063 378.934C329.306 376.765 333.191 374.106 337.136 371.448C333.422 369.559 330.037 366.518 326.215 364.989C323.284 365.847 317.016 368.106 314.164 367.387C309.737 366.271 315.88 363.279 321.844 362.869C318.834 360.867 315.62 359.028 312.313 357.566C313.129 356.385 313.914 355.219 315.19 354.503C317.997 356.478 321.385 357.551 323.885 359.906C323.593 358.988 319.707 348.084 324.27 350.658C326.853 352.115 326.14 358.351 327.585 361.02C329.203 364.01 336.299 367.229 339.256 369.297L339.256 355.952C337.37 352.985 332.39 349.155 331.376 346.709C331.036 345.888 331.525 344.823 332.496 344.851C334.698 344.915 338.131 349.28 339.67 350.777C339.424 347.632 338.962 344.181 339.67 341.079Z"/>
	<path fill="#14A5E3" transform="scale(2 2)" d="M191.927 340.072C192.674 340.775 193.718 341.555 194.02 342.546L193.854 343.089C195.421 344.227 201.391 341.652 202.558 344.777C201.609 347.731 196.196 346.578 194.02 346.249C195.127 347.843 197.648 349.954 197.716 351.867C195.801 355.823 188.859 347.779 187.536 346.249L174.221 346.249C177.877 349.416 181.374 352.755 185 355.952C187.226 355.656 191.872 354.561 193.785 355.778C195.524 356.884 190.278 358.718 189.649 358.887C191.592 359.643 195.467 360.717 196.1 362.934C197.519 367.9 188.814 362.084 186.738 360.873C190.399 372.232 184.522 371.223 183.823 359.906C171.326 349.73 171.166 343.208 171.247 360.873C173.233 363.132 178.448 368.187 178.892 370.918C176.753 374.556 173.038 367.895 171.247 366.665C171.17 369.648 171.633 373.634 169.883 376.199L168.868 376.209C167.164 373.578 167.764 369.687 167.688 366.665C167.171 367.344 160.664 376.1 160.604 370.419C160.582 368.367 166.205 362.494 167.688 360.873C167.704 356.908 167.848 352.89 167.688 348.931C163.653 352.13 160.034 355.74 155.929 358.887C155.549 361.103 155.307 367.987 153.534 369.162C150.324 371.289 151.526 363.76 151.556 362.869C149.757 364.379 146.392 367.937 144.064 365.452C143.395 362.755 147.85 361.275 149.5 359.906C147.705 359.952 141.315 359.74 143.935 356.33C147.312 355.102 151.124 356.83 154.433 355.459C156.077 354.778 163.278 348.293 165.402 346.249C167.842 344.735 170.809 347.678 173.003 345.937C171.811 345.951 170.463 346.128 169.284 346.017L169.281 345.568L169.21 345.598C171.213 344.823 174.107 344.652 175.727 343.25C181.837 343.203 187.269 344.558 191.927 340.072Z"/>
	<path fill="#F8FAFA" transform="scale(2 2)" d="M112.439 307.08C122.568 307.085 111.562 326.14 106.58 330.049C103.237 332.672 99.4073 332.424 95.4211 331.953C89.8681 329.274 89.4903 322.774 93.0257 318.551C96.2894 314.653 107.412 307.466 112.439 307.08Z"/>
	<path fill="#F8FAFA" transform="scale(2 2)" d="M328.168 297.25C337.511 296.017 325.71 327.328 310.39 326.576C302.127 326.388 311.169 301.521 328.168 297.25Z"/>
	<defs>
		<linearGradient id="gradient_1" gradientUnits="userSpaceOnUse" x1="407.35373" y1="323.14899" x2="396.34439" y2="352.27045">
			<stop offset="0" stop-color="#BEE3F5"/>
			<stop offset="1" stop-color="#FFFFFE"/>
		</linearGradient>
	</defs>
	<path fill="url(#gradient_1)" transform="scale(2 2)" d="M410.513 325.058C419.504 321.416 410.808 350.247 397.575 350.72C396.559 350.756 394.868 351.208 393.98 350.777C381.669 351.197 396.846 327.385 410.513 325.058Z"/>
	<defs>
		<linearGradient id="gradient_2" gradientUnits="userSpaceOnUse" x1="107.56411" y1="356.38431" x2="95.67395" y2="381.66959">
			<stop offset="0" stop-color="#BFE2F3"/>
			<stop offset="1" stop-color="#FFFEFC"/>
		</linearGradient>
	</defs>
	<path fill="url(#gradient_2)" transform="scale(2 2)" d="M110.688 357.566C118.456 358.551 109.526 387.879 94.3582 381.268C80.93 372.094 101.879 358.605 110.688 357.566Z"/>
	<path fill="#F8FAFA" transform="scale(2 2)" d="M175.727 403.229C185.854 402.711 178.253 422.692 174.055 427.07C170.795 430.47 168.317 429.973 164.047 430.109L163.625 430.125C149.918 427.234 167.727 407.014 175.727 403.229Z"/>
	<defs>
		<linearGradient id="gradient_3" gradientUnits="userSpaceOnUse" x1="137.71838" y1="392.34732" x2="124.1055" y2="415.82581">
			<stop offset="0" stop-color="#C6E3F5"/>
			<stop offset="1" stop-color="#FFFFFC"/>
		</linearGradient>
	</defs>
	<path fill="url(#gradient_3)" transform="scale(2 2)" d="M137.71 393.314C148.603 392.623 139.915 419.204 124.791 415.646C119.25 416.14 118.609 407.176 120.769 403.737C123.621 399.195 132.588 394.565 137.71 393.314Z"/>
	<path fill="#F8FAFA" transform="scale(2 2)" d="M376.908 306.23C385.16 305.517 376.963 326.568 365.403 330.812C363.899 331.364 362.171 331.594 360.604 331.953C350.741 331.265 362.886 309.862 376.908 306.23Z"/>
	<path fill="#F8FAFA" transform="scale(2 2)" d="M315.19 407.031C316.007 407.863 315.858 412.028 315.866 413.256C315.954 425.512 309.129 431.349 297.499 431.378L297.144 431.258C296.074 419.336 303.739 409.93 315.19 407.031Z"/>
	<path fill="#B7D9E7" transform="scale(2 2)" d="M167.688 319.427C167.7 318.839 168.041 303.981 170.705 310.872C171.804 313.715 171.319 317.622 171.247 320.625L171.483 320.426C173.422 318.772 176.752 314.505 179.074 314.078C184.473 315.704 170.945 322.607 170.805 327.752C170.715 331.051 171.443 334.35 171.247 337.677C170.981 336.79 170.95 335.787 170.85 334.867L171.082 335.439L170.849 335.302C170.926 338.443 166.807 337.225 167.824 334.983C167.998 335.62 167.79 336.305 167.688 336.952C167.29 332.989 167.523 329.028 167.688 325.058L167.402 324.718C163.646 320.296 156.153 317.071 161.616 314.102C163.667 315.834 165.551 317.814 167.688 319.427Z"/>
	<path fill="#6BC5EF" transform="scale(2 2)" d="M253.792 345.654C254.405 345.292 254.967 344.943 255.657 344.743C258.824 345.789 256.082 347.534 255.54 348.931C250.663 353.755 248.776 363.074 246.583 364.465C245.138 365.383 242.98 363.404 242.484 362.174C241.722 360.283 243.33 357.687 244.095 355.952C240.8 356.773 235.452 359.597 236.053 353.228C237.029 351.726 244.231 351.042 246.411 350.178C249.122 349.103 251.43 347.33 253.792 345.654Z"/>
	<path fill="#14A5E3" transform="scale(2 2)" d="M263.508 352.159C264.558 351.276 265.32 351.537 266.466 352.159C266.929 353.238 277.749 366.029 272.228 365.696C270.376 365.584 267.648 361.368 266.466 359.906C266.558 361.806 267.62 368.572 266.532 369.887C261.114 376.433 263.424 360.531 263.508 359.906C262.181 361.652 258.135 367.817 256.064 363.506C255.941 362.357 262.333 353.949 263.508 352.159Z"/>
	<path fill="#6BC5EF" transform="scale(2 2)" d="M156.715 330.962C160.854 333.409 163.229 336.991 167.021 339.613L167.436 339.904C167.519 339.961 167.604 340.016 167.688 340.072L167.688 336.952C167.79 336.305 167.998 335.62 167.824 334.983C166.807 337.225 170.926 338.443 170.849 335.302L171.082 335.439L170.85 334.867C170.95 335.787 170.981 336.79 171.247 337.677C171.248 338.135 171.289 338.559 171.34 339.013L171.834 339.24C174.062 338.873 176.55 335.911 178.157 334.38L178.288 334.802C177.677 335.579 177.015 336.258 176.311 336.952C179.57 340.883 178.78 336.789 181.131 337.677C179.488 338.976 176.149 341.129 175.727 343.25C174.107 344.652 171.213 344.823 169.21 345.598L169.281 345.568L169.284 346.017C170.463 346.128 171.811 345.951 173.003 345.937C170.809 347.678 167.842 344.735 165.402 346.249L163.625 346.249C165.9 345.722 165.054 344.532 163.625 343.25C161.516 339.331 157.148 337.066 154.222 333.784C154.592 331.793 154.632 331.362 156.715 330.962Z"/>
	<path fill="#B7D9E7" transform="scale(2 2)" d="M183.823 330.962C184.446 328.134 185.274 321.824 187.128 319.744C191.113 317.888 188.874 325.49 188.81 326.576C191.133 325.8 193.239 324.633 195.395 323.487C196.046 324.509 196.416 325.427 196.786 326.576C195.146 327.934 193.151 328.818 191.62 330.282C192.603 331.505 196.243 330.614 194.89 333.465C191.718 334.229 188.251 333.387 185 333.784C183.314 334.88 182.203 335.94 181.131 337.677C178.78 336.789 179.57 340.883 176.311 336.952C177.015 336.258 177.677 335.579 178.288 334.802L178.157 334.38C179.704 332.612 181.627 331.668 183.823 330.962Z"/>
	<path fill="#14A5E3" transform="scale(2 2)" d="M144.367 343.25C145.16 342.593 145.818 341.846 146.5 341.079L149.5 343.25L163.625 343.25C165.054 344.532 165.9 345.722 163.625 346.249C159.189 346.101 154.72 346.22 150.282 346.249C147.64 347.867 140.903 356.283 139.724 352.002C140.055 349.739 142.792 347.756 144.367 346.249C141.906 346.53 135.638 348.31 134.948 344.578L135.261 344.132C137.202 342.985 141.995 343.433 144.367 343.25Z"/>
	<path fill="#B7D9E7" transform="scale(2 2)" d="M150.282 326.576C150.16 324.755 148.139 318.183 151.986 319.178C153.359 320.415 153.943 327.848 154.222 329.979C155.105 330.237 155.886 330.565 156.715 330.962C154.632 331.362 154.592 331.793 154.222 333.784C152.404 331.752 135.058 335.792 141.234 330.801C143.334 329.104 145.816 329.74 148.3 329.979C146.84 328.762 143.654 326.423 142.706 324.963C141.175 322.607 143.775 320.468 150.282 326.576Z"/>
	<path fill="#6BC5EF" transform="scale(2 2)" d="M285.327 333.03C296.476 326.897 299.078 329.962 289.632 335.54C300.977 334.06 298.756 341.158 289.632 338.735C291.075 339.787 294.607 341.818 295.027 343.611C296.276 348.942 286.798 342.443 284.51 341.079C287.251 339.359 286.957 337.318 288.398 334.814C290.943 330.394 288.677 331.989 285.912 333.255L285.327 333.03Z"/>
	<path fill="#14A5E3" transform="scale(2 2)" d="M281.311 348.931C283.848 350.369 288.81 351.778 290.1 354.477C290.047 359.21 282.787 354.175 281.311 353.456C281.606 353.968 287.571 364.503 282.262 361.679C280.124 360.541 278.591 355.52 277.539 353.456C278.612 351.201 279.887 351.258 281.251 349.634L280.912 349.155L281.311 348.931Z"/>
	<path fill="#6BC5EF" transform="scale(2 2)" d="M270.815 344.64C271.953 343.948 272.653 343.145 273.944 342.546C274.698 343.56 275.374 344.577 276.032 345.654C277.762 346.789 279.48 347.964 281.311 348.931L280.912 349.155L281.251 349.634C279.887 351.258 278.612 351.201 277.539 353.456C276.601 351.29 275.592 349.713 273.944 348.017C272.873 346.918 271.848 345.776 270.815 344.64Z"/>
	<path fill="#6BC5EF" transform="scale(2 2)" d="M270.815 344.64C271.953 343.948 272.653 343.145 273.944 342.546C274.698 343.56 275.374 344.577 276.032 345.654C274.523 345.265 273.599 342.569 272.156 344.691C272.789 345.96 273.755 346.591 273.944 348.017C272.873 346.918 271.848 345.776 270.815 344.64Z"/>
	<path fill="#6BC5EF" transform="scale(2 2)" d="M144.367 343.25C134.896 338.232 136.613 332.869 146.5 341.079C145.818 341.846 145.16 342.593 144.367 343.25Z"/>
	<path fill="#6BC5EF" transform="scale(2 2)" d="M191.927 340.072C197.698 333.927 201.829 334.303 194.02 342.546C193.718 341.555 192.674 340.775 191.927 340.072Z"/>
	<path fill="#6BC5EF" transform="scale(2 2)" d="M263.508 348.017C264.516 347.78 265.485 347.459 266.466 347.132C266.429 348.804 266.543 350.495 266.466 352.159C265.32 351.537 264.558 351.276 263.508 352.159L263.508 348.017Z"/>
</svg>
