<?xml version="1.0" encoding="utf-8" ?>
<svg xmlns="http://www.w3.org/2000/svg" xmlns:xlink="http://www.w3.org/1999/xlink" width="1024" height="1024">
	<path fill="#DCDBDB" transform="scale(2 2)" d="M177.894 132.906C181.012 92.2577 221.146 61.8677 261.041 71.4992C282.987 76.7975 296.6 87.9365 308.226 107.047C342.176 92.7321 381.497 109.918 395.536 143.655C397.739 148.948 398.574 154.443 399.881 159.97C415.597 163.818 428.687 172.058 437.228 186.105C452.771 211.666 444.112 248.207 418.294 263.624C414.581 265.841 410.736 267.663 406.781 269.403C403.99 271.377 402.313 274.989 400.2 277.616C384.641 296.962 366.182 297.243 343.825 297.235L157.569 297.233C143.204 297.238 127.573 297.951 113.351 296.477C92.4129 294.308 72.7385 277.373 67.9581 256.885C61.4779 229.112 74.0863 200.652 100.997 189.9C105.289 188.185 109.754 187.325 114.238 186.286C111.459 150.921 143.649 126.604 177.894 132.906Z"/>
	<path fill="#BDBFC1" transform="scale(2 2)" d="M308.226 107.047C342.176 92.7321 381.497 109.918 395.536 143.655C397.739 148.948 398.574 154.443 399.881 159.97C415.597 163.818 428.687 172.058 437.228 186.105C452.771 211.666 444.112 248.207 418.294 263.624C414.581 265.841 410.736 267.663 406.781 269.403C405.532 265.945 421.904 244.254 403.851 214.864C394.419 199.511 382.405 193.466 365.43 189.405C365.028 185.972 365.512 182.513 365.419 179.069C364.586 148.104 343.201 128.941 313.665 123.41C312.437 117.804 310.637 112.263 308.226 107.047Z"/>
	<path fill="#31BEF5" transform="scale(2 2)" d="M207.352 382.062C221.339 381.402 209.49 398.032 211.771 401.202C214.533 405.041 219.766 391.99 221.605 390.451C225.721 387.005 232.431 390.142 231.416 395.807C230.493 400.959 221.992 404.388 218.116 407.051C220.36 412.333 227.81 406.764 232.742 406.293C238.306 405.762 241.04 413.462 237.104 417.077C231.561 422.167 215.542 410.406 218.52 417.479C220.371 421.875 228.994 422.174 231.427 430.531C230.236 433.744 228.742 434.953 225.342 435.918C218.281 433.149 215.97 421.988 212.741 422.558C208.139 425.78 220.106 438.808 210.353 443.108C195.149 446.234 210.456 422.576 203.044 422.561C199.317 425.712 197.435 435.525 191.49 435.418C188.385 435.362 185.484 432.313 185.711 429.203C186.139 423.342 195.27 420.801 198.996 417.257C198.585 416.228 198.064 415.271 197.544 414.295C190.552 416.084 180.569 422.957 177.894 411.741C182.21 397.214 194.747 415.352 198.996 407.051C195.114 403.648 185.917 400.615 185.496 394.606C185.275 391.451 187.855 388.636 191.028 388.645C198.959 388.666 200.901 405.911 205.559 400.977C205.891 395.389 197.364 384.043 207.352 382.062Z"/>
	<path fill="#31BEF5" transform="scale(2 2)" d="M328.859 310.482C330.964 310.468 332.299 311.468 333.802 312.799C335.484 316.774 334.665 320.35 332.027 323.715C331.717 327.18 331.951 330.753 332.027 334.231C340.711 328.426 337.807 327.023 341.626 321.626C348.548 311.844 360.924 329.03 343.206 330.958C340.63 333.201 337.275 336.389 336.455 339.782C339.115 339.963 344.263 340.271 346.687 339.314C350.075 337.977 353.004 335.29 356.863 337.357C362.798 340.535 360.088 353.323 345.603 344.704C342.555 344.748 339.503 344.706 336.455 344.704C337.909 348.359 340.354 350.642 343.206 353.251C353.422 353.063 354.961 363.824 348.328 364.771C342.226 365.643 338.286 354.348 332.027 349.424C332.152 352.867 332 356.328 332.027 359.775L332.498 360.337C336.209 364.81 337.812 369.316 332.84 373.399C325.786 376.905 321.551 368.559 326.929 359.775C327.102 356.26 326.83 352.861 326.076 349.424C317.392 357.181 321.364 354.107 318.714 360.977C317.135 365.073 309.284 369.372 307.332 363.294C304.81 355.439 317.87 353.522 322.053 345.055L322.224 344.704C316.473 344.689 305.945 347.667 303.933 347.047C295.803 344.546 298.67 331.882 313.665 339.782C316.513 339.843 319.375 339.783 322.224 339.782C318.48 330.109 309.535 331.324 307.626 325.768C306.162 321.506 307.781 319.751 311.654 318.594C320.532 320.767 318.134 328.017 324.713 333.535C328.013 336.303 327.165 325.662 326.858 324.626C325.545 320.202 320.545 314.134 328.859 310.482Z"/>
	<path fill="#ADE1F7" transform="scale(2 2)" d="M225.342 351.58C216.676 340.881 228.717 317.067 236.76 310.482C241.208 315.293 247.303 324.794 249.717 330.958C260.988 355.034 237.165 367.397 225.342 351.58Z"/>
	<path fill="#31BEF5" transform="scale(2 2)" d="M249.717 330.958C260.988 355.034 237.165 367.397 225.342 351.58C227.75 352.008 230.062 354.438 233.683 354.823C242.693 355.782 249.554 346.115 249.816 337.933C249.89 335.592 249.432 333.305 249.717 330.958Z"/>
	<path fill="#ADE1F7" transform="scale(2 2)" d="M276.542 417.257C264.933 404.008 277.694 385.182 286.742 374.255C290.12 379.468 294.276 384.032 297.284 389.528C310.904 414.869 290.521 430.044 276.542 417.257Z"/>
	<path fill="#31BEF5" transform="scale(2 2)" d="M276.542 417.257C289.585 416.637 299.159 411.375 297.976 396.057C297.83 394.158 296.66 391.226 297.284 389.528C310.904 414.869 290.521 430.044 276.542 417.257Z"/>
	<path fill="#ADE1F7" transform="scale(2 2)" d="M149.99 368.684C136.195 356.131 149.395 337.254 157.726 325.756C162.569 331.914 169.653 341.929 171.703 349.424C176.746 366.509 162.79 378.915 149.99 368.684Z"/>
	<path fill="#31BEF5" transform="scale(2 2)" d="M149.99 368.684C159.234 371.4 168.912 364.961 170.753 355.53C171.146 353.517 170.647 351.271 171.703 349.424C176.746 366.509 162.79 378.915 149.99 368.684Z"/>
</svg>
