<?xml version="1.0" encoding="utf-8" ?>
<svg xmlns="http://www.w3.org/2000/svg" xmlns:xlink="http://www.w3.org/1999/xlink" width="1024" height="1024">
	<path fill="#FAFBFC" transform="scale(2 2)" d="M166.593 177.816C182.95 127.609 242.459 106.902 284.843 140.177C294.631 148.319 302.848 158.419 308.224 169.986C310.132 174.091 311.276 178.637 313.716 182.453C314.161 182.118 314.421 181.796 314.78 181.372C320.947 177.824 326.735 175.401 333.801 174.297C360.909 172.335 382.991 189.556 384.821 217.123C385.066 220.821 384.561 224.505 384.941 228.196C390.501 228.3 401.753 229.903 406.048 233.529C407.959 235.809 411.703 236.54 414.035 238.467C449.341 267.641 430.606 325.855 382.406 328.396C376.462 328.71 370.447 328.53 364.495 328.524L195.118 328.514C190.717 328.52 178.171 329.054 174.782 328.156L124.223 328.168C116.615 328.168 108.682 328.547 101.191 327.056C51.1575 317.095 43.523 238.77 107.393 230C101.306 199.226 124.677 170.793 156.818 175.539C160.129 176.028 163.363 176.956 166.593 177.816Z"/>
	<path fill="#AFBDD7" transform="scale(2 2)" d="M166.593 177.816C182.95 127.609 242.459 106.902 284.843 140.177C294.631 148.319 302.848 158.419 308.224 169.986C310.132 174.091 311.276 178.637 313.716 182.453C310.524 184.123 308.295 178.673 306.037 176.15C274.04 140.391 214.959 148.128 190.666 188.442C181.775 203.196 180.21 211.505 178.257 228.196C119.896 235.136 119.277 319.363 178.257 328.156C177.099 328.163 175.941 328.177 174.782 328.156L124.223 328.168C116.615 328.168 108.682 328.547 101.191 327.056C51.1575 317.095 43.523 238.77 107.393 230C101.306 199.226 124.677 170.793 156.818 175.539C160.129 176.028 163.363 176.956 166.593 177.816Z"/>
	<path fill="#046DF3" transform="scale(2 2)" d="M284.843 140.177C289.904 107.667 322.308 79.0146 354.537 75.1179C360.972 74.3398 367.542 74.4122 374.012 74.5297L373.798 74.9061C371.727 78.4873 368.857 81.4999 366.779 85.1049C335.434 139.486 398.161 194.731 445.358 162.621C447.14 161.409 448.78 159.984 450.565 158.789C451.479 190.809 432.979 218.014 406.048 233.529C401.753 229.903 390.501 228.3 384.941 228.196C384.561 224.505 385.066 220.821 384.821 217.123C382.991 189.556 360.909 172.335 333.801 174.297C326.735 175.401 320.947 177.824 314.78 181.372C314.421 181.796 314.161 182.118 313.716 182.453C311.276 178.637 310.132 174.091 308.224 169.986C302.848 158.419 294.631 148.319 284.843 140.177Z"/>
	<path fill="#74D4FB" transform="scale(2 2)" d="M199.241 368.561C204.219 363.975 211.639 361.072 217.761 358.33C217.781 364.38 218.946 374.381 215.632 379.626C206.735 393.46 188.949 381.653 199.241 368.561Z"/>
	<path fill="#1F96FE" transform="scale(2 2)" d="M199.241 368.561C202.889 376.362 206.972 380.519 215.632 379.626C206.735 393.46 188.949 381.653 199.241 368.561Z"/>
	<path fill="#74D4FB" transform="scale(2 2)" d="M298.49 421.21C301.408 418.857 312.449 411.277 316.251 411.506C320.717 414.009 315.765 428.911 313.825 432.328L313.716 432.519C304.63 442.999 290.826 432.592 298.49 421.21Z"/>
	<path fill="#1F96FE" transform="scale(2 2)" d="M298.49 421.21C301.669 429.211 305.514 431.779 313.716 432.519C304.63 442.999 290.826 432.592 298.49 421.21Z"/>
	<path fill="#74D4FB" transform="scale(2 2)" d="M266.756 369.762C269.065 367.682 282.277 358.181 284.837 360.485C286.522 364.8 285.767 376.934 282.729 380.838C273.817 390.961 258.01 379.756 266.756 369.762Z"/>
	<path fill="#1F96FE" transform="scale(2 2)" d="M282.729 380.838C273.817 390.961 258.01 379.756 266.756 369.762C269.766 379.628 274.311 379.848 282.729 380.838Z"/>
	<path fill="#74D4FB" transform="scale(2 2)" d="M129.158 370.713C130.323 369.526 144.111 362.504 146.76 361.428C147.792 369.22 148.296 376.522 143.771 383.37C134.583 394.568 121.253 381.437 129.158 370.713Z"/>
	<path fill="#1F96FE" transform="scale(2 2)" d="M129.158 370.713C134.128 376.739 132.435 381.709 143.771 383.37C134.583 394.568 121.253 381.437 129.158 370.713Z"/>
	<path fill="#74D4FB" transform="scale(2 2)" d="M159.63 421.21C162.419 418.512 173.805 413.447 177.918 411.247C178.308 417.547 179.867 427.655 174.782 432.519C165.22 444.264 152.208 432.551 159.63 421.21Z"/>
	<path fill="#1F96FE" transform="scale(2 2)" d="M159.63 421.21C163.445 428.319 166.507 432.284 174.782 432.519C165.22 444.264 152.208 432.551 159.63 421.21Z"/>
	<path fill="#74D4FB" transform="scale(2 2)" d="M336.695 371.503C341.607 365.618 346.959 362.139 354.497 360.489C354.534 367.666 355.342 375.768 350.908 381.925C342.884 392.658 328.313 383.923 336.695 371.503Z"/>
	<path fill="#1F96FE" transform="scale(2 2)" d="M336.695 371.503C340.181 378.577 343.111 381.504 350.908 381.925C342.884 392.658 328.313 383.923 336.695 371.503Z"/>
	<path fill="#74D4FB" transform="scale(2 2)" d="M228.64 421.21C231.738 417.813 242.254 412.375 246.727 411.247L246.703 411.521C246.162 418.525 248.241 426.51 243.431 432.519C234.373 443.415 220.078 431.449 228.64 421.21Z"/>
	<path fill="#1F96FE" transform="scale(2 2)" d="M228.64 421.21C233.923 432.295 236.159 429.516 243.431 432.519C234.373 443.415 220.078 431.449 228.64 421.21Z"/>
</svg>
