<?xml version="1.0" encoding="utf-8" ?>
<svg xmlns="http://www.w3.org/2000/svg" xmlns:xlink="http://www.w3.org/1999/xlink" width="1024" height="1024">
	<path fill="#FCFCFC" transform="scale(2 2)" d="M218.631 110.459C225.857 86.942 253.046 60.6102 276.17 53.0299C293.806 47.2487 303.559 49.6904 319.498 59.531C323.448 61.9698 327.554 64.2652 331.184 67.1713C331.834 67.6308 332.025 67.8976 332.359 68.6203C346.37 75.1416 356.593 79.8668 362.429 96.0599C363.503 99.0392 364.454 103.6 365.943 106.222C387.094 109.107 387.344 115.374 402.052 122.933C413.834 128.558 420.709 142.586 421.453 155.186C423.041 182.05 408.36 209.056 385.762 223.43C372.683 231.75 356.924 236.12 342.545 241.7L191.8 300.753C171.556 308.578 152.106 320.349 130.407 309.086C130.029 308.89 130.156 308.984 129.906 308.654C126.273 306.713 122.754 304.389 119.187 302.309C102.552 292.608 94.2838 287.76 90.6399 266.165C89.4893 260.904 91.7005 247.545 93.2767 242.159C99.081 222.326 112.371 200.437 132.251 192.038C134.229 191.202 136.452 190.506 138.317 189.457L138.71 189.232C138.788 188.369 139.035 187.471 139.221 186.624C146.39 154.004 177.959 112.578 215.481 121.032C216.156 117.387 217.242 113.891 218.631 110.459Z"/>
	<path fill="#CAD2DD" transform="scale(2 2)" d="M218.631 110.459C225.805 115.847 234.548 118.962 241.626 124.6C239.934 128.633 238.466 132.519 237.344 136.756C203.852 133.101 171.229 174.569 164.073 203.931C163.907 204.614 163.945 204.782 163.313 204.909L162.887 204.722C157.902 200.005 145.502 194.879 138.71 189.232C138.788 188.369 139.035 187.471 139.221 186.624C146.39 154.004 177.959 112.578 215.481 121.032C216.156 117.387 217.242 113.891 218.631 110.459Z"/>
	<path fill="#E3E3E3" transform="scale(2 2)" d="M90.6399 266.165C89.4893 260.904 91.7005 247.545 93.2767 242.159C99.081 222.326 112.371 200.437 132.251 192.038C134.229 191.202 136.452 190.506 138.317 189.457L138.71 189.232C145.502 194.879 157.902 200.005 162.887 204.722C134.08 218.455 115.044 247.761 117.127 280.173C118.082 292.846 122.198 299.533 129.906 308.654C126.273 306.713 122.754 304.389 119.187 302.309C102.552 292.608 94.2838 287.76 90.6399 266.165Z"/>
	<path fill="#CAD2DD" transform="scale(2 2)" d="M90.6399 266.165C90.6914 265.586 90.606 264.801 91.0012 264.374C98.8368 268.3 109.917 277.86 117.127 280.173C118.082 292.846 122.198 299.533 129.906 308.654C126.273 306.713 122.754 304.389 119.187 302.309C102.552 292.608 94.2838 287.76 90.6399 266.165Z"/>
	<path fill="#E3E3E3" transform="scale(2 2)" d="M218.631 110.459C225.857 86.942 253.046 60.6102 276.17 53.0299C293.806 47.2487 303.559 49.6904 319.498 59.531C323.448 61.9698 327.554 64.2652 331.184 67.1713L330.786 67.1041C327.53 66.5346 324.517 65.6075 321.167 65.357C291.164 63.114 263.193 88.681 248.476 112.45C246.151 116.205 243.907 121.229 241.626 124.6C234.548 118.962 225.805 115.847 218.631 110.459Z"/>
	<path fill="#CAD2DD" transform="scale(2 2)" d="M365.943 106.222C387.094 109.107 387.344 115.374 402.052 122.933C399.814 123.114 396.916 121.802 394.566 121.566C385.204 120.625 375.66 124.139 367.75 128.936C368.298 121.441 367.218 113.592 365.943 106.222Z"/>
	<path fill="#FEDE23" transform="scale(2 2)" d="M227.229 352.67C220.213 355.803 228.579 338.481 228.996 337.302C230.635 332.661 241.404 301.995 244.376 299.757C248.438 296.699 259.247 292.532 264.1 290.339C265.413 289.745 285.374 279.189 278.942 289.023C272.655 300.718 264.762 312.722 258.989 324.439C253.992 334.581 272.385 324.981 275.045 323.952C277.887 322.592 280.795 321.416 283.762 320.358C279.769 328.121 273.381 336.523 268.515 343.836C258.588 358.756 246.562 377.292 235.008 391.018C235.4 388.407 236.525 385.804 237.344 383.295C237.763 380.855 238.678 378.503 239.156 376.064C240.839 367.257 243.289 355.596 246.492 347.298C244.856 342.399 231.201 350.755 227.229 352.67Z"/>
	<path fill="#FEE68C" transform="scale(2 2)" d="M227.229 352.67C220.213 355.803 228.579 338.481 228.996 337.302C230.635 332.661 241.404 301.995 244.376 299.757C248.438 296.699 259.247 292.532 264.1 290.339C265.413 289.745 285.374 279.189 278.942 289.023C276.629 288.534 270.623 293.039 268.362 294.204L257.938 299.532C244.283 306.372 245.868 311.203 239.507 324.892L229.944 345.632C229.041 347.627 227.491 350.003 227.071 352.112L227.229 352.67Z"/>
	<path fill="#FE9E1D" transform="scale(2 2)" d="M275.045 323.952C277.887 322.592 280.795 321.416 283.762 320.358C279.769 328.121 273.381 336.523 268.515 343.836C258.588 358.756 246.562 377.292 235.008 391.018C235.4 388.407 236.525 385.804 237.344 383.295C239.702 382.549 246.856 368.3 248.688 365.254C252.207 359.405 274.481 326.56 275.045 323.952Z"/>
	<path fill="#FEE68C" transform="scale(2 2)" d="M246.492 347.298C247.174 347.889 248.025 348.576 248.193 349.523C248.602 351.821 242.146 375.148 239.156 376.064C240.839 367.257 243.289 355.596 246.492 347.298Z"/>
	<path fill="#86A7EB" transform="scale(2 2)" d="M200.298 419.146C202.368 421.677 212.774 442.187 213.069 445.415C213.78 453.188 207.503 458.005 200.298 458.395C175.621 456.503 192.1 429.125 200.298 419.146Z"/>
	<path fill="#2B4DA2" transform="scale(2 2)" d="M173.292 334.801C176.506 336.585 185.698 355.387 186.059 359.108C186.842 367.198 180.908 372.307 173.292 372.947C163.984 372.686 157.593 364.714 161.067 355.514C162.859 350.771 169.975 338.696 173.292 334.801Z"/>
	<path fill="#CAD2DD" transform="scale(2 2)" d="M263.574 391.018C264.048 391.489 264.47 392.098 264.895 392.619C269.44 398.743 277.689 412.14 276.622 419.165C275.396 427.234 263.068 431.4 256.967 426.687C242.206 418.818 256.83 399.719 263.574 391.018Z"/>
	<path fill="#86A7EB" transform="scale(2 2)" d="M263.574 391.018C264.048 391.489 264.47 392.098 264.895 392.619C261.278 401.184 254.703 409.393 254.95 419.103C255.004 421.249 257.297 425.303 256.967 426.687C242.206 418.818 256.83 399.719 263.574 391.018Z"/>
	<path fill="#86A7EB" transform="scale(2 2)" d="M315.641 397.929C305.175 388.362 314 377.542 319.831 368.313C320.988 366.483 322.026 364.084 323.566 362.596L323.973 362.711L324.16 363.093C328.261 371.405 338.612 384.586 335.349 393.942C332.989 400.705 320.416 403.767 315.641 397.929Z"/>
	<path fill="#557FE4" transform="scale(2 2)" d="M315.641 397.929C305.175 388.362 314 377.542 319.831 368.313C320.988 366.483 322.026 364.084 323.566 362.596L323.973 362.711C320.464 373.956 311.733 384.106 315.17 395.458C315.352 396.061 316.005 397.365 315.641 397.929Z"/>
	<path fill="#CAD2DD" transform="scale(2 2)" d="M381.697 332.238L382.841 334.801C386.846 342.445 395.154 353.873 392.506 363.013C390.775 368.989 378.94 373.25 374.458 368.736C361.583 360.203 375.268 340.664 381.697 332.238Z"/>
	<path fill="#86A7EB" transform="scale(2 2)" d="M381.697 332.238L382.841 334.801L378.016 344.585C375.08 350.514 370.682 358.273 373.056 365.082C373.45 366.211 374.327 367.593 374.458 368.736C361.583 360.203 375.268 340.664 381.697 332.238Z"/>
	<path fill="#CAD2DD" transform="scale(2 2)" d="M334.895 303.951C323.729 296.831 334.951 280.378 339.929 272.898C340.868 271.487 341.972 268.293 343.573 270.623C348.746 279.039 361.797 297.187 348.834 304.673C346.008 306.305 337.271 307.06 334.895 303.951Z"/>
	<path fill="#86A7EB" transform="scale(2 2)" d="M334.895 303.951C323.729 296.831 334.951 280.378 339.929 272.898C340.868 271.487 341.972 268.293 343.573 270.623C341.283 280.649 328.261 290.85 334.895 303.951Z"/>
</svg>
