<?xml version="1.0" encoding="utf-8" ?>
<svg xmlns="http://www.w3.org/2000/svg" xmlns:xlink="http://www.w3.org/1999/xlink" width="1024" height="1024">
	<path fill="#E5E5E4" transform="scale(2 2)" d="M280.211 136.86C284.594 133.34 289.073 129.903 293.949 127.082C355.929 91.2251 426.738 165.968 390.948 227.151C389.048 230.399 386.802 233.446 384.965 236.729C384.733 239.242 390.116 249.125 391.283 252.271C398.473 271.658 394.454 297.983 381.319 313.938C371.808 325.491 355.93 334.979 340.956 336.356C338.712 336.562 328.331 337.356 327.515 335.398C320.56 339.518 294.862 338.229 286.416 338.227L240.306 338.226C232.435 338.221 224.527 337.979 216.662 338.222C215.84 342.662 213.959 358.893 210.761 361.308C198.313 375.334 170.83 358.61 190.66 339.302C189.155 338.66 177.986 338.726 175.554 338.724L143.671 338.72C131.829 338.73 119.359 339.402 107.783 336.617C61.1024 325.386 47.434 267.803 83.7438 238.743C94.0786 230.472 104.393 228.507 117.203 227.203C116.851 185.827 159.691 167.235 187.511 195.962C188.225 194.738 188.783 193.395 189.387 192.113C190.688 188.296 190.901 184.242 192.422 180.424C198.366 165.496 211.147 149.427 226.181 142.913C223.314 139.403 223.585 133.98 228.639 132.517C232.614 131.367 238.113 134.994 241.512 136.86C254.929 131.945 277.902 137.675 280.211 136.86Z"/>
	<path fill="#FDFDFD" transform="scale(2 2)" d="M280.211 136.86C284.594 133.34 289.073 129.903 293.949 127.082C355.929 91.2251 426.738 165.968 390.948 227.151C389.048 230.399 386.802 233.446 384.965 236.729C384.733 239.242 390.116 249.125 391.283 252.271C398.473 271.658 394.454 297.983 381.319 313.938C371.808 325.491 355.93 334.979 340.956 336.356C338.712 336.562 328.331 337.356 327.515 335.398C329.135 334.13 331.72 333.301 333.592 332.366C362.348 318.007 370.909 276.55 352.493 250.905C341.356 235.397 328.874 229.071 310.358 226.066C308.764 222.526 307.718 218.729 306.313 215.106C290.645 174.721 237.949 153.485 202.028 180.929C197.598 184.314 193.936 188.491 189.614 191.935L189.387 192.113C190.688 188.296 190.901 184.242 192.422 180.424C198.366 165.496 211.147 149.427 226.181 142.913C223.314 139.403 223.585 133.98 228.639 132.517C232.614 131.367 238.113 134.994 241.512 136.86C254.929 131.945 277.902 137.675 280.211 136.86Z"/>
	<path fill="#FEC713" transform="scale(2 2)" d="M280.211 136.86C284.594 133.34 289.073 129.903 293.949 127.082C355.929 91.2251 426.738 165.968 390.948 227.151C389.048 230.399 386.802 233.446 384.965 236.729C370.51 221.6 360.054 205.461 334.751 205.811C329.885 177.629 323.367 157.406 294.819 142.865C290.116 140.469 284.865 139.351 280.211 136.86Z"/>
	<path fill="#FEEB9F" transform="scale(2 2)" d="M226.181 142.913C223.314 139.403 223.585 133.98 228.639 132.517C232.614 131.367 238.113 134.994 241.512 136.86C238.132 138.739 230.708 140.709 226.181 142.913Z"/>
	<path fill="#67BCFE" transform="scale(2 2)" d="M193.079 336.627C198.38 331.402 203.483 325.925 208.724 320.63C210.959 318.373 215.848 311.02 219.435 314.741C221.238 316.611 217.207 334.653 216.662 338.222C215.84 342.662 213.959 358.893 210.761 361.308C198.313 375.334 170.83 358.61 190.66 339.302C191.546 338.616 192.332 337.479 193.079 336.627Z"/>
	<path fill="#0AA3FC" transform="scale(2 2)" d="M193.079 336.627C192.687 338.901 191.553 340.933 190.839 343.105C188.14 351.317 193.833 360.125 202.125 361.775C204.58 362.264 210.114 360.983 210.761 361.308C198.313 375.334 170.83 358.61 190.66 339.302C191.546 338.616 192.332 337.479 193.079 336.627Z"/>
	<path fill="#AAE5F8" transform="scale(2 2)" d="M246.832 349.293C265.962 347.181 237.822 375.813 238.314 381.629C238.625 385.301 253.505 384.543 256.828 387.866C259.746 390.784 256.513 393.862 255.001 396.346C250.998 402.924 234.302 429.907 231.115 432.621C228.439 434.039 224.591 434.022 223.386 430.632C220.719 423.133 240.789 404.606 238.164 399.206C235.408 393.532 217.158 398.327 221.568 387.333C223.423 382.707 227.742 377.494 230.463 373.156L240.059 357.779C242.06 354.544 243.183 350.88 246.832 349.293Z"/>
	<path fill="#67BCFE" transform="scale(2 2)" d="M282.165 411.769L299.866 394.733C315.468 379.618 312.231 385.835 310.074 403.24L307.358 425.85C304.451 438.111 291.328 444.683 282.249 435.567C275.915 429.208 275.703 418.06 282.165 411.769Z"/>
	<path fill="#0AA3FC" transform="scale(2 2)" d="M282.165 411.769C284.58 418.322 283.62 436.271 298.834 431.367C302.547 430.17 304.356 427.092 307.358 425.85C304.451 438.111 291.328 444.683 282.249 435.567C275.915 429.208 275.703 418.06 282.165 411.769Z"/>
	<path fill="#FEEB9F" transform="scale(2 2)" d="M327.515 69.3C330.336 68.9083 333.065 69.9596 334.263 72.709C335.605 75.7917 337.25 93.9017 330.472 96.7184C320.638 97.231 322.914 79.5026 323.276 71.9824C324.643 70.9066 325.975 70.1035 327.515 69.3Z"/>
	<path fill="#FEEB9F" transform="scale(2 2)" d="M384.965 87.0274C388.725 87.1112 390.635 89.4937 391.624 92.9575C390.113 97.8238 384.38 109.178 379.044 110.778C363.331 110.931 379.168 88.2253 384.965 87.0274Z"/>
	<path fill="#FEEB9F" transform="scale(2 2)" d="M414.52 235.264C422.101 234.757 442.374 250.022 428.868 254.715C423.598 254.75 399.896 242.131 414.52 235.264Z"/>
	<path fill="#FEEB9F" transform="scale(2 2)" d="M271.224 89.067C277.203 88.3991 283.142 101.924 284.176 106.004C285.055 109.469 282.266 112.034 279.156 112.759C273.721 112.833 258.245 91.34 271.224 89.067Z"/>
	<path fill="#FEEB9F" transform="scale(2 2)" d="M426.575 131.775C430.955 131.346 435.451 135.577 433.074 140.04C431.059 143.825 421.825 147.74 417.76 148.921C411.196 150.874 407.752 143.024 412.732 138.927C415.504 136.646 423.08 133.293 426.575 131.775Z"/>
	<path fill="#FEEB9F" transform="scale(2 2)" d="M428.868 186.764C436.544 186.571 456.129 185.119 444.809 198.249C443.954 198.305 443.085 198.263 442.228 198.249C438.36 198.24 428.363 199.047 425.517 197.244C419.958 193.721 422.566 187.767 428.868 186.764Z"/>
</svg>
