<?xml version="1.0" encoding="utf-8" ?>
<svg xmlns="http://www.w3.org/2000/svg" xmlns:xlink="http://www.w3.org/1999/xlink" width="1024" height="1024">
	<path fill="#9BBDD3" transform="scale(2 2)" d="M304.191 74.4239C358.349 55.0824 415.231 76.8775 435.173 132.278C448.865 170.315 436.931 213.326 405.918 238.858C402.584 241.604 398.073 243.807 395.777 245.701C400.171 255.906 399.329 268.344 395.777 278.707C392.945 287.806 385.324 297.368 377.894 303.174C364.556 313.596 351.035 313.81 335.115 313.81L129.902 313.812C110.427 313.81 94.8614 312.443 81.7205 295.24C74.7112 286.064 70.1362 271.475 71.6527 259.936C74.1732 234.984 93.9339 211.267 120.245 211.834C120.212 207.301 120.208 202.95 121.22 198.499C125.968 177.614 148.073 162.158 169.426 167.103C180.154 130.313 218.802 107.56 256.144 114.531C256.293 111.846 258.12 110.984 259.668 109.035C269.832 96.2292 283.077 85.9402 297.367 78.1071C299.591 76.888 301.759 75.1935 304.191 74.4239Z"/>
	<path fill="#FDFDFE" transform="scale(2 2)" d="M304.191 74.4239C358.349 55.0824 415.231 76.8775 435.173 132.278C448.865 170.315 436.931 213.326 405.918 238.858C402.584 241.604 398.073 243.807 395.777 245.701C394.252 234.752 383.618 223.858 374.743 218.021C370.108 215.68 365.303 212.977 360.203 211.834C363.342 186.192 343.008 165.973 317.997 165.532C303.753 139.309 286.067 121.971 256.144 114.531C256.293 111.846 258.12 110.984 259.668 109.035C269.832 96.2292 283.077 85.9402 297.367 78.1071C299.591 76.888 301.759 75.1935 304.191 74.4239Z"/>
	<path fill="#D6DDE1" transform="scale(2 2)" d="M304.191 74.4239C358.349 55.0824 415.231 76.8775 435.173 132.278C448.865 170.315 436.931 213.326 405.918 238.858C402.584 241.604 398.073 243.807 395.777 245.701C394.252 234.752 383.618 223.858 374.743 218.021C376.504 215.216 377.984 212.025 379.371 209.016C403.765 156.088 378.657 86.6858 318.017 76.5109C314.191 75.8691 307.424 76.1752 304.191 74.4239Z"/>
	<path fill="#428FC0" transform="scale(2 2)" d="M169.426 167.103C180.154 130.313 218.802 107.56 256.144 114.531C286.067 121.971 303.753 139.309 317.997 165.532C343.008 165.973 363.342 186.192 360.203 211.834C365.303 212.977 370.108 215.68 374.743 218.021C383.618 223.858 394.252 234.752 395.777 245.701C400.171 255.906 399.329 268.344 395.777 278.707C394.874 277.164 395.62 274.31 395.704 272.6C396.954 247.403 380.434 223.435 355.42 218.021C359.918 191.006 340.963 171.528 314.337 172.241C308.417 153.214 285.307 130.656 266.558 124.741C226.674 112.159 185.488 134.011 173.057 173.941C150.208 167.932 128.08 184.135 126.315 207.426C126.023 211.273 126.361 215.194 126.268 219.059C82.3826 214.661 73.4987 260.47 71.9479 260.837L71.6527 259.936C74.1732 234.984 93.9339 211.267 120.245 211.834C120.212 207.301 120.208 202.95 121.22 198.499C125.968 177.614 148.073 162.158 169.426 167.103Z"/>
	<path fill="#D6DDE1" transform="scale(2 2)" d="M221.588 404.291C213.98 397.019 228.375 372.576 232.597 366.662C233.239 367.014 236.689 373.174 237.098 374.252C240.691 381.343 248.705 393.612 246.119 401.626C242.883 411.657 226.294 414.023 221.588 404.291Z"/>
	<path fill="#9BBDD3" transform="scale(2 2)" d="M237.098 374.252C240.691 381.343 248.705 393.612 246.119 401.626C242.883 411.657 226.294 414.023 221.588 404.291C223.505 404.588 225.219 404.249 227.03 403.604C245.849 396.9 234.577 379.613 237.098 374.252Z"/>
	<path fill="#D6DDE1" transform="scale(2 2)" d="M283.765 405.3C277.056 397.5 290.401 374.635 295.182 368.021C297.228 371.803 299.752 375.362 301.586 379.259C305.247 386.248 309.786 393.973 307.255 402.136C303.868 413.06 288.591 412.925 283.765 405.3Z"/>
	<path fill="#9BBDD3" transform="scale(2 2)" d="M283.765 405.3C284.586 405.054 285.625 405.254 286.491 405.27C308.907 405.69 300.08 382.158 301.586 379.259C305.247 386.248 309.786 393.973 307.255 402.136C303.868 413.06 288.591 412.925 283.765 405.3Z"/>
	<path fill="#428FC0" transform="scale(2 2)" d="M262.958 402.949C266.148 405.764 272.94 418.274 274.679 422.488C278.945 432.83 274.687 443.159 262.958 443.991C256.824 443.566 251.687 440.295 249.834 434.165C246.531 423.233 257.938 412.131 262.958 402.949Z"/>
	<path fill="#FDFDFE" transform="scale(2 2)" d="M258.853 415.207C265.019 417.842 258.891 429.528 254.994 431.695C248.739 428.097 254.576 418.037 258.853 415.207Z"/>
	<path fill="#428FC0" transform="scale(2 2)" d="M165.148 369.41C176.129 379.378 190.93 402.298 166.817 406.556L166.474 406.572C158.623 406.868 151.594 401.815 151.538 393.539C151.472 383.677 158.727 376.017 165.148 369.41Z"/>
	<path fill="#9BBDD3" transform="scale(2 2)" d="M155.496 387.538C156.487 382.793 158.962 379.033 163.241 376.72C164.802 382.312 164.66 387.139 160.606 391.461C156.298 395.359 154.407 392.8 155.496 387.538Z"/>
	<path fill="#D6DDE1" transform="scale(2 2)" d="M155.496 387.538C157.208 388.187 160.725 389.278 160.606 391.461C156.298 395.359 154.407 392.8 155.496 387.538Z"/>
	<path fill="#D6DDE1" transform="scale(2 2)" d="M188.083 438.678C182.934 430.972 195.799 407.991 200.407 404.291C201.466 405.869 202.745 407.28 203.603 408.989C207.386 416.278 215.442 427.355 212.686 435.706C208.713 447.744 192.166 448.334 188.083 438.678Z"/>
	<path fill="#9BBDD3" transform="scale(2 2)" d="M188.083 438.678L188.506 438.34L189.054 438.784C193.967 439.858 201.013 435.6 203.63 431.779C208.852 424.154 201.026 412.295 203.603 408.989C207.386 416.278 215.442 427.355 212.686 435.706C208.713 447.744 192.166 448.334 188.083 438.678Z"/>
	<path fill="#428FC0" transform="scale(2 2)" d="M199.589 335.927C203.886 337.718 212.197 351.268 212.777 355.778C213.904 364.552 208.337 371.756 199.589 372.778C191.223 372.787 184.867 365.7 185.759 357.382C186.54 350.096 194.033 340.477 199.589 335.927Z"/>
	<path fill="#D6DDE1" transform="scale(2 2)" d="M194.725 345.648C196.317 345.89 197.211 347.653 197.871 348.944C197.748 352.615 196.757 360.054 192.013 360.151C185.199 357.482 190.517 348.164 194.725 345.648Z"/>
	<path fill="#D6DDE1" transform="scale(2 2)" d="M252.574 366.067C242.852 360.798 259.696 332.996 262.958 327.794C264.138 331.653 266.999 334.793 268.607 338.482C272.019 345.289 276.951 353.578 274.508 361.442C271.538 371.006 259.519 372.393 252.574 366.067Z"/>
	<path fill="#9BBDD3" transform="scale(2 2)" d="M268.607 338.482C272.019 345.289 276.951 353.578 274.508 361.442C271.538 371.006 259.519 372.393 252.574 366.067C255.529 364.934 260.122 367.81 264.935 364.087C274.729 356.509 267.605 343.28 268.607 338.482Z"/>
	<path fill="#D6DDE1" transform="scale(2 2)" d="M123.813 365.361C117.963 356.91 129.627 338.821 134.97 332.898C136.988 335.57 139.393 338.082 141.055 340.999C161.974 373.445 128.479 375.513 123.813 365.361Z"/>
	<path fill="#9BBDD3" transform="scale(2 2)" d="M141.055 340.999C161.974 373.445 128.479 375.513 123.813 365.361C124.483 365.124 125.164 365.307 125.851 365.33C137.123 365.705 143.168 356.626 141.921 345.926C141.723 344.229 140.944 342.753 141.055 340.999Z"/>
	<path fill="#D6DDE1" transform="scale(2 2)" d="M325.149 328.68C325.846 331.601 329.498 333.778 329.903 336.697C333.104 340.989 338.341 353.011 337.608 358.288C336.221 368.271 322.527 372.297 315.49 365.361C307.717 356.626 319.898 336.206 325.149 328.68Z"/>
	<path fill="#9BBDD3" transform="scale(2 2)" d="M329.903 336.697C333.104 340.989 338.341 353.011 337.608 358.288C336.221 368.271 322.527 372.297 315.49 365.361C335.804 364.1 333.657 353.705 329.903 336.697Z"/>
</svg>
