<?xml version="1.0" encoding="utf-8" ?>
<svg xmlns="http://www.w3.org/2000/svg" xmlns:xlink="http://www.w3.org/1999/xlink" width="1078" height="1078">
	<path fill="#E0E1E3" transform="scale(2.10481 2.10481)" d="M255.365 125.825C264.62 78.1434 316.756 42.086 364.145 54.4896C307.81 88.4614 350.18 177.654 415.192 154.975C424.314 151.358 426.965 147.918 434.248 142.849C434.293 172.454 429.471 193.457 407.297 215.815C403.818 219.323 395.024 226.942 390.602 228.548C411.595 261.865 393.74 310.796 353.402 314.533C349.375 314.906 345.037 314.466 340.966 314.462L152.027 313.629C145.313 313.643 135.201 314.866 128.981 313.355C104.057 307.299 87.4243 287.586 81.6936 263.335C81.2164 261.316 80.4439 259.035 80.4619 256.935L80.1769 256.962C78.8504 251.319 80.6875 239.269 80.1769 237.94C79.5839 235.289 84.3573 223.878 85.8184 221.133C93.5306 206.647 106.885 194.826 122.283 189.272C133.463 185.239 130.957 191.031 135.253 177.083C142.67 153.001 167.933 129.507 192.026 122.134C208.809 116.998 231.412 117.189 248.013 122.867C250.184 123.609 256.451 127.801 258.194 127.165L255.365 125.825Z"/>
	<path fill="#53679D" transform="scale(2.10481 2.10481)" d="M255.365 125.825C264.62 78.1434 316.756 42.086 364.145 54.4896C307.81 88.4614 350.18 177.654 415.192 154.975C424.314 151.358 426.965 147.918 434.248 142.849C434.293 172.454 429.471 193.457 407.297 215.815C403.818 219.323 395.024 226.942 390.602 228.548C388.491 224.396 384.575 220.53 381.163 217.416C374.636 211.775 367.69 208.266 359.739 205.133C357.268 204.332 354.635 203.987 352.063 203.692C357.311 169.411 325.335 147.445 297.671 167.262C296.56 165.264 295.277 163.36 294.038 161.441C286.023 149.022 272.294 133.098 258.194 127.165L255.365 125.825Z"/>
	<path fill="#415694" transform="scale(2.10481 2.10481)" d="M434.248 142.849C434.293 172.454 429.471 193.457 407.297 215.815C403.818 219.323 395.024 226.942 390.602 228.548C388.491 224.396 384.575 220.53 381.163 217.416C382.674 215.842 384.574 214.494 386.225 213.046C401.845 199.337 416.188 176.562 415.192 154.975C424.314 151.358 426.965 147.918 434.248 142.849Z"/>
	<path fill="#415694" transform="scale(2.10481 2.10481)" d="M294.038 161.441C295.222 158.719 301.564 155.824 304.352 154.727C326.018 146.203 350.249 158.007 358.245 179.458C362.118 189.847 360.149 194.925 359.739 205.133C357.268 204.332 354.635 203.987 352.063 203.692C357.311 169.411 325.335 147.445 297.671 167.262C296.56 165.264 295.277 163.36 294.038 161.441Z"/>
	<path fill="#CBCFDE" transform="scale(2.10481 2.10481)" d="M359.739 214.273L360.235 214.279C378.098 225.528 386.958 248.499 383.145 269.015C382.903 270.317 382.751 272.072 382.128 273.22L381.908 273.105C382.705 269.96 383.449 267.036 383.75 263.774C384.502 261.305 383.391 250.686 382.72 248.093C381.147 242.009 379.856 245.139 377.101 242.902C375.755 241.809 377.053 241.597 376.931 240.21L376.385 240.169C372.088 242.515 370.477 235.193 367.538 232.019C363.722 234.441 355.645 223.501 362.74 219.698C362.378 218.175 360.166 217.537 360.325 215.796L360.982 215.423C360.848 214.86 360.206 214.602 359.739 214.273Z"/>
	<path fill="#9CCCFD" transform="scale(2.10481 2.10481)" d="M348.594 334.369C358.793 344.127 373.944 363.768 365.877 378.731C354.919 400.854 302.381 385.071 343.299 339.685C344.905 337.789 346.541 335.803 348.594 334.369Z"/>
	<path fill="#669EFD" transform="scale(2.10481 2.10481)" d="M343.299 339.685C343.936 339.387 344.582 339.132 345.109 338.654C340.705 349.008 329.652 358.922 335.221 372.45C343.794 393.276 363.626 378.412 365.877 378.731C354.919 400.854 302.381 385.071 343.299 339.685Z"/>
	<path fill="#9CCCFD" transform="scale(2.10481 2.10481)" d="M261.167 380.36C246.441 400.558 213.93 382.895 229.804 354.998C232.482 350.291 241.228 336.838 246.209 335.472C253.158 342.929 272.692 371.023 261.167 380.36Z"/>
	<path fill="#669EFD" transform="scale(2.10481 2.10481)" d="M261.167 380.36C246.441 400.558 213.93 382.895 229.804 354.998C232.482 350.291 241.228 336.838 246.209 335.472C241.858 345.349 226.58 355.312 232.022 371.806C234.94 380.647 245.407 386.429 254.401 383.346C256.326 382.686 259.384 380.565 261.167 380.36Z"/>
	<path fill="#9CCCFD" transform="scale(2.10481 2.10481)" d="M194.359 400.665C202.918 408.425 212.484 422.557 213.028 434.237C213.149 436.855 212.816 442.495 210.69 444.326C197.717 467.632 148.631 446.869 191.93 402.826C192.622 401.958 193.486 401.339 194.359 400.665Z"/>
	<path fill="#669EFD" transform="scale(2.10481 2.10481)" d="M191.93 402.826L192.41 403.242C191.73 405.448 189.235 407.921 187.924 409.896C182.381 418.246 176.443 430.297 181.475 439.869C186.118 448.702 196.872 451.781 205.552 446.96C207.195 446.048 208.865 444.801 210.69 444.326C197.717 467.632 148.631 446.869 191.93 402.826Z"/>
	<path fill="#9CCCFD" transform="scale(2.10481 2.10481)" d="M140.158 338.519C145.083 332.544 150.221 342.123 153.541 346.709C158.816 353.998 166.724 370.034 160.691 378.731C151.173 396.56 123.699 388.57 124.159 368.376C124.388 358.335 133.077 345.249 140.158 338.519Z"/>
	<path fill="#669EFD" transform="scale(2.10481 2.10481)" d="M140.158 338.519C141.257 342.675 126.054 356.204 129.754 369.862C132.338 379.402 142.157 385.806 151.847 382.895C154.283 382.163 159.269 378.695 160.691 378.731C151.173 396.56 123.699 388.57 124.159 368.376C124.388 358.335 133.077 345.249 140.158 338.519Z"/>
	<path fill="#669EFD" transform="scale(2.10481 2.10481)" d="M295.89 401.647C301.921 402.403 314.403 427.632 314.632 435.312C314.949 445.94 306.418 454.065 295.89 454.278C283.779 454.352 273.723 443.327 276.558 431.238C278.625 422.424 288.015 406.533 295.89 401.647Z"/>
	<path fill="#CBCFDE" transform="scale(2.10481 2.10481)" d="M80.1769 237.94C80.6875 239.269 78.8504 251.319 80.1769 256.962C83.2288 278.878 95.6453 299.159 115.95 309.094C119.731 310.944 123.868 311.577 127.558 313.346C125.28 313.676 120.045 311.796 117.73 311.035C89.1711 301.646 70.8095 266.304 80.1769 237.94Z"/>
</svg>
