<?xml version="1.0" encoding="utf-8" ?>
<svg xmlns="http://www.w3.org/2000/svg" xmlns:xlink="http://www.w3.org/1999/xlink" width="1024" height="1024">
	<path fill="#D9EBEF" transform="scale(2 2)" d="M133.929 152.749C135.443 148.991 135.714 144.749 136.432 140.783C145.777 89.1758 201.709 57.6503 251.537 74.2485C276.212 82.468 293.623 100.417 304.976 123.109L305.273 122.968C309.785 120.795 313.874 117.998 318.544 116.101C355.648 101.03 399.208 126.687 402.569 167.654C407.834 168.417 420.031 171.085 424.307 174.087C439.555 181.813 449.254 193.87 455.172 209.682C466.762 245.363 447.526 286.344 411.319 297.98C401.285 301.205 391.498 301.893 381.036 301.789C379.134 302.055 376.932 301.834 375.005 301.822L319.625 301.789C305.655 302.083 291.61 301.79 277.634 301.791L158.485 301.697C128.064 301.947 104.715 305.027 80.2493 283.701C67.2056 272.332 56.7448 249.381 55.5917 232.05C53.106 194.687 78.403 157.715 116.752 153.197C122.518 152.518 128.178 153.106 133.929 152.749Z"/>
	<path fill="#AEDBE6" transform="scale(2 2)" d="M304.976 123.109L305.273 122.968C309.785 120.795 313.874 117.998 318.544 116.101C355.648 101.03 399.208 126.687 402.569 167.654C407.834 168.417 420.031 171.085 424.307 174.087C439.555 181.813 449.254 193.87 455.172 209.682C466.762 245.363 447.526 286.344 411.319 297.98C401.285 301.205 391.498 301.893 381.036 301.789C379.134 302.055 376.932 301.834 375.005 301.822L319.625 301.789C320.027 298.473 320.871 295.428 322.285 292.403C325.397 291.235 328.861 290.78 332.06 289.812C409.086 266.505 397.11 146.033 310.885 141.966L310.066 138.204C308.586 133.049 306.885 128.113 304.976 123.109Z"/>
	<path fill="#AADCEA" transform="scale(2 2)" d="M304.976 123.109L305.273 122.968C309.785 120.795 313.874 117.998 318.544 116.101C355.648 101.03 399.208 126.687 402.569 167.654C407.834 168.417 420.031 171.085 424.307 174.087C439.555 181.813 449.254 193.87 455.172 209.682C450.051 213.24 444.829 216.79 439.989 220.725L439.989 220.725C429.098 226.509 419.899 232.791 408.207 238.339C420.273 177.515 375.673 132.624 315.969 137.289C314.42 137.41 311.346 137.397 310.066 138.204C308.586 133.049 306.885 128.113 304.976 123.109Z"/>
	<path fill="#AEDBE6" transform="scale(2 2)" d="M424.307 174.087C439.555 181.813 449.254 193.87 455.172 209.682C450.051 213.24 444.829 216.79 439.989 220.725C439.291 206.008 438.671 197 430.276 183.549C428.747 181.099 424.74 176.712 424.307 174.087Z"/>
	<path fill="#AADCEA" transform="scale(2 2)" d="M439.989 220.725C444.829 216.79 450.051 213.24 455.172 209.682C466.762 245.363 447.526 286.344 411.319 297.98C401.285 301.205 391.498 301.893 381.036 301.789C377.467 301.38 373.762 302.051 370.159 301.789C374.263 297.628 381.576 294.018 386.741 290.993C416.21 273.736 438.85 259.267 439.989 220.725L439.989 220.725Z"/>
	<path fill="#AADCEA" transform="scale(2 2)" d="M172.828 312.277C175.3 312.113 176.359 313.073 177.513 315.234C177.818 318.971 177.719 322.641 177.513 326.377C180.012 324.784 187.519 319.361 188.731 325.884C189.482 329.92 179.027 335.027 176.685 338.105L176.685 354.207C181.815 351.187 186.748 347.979 191.968 345.063C192.235 341.799 191.578 334.343 194.075 331.945C199.37 326.86 200.354 335.904 200.23 339.301C203.187 337.027 206.08 334.679 209.583 333.305L212.027 334.422C213.811 336.405 214.002 338.179 213.663 340.795C210.793 343.481 206.73 344.748 203.594 347.219C212.056 349.457 214.401 361.615 194.856 351.41C189.912 353.588 185.121 356.53 180.537 359.384C185.531 361.56 189.911 364.962 194.856 367.223C197.78 365.951 204.116 361.15 207.359 363.315C213.342 367.31 205.187 370.405 204.221 371.439L204.251 371.946C206.574 375.139 213.554 375.652 213.982 380.148C214.236 382.825 211.48 385.283 208.953 385.458C206.141 385.653 202.215 381.477 200.23 379.678C199.992 381.79 200.498 385.559 199.347 387.315C198.23 389.019 194.626 389.557 193.114 388.199C191.371 386.634 191.961 375.414 191.968 372.948C186.674 370.565 181.732 367.135 176.685 364.256L176.685 379.678C178.497 381.407 195.057 390.63 184.993 393.22C181.989 393.993 179.882 391.935 177.513 390.456C177.495 393.181 178.314 398.716 176.579 400.855C174.072 403.945 169.644 402.549 169.652 398.312C169.411 395.624 169.392 393.15 169.652 390.456C167.456 391.557 164.31 394.357 161.83 394.112C160.005 393.932 158.145 391.409 158.449 389.608C158.987 386.426 167.282 381.581 170.015 379.678C170.033 374.61 170.357 369.272 169.652 364.256C165.128 367.408 160.206 370.074 155.497 372.948C155.502 376.387 156.292 383.974 153.961 386.495C148.753 392.129 147.62 382.259 147.755 378.722C144.795 380.189 135.261 389.377 132.541 384.079C128.852 376.894 138.524 375.036 143.264 372.948C141.242 371.714 131.203 366.569 138.861 363.116C141.678 361.845 149.588 366.059 152.651 367.223C157.033 364.328 161.635 361.781 166.305 359.384C162.109 356.431 157.323 353.534 152.651 351.41C148.895 352.242 141.537 356.881 138.867 355.769C133.413 353.497 138.277 348.299 144.192 347.219C141.303 344.968 132.812 342.909 132.19 338.917C131.825 336.57 133.801 333.765 136.236 333.615C139.96 333.387 145.095 338.386 147.755 340.795C147.753 338.223 147.057 334.05 148.852 332.012C150.129 330.563 153.503 330.075 154.827 331.717C156.062 333.249 155.513 342.64 155.497 345.063C160.15 348.414 165.456 350.761 170.015 354.207L170.015 337.093C166.693 334.596 160.49 330.787 158.187 327.45C160.633 319.558 165.312 323.453 169.652 327.45C169.861 322.596 167.272 314.617 172.828 312.277Z"/>
	<path fill="#D9EBEF" transform="scale(2 2)" d="M287.767 376.748C284.992 375.104 276.573 371.055 275.946 368.048C274.224 359.781 286.816 368.089 286.896 368.11C288.316 364.874 285.122 355.8 289.413 354.304C295.071 352.332 293.376 365.448 293.35 368.058C296.072 367.207 300.934 364.36 303.591 365.4C308.25 369.626 294.466 374.932 292.204 376.748C292.32 380.92 292.059 385.1 292.204 389.267C308.878 395.826 305.63 378.8 308.567 370.402L308.757 369.845C318.105 368.26 314.552 373.801 314.855 379.622C318.804 382.692 322.501 369.276 328.673 373.407C335.712 378.12 323.002 384.001 319.625 385.439C324.571 386.42 330.514 390.536 324.183 393.441C321.014 394.895 311.886 391.711 308.757 390.456C305.969 391.833 303.101 393.133 300.558 394.941C300.759 401.562 300.619 406.967 309.886 405.718C313.542 405.225 326.234 399.289 326.913 406.371C327.16 408.95 322.76 410.422 320.965 411.21C324.336 412.034 335.135 416.194 327.562 420.007C324.062 421.769 318.46 417.89 315.511 416.257C315.528 419.946 315.859 423.04 312.888 425.688C305.302 427.472 307.142 418.232 306.727 411.902C304.054 410.041 301.577 408.348 298.433 407.399C296.213 407.345 294.378 407.554 292.204 408.067C290.238 423.401 296.365 419.953 304.976 429.376C299.657 432.942 299.624 433.356 294.547 429.705C293.084 430.864 294.58 433.748 294.995 435.146C294.464 436.763 293.996 438.455 293.35 440.028C291.982 440.263 290.545 440.433 289.208 440.794C282.966 442.716 285.332 432.422 285.586 429.376C283.347 431.48 281.195 432.515 278.262 433.346C271.93 427.356 283.381 422.376 287.767 419.32C288.414 415.828 288.352 412.509 287.767 409.024C285.669 406.774 283.409 406.281 280.411 406.251C280.856 405.898 281.435 405.736 281.794 405.298C281.844 402.477 282.313 393.202 281.877 391.189C284.441 391.453 286.078 390.312 287.191 388.101C287.959 384.25 287.582 380.614 287.767 376.748Z"/>
	<path fill="#AADCEA" transform="scale(2 2)" d="M287.767 419.32C288.476 421.131 288.962 437.24 289.208 440.794C282.966 442.716 285.332 432.422 285.586 429.376C283.347 431.48 281.195 432.515 278.262 433.346C271.93 427.356 283.381 422.376 287.767 419.32Z"/>
	<path fill="#34C6E7" transform="scale(2 2)" d="M362.529 317.599C365.557 318.533 364.578 322.518 364.401 324.938C372.1 318.395 372.263 324.163 364.401 329.189C364.218 332.146 364.359 335.143 364.401 338.105C366.921 336.645 369.261 335 371.624 333.305C372.518 328.285 376.289 318.305 376.383 330.791C384.822 324.879 385.206 330.203 377.947 333.305C384.272 338.66 380.543 339.955 374.755 335.916C371.987 337.275 369.36 339.235 366.679 340.795C369.037 342.057 371.251 343.677 373.544 345.063C375.467 344.243 378.511 341.258 380.697 342.425C382.199 344.622 379.584 346.096 377.947 347.219C378.636 347.673 386.925 352.247 381.347 352.94C379.559 353.162 377.644 351.251 376.383 350.188C376.243 360.047 371.252 355.891 372.479 348.785C369.637 347.457 367.337 345.261 364.401 343.982C364.292 347.063 364.392 350.18 364.401 353.264C366.289 354.316 370.504 356.889 369.834 359.597L369.282 359.886C367.205 359.76 366.009 358.642 364.401 357.442C364.497 359.913 364.734 362.043 363.401 364.256C360.555 363.543 360.621 359.812 360.517 357.442C354.237 362.929 352.846 358.852 360.517 353.264C360.597 350.177 360.523 347.071 360.517 343.982C358.254 345.389 356.146 347.11 354.076 348.785C353.475 350.29 352.498 358.83 349.355 355.201C348.881 353.422 349.256 351.939 349.635 350.188C343.596 355.128 339.996 352.006 348.111 347.219C347.489 346.88 340.819 343.714 345.165 342.437C346.997 341.899 350.987 344.241 352.662 345.063C354.843 343.606 357.032 342.177 359.262 340.795C356.489 339.424 353.865 337.577 351.251 335.916C346.001 340.548 340.75 338.274 348.111 333.305C339.785 330.206 341.048 325.971 349.635 330.791C348.642 322.114 352.479 325.445 354.076 333.305C356.2 334.616 358.315 335.916 360.517 337.093C360.641 334.434 360.629 331.845 360.517 329.189C353.007 323.596 353.81 318.484 360.517 324.938C360.524 322.599 360.417 319.098 362.529 317.599Z"/>
	<path fill="#AADCEA" transform="scale(2 2)" d="M266.877 382.243C266.31 379.652 265.194 373.313 266.998 371.116C273.79 362.846 273.034 386.321 273.132 387.523C276.007 388.907 278.827 390.232 281.877 391.189C282.313 393.202 281.844 402.477 281.794 405.298C281.435 405.736 280.856 405.898 280.411 406.251C277.631 407.503 275.029 409.508 272.506 411.21C272.728 414.915 274.528 426.554 269.324 426.187C264.57 425.852 265.98 419.378 266.274 416.257C263.496 417.842 257.362 423.067 254.408 422.476C252.39 422.072 251.553 419.38 252.154 417.617C253.143 414.714 259.58 412.493 262.247 411.21C258.104 410.101 250.484 405.195 256.794 402.594C258.762 401.783 269.081 406.41 271.582 407.399C273.965 406.399 276.101 404.963 278.262 403.566L278.262 394.941C276.27 392.697 274.295 391.599 271.582 390.456C268.434 391.344 255.939 398.718 254.858 394.009C253.769 389.261 258.553 388.233 262.247 387.523C259.89 385.41 252.608 382.242 252.074 380.353C251.503 378.332 252.452 375.743 254.672 375.283C257.401 374.718 264.43 380.497 266.877 382.243Z"/>
</svg>
