<?xml version="1.0" encoding="utf-8" ?>
<svg xmlns="http://www.w3.org/2000/svg" xmlns:xlink="http://www.w3.org/1999/xlink" width="1024" height="1024">
	<path fill="#E1E0E1" transform="scale(2 2)" d="M187.295 139.149C199.188 101.836 236.268 82.5519 274.223 89.0522C294.813 93.0854 312.481 104.04 324.305 121.567C325.457 123.274 331.273 135.432 332.351 135.691L332.575 135.477C339.298 119.323 355.967 109.505 373.272 109.767C411.95 110.374 432.731 156.593 406.853 186.553L407.048 186.965C444.766 204.097 449.108 261.892 413.23 284.323C394.481 296.045 371.275 293.223 350.189 293.223L142.002 293.227C124.743 293.168 113.078 293.385 98.0944 282.947C60.8633 257.009 69.3098 197.491 114.169 184.845C118.835 183.53 123.661 182.934 128.431 182.121C140.946 156.912 156.48 140.086 187.295 139.149Z"/>
	<path fill="#FED01E" transform="scale(2 2)" d="M373.272 109.767C411.95 110.374 432.731 156.593 406.853 186.553C402.065 183.325 396.171 182.201 390.597 181.121C384.442 158.251 373.926 142.914 349.107 136.917C342.436 135.252 337.66 136.383 332.575 135.477C339.298 119.323 355.967 109.505 373.272 109.767Z"/>
	<path fill="#FDB107" transform="scale(2 2)" d="M332.575 135.477C339.298 119.323 355.967 109.505 373.272 109.767C370.445 117.483 353.423 128.965 349.107 136.917C342.436 135.252 337.66 136.383 332.575 135.477Z"/>
	<path fill="#CDF4F8" transform="scale(2 2)" d="M263.653 316.696C264.644 318.474 255.011 353.073 253.902 358.512C268.179 357.731 282.469 356.597 296.64 354.676C293.512 359.246 289.789 363.397 286.423 367.792L261.454 400.071C257.404 405.273 253.172 410.333 249.282 415.658C248.256 417.001 247.385 418.532 246.469 419.956C250.328 404.508 255.62 388.325 258.911 373.145C254.449 373.335 249.918 373.164 245.449 373.158L217.311 373.145C220.517 369.126 224.005 365.353 227.269 361.386L254.001 328.634C257.237 324.631 260.57 320.843 263.653 316.696Z"/>
	<defs>
		<linearGradient id="gradient_0" gradientUnits="userSpaceOnUse" x1="159.98988" y1="406.59506" x2="190.33934" y2="401.358">
			<stop offset="0" stop-color="#499EE4"/>
			<stop offset="1" stop-color="#67BCF9"/>
		</linearGradient>
	</defs>
	<path fill="url(#gradient_0)" transform="scale(2 2)" d="M183.518 385.533C194.558 384.902 185.034 409.863 183.178 414.261C180.251 421.195 173.906 422.838 167.269 419.956C162.215 417.114 158.373 411.181 160.592 405.261C162.032 401.42 179.86 387.278 183.518 385.533Z"/>
	<defs>
		<linearGradient id="gradient_1" gradientUnits="userSpaceOnUse" x1="329.27908" y1="340.4726" x2="357.22488" y2="338.53088">
			<stop offset="0" stop-color="#4D9DDE"/>
			<stop offset="1" stop-color="#60B9FB"/>
		</linearGradient>
	</defs>
	<path fill="url(#gradient_1)" transform="scale(2 2)" d="M352.046 321.32C354.158 321.458 355.904 321.928 356.721 324.136C357.796 327.043 352.499 348.929 350.827 352.404C348.234 357.793 340.202 358.374 335.418 356.005C330.185 352.885 327.397 346.453 330.563 340.852C332.329 337.73 348.324 322.37 352.046 321.32Z"/>
	<path fill="#57ADEF" transform="scale(2 2)" d="M323.394 385.533C333.851 384.781 322.927 413.408 321.185 416.574C318.437 421.571 311.331 422.561 306.661 419.956C291.079 413.479 305.72 399.701 312.525 393.59C315.877 390.58 318.985 386.96 323.394 385.533Z"/>
	<defs>
		<linearGradient id="gradient_2" gradientUnits="userSpaceOnUse" x1="167.45213" y1="345.05002" x2="197.36549" y2="334.5571">
			<stop offset="0" stop-color="#489BE0"/>
			<stop offset="1" stop-color="#5EB9FB"/>
		</linearGradient>
	</defs>
	<path fill="url(#gradient_2)" transform="scale(2 2)" d="M189.033 321.32C191.983 321.183 193.324 322.198 194.743 324.821C195.02 332.509 191.281 350.321 185.432 354.761C182.216 357.202 178.462 356.623 174.788 356.005C168.411 351.822 165.037 345.145 170.034 338.634C173.178 334.536 184.864 323.687 189.033 321.32Z"/>
</svg>
