<?xml version="1.0" encoding="utf-8" ?>
<svg xmlns="http://www.w3.org/2000/svg" xmlns:xlink="http://www.w3.org/1999/xlink" width="1024" height="1024">
	<path fill="#E4E4E2" transform="scale(2 2)" d="M287.776 137.694C285.161 105.179 314.142 75.9644 343.736 67.2402C349.242 65.6173 362.776 61.3176 362.447 71.4914C362.302 75.9897 357.592 78.1819 354.684 80.9208C334.601 106.297 340.282 142.337 365.282 162.075C382.406 175.594 410.823 178.87 429.688 166.637C441.795 158.239 446.176 163.433 442.918 176.122C436.062 202.823 416.616 216.692 392.802 226.177C403.841 253.924 396.526 288.33 366.582 300.039C356.595 303.945 345.86 303.014 335.365 303.008L164.039 302.99C159.159 302.991 145.932 303.446 141.771 302.473C119.705 302.228 102.684 305.785 84.4252 289.652C53.9205 262.699 68.5985 210.467 109.911 204.692C113.001 204.26 116.023 204.294 119.119 204.131C118.375 171.95 142.793 151.748 173.493 160.426C174.592 159.543 176.132 155.675 176.918 154.243C195.036 121.226 235.642 108.017 269.435 124.249C279.158 128.919 280.268 131.804 287.393 137.398L287.776 137.694Z"/>
	<path fill="#FED31A" transform="scale(2 2)" d="M287.776 137.694C285.161 105.179 314.142 75.9644 343.736 67.2402C349.242 65.6173 362.776 61.3176 362.447 71.4914C362.302 75.9897 357.592 78.1819 354.684 80.9208C334.601 106.297 340.282 142.337 365.282 162.075C382.406 175.594 410.823 178.87 429.688 166.637C441.795 158.239 446.176 163.433 442.918 176.122C436.062 202.823 416.616 216.692 392.802 226.177C391.419 222.566 389.153 219.371 386.954 216.218C381.598 209.333 373.681 203.447 365.316 200.866C360.864 199.492 355.147 200.355 356.362 195.422C363.025 168.364 337.32 142.523 309.949 153.254C305.985 154.808 302.497 158.756 300.69 155.354C296.278 149.59 294.249 141.843 287.776 137.694Z"/>
	<path fill="#FEC04A" transform="scale(2 2)" d="M287.776 137.694C285.161 105.179 314.142 75.9644 343.736 67.2402C349.242 65.6173 362.776 61.3176 362.447 71.4914C362.302 75.9897 357.592 78.1819 354.684 80.9208C353.801 80.1727 353.364 80.0376 352.181 80.1485C320.837 83.0864 298.148 117.129 301.758 147.531C302.085 150.282 303.312 153.055 300.963 155.117L300.69 155.354C296.278 149.59 294.249 141.843 287.776 137.694Z"/>
	<path fill="#FEC04A" transform="scale(2 2)" d="M429.688 166.637C441.795 158.239 446.176 163.433 442.918 176.122C436.062 202.823 416.616 216.692 392.802 226.177C391.419 222.566 389.153 219.371 386.954 216.218C389.884 213.184 400.742 209.334 405.211 206.39C417.872 198.052 427.968 182.962 431 168.31C430.633 167.706 430.142 167.177 429.688 166.637Z"/>
	<path fill="#ABADB0" transform="scale(2 2)" d="M119.119 204.131C118.375 171.95 142.793 151.748 173.493 160.426C168.809 171.691 166.103 181.481 167.202 194.079C151.063 194.437 149.329 197.954 140.757 208.718C138.247 217.822 138.877 223.876 143.513 232.035L143.86 232.643C102.021 239.739 102.41 289.123 135.99 300.501C137.853 301.132 140.084 301.479 141.771 302.473C119.705 302.228 102.684 305.785 84.4252 289.652C53.9205 262.699 68.5985 210.467 109.911 204.692C113.001 204.26 116.023 204.294 119.119 204.131Z"/>
	<path fill="#83D8F9" transform="scale(2 2)" d="M340.823 319.183C346.059 319.427 343.924 331.193 344.015 334.717C345.717 333.494 347.165 331.217 348.989 330.359C350.697 329.555 354.961 330.883 353.545 333.191C351.635 336.304 346.621 340.49 344.015 344.117C344.321 347.2 344.31 350.018 344.015 353.107C347.427 351.445 350.452 349.563 353.434 347.209C353.689 343.541 354.278 330.823 358.002 330.524C362.952 330.127 359.762 340.951 359.669 343.665L359.656 344.117C361.605 343.569 376.957 333.509 375.25 340.938C374.882 342.54 364.883 347.604 362.774 348.9C366.147 350.042 375.704 352.667 368.9 357.041C364.799 355.78 360.91 354.223 357.047 352.36C353.702 353.873 350.469 355.681 347.228 357.404C350.436 359.061 353.619 360.692 357.047 361.859C357.93 361.671 374.689 353.264 370.735 361.6C369.935 363.286 364.569 364.544 362.774 365.314C363.43 365.776 380.304 373.73 373.321 375.678C370.255 376.533 362.57 371.409 359.656 369.756C359.611 371.066 361.99 385.858 356.406 381.937C354.199 380.387 353.648 369.754 353.434 366.787C350.228 365.305 347.215 363.387 344.015 361.859C344.283 364.521 344.162 367.094 344.015 369.756C344.197 372.958 359.904 384.413 351.964 385.167C349.105 385.439 346.284 380.951 344.015 379.497C344.037 382.208 344.679 391.209 343.462 393.14C342.908 394.018 340.982 394.383 340.215 393.582C338.707 392.009 339.207 382.155 339.253 379.497C337.574 380.811 332.512 386.514 330.024 384.288C327.794 382.293 331.192 379.407 332.511 378.041C339.39 370.926 339.301 371.813 339.253 361.859C336.235 363.434 333.262 365.044 330.338 366.787C329.766 371.246 330.675 388.149 323.419 383.468C322.748 382.537 324.048 372.91 323.813 369.756C322.826 370.581 308.972 380.385 309.26 374.664C309.408 371.71 319.479 367.261 322.033 365.515L322.325 365.314C319.027 364.116 312.07 363.069 310.776 359.23C308.447 352.325 317.396 350.303 322.325 348.9C320.424 347.576 310.584 342.569 310.062 340.916C307.479 332.721 323.098 343.665 323.813 344.117L323.853 342.999C324.029 338.91 320.617 327.891 328.569 331.61C333.864 328.187 335.161 332.501 339.253 335.668C338.93 331.687 336.828 321.605 340.823 319.183ZM315.039 357.041C318.637 358.955 322.647 360.357 326.437 361.859C329.236 362.575 334.187 358.22 336.707 357.041C334.14 355.971 329.002 351.695 326.437 352.36C322.693 353.797 318.69 355.384 315.039 357.041Z"/>
	<path fill="#E4E4E2" transform="scale(2 2)" d="M328.569 334.717C331.774 335.537 336.833 341.669 339.253 344.117L339.253 352.36C336.076 351.178 333.516 348.565 330.338 347.209C329.904 343.099 328.736 338.805 328.569 334.717Z"/>
	<path fill="#83D8F9" transform="scale(2 2)" d="M142.965 317.02C149.297 316.737 147.015 324.079 146.607 328.131C148.157 326.956 151.504 323.391 153.729 324.457C158.812 326.89 148.446 334.565 146.869 336.705L146.607 337.063C146.101 342.124 146.612 347.273 146.607 352.36C149.286 350.792 156.908 346.733 158.427 344.494C160.498 341.44 159.893 333.294 163.504 332.281C167.431 331.178 167.046 337.565 167.202 339.856C169.351 338.662 174.804 333.798 177.475 335.729C183.48 340.071 173.239 344.116 170.338 347.209C179.667 349.017 177.757 359.526 160.86 348.9C157.19 351.951 153.098 354.541 149.038 357.041C153.089 359.064 156.718 361.782 160.86 363.663C163.32 362.767 172.098 359.482 174.299 360.709C178.639 363.129 172.536 366.265 169.452 366.787C171.549 368.343 177.783 371.186 178.519 373.457C179.177 375.486 177.705 378.038 175.64 378.524C173.237 379.09 169.218 375.906 167.202 374.607C167.218 377.209 166.831 383.055 162.728 381.371C156.371 378.763 166.081 369.036 146.607 361.859C146.64 366.743 146.385 371.716 146.607 376.582C150.228 379.588 158.315 385.524 152.517 389.904C150.757 388.851 149.401 387.493 147.992 386.025C148.031 389.875 149.174 401.396 141.771 397.018C140.291 394.287 141.091 389.189 140.757 386.025C139.244 387.985 134.362 392.738 133.704 387.277C133.341 384.26 139.726 378.81 141.771 376.582C142.149 371.719 141.802 366.738 141.771 361.859C138.032 362.849 133.606 364.781 130.958 367.704C130.583 369.072 128.694 386.245 123.65 380.227C122.375 378.705 123.713 374.519 123.976 372.652C121.316 374.21 116.211 378.615 113.149 377.774C111.452 377.308 110.466 374.995 111.005 373.391C112.01 370.397 118.472 368.081 121.131 366.787C105.725 364.067 114.575 355.844 128.726 363.663C132.044 361.069 135.543 358.436 139.554 357.041C136.082 354.76 132.33 352.854 128.726 350.782L124.857 352.071C122.532 352.843 117.243 355.196 115.053 353.788C109.303 350.087 119.214 347.607 121.131 347.209C119.652 346.419 102.821 338.368 112.384 335.682C115.508 334.805 120.72 339.422 123.528 340.829L123.976 341.051C122.711 338.04 120.156 331.036 126.819 333.379C127.792 333.721 129.531 342.804 130.958 345.72C133.953 348.394 138.176 350.58 141.771 352.36C142.197 347.365 141.787 342.09 141.771 337.063C141.036 336.169 127.579 324.683 135.545 324.103C137.687 324.796 139.19 326.593 140.757 328.131C140.592 324.51 138.86 318.859 142.965 317.02Z"/>
	<path fill="#E4E4E2" transform="scale(2 2)" d="M218.893 321.763C225.821 321.419 232.835 322.138 239.731 322.712C237.621 333.447 231.025 342.407 227.061 352.36L256.883 352.36C248.002 366.098 228.247 383.296 217.025 397.018C212.593 402.395 207.5 407.22 202.711 412.283C208.381 401.01 219.114 377.934 222.248 366.787C214.774 366.63 207.184 366.648 199.709 366.787C200.838 361.921 203.587 357.046 205.474 352.398L214.089 331.69C215.368 328.652 216.23 323.879 218.893 321.763Z"/>
	<path fill="#83D8F9" transform="scale(2 2)" d="M295.324 382.653C292.831 369.906 301.623 366.492 300.69 380.943C302.969 379.552 308.102 375.757 308.714 380.975C309.129 384.517 303.025 388.53 300.981 391.126L300.69 391.499C300.526 395.858 300.681 400.274 300.69 404.639C304.49 402.885 308.402 400.275 311.797 397.821C312.809 395.409 314.706 383.064 319.508 387.822C320.598 388.903 320.299 390.615 320.278 392.019C322.876 390.51 325.581 388.615 328.569 388.05C332.266 389.816 331.587 393.248 328.569 394.98C315.751 401.982 335.072 396.935 329.081 405.311C327.224 406.566 317.839 403.761 315.039 403.342C310.543 404.268 306.954 407.152 303.084 409.464C306.701 411.6 310.197 413.935 313.903 415.917C317.415 415.288 324.998 412.669 328.103 414.088C334.221 416.885 326.17 420.066 323.813 420.784C324.397 421.394 335.548 428.775 328.367 429.961C325.416 430.448 322.484 427.877 320.278 426.266C320.02 428.256 318.925 433.664 315.65 431.57C313.334 430.089 312.319 423.4 311.797 420.784C307.89 419.057 304.276 416.418 300.69 414.103C300.581 418.116 300.303 422.268 300.69 426.266C303.265 429.64 312.525 435.868 304.733 438.754C302.988 437.898 301.938 436.798 300.69 435.356C300.516 437.934 301.204 442.364 300.004 444.61C296.15 451.826 295.273 438.221 295.324 436.291C293.741 437.704 288.574 440.801 287.934 436.796C287.362 433.214 293.603 429.168 295.324 426.266C295.306 422.216 295.482 418.151 295.324 414.103C291.544 415.926 288.026 417.877 284.972 420.784C283.69 423.424 283.13 428.287 281.245 430.266C278.782 432.852 276.547 430.111 277.187 426.266C275.808 426.703 265.167 433.463 266.026 426.893C266.357 424.365 271.325 422.327 273.258 420.955L273.496 420.784C270.752 419.925 265.547 417.887 269.979 414.786C274.066 411.926 277.138 419.923 291.815 409.464C288.046 407.62 284.727 404.958 280.842 403.342C278.239 403.543 271.549 405.651 269.585 404.18C266.387 401.785 270.568 399.333 273.496 398.976C272.793 398.236 261.183 391.561 267.533 389.814C269.661 389.229 274.396 392.267 276.325 393.248C276.193 391.529 275.976 389.751 276.325 388.05C282.436 385.044 282.622 393.409 284.972 398.976C288.525 401.155 291.99 403.397 295.324 405.902C295.151 401.125 295.32 396.283 295.324 391.499C295.011 391.128 281.482 379.021 289.1 378.302C291.114 378.112 293.789 381.405 295.324 382.653Z"/>
	<path fill="#72BFE0" transform="scale(2 2)" d="M328.569 388.05C332.266 389.816 331.587 393.248 328.569 394.98C327.85 393.609 327.503 389.24 328.569 388.05Z"/>
	<path fill="#FED31A" transform="scale(2 2)" d="M248.631 324.282C249.192 324.22 249.625 324.149 250.18 324.297C249.297 326.337 238.185 339.67 234.808 342.75C234.603 342.899 233.488 343.737 233.528 343.144C233.66 341.208 241.523 327.643 243.208 325.827C244.932 325.156 246.841 324.764 248.631 324.282Z"/>
</svg>
