<?xml version="1.0" encoding="utf-8" ?>
<svg xmlns="http://www.w3.org/2000/svg" xmlns:xlink="http://www.w3.org/1999/xlink" width="1024" height="1024">
	<path fill="#E1E3EB" transform="scale(2 2)" d="M269.728 106.543C279.503 92.1481 298.68 82.2563 315.463 79.0458C356.852 71.1282 398.137 99.6974 399.323 143.241C455.155 143.2 465.401 220.79 422.605 246.483C414.153 253.555 403.693 256.221 393.039 257.669C391.578 258.258 391.002 260.577 390.347 261.884C373.967 294.592 344.366 300.753 311.664 300.758L107.597 300.656C104.655 300.609 101.615 300.244 98.6858 299.943C70.0244 296.997 54.2187 263.537 70.3461 239.804C77.8123 228.817 84.5337 225.353 97.2918 222.877C99.301 216.039 102.046 210.613 107.191 205.609C114.359 198.636 113.071 197.761 115.088 188.16C119.503 167.143 136.292 150.473 155.906 142.89C172.681 136.405 185.383 138.884 200.749 145.734C208.704 122.5 230.979 108.622 254.971 106.768C259.909 106.386 264.8 106.815 269.728 106.543Z"/>
	<path fill="#728CCB" transform="scale(2 2)" d="M269.728 106.543C279.503 92.1481 298.68 82.2563 315.463 79.0458C356.852 71.1282 398.137 99.6974 399.323 143.241C455.155 143.2 465.401 220.79 422.605 246.483C414.153 253.555 403.693 256.221 393.039 257.669L392.716 257.42C392.865 254.55 395.72 247.419 396.485 243.784C400.809 214.107 387.438 192.128 360.467 179.161C348.843 178.015 344.202 173.281 328.978 177.633C332.169 149.572 311.7 122.47 286.318 112.061C281.195 109.96 274.721 108.875 270.161 106.748L269.728 106.543Z"/>
	<path fill="#5679D8" transform="scale(2 2)" d="M360.467 179.161C367.043 177.219 389.011 194.271 392.604 198.884C394.711 201.591 395.336 204.658 395.48 208.006C410.822 208.545 421.054 217.168 424.165 232.189L424.165 232.189C424.454 233.84 424.654 235.593 425.248 237.162C424.783 239.725 422.467 244.861 422.605 246.483C414.153 253.555 403.693 256.221 393.039 257.669L392.716 257.42C392.865 254.55 395.72 247.419 396.485 243.784C400.809 214.107 387.438 192.128 360.467 179.161Z"/>
	<path fill="#093CB6" transform="scale(2 2)" d="M424.165 232.189C424.454 233.84 424.654 235.593 425.248 237.162C424.783 239.725 422.467 244.861 422.605 246.483C414.153 253.555 403.693 256.221 393.039 257.669L392.716 257.42C392.865 254.55 395.72 247.419 396.485 243.784C404.474 243.574 417.364 236.843 424.165 232.189Z"/>
	<path fill="#3B57BC" transform="scale(2 2)" d="M424.165 232.189C425.431 231.362 426.681 230.448 428.005 229.721C427.173 232.235 426.151 234.675 425.248 237.162C424.654 235.593 424.454 233.84 424.165 232.189L424.165 232.189Z"/>
	<path fill="#85A3E0" transform="scale(2 2)" d="M287.776 98.8339C294.664 92.3379 309.897 86.7126 319.047 85.61C353.46 81.4631 388.684 102.317 392.914 138.52C393.346 142.223 392.726 146.055 393.145 149.714L393.663 149.805C394.858 149.808 396.055 149.823 397.251 149.805C407.483 157.117 410.337 162.273 409.948 174.494C428.392 174.101 437.545 183.249 440.971 200.835C441.116 213.01 434.915 221.142 427.493 229.721C427.572 219.982 426.739 212.948 419.996 205.362C411.311 195.593 403.926 198.078 393.511 197.361L393.039 197.326C400.065 179.022 391.954 156.863 369.871 161.089C370.192 149.52 370.481 141.069 364.538 130.726C350.395 106.11 318.22 99.7212 294.35 113.77C293.449 106.811 292.094 104.265 287.776 98.8339Z"/>
	<path fill="#85A3E0" transform="scale(2 2)" d="M438.917 174.494C435.547 177.157 423.705 170.237 421.201 167.703C418.477 164.945 415.366 155.724 415.331 151.919L415.775 151.577C427.744 157.439 433.251 162.344 438.917 174.494Z"/>
	<path fill="#FEFEFE" transform="scale(2 2)" d="M256.298 121.483C274.846 120.275 293.781 127.004 306.961 140.251C322.267 155.635 324.068 168.012 324.008 187.511C338.805 189.864 349.688 183.034 364.378 197.368C377.669 210.338 378.299 234.16 367.526 248.931C365.474 251.744 362.902 254.179 360.467 256.654C360.273 238.364 359.057 224.54 341.323 213.507C328.985 207.153 314.348 206.077 301.256 210.792C301.482 207.506 302.116 204.246 302.226 200.956C303.596 160.175 247.86 133.762 213.021 156.503C210.657 158.047 201.243 167.668 199.035 163.857C209.967 143.919 233.87 125.322 256.298 121.483Z"/>
	<path fill="#FEFEFE" transform="scale(2 2)" d="M131.94 205.599C147.179 204.004 160.336 218.393 160.783 232.965C173.045 232.815 184.267 234.3 187.804 248.364C189.823 256.392 185.263 263.61 181.342 270.232C180.641 261.256 178.193 255.216 172.719 248.129C166.553 243.335 161.089 243.046 153.498 244.764C153.534 217.922 121.464 207.702 102.524 224.988C105.718 213.116 120.752 206.185 131.94 205.599Z"/>
	<path fill="#85A3E0" transform="scale(2 2)" d="M277.532 412.273C279.895 411.59 280.801 412.511 281.198 409.625C281.305 413.116 284.276 412.367 287.776 414.721C288.64 415.557 289.518 416.383 290.368 417.233C291.868 419.418 292.217 422.058 293.395 423.69L294.35 423.754C292.166 424.455 292.995 425.747 292.493 427.611C292.292 430.048 291.572 431.703 290.368 433.794C289.539 434.997 288.74 436.225 287.776 437.327L287.334 437.166C285.286 438.333 283.522 439.399 281.198 439.913C281.208 442.305 281.306 444.739 281.198 447.125C280.704 444.847 281.054 442.228 281.198 439.913C279.799 439.851 278.422 439.87 277.023 439.913C274.689 439.544 272.442 437.831 270.242 436.981L269.728 437.327C269.126 436.368 268.328 435.466 267.637 434.564C267.583 433.649 265.627 429.255 264.938 427.984L263.42 427.611C266.223 427.639 266.236 424.449 263.42 423.754C266.494 423.982 265.712 421.067 268.579 417.233C269.409 416.415 270.232 415.603 270.996 414.721C271.715 415.027 276.057 412.476 277.532 412.273Z"/>
	<path fill="#B6D6FC" transform="scale(2 2)" d="M379.752 299.593C380.805 298.676 382.183 298.084 383.446 297.503C386.549 307.055 397.134 319.682 386.711 327.709C371.518 339.603 352.394 316.507 379.752 299.593Z"/>
	<path fill="#85A3E0" transform="scale(2 2)" d="M379.752 299.593C381.395 302.386 370.052 311.639 375.014 322.404C377.557 327.923 381.711 326.967 386.711 327.709C371.518 339.603 352.394 316.507 379.752 299.593Z"/>
	<path fill="#B6D6FC" transform="scale(2 2)" d="M171.36 381.691C174.167 388.056 182.384 403.719 175.226 409.625C169.101 415.17 158.02 414.17 154.204 406.408C149.872 397.597 160.763 386.444 167.904 383.081C168.974 382.415 170.17 382.083 171.36 381.691Z"/>
	<path fill="#85A3E0" transform="scale(2 2)" d="M175.226 409.625C169.101 415.17 158.02 414.17 154.204 406.408C149.872 397.597 160.763 386.444 167.904 383.081C164.611 389.791 156.99 404.317 167.109 409.042C169.99 410.387 172.309 409.622 175.226 409.625Z"/>
	<path fill="#B6D6FC" transform="scale(2 2)" d="M172.719 313.577C173.551 313.207 174.383 312.845 175.226 312.501C176.603 321.337 187.373 333.723 178.261 341.606C169.636 349.034 154.537 341.961 158.149 330.061C160.235 323.187 166.509 316.893 172.719 313.577Z"/>
	<path fill="#85A3E0" transform="scale(2 2)" d="M172.719 313.577L172.835 314.128C168.711 320.264 161.256 334.327 169.893 340.027C172.949 342.044 174.967 341.171 178.261 341.606C169.636 349.034 154.537 341.961 158.149 330.061C160.235 323.187 166.509 316.893 172.719 313.577Z"/>
	<path fill="#B6D6FC" transform="scale(2 2)" d="M227.247 344.777C230.12 351.245 236.953 365.828 231.257 372.169C214.078 389.788 198.645 356.487 224.785 345.961C225.555 345.365 226.334 345.099 227.247 344.777Z"/>
	<path fill="#85A3E0" transform="scale(2 2)" d="M224.785 345.961C225.16 347.411 204.858 374.17 231.257 372.169C214.078 389.788 198.645 356.487 224.785 345.961Z"/>
	<path fill="#B6D6FC" transform="scale(2 2)" d="M281.198 313.577L281.287 313.851C283.887 321.658 292.483 332.589 284.809 339.578C271.363 353.283 249.31 331.389 277.532 315.063C278.734 314.52 280.012 314.133 281.198 313.577Z"/>
	<path fill="#85A3E0" transform="scale(2 2)" d="M277.532 315.063C278.374 316.666 263.084 334.131 275.878 339.431C278.958 340.707 281.762 339.191 284.809 339.578C271.363 353.283 249.31 331.389 277.532 315.063Z"/>
	<path fill="#B6D6FC" transform="scale(2 2)" d="M330.939 347.559C331.99 346.859 333.165 346.434 334.33 345.961C336.299 353.399 348.124 368.071 334.33 373.183C319.486 380.166 307.712 360.021 330.939 347.559Z"/>
	<path fill="#85A3E0" transform="scale(2 2)" d="M334.33 373.183C319.486 380.166 307.712 360.021 330.939 347.559C331.301 349.26 319.333 365.168 329.027 371.392C330.645 372.43 332.755 372.135 334.33 373.183Z"/>
	<path fill="#5679D8" transform="scale(2 2)" d="M262.272 405.741C262.162 404.289 260.961 398.266 263.432 398.172C267.329 398.024 265.919 407.393 265.843 409.625C267.683 411.255 269.384 412.859 270.996 414.721C270.232 415.603 269.409 416.415 268.579 417.233C266.91 415.516 265.187 413.887 263.42 412.273C260.429 411.942 251.534 411.684 250.668 407.94C251.617 404.754 257.48 407.469 259.459 408.032C249.914 397.735 253.027 395.683 262.272 405.741Z"/>
	<path fill="#5679D8" transform="scale(2 2)" d="M301.256 423.754C303.008 422.446 308.367 417.28 310.117 417.152C315.139 418.316 308.202 422.77 306.836 423.754C309.212 423.739 314.646 422.983 316.358 424.615C320.207 428.286 309.245 427.644 306.836 427.611C308.345 429.016 311.273 431.145 311.179 433.377C311.001 437.6 301.427 427.761 301.256 427.611L292.493 427.611C292.995 425.747 292.166 424.455 294.35 423.754C296.659 423.853 298.955 424.052 301.256 423.754Z"/>
	<path fill="#5679D8" transform="scale(2 2)" d="M277.532 399.903C277.526 397.478 276.745 385.411 280.564 389.7C281.967 391.275 281.235 397.704 281.198 399.903C282.414 398.709 287.587 390.927 288.638 396.196C287.336 399.008 283.266 402.44 281.198 405.034C281.237 406.562 281.205 408.097 281.198 409.625C280.801 412.511 279.895 411.59 277.532 412.273C277.673 409.87 277.532 407.442 277.532 405.034C276.126 402.967 269.57 397.285 270.851 394.681L271.474 394.534C274.145 395.134 275.914 397.876 277.532 399.903Z"/>
	<path fill="#5679D8" transform="scale(2 2)" d="M267.637 434.564C268.328 435.466 269.126 436.368 269.728 437.327C268.348 438.757 267.041 440.176 265.843 441.765C265.58 444.231 266.32 452.487 262.323 452.088C260.154 450.605 261.569 447.269 262.272 445.337C260.911 446.523 253.51 456.586 252.407 450.47C252.92 448.045 257.448 445.176 259.459 443.577C257.681 443.607 249.495 444.979 251.455 441.029C253.619 438.994 260.475 439.942 263.42 439.913C264.597 437.743 265.8 436.219 267.637 434.564Z"/>
	<path fill="#5679D8" transform="scale(2 2)" d="M287.776 414.721C289.171 413.328 291.26 411.632 292.092 409.827C293.313 407.177 291.612 398.327 295.349 398.205C298.008 399.369 296.608 404.527 296.232 406.716C297.142 405.702 305.287 395.067 305.89 401.252C305.287 403.662 300.471 407.256 298.58 409.625C308.372 407.799 310.947 412.426 295.07 412.273C293.532 413.925 292.064 415.748 290.368 417.233C289.518 416.383 288.64 415.557 287.776 414.721Z"/>
	<path fill="#5679D8" transform="scale(2 2)" d="M277.023 439.913C278.422 439.87 279.799 439.851 281.198 439.913C281.054 442.228 280.704 444.847 281.198 447.125C282.698 449.18 289.185 454.048 287.989 456.653C285.308 458.431 282.707 454.311 281.198 452.66C281.117 454.047 281.807 465.63 277.807 460.862C276.717 459.563 277.509 454.403 277.532 452.66C275.869 454.029 272.892 458.456 270.729 455.875C270.237 453.106 276.269 448.957 277.532 446.266C277.64 444.031 277.66 442.084 277.023 439.913Z"/>
	<path fill="#5679D8" transform="scale(2 2)" d="M252.469 423.754C251.018 422.755 245.459 419.624 248.397 417.417C251.175 417.285 254.65 422.007 257.023 423.542L257.355 423.754C259.409 423.928 261.362 423.877 263.42 423.754C266.236 424.449 266.223 427.639 263.42 427.611C261.399 427.547 259.376 427.589 257.355 427.611C255.567 428.909 249.855 436.431 247.997 432.568C248.191 430.664 251.079 428.942 252.469 427.611C249.731 427.554 245.969 427.975 243.392 427.059C241.869 426.518 237.224 423.575 252.469 423.754Z"/>
	<path fill="#5679D8" transform="scale(2 2)" d="M290.368 433.794C292.208 435.988 294.06 438.039 296.232 439.913C298.471 439.849 303.943 439.323 305.598 440.892C308.031 443.197 304.222 443.776 298.58 443.577C299.874 444.912 304.301 448.737 304.365 450.408C304.576 455.992 298.636 448.897 296.232 445.337C296.191 447.289 296.901 452.482 293.937 452.728C291.284 451.353 292.572 444.235 292.493 441.765C291.096 439.842 289.591 438.784 287.776 437.327C288.74 436.225 289.539 434.997 290.368 433.794Z"/>
</svg>
