<?xml version="1.0" encoding="utf-8" ?>
<svg xmlns="http://www.w3.org/2000/svg" xmlns:xlink="http://www.w3.org/1999/xlink" width="1024" height="1024">
	<path fill="#FBFBFB" transform="scale(2 2)" d="M267.726 133.267C275.387 81.9357 325.389 51.239 374.96 62.1746C381.752 64.1535 388.138 66.6645 394.624 69.4875C391.568 69.4345 388.519 69.3499 385.474 69.6756C341.018 74.4305 326.057 130.167 355.976 160.177C374.426 178.682 403.763 180.916 424.677 165.312C427.228 163.408 429.344 160.97 431.876 159.076C429.323 177.049 419.529 198.386 406.072 211.033C418.177 225.842 424.397 237.369 422.371 257.903C420.028 281.659 402.308 300.226 379.528 305.636C371.886 307.452 363.87 307.758 356.117 309.001C330.375 313.131 304.52 316.457 278.706 320.115L196.379 332.202C187.8 333.377 147.835 340.688 141.769 333.624C138.243 332.066 134.122 331.936 130.378 331.128C59.0741 315.735 68.5405 200.154 145.523 200.243C152.73 169.466 173.31 142.462 202.898 130.129C225.748 120.604 246.256 124.445 267.726 133.267Z"/>
	<path fill="#717D9B" transform="scale(2 2)" d="M267.726 133.267C275.387 81.9357 325.389 51.239 374.96 62.1746C381.752 64.1535 388.138 66.6645 394.624 69.4875C391.568 69.4345 388.519 69.3499 385.474 69.6756C341.018 74.4305 326.057 130.167 355.976 160.177C374.426 178.682 403.763 180.916 424.677 165.312C427.228 163.408 429.344 160.97 431.876 159.076C429.323 177.049 419.529 198.386 406.072 211.033C396.706 199.845 375.375 195.767 361.479 196.823C358.849 171.561 336.28 168.744 316.925 179.24C312.75 172.756 305.999 163.42 299.365 159.076C298.053 156.922 296.554 155.107 294.909 153.201C287.184 144.862 277.83 138.409 267.726 133.267Z"/>
	<path fill="#606783" transform="scale(2 2)" d="M267.726 133.267C275.387 81.9357 325.389 51.239 374.96 62.1746C374.472 64.791 372.108 63.807 370.169 64.5659C358.68 69.0623 349.822 71.2419 339.36 78.2674C316.187 93.829 302.584 117.649 297.013 144.458C296.571 146.588 296.52 151.706 294.909 153.201C287.184 144.862 277.83 138.409 267.726 133.267Z"/>
	<path fill="#D5D4D5" transform="scale(2 2)" d="M145.523 200.243C152.73 169.466 173.31 142.462 202.898 130.129C225.748 120.604 246.256 124.445 267.726 133.267C277.83 138.409 287.184 144.862 294.909 153.201C296.554 155.107 298.053 156.922 299.365 159.076C296.622 158.71 288.484 152.108 284.895 150.536C259.148 139.263 231.897 141.6 208.297 156.71C188.673 169.274 170.676 194.978 169.678 218.982C108.855 209.417 84.2297 293.541 131.373 326.777C132.997 327.922 141.269 332.738 141.769 333.624C138.243 332.066 134.122 331.936 130.378 331.128C59.0741 315.735 68.5405 200.154 145.523 200.243Z"/>
	<path fill="#5298E7" transform="scale(2 2)" d="M142.92 400.456C124.098 388.532 136.923 365.934 146.474 352.56C148.179 350.172 150.768 345.443 154.271 347.183C162.679 354.487 173.299 372.17 174.072 383.026C175.313 400.46 152.2 408.289 142.92 400.456Z"/>
	<path fill="#146FE8" transform="scale(2 2)" d="M142.92 400.456C124.098 388.532 136.923 365.934 146.474 352.56C148.179 350.172 150.768 345.443 154.271 347.183L154.054 347.617C147.639 360.194 134.347 375.212 139 390.127C139.798 392.683 143.741 398.187 142.92 400.456Z"/>
	<path fill="#5298E7" transform="scale(2 2)" d="M346.06 378.435C319.725 365.643 348.304 323.579 355.244 324.341C364.244 333.275 374.618 347.578 374.626 360.774C374.635 375.644 357.296 385.406 346.06 378.435Z"/>
	<path fill="#146FE8" transform="scale(2 2)" d="M346.06 378.435C319.725 365.643 348.304 323.579 355.244 324.341L355.16 324.715C352.503 336.338 337.748 347.661 340.57 365.134C341.391 370.215 346.023 376.487 346.06 378.435Z"/>
	<path fill="#5298E7" transform="scale(2 2)" d="M206.707 449.195C193.964 442.185 195.069 429.403 200.114 417.635C201.995 413.246 211.521 393.757 217.415 396.351C225.975 404.926 236.199 420.624 236.237 432.961C236.284 448.196 217.339 456.683 206.707 449.195Z"/>
	<path fill="#146FE8" transform="scale(2 2)" d="M206.707 449.195C193.964 442.185 195.069 429.403 200.114 417.635C201.995 413.246 211.521 393.757 217.415 396.351C211.204 408.029 198.526 425.479 202.724 439.355C203.436 441.707 207.472 447.196 206.707 449.195Z"/>
	<path fill="#5298E7" transform="scale(2 2)" d="M285.432 420.496C268.84 411.5 276.875 392.046 285.041 380.046C287.196 376.88 292.397 367.1 296.658 370.021C304.773 379.063 315.282 392.967 314.625 405.634C313.874 420.115 296.236 427.531 285.432 420.496Z"/>
	<path fill="#146FE8" transform="scale(2 2)" d="M285.432 420.496C268.84 411.5 276.875 392.046 285.041 380.046C287.196 376.88 292.397 367.1 296.658 370.021C292.876 381.351 275.07 398.757 282.875 414.417C283.677 416.026 286.375 418.639 285.432 420.496Z"/>
</svg>
