<?xml version="1.0" encoding="utf-8" ?>
<svg xmlns="http://www.w3.org/2000/svg" xmlns:xlink="http://www.w3.org/1999/xlink" width="1024" height="1024">
	<path fill="#E5E5E4" transform="scale(2 2)" d="M248.729 106.854C253.979 102.258 258.262 96.5842 263.504 91.8811C297.43 61.4423 350.264 65.0465 379.957 98.957C398.558 120.2 402.588 140.099 402.507 167.34C433.229 173.418 452.287 206.774 446.213 236.884C441.349 260.992 421.019 282.03 396.058 284.683C389.21 285.411 382.214 285.226 375.334 285.218L139.377 285.217C130.375 285.214 121.062 285.537 112.205 283.688C78.6709 276.689 60.2776 242.138 67.433 209.552C71.9719 188.881 91.7225 167.64 114.045 167.34L114.146 166.978C115.122 163.403 115.4 159.668 116.222 156.056C121.628 132.29 145.615 123.57 167.479 129.714C168.676 127.572 172.772 116.462 174.078 115.707C190.797 89.142 226.528 85.0059 248.729 106.854Z"/>
	<path fill="#83C7E3" transform="scale(2 2)" d="M250.798 317.569C254.514 322.028 258.661 327.311 261.149 332.576C264.91 339.441 269.643 347.848 267.364 355.9C263.159 370.757 243.148 372.054 235.798 359.316C226.778 351.489 244.856 323.424 250.798 317.569Z"/>
	<path fill="#33AFE0" transform="scale(2 2)" d="M235.798 359.316C238.697 359.106 241.899 362.851 247.384 361.901C269.117 358.139 259.215 332.925 260.009 332.046L261.149 332.576C264.91 339.441 269.643 347.848 267.364 355.9C263.159 370.757 243.148 372.054 235.798 359.316Z"/>
	<path fill="#83C7E3" transform="scale(2 2)" d="M336.325 359.316C334.771 358.278 334.206 354.08 334.023 352.343C332.793 340.637 343.637 326.315 350.736 317.569C354.842 323.628 359.286 328.94 362.596 335.583C379.887 368.038 346.478 376.608 336.325 359.316Z"/>
	<path fill="#33AFE0" transform="scale(2 2)" d="M336.325 359.316C340.142 358.604 349.972 368.452 358.889 354.212C363.289 347.188 363.053 344.613 361.313 336.753C360.849 334.658 360.952 334.441 362.596 335.583C379.887 368.038 346.478 376.608 336.325 359.316Z"/>
	<path fill="#83C7E3" transform="scale(2 2)" d="M151.408 317.569C156.067 323.106 159.557 327.293 162.914 333.83C180.339 370.503 146.021 374.926 137.1 359.316C128.188 347.375 144.862 327.049 151.408 317.569Z"/>
	<path fill="#33AFE0" transform="scale(2 2)" d="M137.1 359.316C140.41 360.069 142.794 362.126 146.403 361.989C155.813 361.632 164.085 350.595 162.997 341.542C162.75 339.488 160.65 334.869 162.914 333.83C180.339 370.503 146.021 374.926 137.1 359.316Z"/>
	<path fill="#83C7E3" transform="scale(2 2)" d="M199.458 388.415C204.01 392.598 207.491 397.759 210.373 403.199C213.953 410.17 218.387 418.214 215.841 426.302C211.506 440.07 191.825 441.704 184.806 429.059C177.54 417.834 192.841 396.876 199.458 388.415Z"/>
	<path fill="#33AFE0" transform="scale(2 2)" d="M184.806 429.059C187.762 429.035 190.491 431.748 194.529 431.217C204.048 429.964 211.27 419.769 210.307 410.361C210.064 407.983 208.275 404.944 210.373 403.199C213.953 410.17 218.387 418.214 215.841 426.302C211.506 440.07 191.825 441.704 184.806 429.059Z"/>
	<path fill="#83C7E3" transform="scale(2 2)" d="M303.14 388.415C307.876 394.01 311.971 399.793 315.341 406.314C330.892 439.098 298.256 444.594 288.804 429.059C280.865 416.718 295.319 397.189 303.14 388.415Z"/>
	<path fill="#33AFE0" transform="scale(2 2)" d="M315.341 406.314C330.892 439.098 298.256 444.594 288.804 429.059C291.831 429.575 294.624 431.038 297.746 431.141C307.102 431.45 314.605 421.897 314.796 413.037C314.839 411.049 314.083 409.097 314.167 407.084L315.341 406.314Z"/>
</svg>
