<?xml version="1.0" encoding="utf-8" ?>
<svg xmlns="http://www.w3.org/2000/svg" xmlns:xlink="http://www.w3.org/1999/xlink" width="1024" height="1024">
	<path fill="#FBFBFB" transform="scale(2 2)" d="M238.984 150.599C242.091 121.552 259.403 93.8179 284.415 78.5709C290.811 74.6722 308.446 65.755 315.664 66.6202C319.226 67.0472 322.382 72.0806 320.421 75.3544C319.068 77.6141 317.094 79.6785 315.495 81.7824C294.886 108.899 300.322 151.396 321.155 176.715C344.625 205.24 386.565 218.281 420.621 201.303C424.08 199.579 432.379 193.46 435.823 197.872C439.587 202.694 430.876 220.874 428.401 224.834C413.999 246.234 398.887 261.225 372.833 268.337C375.007 270.354 377.344 272.092 379.342 274.315C402.412 299.981 388.084 341.344 350.237 342.485C335.359 342.934 320.387 342.598 305.5 342.594L157.53 342.615C154.571 342.626 151.523 342.805 148.577 342.589C130.192 343.085 113.949 343.462 98.379 331.912C54.914 299.667 73.7453 230.558 124.342 223.106C124.722 218.041 125.228 213.011 126.207 208.023C134.882 163.799 177.732 134.58 222.03 143.387C225.085 144.036 237.663 151.046 238.984 150.599Z"/>
	<path fill="#FAEBC2" transform="scale(2 2)" d="M238.984 150.599C242.091 121.552 259.403 93.8179 284.415 78.5709C290.811 74.6722 308.446 65.755 315.664 66.6202C319.226 67.0472 322.382 72.0806 320.421 75.3544C319.068 77.6141 317.094 79.6785 315.495 81.7824C294.886 108.899 300.322 151.396 321.155 176.715C344.625 205.24 386.565 218.281 420.621 201.303C424.08 199.579 432.379 193.46 435.823 197.872C439.587 202.694 430.876 220.874 428.401 224.834C413.999 246.234 398.887 261.225 372.833 268.337C368.535 264.214 360.661 261.315 354.915 260.26C352.22 259.766 349.362 261.153 349.771 257.999C357.269 217.81 318.861 180.765 280.351 195.715C274.305 177.005 261.343 159.919 242.859 152.277C241.542 151.733 240.215 151.339 238.984 150.599Z"/>
	<path fill="#F6D661" transform="scale(2 2)" d="M349.771 257.999C372.075 258.502 397.384 251.532 414.425 237.08C416.723 235.131 425.834 224.038 427.872 224.184L428.401 224.834C413.999 246.234 398.887 261.225 372.833 268.337C368.535 264.214 360.661 261.315 354.915 260.26C352.22 259.766 349.362 261.153 349.771 257.999Z"/>
	<path fill="#B9D5DF" transform="scale(2 2)" d="M124.342 223.106C124.722 218.041 125.228 213.011 126.207 208.023C134.882 163.799 177.732 134.58 222.03 143.387C219.179 145.066 215.064 144.989 211.86 145.677C175.488 153.489 149.344 187.294 152.798 224.834L152.532 224.928C148.448 226.353 144.29 227.182 140.257 228.839C92.7142 248.372 90.7671 315.257 136.839 337.411C138.356 338.14 149.984 341.996 148.577 342.589C130.192 343.085 113.949 343.462 98.379 331.912C54.914 299.667 73.7453 230.558 124.342 223.106Z"/>
	<path fill="#B9D5DF" transform="scale(2 2)" d="M266.689 367.719C269.229 371.971 259.021 394.114 257.226 399.628C261.807 402.425 267.156 405.394 270.927 409.265C261.507 417.687 251.705 425.761 242.032 433.889C238.742 436.653 234.066 441.377 230.69 443.587C232.971 433.698 239.354 417.079 243.219 407.942C237.741 404.504 233.17 399.781 228.5 395.351C235.931 387.836 256.325 372.548 266.689 367.719Z"/>
	<path fill="#F6D661" transform="scale(2 2)" d="M169.758 372.246C175.946 371.705 174.074 381.363 174.002 385.227C175.401 383.939 185.544 373.065 186.102 381.158C186.286 383.827 181.212 388.243 179.514 390.254C181.584 390.104 196.622 389.394 190.825 395.451C188.528 397.851 182.628 397.26 179.514 397.262C180.466 398.745 191.023 408.781 183.904 409.303C179.972 409.591 176.679 405.083 174.002 402.678C173.976 406.534 174.213 410.402 174.002 414.254C173.384 414.718 172.783 415.067 172.092 415.412C165.855 418.483 167.006 405.585 167.021 402.678C166.068 403.574 155.666 413.954 154.91 407.279C154.553 404.13 160.098 399.508 162.176 397.262C160.756 397.25 144.757 397.306 150.473 391.53C152.554 389.426 159.277 390.24 162.176 390.254C160.707 388.889 150.47 379.336 157.507 378.216C160.402 377.756 164.972 383.435 167.021 385.227C167.011 381.198 165.745 374.756 169.758 372.246Z"/>
	<path fill="#F6D661" transform="scale(2 2)" d="M329.678 372.246C335.036 372.32 333.107 381.764 333.049 385.227C334.439 383.876 342.734 372.711 344.494 380.228C345.216 383.308 340.236 387.353 338.643 389.857L338.393 390.254C341.296 390.115 347.161 389.195 349.445 391.199C350.854 392.435 350.887 395.001 349.505 396.267C347.185 398.395 341.335 397.422 338.393 397.262C339.413 398.431 350.513 408.581 341.501 408.671C338.364 408.703 335.297 403.77 333.049 401.873C332.947 405.24 334.585 413.726 329.678 414.254C324.522 412.353 325.983 406.373 326.027 401.873C324.341 403.614 319.97 408.933 317.408 408.693C309.186 407.925 319.054 398.991 321.367 397.262C319.313 397.313 303.403 397.663 309.435 391.342C311.161 389.534 318.755 390.248 321.367 390.254C319.363 388.108 314.142 383.83 314.288 380.797C314.696 372.293 324.451 383.178 326.027 385.227C326.413 380.947 323.917 373.359 329.678 372.246Z"/>
</svg>
