<?xml version="1.0" encoding="utf-8" ?>
<svg xmlns="http://www.w3.org/2000/svg" xmlns:xlink="http://www.w3.org/1999/xlink" width="1024" height="1024">
	<path fill="#F9F9F9" transform="scale(2 2)" d="M220.31 119.607L220.681 119.732C222.816 116.396 223.856 112.554 226.191 109.214C252.881 71.0417 307.168 59.4456 346.68 84.7925C365.098 96.6077 380.316 117.478 384.945 139C385.896 143.423 386.316 147.962 387.28 152.369C392.491 153.443 397.637 154.595 402.653 156.404C475.433 182.644 460.346 282.539 390.166 291.807C377.101 293.532 363.291 292.765 350.127 292.764L222.985 292.783C220.647 292.79 218.132 292.992 215.816 292.757L156.774 292.765C129.969 292.767 109.321 295.005 87.187 276.784C40.988 238.75 62.7297 159.563 125.997 154.208C128.264 145.151 131.601 136.769 137.215 129.224C153.247 107.675 185.623 99.1832 209.601 112.278C213.426 114.366 216.829 117.011 220.31 119.607Z"/>
	<path fill="#7392B1" transform="scale(2 2)" d="M125.997 154.208C128.264 145.151 131.601 136.769 137.215 129.224C153.247 107.675 185.623 99.1832 209.601 112.278C213.426 114.366 216.829 117.011 220.31 119.607C216.041 125.348 212.838 143.097 212.608 150.413C206.883 152.284 201.144 154.293 195.755 157.008C165.611 172.195 150.4 208.959 160.905 241.079C169.51 267.388 190.819 286.569 217.612 292.405L215.816 292.757L156.774 292.765C129.969 292.767 109.321 295.005 87.187 276.784C40.988 238.75 62.7297 159.563 125.997 154.208Z"/>
	<path fill="#6EC3EE" transform="scale(2 2)" d="M327.221 370.389C312.16 361.739 345.025 359.051 332.831 370.389L332.831 374.309C334.938 372.268 342.978 366.118 341.871 373.431C341.341 376.935 335.262 380.067 332.831 382.723L332.831 396.298C334.566 395.119 344.373 389.326 344.501 388.585C343.997 384.809 343.023 370.6 350.679 376.077C353.032 377.76 351.848 381.347 352.269 383.777C354.866 382.121 358.401 378.687 361.68 379.357C371.959 381.459 356.535 389.582 355.516 390.627C357.392 392.398 361.658 391.653 362.234 394.794C363.632 402.41 351.235 396.015 348.946 394.884C348.505 394.848 348.079 394.869 347.637 394.884C343.169 396.644 339.488 399.181 335.675 402.058C339.82 403.915 343.605 406.591 347.637 408.693C349.67 408.172 363.721 401.414 361.691 408.505C360.996 410.93 358.758 412.149 356.679 413.253C361.142 415.048 369.102 420.858 360.498 422.728C357.91 423.291 353.106 419.558 350.945 418.201C351.56 420.512 353.262 426.645 349.475 426.918C344.09 427.305 343.991 417.244 343.661 413.253C339.712 411.597 336.513 409.133 332.831 407.026L332.831 418.889C334.738 421.624 342.236 427.179 341.791 430.638C341.16 435.548 335.011 431.799 332.831 428.655C332.898 430.914 333.537 446.033 326.697 439.044C324.824 437.13 325.578 431.943 325.62 429.423C323.159 432.061 317.385 435.143 317.344 429.576C317.319 426.228 324.014 421.349 326.25 418.889C326.079 414.928 326.114 410.987 326.25 407.026C307.38 416.963 317.773 422.668 311.702 427.394C306.839 431.18 306.972 422.306 307.963 418.889C305.542 420.167 303.327 422.246 300.807 423.219C294.857 425.516 292.526 416.351 303.743 413.253C302.488 412.346 291.859 407.155 297.648 404.485C300.716 403.07 310.168 406.743 313.562 408.036C315.747 405.188 318.234 403.768 321.331 402.058L313.562 396.298C308.641 397.502 303.594 398.994 298.544 399.444C290.306 395.201 298.631 392.356 303.743 392.064C301.865 390.167 293.772 385.871 295.91 382.524C299.449 376.981 304.628 382.951 307.963 385.7C307.536 382.476 304.274 375.769 308.839 374.079C314.569 371.958 315.43 387.375 316.338 390.627C319.724 392.657 323.033 394.749 326.25 397.039C326.136 392.277 326.247 387.488 326.25 382.723L326.25 382.723C324.217 380.792 311.453 373.471 319.493 370.246C321.996 369.241 325.038 373.356 327.221 374.309C327.322 372.989 327.282 371.708 327.221 370.389Z"/>
	<path fill="#C6E9F5" transform="scale(2 2)" d="M228.52 345.546C229.729 346.41 230.899 347.379 232.139 348.19C233.4 347.356 234.618 346.534 235.767 345.546C235.873 349.561 235.789 353.588 235.767 357.605C238.455 356.206 243.632 352.873 246.039 352.098C245.831 355.397 247.871 356.262 250.476 357.605C247.416 360.076 244.057 361.877 240.629 363.771C244.649 365.753 248.181 368.61 252.301 370.389C248.937 372.356 246.528 373.224 246.039 377.312C243.691 374.174 239.438 371.722 236.136 369.625C235.893 372.527 235.987 375.415 235.767 378.304C235.744 376.97 235.73 375.643 235.767 374.309C232.486 376.716 231.1 380.674 228.52 382.322L228.52 370.389C225.007 372.003 220.385 374.298 217.929 377.312C217.348 373.183 216.9 371.612 212.608 370.389C215.556 367.791 220.575 365.746 224.093 363.771C220.541 362.078 217.207 360.319 214.323 357.605C217.138 356.703 217.474 354.798 217.929 352.098C221.606 353.568 225.068 355.682 228.52 357.605C228.375 353.555 228.274 349.595 228.52 345.546Z"/>
	<path fill="#C6E9F5" transform="scale(2 2)" d="M137.361 329.063C138.392 329.872 139.529 330.639 140.466 331.552C141.984 330.742 143.51 329.946 144.987 329.063C145.546 333.199 145.092 337.803 144.987 341.971L145.327 341.813C148.145 340.487 152.889 336.62 155.965 336.991L155.965 340.299C156.967 340.904 157.939 341.5 159.014 341.971C156.105 344.364 152.678 346.266 149.448 348.19C152.413 350.713 156.189 352.095 159.014 354.816C156.118 356.47 156.022 357.221 155.965 360.362C149.395 359.282 144.969 350.819 144.987 357.605C141.582 356.183 140.302 357.728 137.361 358.79C137.392 357.469 137.475 356.133 137.361 354.816C133.66 356.042 129.928 357.927 126.871 360.362C126.503 359.079 126.355 357.713 125.997 356.407C125.038 355.917 124.004 355.003 122.945 354.816C126.057 352.159 130.132 350.224 133.688 348.19C130.248 345.887 126.362 344.313 122.945 341.971C125.432 340.676 126.805 337.837 126.871 335.097C127.445 337.468 135.094 340.924 137.361 341.971C137.336 337.666 137.172 333.366 137.361 329.063Z"/>
	<path fill="#C6E9F5" transform="scale(2 2)" d="M375.428 321.234L375.841 321.373C376.165 323.376 367.622 344.129 365.758 346.729C362.274 351.587 357.144 352.987 352.269 349.251C337.774 337.731 368.921 324.832 375.428 321.234Z"/>
	<path fill="#C6E9F5" transform="scale(2 2)" d="M281.19 408.036C281.207 409.428 271.194 433.742 269.851 435.989C267.061 440.654 261.095 440.17 257.127 437.524C248.116 428.186 260.972 421.042 267.904 416.605L281.19 408.036Z"/>
	<path fill="#6EC3EE" transform="scale(2 2)" d="M252.301 370.389C254.92 369.532 263.762 366.174 266.039 367.529C271.396 370.717 263.143 374.523 261.128 375.389C263.913 377.432 269.829 380.336 270.401 383.96C271.985 393.99 256.739 383.419 254.881 382.322C255.832 385.813 257.188 398.34 250.234 393.51C246.523 390.932 248.64 381.417 246.039 377.312C246.528 373.224 248.937 372.356 252.301 370.389Z"/>
	<path fill="#6EC3EE" transform="scale(2 2)" d="M228.52 382.322C231.1 380.674 232.486 376.716 235.767 374.309C235.73 375.643 235.744 376.97 235.767 378.304C235.679 379.794 235.685 381.233 235.767 382.723C238.023 385.216 247.857 392.41 247.815 394.549C247.662 402.279 238.076 394.879 236.136 393.28C236.123 396.012 236.904 401.487 234.835 403.589C233.487 404.96 230.589 404.93 229.379 403.377C227.634 401.137 228.768 396.073 228.52 393.28C226.328 394.822 222.863 398.561 220.015 398.129C210.167 396.636 227.241 384.74 228.52 382.322Z"/>
	<path fill="#C6E9F5" transform="scale(2 2)" d="M324.269 318.741L324.562 318.78C324.749 319.738 318.075 338.769 317.123 340.882C314.14 347.508 308.547 348.598 302.378 345.546C293.632 336.549 305.422 329.434 312.248 325.553L324.269 318.741Z"/>
	<path fill="#6EC3EE" transform="scale(2 2)" d="M205.631 375.389C202.129 374.478 193.288 372.484 197.594 367.403L197.666 367.912L197.696 367.303C201.538 363.836 208.58 368.948 212.608 370.389C216.9 371.612 217.348 373.183 217.929 377.312C217.528 379.764 214.346 400.848 208.229 391.814C207.077 390.114 208.56 384.84 208.881 382.723C207.179 383.549 193.181 392.316 196.042 382.318C196.987 379.019 202.85 376.886 205.631 375.389Z"/>
	<path fill="#6EC3EE" transform="scale(2 2)" d="M137.361 358.79C140.302 357.728 141.582 356.183 144.987 357.605C144.98 360.585 144.893 363.59 144.987 366.567C147.61 368.836 154.353 373.532 154.44 377.183C154.616 384.51 145.572 375.849 144.987 375.389C144.975 378.237 145.802 385.019 143.689 386.941C136.949 393.071 137.467 376.99 137.361 375.389C135.759 376.876 133.379 379.461 131.011 379.421C120.714 379.25 136.921 366.398 137.361 365.826C137.547 363.414 137.697 361.2 137.361 358.79Z"/>
	<path fill="#6EC3EE" transform="scale(2 2)" d="M246.039 352.098C248.25 348.774 246.941 338.636 250.899 337.326C257.638 335.098 255.605 343.611 254.881 346.589C258.027 345.002 264.452 340.173 267.913 341.437C275.714 344.288 262.367 352.114 261.128 353.104C262.998 354.238 266.695 356.056 267.257 358.381C269.232 366.539 252.705 358.295 250.476 357.605C247.871 356.262 245.831 355.397 246.039 352.098Z"/>
	<path fill="#C6E9F5" transform="scale(2 2)" d="M214.323 413.253C214.392 414.115 205.294 436.175 204.087 438.033C200.759 443.156 195.798 441.639 191.363 438.687C179.781 428.309 207.94 416.018 214.323 413.253Z"/>
	<path fill="#6EC3EE" transform="scale(2 2)" d="M209.834 346.589C209.57 340.875 207.418 334.623 215.816 337.782C216.301 339.467 218.005 350.43 217.929 352.098C217.474 354.798 217.138 356.703 214.323 357.605C209.803 359.631 204.482 361.022 199.666 362.163C191.114 357.399 200.478 353.868 205.631 353.104C204.602 352.251 188.746 344.267 198.889 341.579C202.191 340.703 207.013 344.965 209.834 346.589Z"/>
	<path fill="#C6E9F5" transform="scale(2 2)" d="M174.409 397.039L174.471 397.054L174.593 397.31C173.3 401.291 171.671 405.157 170.258 409.098C167.68 416.29 164.109 433.055 152.706 424.389C149.887 421.521 148.247 416.095 151.489 412.897C155.033 409.4 169.753 399.512 174.409 397.039Z"/>
	<path fill="#6EC3EE" transform="scale(2 2)" d="M228.52 335.097C228.491 332.309 227.692 325.967 229.708 323.952C231.018 322.643 233.743 322.689 235.012 324.036C237.133 326.287 236.084 332.165 236.136 335.097C237.815 333.669 240.163 331.071 242.496 331.151C254.237 331.554 236.551 344.55 235.767 345.546C234.618 346.534 233.4 347.356 232.139 348.19C230.899 347.379 229.729 346.41 228.52 345.546C226.068 343.249 218.307 337.438 218.071 334.053C217.554 326.641 227.468 334.401 228.52 335.097Z"/>
	<path fill="#6EC3EE" transform="scale(2 2)" d="M119.504 330.552C119.146 328.39 118.073 317.088 123.709 321.258C126.185 323.089 126.346 331.892 126.871 335.097C126.805 337.837 125.432 340.676 122.945 341.971C119.486 342.712 110.544 348.29 108.286 343.6C106.297 339.472 112.512 338.051 115.213 336.991C111.659 333.585 99.4855 329.484 109.856 324.265C113.34 325.591 116.574 328.276 119.504 330.552Z"/>
	<path fill="#6EC3EE" transform="scale(2 2)" d="M155.965 336.991C156.742 333.086 157.363 320.475 162.174 321.978C165.221 322.929 164.511 328.237 164.467 330.552C167.33 328.961 170.136 327.159 173.216 326.018C174.064 326.487 174.927 326.931 175.705 327.513C178.67 333.189 171.528 335.095 167.799 337.782C169.929 338.465 173.864 338.92 174.985 341.065C179.522 349.745 160.647 342.6 159.014 341.971C157.939 341.5 156.967 340.904 155.965 340.299L155.965 336.991Z"/>
	<path fill="#6EC3EE" transform="scale(2 2)" d="M137.361 320.058C137.299 317.477 136.408 312.132 138.19 310.199C139.495 308.784 142.302 308.664 143.61 310.135C145.526 312.287 144.763 317.293 144.987 320.058C146.76 318.64 149.724 315.72 152.115 316.072C161.164 317.407 146.045 328.061 144.987 329.063C143.51 329.946 141.984 330.742 140.466 331.552C139.529 330.639 138.392 329.872 137.361 329.063C135.257 326.521 127.737 322.582 127.705 319.277C127.635 312.101 135.63 318.616 137.361 320.058Z"/>
	<path fill="#6EC3EE" transform="scale(2 2)" d="M113.859 358.79C111.318 358 102.49 354.351 107.892 350.871C110.599 349.127 119.216 353.805 122.455 354.686L122.945 354.816C124.004 355.003 125.038 355.917 125.997 356.407C126.355 357.713 126.503 359.079 126.871 360.362C125.785 362.483 125.107 368.289 124.546 370.91C123.432 376.11 116.064 374.733 119.504 364.898C118.223 365.413 103.075 374.068 106.251 364.338C107.07 361.827 111.624 359.919 113.859 358.79Z"/>
	<path fill="#6EC3EE" transform="scale(2 2)" d="M159.014 354.816C161.909 354.04 170.435 350.497 172.882 351.935C178.047 354.973 170.961 358.148 167.799 358.79L168.089 359.022C170.201 360.698 175.689 362.899 176.107 365.656C177.347 373.85 167.254 367.998 164.467 365.826C164.585 367.974 165.17 371.316 163.684 373.065C158.203 379.519 156.285 362.633 155.965 360.362C156.022 357.221 156.118 356.47 159.014 354.816Z"/>
</svg>
