<?xml version="1.0" encoding="utf-8" ?>
<svg xmlns="http://www.w3.org/2000/svg" xmlns:xlink="http://www.w3.org/1999/xlink" width="1024" height="1024">
	<path fill="#F9F9FA" transform="scale(2 2)" d="M274.016 85.6225L274.073 85.8062L274.372 85.6318L274.475 85.9875L274.672 85.8043C308.279 83.0241 342.8 103.005 356.011 134.335C360.395 144.735 363.236 155.952 365.06 167.07C401.155 173.248 428.985 201.062 429.028 238.854C429.065 271.673 405.376 301.774 373.45 309.229C364.726 311.266 356.045 310.879 347.166 310.883L231.949 310.873L175.906 310.882C166.467 310.885 154.304 311.487 145.192 310.429C80.634 302.931 58.6689 215.642 117.733 179.465C128.829 172.669 125.525 178.071 127.91 163.565C132.481 135.758 159.054 109.365 188.073 110.914C198.441 111.468 203.872 115.5 212.542 119.479C215.958 116.65 218.532 112.71 221.695 109.598C234.438 97.0607 250.754 88.4098 268.521 85.9875C270.37 85.7354 272.198 86.231 274.016 85.6225Z"/>
	<defs>
		<linearGradient id="gradient_0" gradientUnits="userSpaceOnUse" x1="257.42471" y1="399.16678" x2="239.70245" y2="370.32428">
			<stop offset="0" stop-color="#59D6F9"/>
			<stop offset="1" stop-color="#AAE9F8"/>
		</linearGradient>
	</defs>
	<path fill="url(#gradient_0)" transform="scale(2 2)" d="M256.034 360.233C264.453 363.017 275.021 378.843 277.339 386.986C277.992 388.012 278.497 389.271 278.634 390.484C285.004 412.962 264.266 429.974 246.553 420.81C243.327 419.666 240.805 417.164 238.678 414.576C231.938 407.849 230.82 397.578 234.458 389.016C237.639 381.53 247.724 363.544 256.034 360.233Z"/>
	<path fill="#44D0FA" transform="scale(2 2)" d="M238.678 414.576C238.556 412.682 236.565 411.748 236.121 410.039L236.66 409.686L237.086 409.683C242.858 409.582 268.636 393.158 272.872 388.543C273.874 387.452 274.643 385.447 275.992 384.816L276.412 385.134C276.546 385.973 276.743 386.41 277.339 386.986C277.992 388.012 278.497 389.271 278.634 390.484C285.004 412.962 264.266 429.974 246.553 420.81C243.327 419.666 240.805 417.164 238.678 414.576Z"/>
	<path fill="#0EBBFC" transform="scale(2 2)" d="M246.553 420.81L246.578 420.448C248.959 420.459 251.003 423.031 253.065 420.62C253.318 418.292 248.796 419.175 247.364 419.109C248.906 418.571 251.311 418.812 252.983 418.668C263.646 417.752 273.874 408.551 275.722 398.063C276.302 394.769 276.038 391.609 277.325 388.432L277.551 388.492L278.119 390.225L278.634 390.484C285.004 412.962 264.266 429.974 246.553 420.81Z"/>
	<defs>
		<linearGradient id="gradient_1" gradientUnits="userSpaceOnUse" x1="153.68344" y1="372.48502" x2="179.22751" y2="413.48523">
			<stop offset="0" stop-color="#99E6F7"/>
			<stop offset="1" stop-color="#32C9FA"/>
		</linearGradient>
	</defs>
	<path fill="url(#gradient_1)" transform="scale(2 2)" d="M159.946 420.81C149.318 415.141 143.54 402.977 147.496 391.241C149.729 384.613 162.077 366.03 167.536 363.484C176.308 359.394 183.66 375.824 187.232 381.36C188.91 383.96 191.131 386.705 192.334 389.54C201.871 409.524 181.474 429.155 159.946 420.81Z"/>
	<path fill="#0EBBFC" transform="scale(2 2)" d="M159.946 420.81C161.13 416.855 183.875 421.095 189.538 400.75C190.331 397.9 189.654 390.947 191.31 389.122L191.909 389.661L192.334 389.54C201.871 409.524 181.474 429.155 159.946 420.81Z"/>
	<defs>
		<linearGradient id="gradient_2" gradientUnits="userSpaceOnUse" x1="326.64053" y1="373.17276" x2="351.70874" y2="413.36981">
			<stop offset="0" stop-color="#9CE8F7"/>
			<stop offset="1" stop-color="#34CAFB"/>
		</linearGradient>
	</defs>
	<path fill="url(#gradient_2)" transform="scale(2 2)" d="M331.196 419.613C322.258 414.528 316.283 403.542 318.803 393.239C320.982 384.331 334.136 367.678 342.456 362.704C348.043 369.139 360.177 379.651 363.067 386.986C365.878 393.761 367.623 401.61 364.747 408.659C359.256 422.122 343.411 426.083 331.196 419.613Z"/>
	<path fill="#0EBBFC" transform="scale(2 2)" d="M331.196 419.613C332.68 417.028 334.768 418.054 337.362 418.117C365.433 418.802 360.55 389.14 363.067 386.986C365.878 393.761 367.623 401.61 364.747 408.659C359.256 422.122 343.411 426.083 331.196 419.613Z"/>
	<defs>
		<linearGradient id="gradient_3" gradientUnits="userSpaceOnUse" x1="287.11703" y1="325.73679" x2="297.77731" y2="343.96689">
			<stop offset="0" stop-color="#9CE7F7"/>
			<stop offset="1" stop-color="#49D2FA"/>
		</linearGradient>
	</defs>
	<path fill="url(#gradient_3)" transform="scale(2 2)" d="M286.216 353.123C273.808 347.692 288.694 323.784 297.108 319.455C303.493 323.552 308.444 329.562 310.925 336.753C314.766 350.948 304.684 360.101 290.376 355.794C288.855 355.077 287.436 354.295 286.216 353.123Z"/>
	<path fill="#44D0FA" transform="scale(2 2)" d="M308.995 338.038C309.551 337.223 310.034 337.143 310.925 336.753C314.766 350.948 304.684 360.101 290.376 355.794C288.855 355.077 287.436 354.295 286.216 353.123L286.399 352.978L286.415 352.701L285.35 351.711L285.961 351.23C288.728 349.014 304.795 338.989 308.581 337.425L308.995 338.038Z"/>
	<path fill="#0EBBFC" transform="scale(2 2)" d="M308.995 338.038C309.551 337.223 310.034 337.143 310.925 336.753C314.766 350.948 304.684 360.101 290.376 355.794C294.379 351.607 308.966 354.141 308.995 338.038Z"/>
	<path fill="#76DFFA" transform="scale(2 2)" d="M201.377 350.338C194.443 342.863 207.068 323.144 214.699 320.698C218.793 322.785 224.678 328.862 226.166 333.219L227.514 334.936C234.772 351.928 219.487 363.1 205.73 355.794C204.207 354.11 202.448 352.348 201.377 350.338Z"/>
	<path fill="#0EBBFC" transform="scale(2 2)" d="M205.73 355.794C209.633 352.543 225.492 355.709 226.004 341.094C226.076 339.024 225.399 336.04 227.514 334.936C234.772 351.928 219.487 363.1 205.73 355.794Z"/>
	<path fill="#44D0FA" transform="scale(2 2)" d="M203.794 353.123C207.532 350.452 223.627 342.187 225.353 339.78C226.566 338.089 225.207 335.23 226.166 333.219L227.514 334.936C225.399 336.04 226.076 339.024 226.004 341.094C225.492 355.709 209.633 352.543 205.73 355.794C204.207 354.11 202.448 352.348 201.377 350.338L201.541 350.213C202.369 350.57 203.247 352.334 203.794 353.123Z"/>
</svg>
