<?xml version="1.0" encoding="utf-8" ?>
<svg xmlns="http://www.w3.org/2000/svg" xmlns:xlink="http://www.w3.org/1999/xlink" width="1024" height="1024">
	<path fill="#F9F9F9" transform="scale(2 2)" d="M254.02 102.338C284.037 64.6961 336.361 54.5 375.343 85.5302C398.085 103.633 405.618 125.499 405.477 153.241C435.985 163.992 452.693 200.195 441.646 230.924C436.52 245.183 426.16 254.882 413.254 262.206C410.357 264.119 406.89 308.098 362.379 314.504C356.089 315.409 349.499 315.283 343.159 315.278L140.624 315.14C133.006 315.131 125.524 315.284 117.946 314.166C96.0308 310.93 75.3365 295.2 67.8907 274.087C55.812 239.836 77.4714 200.45 114.113 195.533C113.672 171.582 118.861 152.384 140.636 138.175C155.402 128.539 170.478 128.873 186.986 132.4C189.38 130.12 191.303 127.254 193.507 124.778C212.541 103.404 229.268 103.987 253.78 102.356L254.02 102.338Z"/>
	<path fill="#93A6C3" transform="scale(2 2)" d="M254.02 102.338C284.037 64.6961 336.361 54.5 375.343 85.5302C398.085 103.633 405.618 125.499 405.477 153.241C435.985 163.992 452.693 200.195 441.646 230.924C436.52 245.183 426.16 254.882 413.254 262.206C412.604 260.865 413.263 255.46 413.265 253.663C413.297 222.452 389.275 198.71 358.835 195.533C365.771 165.576 340.845 140.293 311.446 150.95C306.309 130.136 287.971 112.222 267.992 105.612C263.425 104.101 258.12 103.792 254.02 102.338Z"/>
	<path fill="#67BFFA" transform="scale(2 2)" d="M369.568 383.679C356.221 388.366 343.014 377.273 348.119 363.666C349.394 360.265 360.086 344.958 363.013 343.637L363.46 343.869C369.265 352.575 379.88 361.606 377.658 373.814C376.895 378.007 373.646 382.177 369.568 383.679Z"/>
	<path fill="#0B99F7" transform="scale(2 2)" d="M369.568 383.679C356.221 388.366 343.014 377.273 348.119 363.666C349.394 360.265 360.086 344.958 363.013 343.637L363.46 343.869C362.623 352.815 351.231 366.109 360.615 378.142C363.901 382.357 365.776 381.401 369.568 383.679Z"/>
	<path fill="#67BFFA" transform="scale(2 2)" d="M296.243 383.679C283.419 388.519 269.204 377.197 275.253 363.385C276.749 359.969 287.367 344.558 290.242 343.444L290.393 343.869C295.719 352.779 307.113 361.41 304.344 373.867C303.426 377.998 300.264 382.098 296.243 383.679Z"/>
	<path fill="#0B99F7" transform="scale(2 2)" d="M296.243 383.679C283.419 388.519 269.204 377.197 275.253 363.385C276.749 359.969 287.367 344.558 290.242 343.444L290.393 343.869C289.333 345.347 288.835 347.611 288.209 349.336C285.088 357.951 279.206 373.949 289.087 380.698C291.265 382.186 294.104 382.283 296.243 383.679Z"/>
	<path fill="#67BFFA" transform="scale(2 2)" d="M216.361 345.258C216.71 344.754 217.027 344.304 217.463 343.869C223.526 350.858 233.163 362.16 232.459 371.838C232.079 377.058 228.497 382.686 223.05 383.679C213.806 387.318 202.854 382.396 201.452 372.148C200.098 362.25 210.862 352.433 216.361 345.258Z"/>
	<path fill="#0B99F7" transform="scale(2 2)" d="M216.361 345.258C218.974 349.088 206.317 365.589 213.691 377.239C217.159 382.72 222.028 382.426 223.05 383.679C213.806 387.318 202.854 382.396 201.452 372.148C200.098 362.25 210.862 352.433 216.361 345.258Z"/>
	<path fill="#67BFFA" transform="scale(2 2)" d="M184.467 442.899C175.053 447.069 164.019 440.498 162.974 430.352C162.2 422.836 167.019 416.939 171.381 411.399C172.627 409.817 176.286 403.669 178.387 403.474C185.015 409.948 193.066 419.922 193.257 429.608C193.364 435.036 189.829 441.15 184.467 442.899Z"/>
	<path fill="#0B99F7" transform="scale(2 2)" d="M184.467 442.899C175.053 447.069 164.019 440.498 162.974 430.352C162.2 422.836 167.019 416.939 171.381 411.399C172.627 409.817 176.286 403.669 178.387 403.474L178.331 403.818C176.557 414.321 167.828 426.795 175.042 437.047C178.787 442.371 180.685 440.73 184.467 442.899Z"/>
	<path fill="#67BFFA" transform="scale(2 2)" d="M254.776 442.899C241.343 448.53 228.66 433.612 238.336 418.19C239.924 415.659 248.246 404.512 250.391 403.474C256.455 410.494 265.804 420.661 265.236 430.612C264.895 436.597 260.554 441.557 254.776 442.899Z"/>
	<path fill="#0B99F7" transform="scale(2 2)" d="M254.776 442.899C241.343 448.53 228.66 433.612 238.336 418.19C239.924 415.659 248.246 404.512 250.391 403.474C248.401 415.179 234.33 435.548 254.635 442.561L254.776 442.899Z"/>
	<path fill="#67BFFA" transform="scale(2 2)" d="M152.543 383.679C143.263 387.504 131.017 382.143 129.501 371.75C128.147 362.46 140.163 350.836 145.421 343.869C151.251 351.676 161.468 362.405 160.101 372.888C159.563 377.01 156.566 382.043 152.543 383.679Z"/>
	<path fill="#0B99F7" transform="scale(2 2)" d="M152.543 383.679C143.263 387.504 131.017 382.143 129.501 371.75C128.147 362.46 140.163 350.836 145.421 343.869C145.263 354.285 127.804 377.616 150.184 382.975C150.979 383.165 151.83 383.274 152.543 383.679Z"/>
	<path fill="#67BFFA" transform="scale(2 2)" d="M328.279 442.899C319.245 445.882 309.343 440.569 308.257 430.625C307.473 423.447 319.866 404.018 323.69 403.655L323.941 404.23C325.732 407.094 328.262 409.388 330.335 412.034C337.805 421.569 343.271 437.6 328.279 442.899Z"/>
	<path fill="#0B99F7" transform="scale(2 2)" d="M328.279 442.899C319.245 445.882 309.343 440.569 308.257 430.625C307.473 423.447 319.866 404.018 323.69 403.655L323.941 404.23C320.148 412.448 315.646 424.446 318.867 433.402C320.708 438.523 324.439 439.772 328.279 442.899Z"/>
</svg>
