<?xml version="1.0" encoding="utf-8" ?>
<svg xmlns="http://www.w3.org/2000/svg" xmlns:xlink="http://www.w3.org/1999/xlink" width="1024" height="1024">
	<path fill="#FCFCFC" transform="scale(2 2)" d="M169.622 166.751C177.177 145.902 191.976 129.469 214.111 123.56C245.96 115.058 280.534 134.752 288.896 166.751C306.955 145.613 341.854 144.622 362.548 162.329C375.695 173.578 382.705 188.11 384.291 205.245C397.325 205.195 407.268 207.097 417.105 216.923C435.176 234.974 431.292 269.237 413.924 286.293C410.244 289.907 406.192 292.443 401.803 295.077C401.877 296.053 401.722 297.059 401.724 298.044L401.803 306.518C453.075 315.375 449.588 374.368 412 384.074C403.684 386.222 394.249 385.546 385.709 385.547L175 385.171C168.693 385.209 161.129 384.956 155.101 385.137L143.891 385.393C137.609 385.481 131.256 385.722 124.987 385.164C100.96 383.029 80.5555 363.763 74.7706 340.712C70.1306 322.223 74.9037 295.505 89.0632 281.822C91.101 279.853 93.7051 278.256 94.9999 275.651C89.745 270.279 86.6876 261.651 85.1077 254.443C77.2841 218.745 102.765 190.071 136.8 182.878C142.237 167.591 153.895 160.37 169.622 166.751Z"/>
	<path fill="#B9BEC5" transform="scale(2 2)" d="M288.896 166.751C306.955 145.613 341.854 144.622 362.548 162.329C375.695 173.578 382.705 188.11 384.291 205.245C397.325 205.195 407.268 207.097 417.105 216.923C435.176 234.974 431.292 269.237 413.924 286.293C410.244 289.907 406.192 292.443 401.803 295.077C400.697 293.636 400.098 290.783 399.465 289.043C393.914 273.809 377.175 267.929 362.086 271.444C357.298 231.993 316.943 211.294 284.612 235.913C267.583 211.167 238.172 199.683 208.715 207.183C209.021 202.419 219.539 195.342 223.587 193.725C229.774 191.254 236.946 191.504 243.022 194.137C247.872 172.172 264.092 165.057 284.612 171.987C285.715 169.642 286.955 168.447 288.896 166.751Z"/>
	<path fill="#D3D3D6" transform="scale(2 2)" d="M169.622 166.751C177.177 145.902 191.976 129.469 214.111 123.56C245.96 115.058 280.534 134.752 288.896 166.751C286.955 168.447 285.715 169.642 284.612 171.987C264.092 165.057 247.872 172.172 243.022 194.137C236.946 191.504 229.774 191.254 223.587 193.725C219.539 195.342 209.021 202.419 208.715 207.183C187.562 214.524 170.713 227.742 162.052 249.153C146.493 242.095 133.811 247.57 125.822 262.02C114.187 264.095 104.18 268.019 94.9999 275.651C89.745 270.279 86.6876 261.651 85.1077 254.443C77.2841 218.745 102.765 190.071 136.8 182.878C142.237 167.591 153.895 160.37 169.622 166.751Z"/>
</svg>
