<?xml version="1.0" encoding="utf-8" ?>
<svg xmlns="http://www.w3.org/2000/svg" xmlns:xlink="http://www.w3.org/1999/xlink" width="1024" height="1024">
	<defs>
		<linearGradient id="gradient_0" gradientUnits="userSpaceOnUse" x1="249.4386" y1="69.466293" x2="263.07477" y2="436.89404">
			<stop offset="0" stop-color="#1F3255"/>
			<stop offset="1" stop-color="#F4FDFF"/>
		</linearGradient>
	</defs>
	<path fill="url(#gradient_0)" transform="scale(2 2)" d="M77.8111 127.119C85.5073 99.9234 108.817 76.7513 137.644 73.874C147.135 72.9266 157.488 73.5506 167.074 73.5521L347.599 73.5508C359.943 73.548 372.976 72.6384 384.946 76.125C409.87 83.3842 434.722 109.375 435.877 136.069C437.018 140.711 436.354 147.09 436.334 151.915L436.332 266.904L436.34 351.414C436.337 360.467 436.634 370.225 434.501 379.057C426.027 414.135 397.816 433.144 362.251 433.32L170.142 433.329C140.678 433.348 120.257 434.108 97.5353 411.623C81.3902 395.646 76.111 376.716 76.0063 354.607C75.935 339.555 75.3972 323.548 76.5499 308.609C75.3426 302.691 75.9917 294.619 75.9936 288.418L76.0079 251.896L76.0192 150.009C76.0178 140.626 75.8372 136.609 77.8111 127.119Z"/>
	<defs>
		<linearGradient id="gradient_1" gradientUnits="userSpaceOnUse" x1="343.61313" y1="313.85358" x2="236.493" y2="183.89082">
			<stop offset="0" stop-color="#AEB7BC"/>
			<stop offset="1" stop-color="#DEE2E4"/>
		</linearGradient>
	</defs>
	<path fill="url(#gradient_1)" transform="scale(2 2)" d="M249.667 180.856C260.84 167.697 279.418 162.052 296.162 165.354C297.671 165.651 300.109 166.62 301.592 166.513L301.798 166.048C302.701 167.382 306.303 168.521 307.865 169.298C323.212 176.932 332.314 187.423 336.928 204.058C356.705 201.038 372.677 208.336 384.188 224.161C388.001 231.485 388.019 235.261 390.458 241.661C391.028 245.517 391.102 255.082 391.746 257.173C391.502 268.186 383.085 280.798 375.497 288.069C370.449 292.906 367.157 294.201 361.293 297.5C358.401 298.67 355.447 299.501 352.436 300.298C344.539 266.396 297.153 260.475 279.332 290.238C277.421 293.428 276.029 296.8 274.795 300.298C259.867 300.049 247.788 306.188 240.364 319.071C238.428 315.007 234.779 311.494 230.994 309.152C229.336 308.134 222.666 306.313 222.09 305.454C226.11 282.898 209.293 262.783 187.167 260.081C186.366 253.965 183.975 249.069 180.584 244.007C188.827 217.485 208.365 201.29 237.048 202.534C239.746 193.663 244.284 188.078 249.667 180.856Z"/>
	<defs>
		<linearGradient id="gradient_2" gradientUnits="userSpaceOnUse" x1="187.96085" y1="359.6279" x2="141.28818" y2="295.34232">
			<stop offset="0" stop-color="#586471"/>
			<stop offset="1" stop-color="#859FB7"/>
		</linearGradient>
	</defs>
	<path fill="url(#gradient_2)" transform="scale(2 2)" d="M76.0079 251.896C77.1344 248.544 76.6501 248.938 78.4721 245.132C85.7825 229.862 100.573 223.475 117.002 227.567C125.453 231.164 129.491 234.51 133.749 242.678C149.175 228.308 165.984 228.587 180.584 244.007C183.975 249.069 186.366 253.965 187.167 260.081C209.293 262.783 226.11 282.898 222.09 305.454C222.666 306.313 229.336 308.134 230.994 309.152C234.779 311.494 238.428 315.007 240.364 319.071C232.521 337.899 235.771 347.439 246.503 362.464C235.501 376.886 226.802 378.451 210.254 378.433L179.17 378.437C176.96 378.441 174.581 378.624 172.396 378.422L144.277 378.422C108.931 378.182 90.0309 338.548 113.398 315.988L97.8346 316.004C95.0781 316.027 91.9248 316.394 89.2284 315.988C83.5465 315.426 80.2026 312.751 76.5499 308.609C75.3426 302.691 75.9917 294.619 75.9936 288.418L76.0079 251.896Z"/>
	<defs>
		<linearGradient id="gradient_3" gradientUnits="userSpaceOnUse" x1="173.55168" y1="335.95923" x2="102.27023" y2="223.74937">
			<stop offset="0" stop-color="#3D4246"/>
			<stop offset="1" stop-color="#7792AD"/>
		</linearGradient>
	</defs>
	<path fill="url(#gradient_3)" transform="scale(2 2)" d="M76.0079 251.896C77.1344 248.544 76.6501 248.938 78.4721 245.132C85.7825 229.862 100.573 223.475 117.002 227.567C125.453 231.164 129.491 234.51 133.749 242.678C149.175 228.308 165.984 228.587 180.584 244.007C183.975 249.069 186.366 253.965 187.167 260.081C209.293 262.783 226.11 282.898 222.09 305.454C222.019 305.516 211.568 307.76 209.429 308.609C205.451 271.877 152.356 268.687 142.41 307.529C131.142 305.384 121.455 308.021 113.398 315.988L96.6815 315.951C94.2859 315.941 91.5827 315.625 89.2284 315.988C83.5465 315.426 80.2026 312.751 76.5499 308.609C75.3426 302.691 75.9917 294.619 75.9936 288.418L76.0079 251.896Z"/>
	<path fill="#4E5B67" transform="scale(2 2)" d="M230.994 309.152C234.779 311.494 238.428 315.007 240.364 319.071C232.521 337.899 235.771 347.439 246.503 362.464C235.501 376.886 226.802 378.451 210.254 378.433L179.17 378.437C176.96 378.441 174.581 378.624 172.396 378.422C170.613 377.824 164.045 378.216 163.363 377.641C163.932 373.523 168.349 370.868 171.195 368.368C178.974 361.533 189.55 352.895 198.329 347.154C199.723 346.242 201.422 346.596 202.745 345.258C213.394 334.49 220.889 318.79 230.994 309.152Z"/>
	<defs>
		<linearGradient id="gradient_4" gradientUnits="userSpaceOnUse" x1="359.83154" y1="384.2851" x2="270.65604" y2="288.62891">
			<stop offset="0" stop-color="#C5E1F4"/>
			<stop offset="1" stop-color="white"/>
		</linearGradient>
	</defs>
	<path fill="url(#gradient_4)" transform="scale(2 2)" d="M274.795 300.298C276.029 296.8 277.421 293.428 279.332 290.238C297.153 260.475 344.539 266.396 352.436 300.298C355.447 299.501 358.401 298.67 361.293 297.5L361.302 297.861L359.557 298.507L359.495 298.91C363.074 299.813 366.363 299.853 369.861 301.189C405.09 314.645 400.507 367.457 363.255 373.498C357.664 374.405 351.748 374.055 346.096 374.059L289.252 374.066C275.619 374.071 262.361 375.024 250.918 366.197C249.432 365.052 248.053 363.461 246.503 362.464C235.771 347.439 232.521 337.899 240.364 319.071C247.788 306.188 259.867 300.049 274.795 300.298Z"/>
	<path fill="#FEFEFE" transform="scale(2 2)" d="M313.703 142.771C314.888 142.167 318.674 137.546 319.969 136.279C332.974 123.554 350.117 118.975 367.764 119.246C385.852 121.05 393.625 125.554 407.077 136.069C420.302 149.911 426.951 163.633 426.474 183.69C425.868 209.147 411.913 229.342 390.458 241.661C388.019 235.261 388.001 231.485 384.188 224.161C372.677 208.336 356.705 201.038 336.928 204.058C332.314 187.423 323.212 176.932 307.865 169.298C306.303 168.521 302.701 167.382 301.798 166.048C304.251 157.315 308.522 150.121 313.703 142.771Z"/>
	<path fill="#AAADAF" transform="scale(2 2)" d="M164.37 202.534C169.457 173.697 195.683 155.431 224.449 163.081C234.232 165.682 244.501 171.924 249.667 180.856C244.284 188.078 239.746 193.663 237.048 202.534C208.365 201.29 188.827 217.485 180.584 244.007C165.984 228.587 149.175 228.308 133.749 242.678C129.491 234.51 125.453 231.164 117.002 227.567C118.215 225.2 119.088 222.683 120.341 220.331C128.472 205.064 147.83 196.558 164.37 202.534Z"/>
</svg>
