<?xml version="1.0" encoding="utf-8" ?>
<svg xmlns="http://www.w3.org/2000/svg" xmlns:xlink="http://www.w3.org/1999/xlink" width="1024" height="1024">
	<path fill="#D6D4C9" transform="scale(2 2)" d="M224.735 216.416C246.034 172.259 295.807 154.514 340.453 176.111C385.317 197.812 400.691 253.825 378.783 297.585C375.398 294.335 362.71 287.321 361.393 283.58L361.393 283.58C359.866 287.351 356.939 294.23 353.621 296.516C354.532 300.219 355.266 303.895 355.514 307.712C355.521 309.645 355.577 311.593 355.514 313.526C358.177 314.511 362.332 315.298 364.498 317.137C366.77 319.306 370.333 320.05 372.895 321.908C394.384 337.488 401.915 368.629 383.848 389.421C370.791 404.448 357.15 405.142 338.995 405.369L309.557 405.462C314.616 385.421 310.338 371.399 297.983 356.18C283.357 340.786 261.431 336.262 241.532 343.524L239.896 339.168C226.391 307.754 195.158 288.023 160.689 294.785C157.087 295.492 153.494 296.794 149.977 297.862L149.609 297.585C150.427 294.7 150.849 291.607 151.484 288.669C157.784 259.521 181.74 236.242 210.5 229.241C213.417 228.531 218.6 228.846 220.863 226.791C222.064 223.301 223.176 219.767 224.735 216.416Z"/>
	<path fill="#F2B414" transform="scale(2 2)" d="M224.735 216.416C246.034 172.259 295.807 154.514 340.453 176.111C385.317 197.812 400.691 253.825 378.783 297.585C375.398 294.335 362.71 287.321 361.393 283.58L361.393 283.58C359.866 287.351 356.939 294.23 353.621 296.516C346.227 274.304 327.846 263.11 304.756 267.812L303.305 265.771C288.104 244.541 269.913 231.838 243.804 227.536C236.045 226.454 228.582 227.266 220.863 226.791C222.064 223.301 223.176 219.767 224.735 216.416Z"/>
	<path fill="#FDD76B" transform="scale(2 2)" d="M224.735 216.416C246.034 172.259 295.807 154.514 340.453 176.111C385.317 197.812 400.691 253.825 378.783 297.585C375.398 294.335 362.71 287.321 361.393 283.58C380.696 237.513 345.136 183.19 294.185 188.668C274.156 190.821 262.144 201.1 250.304 215.868L250.304 215.868C247.932 219.667 245.814 223.535 243.804 227.536C236.045 226.454 228.582 227.266 220.863 226.791C222.064 223.301 223.176 219.767 224.735 216.416Z"/>
	<path fill="#F5C046" transform="scale(2 2)" d="M224.735 216.416C233.356 215.4 241.654 213.375 250.304 215.868L250.304 215.868C247.932 219.667 245.814 223.535 243.804 227.536C236.045 226.454 228.582 227.266 220.863 226.791C222.064 223.301 223.176 219.767 224.735 216.416Z"/>
	<path fill="#F9F8F8" transform="scale(2 2)" d="M297.983 356.18C298.819 354.244 298.927 351.247 299.437 349.107C304.064 329.702 322.197 314.798 342.03 313.58C346.524 313.305 351.012 313.801 355.514 313.526C358.177 314.511 362.332 315.298 364.498 317.137C366.77 319.306 370.333 320.05 372.895 321.908C394.384 337.488 401.915 368.629 383.848 389.421C370.791 404.448 357.15 405.142 338.995 405.369L309.557 405.462C314.616 385.421 310.338 371.399 297.983 356.18Z"/>
	<path fill="#F9F8F8" transform="scale(2 2)" d="M149.609 297.585L149.977 297.862C153.494 296.794 157.087 295.492 160.689 294.785C195.158 288.023 226.391 307.754 239.896 339.168L241.532 343.524C229.122 351.73 222.396 353.175 214.583 368.824C198.206 336.564 160.916 337.321 146.485 370.84C122.789 366.877 110.595 392.148 124.624 405.462C116.889 406.547 87.3231 405.772 81.5912 403.411C44.4428 388.106 44.4848 336.593 80.3102 321.924C93.6931 316.444 104.286 318.454 117.159 323.872C124.373 314.327 133.095 306.26 143.844 300.942C145.407 300.169 148.785 299.196 149.609 297.585Z"/>
	<path fill="#F5C046" transform="scale(2 2)" d="M361.393 283.58L361.393 283.58C362.71 287.321 375.398 294.335 378.783 297.585C374.363 304.895 370.155 310.709 364.498 317.137C362.332 315.298 358.177 314.511 355.514 313.526C355.577 311.593 355.521 309.645 355.514 307.712C355.266 303.895 354.532 300.219 353.621 296.516C356.939 294.23 359.866 287.351 361.393 283.58Z"/>
	<path fill="#FCF2C8" transform="scale(2 2)" d="M449.936 251.123C463.798 250.924 462.12 258.771 448.615 258.532C444.889 258.252 442.156 256.88 438.708 255.654C442.746 252.746 444.827 251.418 449.936 251.123Z"/>
	<path fill="#FCF2C8" transform="scale(2 2)" d="M425.445 172.06C432.313 171.597 431.801 182.185 414.249 181.392C412.993 181.116 411.664 181.026 410.386 180.872L410.458 180.482L410.795 180.903L410.579 180.246C413.962 176.026 420.352 173.329 425.445 172.06Z"/>
	<path fill="#FCF2C8" transform="scale(2 2)" d="M360.571 113.734C369.72 113.227 361.029 127.885 358.427 130.615C353.387 135.977 355.475 116.769 360.571 113.734Z"/>
	<path fill="#FCF2C8" transform="scale(2 2)" d="M418.224 328.061C422.017 328.45 433.624 337.134 426.672 340.308C424.499 340.019 416.62 337.821 415.75 335.343L416.032 334.883C417.2 332.979 418.109 330.299 418.224 328.061Z"/>
	<path fill="#FCF2C8" transform="scale(2 2)" d="M275.618 102.779C283.686 102.082 279.11 117.889 278.081 121.993C275.188 118.774 270.698 105.833 275.618 102.779Z"/>
	<path fill="#FCF2C8" transform="scale(2 2)" d="M150.521 212.71C154.837 213.886 160.386 216.409 163.881 219.297C163.706 219.388 152.857 220.549 152.739 220.523C146.028 220.339 143.417 214.903 150.521 212.71Z"/>
	<path fill="#D6D4C9" transform="scale(2 2)" d="M152.739 220.523C154.516 220.437 154.535 220.014 155.937 219.196C158.488 217.707 161.25 219.051 163.881 219.297C163.706 219.388 152.857 220.549 152.739 220.523Z"/>
	<path fill="#FCF2C8" transform="scale(2 2)" d="M201.68 141.731C205.811 141.626 211.343 150.211 211.916 153.595L211.773 153.754C210.961 153.669 210.308 153.43 209.55 153.133C205.467 151.856 193.429 146.013 201.68 141.731Z"/>
</svg>
