<?xml version="1.0" encoding="utf-8" ?>
<svg xmlns="http://www.w3.org/2000/svg" xmlns:xlink="http://www.w3.org/1999/xlink" width="1024" height="1024">
	<defs>
		<linearGradient id="gradient_0" gradientUnits="userSpaceOnUse" x1="130.08151" y1="221.36963" x2="268.60721" y2="432.27618">
			<stop offset="0" stop-color="#CFCED0"/>
			<stop offset="1" stop-color="#F3F4F3"/>
		</linearGradient>
	</defs>
	<path fill="url(#gradient_0)" transform="scale(2 2)" d="M179.377 199.749C184.3 199.716 189.257 199.712 194.129 200.521C223.261 205.36 250.372 235.778 255.917 263.623C289.033 252.957 318.083 273.834 317.976 307.945C339.442 308.603 357.839 323.252 361.33 344.9C365.1 368.282 347.28 389.062 323.757 389.753C308.661 390.196 309.083 386.214 300.54 398.283C290.115 413.012 267.627 418.114 252.536 407.462C245.341 403.526 241.917 397.428 237.207 391.093L124.86 391.097C107.458 391.039 95.5691 390.225 81.1574 378.481C44.1814 348.349 61.3748 286.949 109.627 282.168C109.578 277.371 109.404 272.56 109.828 267.775C113.229 229.414 142.821 204.631 179.377 199.749Z"/>
	<defs>
		<linearGradient id="gradient_1" gradientUnits="userSpaceOnUse" x1="253.54636" y1="261.68869" x2="331.48764" y2="202.95699">
			<stop offset="0" stop-color="#1E3892"/>
			<stop offset="1" stop-color="#8C93B0"/>
		</linearGradient>
	</defs>
	<path fill="url(#gradient_1)" transform="scale(2 2)" d="M260.695 114.356L261.339 114.57L261.637 114.394C262.681 113.783 262.601 113.938 263.072 115.032C265.746 121.256 277.836 130.939 281.788 139.178C282.563 140.794 282.64 142.534 283.264 144.162C282.657 146.488 282.311 149.049 281.538 151.303C277.363 179.189 280.736 203.111 298.115 226.656C316.749 251.901 349.666 268.708 381.334 267.345C380.869 277.061 372.183 297.416 368.015 305.932C365.352 311.375 361.562 317.156 360.588 323.171L359.563 323.912C359.157 323.607 358.822 323.37 358.348 323.171C350.943 311.171 337.687 303.744 323.833 302.057C321.431 268.905 292.744 249.396 260.695 255.609C256.653 230.819 235.438 213.601 213.992 203.386C210.696 202.22 207.427 200.967 204.149 199.749C204.695 195.081 205.893 190.21 207.345 185.754C211.418 163.096 234.935 133.385 252.536 120.177C255.034 117.96 257.822 116.049 260.695 114.356Z"/>
	<path fill="#9297B1" transform="scale(2 2)" d="M260.695 114.356L261.339 114.57L261.637 114.394C262.681 113.783 262.601 113.938 263.072 115.032C265.746 121.256 277.836 130.939 281.788 139.178C282.563 140.794 282.64 142.534 283.264 144.162C282.657 146.488 282.311 149.049 281.538 151.303L281.237 151.265C279.633 142.928 258.536 126.319 255.823 118.701C254.56 118.907 253.941 120.206 252.536 120.177C255.034 117.96 257.822 116.049 260.695 114.356Z"/>
	<path fill="#1C3186" transform="scale(2 2)" d="M207.345 185.754C207.69 186.768 207.48 187.319 207.165 188.304C206.467 190.479 208.219 192.597 208.376 194.791C208.492 196.412 207.133 198.196 207.209 199.902C208.685 201.763 212.252 201.471 214.077 202.92L213.992 203.386C210.696 202.22 207.427 200.967 204.149 199.749C204.695 195.081 205.893 190.21 207.345 185.754Z"/>
	<defs>
		<linearGradient id="gradient_2" gradientUnits="userSpaceOnUse" x1="357.97513" y1="325.35977" x2="435.20541" y2="242.05504">
			<stop offset="0" stop-color="#55659D"/>
			<stop offset="1" stop-color="#CCC9CB"/>
		</linearGradient>
	</defs>
	<path fill="url(#gradient_2)" transform="scale(2 2)" d="M449.125 238.624C446.692 244.084 445.449 250.076 443.176 255.609C436.761 267.902 430.628 279.541 421.478 290.117C407.215 306.602 383.837 324.152 363.09 331.099C361.756 328.225 360.265 325.693 358.348 323.171C358.822 323.37 359.157 323.607 359.563 323.912L360.588 323.171C361.562 317.156 365.352 311.375 368.015 305.932C372.183 297.416 380.869 277.061 381.334 267.345C384.39 266.86 388.013 267.235 391.288 266.734C410.139 263.85 422.559 257.85 438.213 247.373C441.83 244.464 445.699 241.753 449.125 238.624Z"/>
	<path fill="#C9C8CF" transform="scale(2 2)" d="M449.125 238.624C446.692 244.084 445.449 250.076 443.176 255.609C441.622 252.572 443.687 249.532 440.337 247.948L440.306 246.862L440.017 246.662C439.377 247.236 439.072 247.599 438.213 247.373C441.83 244.464 445.699 241.753 449.125 238.624Z"/>
	<defs>
		<linearGradient id="gradient_3" gradientUnits="userSpaceOnUse" x1="271.39133" y1="128.80389" x2="320.46045" y2="98.974983">
			<stop offset="0" stop-color="#999BB3"/>
			<stop offset="1" stop-color="#D9D6D6"/>
		</linearGradient>
	</defs>
	<path fill="url(#gradient_3)" transform="scale(2 2)" d="M321.038 95.2151C300.881 107.345 290.877 122.38 283.264 144.162C282.64 142.534 282.563 140.794 281.788 139.178C277.836 130.939 265.746 121.256 263.072 115.032C262.601 113.938 262.681 113.783 261.637 114.394L261.339 114.57L260.695 114.356C279.633 102.214 298.697 96.5948 321.038 95.2151Z"/>
	<defs>
		<linearGradient id="gradient_4" gradientUnits="userSpaceOnUse" x1="390.82425" y1="163.16039" x2="352.79639" y2="168.40074">
			<stop offset="0" stop-color="#618DD6"/>
			<stop offset="1" stop-color="#FFFFFC"/>
		</linearGradient>
	</defs>
	<path fill="url(#gradient_4)" transform="scale(2 2)" d="M371.264 187.797C365.951 167.827 353.502 168.705 352.372 166.02C363.039 160.008 367.701 157.022 371.264 144.162C373.078 150.847 375.455 156.196 380.627 160.888C384.259 163.402 387.823 165.023 391.988 166.467C385.787 168.134 385.356 168.618 380.627 172.007C375.207 176.429 373.349 181.309 371.264 187.797Z"/>
	<defs>
		<linearGradient id="gradient_5" gradientUnits="userSpaceOnUse" x1="200.85745" y1="121.72022" x2="175.70154" y2="127.535">
			<stop offset="0" stop-color="#7BA7E5"/>
			<stop offset="1" stop-color="#FBFFFA"/>
		</linearGradient>
	</defs>
	<path fill="url(#gradient_5)" transform="scale(2 2)" d="M187.528 110.342C191.957 113.771 185.365 118.042 203.336 124.746C195.427 127.569 192.1 129.581 188.645 137.914C186.826 141.634 186.962 136.411 185.536 133.81C182.227 127.779 174.627 125.626 174.413 124.579C178.507 119.358 183.213 124.535 187.528 110.342Z"/>
</svg>
