<?xml version="1.0" encoding="utf-8" ?>
<svg xmlns="http://www.w3.org/2000/svg" xmlns:xlink="http://www.w3.org/1999/xlink" width="1024" height="1024">
	<path fill="#FCFCFC" transform="scale(2 2)" d="M254.901 145.957C263.113 133.576 278.183 125.72 292.446 122.819C326.172 115.96 358.463 138.882 365.185 172.29C370.38 198.106 362.234 216.759 344.702 234.418C343.094 237.184 342.326 240.456 341.429 243.508C392.471 264.924 374.723 329.142 329.738 331.435C324.513 331.701 319.197 331.435 313.959 331.424L176.861 331.379C173.151 331.404 160.148 332.067 157.556 331.423C137.209 331.071 125.123 329.661 108.997 314.516C83.0774 290.17 83.7 247.229 107.81 221.849C116.434 212.771 131.828 203.761 144.585 203.423C153.522 178.592 167.185 160.059 192.606 149.476C210.565 141.999 236.187 138.23 254.901 145.957L254.901 145.957Z"/>
	<path fill="#FED268" transform="scale(2 2)" d="M254.901 145.957C263.113 133.576 278.183 125.72 292.446 122.819C326.172 115.96 358.463 138.882 365.185 172.29C370.38 198.106 362.234 216.759 344.702 234.418C344.585 233.339 344.831 232.19 344.912 231.109C346.182 214.287 333.189 197.571 315.727 197.326C312.693 197.284 309.594 197.971 306.576 197.538C305.337 190.517 295.854 175.043 291.502 169.774C283.515 160.102 267.587 147.156 254.901 145.957Z"/>
	<path fill="#D7DCE3" transform="scale(2 2)" d="M144.585 203.423C153.522 178.592 167.185 160.059 192.606 149.476C210.565 141.999 236.187 138.23 254.901 145.957C254.125 146.794 252.891 147.826 252.51 148.9C250.061 148.168 247.187 147.881 244.641 147.591C212.784 143.95 183.368 161.507 170.486 190.815C168.678 194.93 167.48 199.226 165.912 203.423C162.142 204.019 158.363 204.599 154.68 205.623C91.6406 223.149 92.229 311.916 150.269 329.733C151.898 330.233 156.511 330.748 157.556 331.423C137.209 331.071 125.123 329.661 108.997 314.516C83.0774 290.17 83.7 247.229 107.81 221.849C116.434 212.771 131.828 203.761 144.585 203.423Z"/>
	<path fill="#FCBF0D" transform="scale(2 2)" d="M254.901 145.957C267.587 147.156 283.515 160.102 291.502 169.774C295.854 175.043 305.337 190.517 306.576 197.538L303.855 198.952C295.574 172.577 279.871 156.611 252.51 148.9C252.891 147.826 254.125 146.794 254.901 145.957L254.901 145.957Z"/>
	<path fill="#84B8EC" transform="scale(2 2)" d="M251.792 393.558C240.224 395.314 231.145 384.965 232.467 373.822C233.421 365.786 241.655 354.319 247.923 349.3C249.25 350.505 250.512 351.79 251.792 353.044L252.06 353.438C257.753 361.735 267.578 368.827 265.564 380.129C264.34 386.994 258.573 392.336 251.792 393.558Z"/>
	<path fill="#71A6E7" transform="scale(2 2)" d="M251.792 393.558C240.224 395.314 231.145 384.965 232.467 373.822C233.421 365.786 241.655 354.319 247.923 349.3C249.25 350.505 250.512 351.79 251.792 353.044C245.916 360.438 239.117 367.644 240.322 377.86C241.646 389.088 247.911 388.262 251.792 393.558Z"/>
	<path fill="#84B8EC" transform="scale(2 2)" d="M180.73 435.071C164.308 438.979 154.074 423.092 162.455 408.124C164.561 404.363 173.094 392.328 178.225 395.631C187.962 402.841 198.688 416.958 189.733 428.757C187.674 431.471 184.197 434.462 180.73 435.071Z"/>
	<path fill="#71A6E7" transform="scale(2 2)" d="M180.73 435.071C164.308 438.979 154.074 423.092 162.455 408.124C164.561 404.363 173.094 392.328 178.225 395.631L178.14 395.944C174.178 409.992 161.817 420.891 178.054 432.836C179.005 433.536 179.972 434.154 180.73 435.071Z"/>
	<path fill="#71A6E7" transform="scale(2 2)" d="M319.265 393.558C336.525 403.174 346.192 433.374 320.344 435.97C309.599 436.142 301.641 426.775 303.559 416.253C304.879 409.011 313.272 397.754 319.265 393.558Z"/>
	<path fill="#D7DCE3" transform="scale(2 2)" d="M211.797 116.5C213.639 116.432 246.764 129.073 234.914 136.392C232.71 136.508 199.304 122.9 211.797 116.5Z"/>
	<path fill="#D7DCE3" transform="scale(2 2)" d="M398.584 180.8C403.868 180.59 428.77 178.226 419.79 189.768C418.695 189.9 417.658 189.834 416.563 189.768C409.524 189.761 401.783 190.4 394.82 189.768C390.053 184.934 392.907 181.431 398.584 180.8Z"/>
	<path fill="#D7DCE3" transform="scale(2 2)" d="M396.565 115.281C400.312 115.278 403.532 119.27 400.126 122.35C396.147 125.947 384.56 133.955 380.23 136.392C377.44 135.994 374.287 133.179 375.559 130.161C376.841 127.12 393.82 116.355 396.565 115.281Z"/>
	<path fill="#D7DCE3" transform="scale(2 2)" d="M337.638 73.7864C348.085 72.3664 341.285 84.1992 339.579 88.76C338.162 92.5456 337.069 99.5872 333.416 101.861C320.351 104.252 335.003 75.5775 337.638 73.7864Z"/>
	<path fill="#D7DCE3" transform="scale(2 2)" d="M269.541 73.7864C275.829 73.3316 279.932 98.1883 279.686 98.8832C279.166 100.35 277.327 101.334 275.986 101.861C272.713 101.597 271.954 99.3281 270.906 96.4683C268.568 90.0854 261.219 76.2967 269.541 73.7864Z"/>
	<path fill="#D7DCE3" transform="scale(2 2)" d="M380.23 237.272C383.243 237.081 399.596 249.762 401.2 252.416C402.584 254.707 400.414 257.076 398.584 258.261C394.768 258.446 378.017 245.143 376.852 242.861C375.422 240.057 377.907 238.205 380.23 237.272Z"/>
</svg>
