<?xml version="1.0" encoding="utf-8" ?>
<svg xmlns="http://www.w3.org/2000/svg" xmlns:xlink="http://www.w3.org/1999/xlink" width="1024" height="1024">
	<path fill="#FCFDFD" transform="scale(2 2)" d="M153.011 187.013C155.314 182.677 156.474 177.988 158.282 173.449C170.148 143.655 203.785 119.714 236.336 122.54C261.94 123.777 283.337 133.426 300.594 152.465C304.069 156.299 308.378 160.589 310.656 165.276C316.757 141.374 336.38 125.734 361.51 127.42C400.819 131.459 419.774 175.439 393.348 205.292C394.514 208.537 396.59 211.561 398.003 214.728C398.994 218.924 399.274 225.518 402.602 228.555C400.132 229.08 401.078 239.94 400.822 242.724C398.412 268.959 383.357 290.551 357.719 298.531C345.767 302.251 332.311 300.631 319.986 300.539L156.975 300.772C153.98 300.775 148.858 301.662 146.279 301.26C126.572 302.473 108.735 298.685 94.3016 283.964C70.0443 259.222 69.7387 219.161 94.7765 194.824C104.618 185.258 120.306 177.253 134.251 177.501C139.081 177.697 150.635 182.267 153.011 187.013Z"/>
	<path fill="#F6CA41" transform="scale(2 2)" d="M310.656 165.276C316.757 141.374 336.38 125.734 361.51 127.42C400.819 131.459 419.774 175.439 393.348 205.292C379.945 181.246 353.055 168.556 325.948 175.578C322.654 176.519 319.456 177.833 316.266 179.073C315.01 176.444 310.877 167.564 310.656 165.276Z"/>
	<path fill="#F4B109" transform="scale(2 2)" d="M310.656 165.276C316.757 141.374 336.38 125.734 361.51 127.42C359.337 132.313 327.071 141.413 325.948 175.578C322.654 176.519 319.456 177.833 316.266 179.073C315.01 176.444 310.877 167.564 310.656 165.276Z"/>
	<path fill="#C2E3F4" transform="scale(2 2)" d="M146.279 301.26C126.572 302.473 108.735 298.685 94.3016 283.964C70.0443 259.222 69.7387 219.161 94.7765 194.824C104.618 185.258 120.306 177.253 134.251 177.501C117.613 189.056 106.238 204.749 102.58 224.866C97.3466 253.649 110.09 286.764 138.349 298.377C140.714 299.349 144.295 299.763 146.279 301.26Z"/>
	<path fill="#C2E3F4" transform="scale(2 2)" d="M153.011 187.013C155.314 182.677 156.474 177.988 158.282 173.449C170.148 143.655 203.785 119.714 236.336 122.54C209.935 141.349 188.257 160.637 180.043 194.143C167.278 188.749 165.009 190.279 153.011 189.767C153.022 188.886 153.138 187.878 153.011 187.013Z"/>
	<path fill="#FCFDFD" transform="scale(2 2)" d="M187.883 318.705C193.816 319.229 192.997 324.606 193.054 329.244C195.941 326.762 199.771 323.058 203.85 325.174C214.916 330.913 181.375 345.032 199.74 353.97C216.378 347.648 206.877 338.337 214.218 331.926C216.036 330.339 219.349 331.193 220.675 333.037C222.186 335.137 221 339.184 220.642 341.555C231.389 335.931 237.774 342.159 225.388 350.65C229.111 352.481 231.747 352.324 233.667 356.702C233.31 368.854 220.895 357.013 213.224 359.6C202.65 363.165 201.964 370.043 213.71 374.073C217.747 373.265 228.519 368.606 231.808 370.328C237.991 373.564 229.744 379.753 225.388 381.118C234.339 388.715 231.042 397.953 220.642 391.596C220.749 395.561 221.959 401.58 216.992 403.112C210.531 405.105 208.779 387.437 207.834 383.876C201.663 380.409 199.663 378.297 194.153 383.876C194.027 386.974 194.107 390.085 194.153 393.184C196.706 395.308 215.686 407.053 204.222 410.751C198.023 412.751 193.439 402.599 193.054 407.689C192.885 409.955 192.852 414.345 191.14 415.976C189.466 417.571 185.706 417.227 184.21 415.57C182.209 413.353 182.598 409.624 182.758 406.862C180.172 408.301 171.916 413.938 171.126 407.04C170.612 402.545 180.16 396.068 182.758 392.427C182.934 389.585 182.811 386.722 182.758 383.876C180.988 382.694 179.012 381.885 177.036 381.118C166.352 384.304 169.127 392.448 165.012 401.082C156.935 400.891 157.824 397.1 158 390.268C154.669 391.846 144.658 396.176 145.535 388.413C146.002 384.285 150.265 383.364 153.011 381.118C149.385 380.282 140.01 377.097 146.33 371.917C148.887 369.821 160.281 372.612 163.995 372.879C166.153 370.83 168.318 368.297 169.692 365.645C168.124 363.325 166.317 361.248 163.995 359.671C158.463 359.788 152.88 360.872 147.403 361.619C137.845 355.849 151.26 352.161 153.137 350.717C152.354 349.718 150.369 349.321 149.308 348.619C142.669 344.227 146.484 332.35 157.502 341.555C157.537 339.877 157.546 338.208 157.502 336.53C158.719 332.824 159.976 331.53 163.995 330.891L164.219 331.098C169.108 335.547 166.89 345.784 171.753 349.5C177.576 353.95 184.443 353.137 182.758 343.912C180.583 337.463 172.551 334.979 171.163 328.263C174.822 321.439 179.078 324.451 182.758 329.244C182.991 324.396 182.908 320.895 187.883 318.705Z"/>
	<path fill="#C2E3F4" transform="scale(2 2)" d="M322.505 316.285C329.607 315.745 327.843 323.214 328.07 328.263C330.068 326.975 339.638 319.123 340.599 326.823C341.1 330.84 331.233 337.621 328.748 340.887L328.748 353.333C330.411 354.004 331.932 354.695 333.444 355.666C336.818 353.419 340.323 351.364 343.759 349.215C344.798 345.623 345.563 334.177 347.715 332.203C355.19 325.349 354.39 340.643 353.984 343.912C356.976 342.567 359.704 340.623 362.888 339.743C374.529 342.831 362.463 349.43 358.215 351.697C361.311 353.21 366.923 354.633 367.974 358.337C371.432 370.527 352.027 358.888 349.121 356.702C345.75 359.117 342.203 361.245 338.76 363.552C338.643 365.76 338.748 368.015 338.76 370.227C342.132 371.916 346.353 374.09 349.121 376.667C352.119 375.282 362.664 369.612 365.254 370.324C367.022 370.81 368.784 373.941 368.254 375.684C367.359 378.629 360.859 381.227 358.215 382.654C361.053 384.147 366.24 386.42 366.976 389.645C367.513 391.998 365.83 394.576 363.431 394.96C360.509 395.427 356.364 391.864 353.984 390.268C353.948 393.504 355.017 400.087 352.701 402.493C343.694 411.845 345.159 387.499 345.164 385.281C341.691 382.11 337.223 380.537 333.444 377.812C331.581 378.629 329.836 379.613 328.07 380.621C327.951 385.289 328.334 389.94 328.07 394.61C331.357 396.038 342.709 402.131 343.176 404.588C343.587 406.751 341.057 409.817 339.023 410.209C336.287 410.738 330.296 406.039 328.07 404.387C327.881 408.672 329.808 414.657 324.939 416.707C317.877 417.245 318.745 411.263 318.727 405.991C316.305 407.704 312.747 411.464 309.609 411.041C307.094 410.702 305.243 408.167 305.744 405.666C306.443 402.174 315.632 396.522 318.727 394.61C318.545 390.031 318.376 385.181 318.727 380.621C317.486 379.462 316.206 378.641 314.739 377.812C310.338 379.419 305.33 382.413 301.617 385.281C301.628 388.482 302.35 398.552 300.565 400.784C298.96 402.791 295.334 402.874 293.492 401.159C291.398 399.21 292.137 394.222 292.136 391.596C289.249 392.891 284.256 397.405 280.954 396.256C272.173 393.2 283.843 385.535 287.76 383.876C283.744 381.901 269.219 376.034 281.459 371.616C286.786 372.89 292.074 374.427 297.367 375.84C301.575 374.261 306.912 369.899 310.656 367.311C306.7 364.431 302.795 361.457 298.674 358.815C292.892 360.231 287.24 362.178 281.459 363.552C271.332 357.819 282.141 353.423 287.76 351.697C284.398 349.081 276.426 346.462 279.922 340.932C283.049 335.986 289.686 341.824 292.753 343.912C292.242 340.865 291.031 325.174 298.486 331.297C301.15 333.484 301.846 345.294 302.356 349.215C306.5 351.757 310.892 353.661 314.739 356.702C315.916 355.205 317.1 354.275 318.727 353.333L318.727 340.887C317.462 339.606 297.872 324.648 309.891 323.013C312.607 322.644 317.021 326.806 319.22 328.263C319.376 323.327 317.334 319.093 322.505 316.285Z"/>
	<path fill="#FDE4A9" transform="scale(2 2)" d="M303.215 115.014C306.026 114.277 329.476 130.273 312.689 135.355C307.282 135.001 287.156 115.945 303.215 115.014Z"/>
	<path fill="#FDE4A9" transform="scale(2 2)" d="M402.602 212.038C404.918 213.676 414.397 223.582 416.519 226.338C419.135 229.734 413.746 242.707 402.602 228.555C399.274 225.518 398.994 218.924 398.003 214.728C399.455 213.567 400.878 212.746 402.602 212.038Z"/>
	<path fill="#FDE4A9" transform="scale(2 2)" d="M353.984 92.7889C356.965 92.5684 359.86 93.3548 360.967 96.4295C362.508 100.706 363.593 113.419 357.005 115.591C354.82 115.846 351.632 115.174 350.517 113.1C349.203 110.656 347.526 94.9891 353.984 92.7889Z"/>
	<path fill="#FDE4A9" transform="scale(2 2)" d="M409.914 115.014C413.846 114.865 418.186 118.932 416.677 122.996C416.098 124.555 406.921 133.64 405.231 134.466C400.891 134.685 395.518 130.07 398.187 125.614C399.766 122.976 406.979 115.759 409.914 115.014Z"/>
	<path fill="#FDE4A9" transform="scale(2 2)" d="M421.557 168.751C425.358 168.563 431.573 168.07 434.883 170.175C439.336 173.006 437.171 179.715 432.334 180.502C426.282 180.556 410.903 182.244 417.5 170.512C418.816 169.612 420 169.114 421.557 168.751Z"/>
</svg>
