<?xml version="1.0" encoding="utf-8" ?>
<svg xmlns="http://www.w3.org/2000/svg" xmlns:xlink="http://www.w3.org/1999/xlink" width="1024" height="1024">
	<path fill="#FBFBFB" transform="scale(2 2)" d="M270.127 132.704C272.212 127.262 282.849 118.252 287.603 115.065C344.442 76.9622 417.004 137.682 391.096 203.432C388.595 209.779 383.047 219.887 378.288 224.943C382.451 230.688 386.491 236.696 389.291 243.247C391.014 247.277 393.572 258.782 395.498 261.15C399.884 265.718 405.4 271.976 394.7 274.034C393.483 277.559 393.178 281.333 392.362 284.961C386.622 310.464 362.295 330.212 336.577 332.288C329.457 332.863 322.318 332.792 315.182 332.79L157.845 332.794C148.049 332.796 135.928 333.533 126.456 331.942C62.8286 321.257 55.6963 233.97 114.068 215.158C126.07 211.29 124.614 215.825 125.347 204.134C127.398 171.422 162.668 159.401 187.332 181.207C201.715 156.162 210.569 144.791 240.169 134.883C244.581 134.032 249.035 133.49 253.456 132.704C258.674 132.366 265.238 133.459 270.127 132.704Z"/>
	<path fill="#FED336" transform="scale(2 2)" d="M270.127 132.704C272.212 127.262 282.849 118.252 287.603 115.065C344.442 76.9622 417.004 137.682 391.096 203.432C388.595 209.779 383.047 219.887 378.288 224.943C372.001 214.083 348.967 204.398 336.794 205.349C335.907 174.802 314.447 146.529 285.671 136.678C280.583 134.936 275.306 134.098 270.127 132.704Z"/>
	<path fill="#FDF6E2" transform="scale(2 2)" d="M395.498 261.15C399.884 265.718 405.4 271.976 394.7 274.034C394.885 270.784 393.808 263.636 395.498 261.15Z"/>
	<path fill="#96CCE9" transform="scale(2 2)" d="M153.644 370.743C155.73 370.537 156.848 371.534 158.246 372.994C158.295 376.958 158.247 380.929 158.246 384.894C161.621 382.527 165.121 377.18 169.23 376.575C172.856 376.041 172.935 380.626 171.559 382.808C170.34 384.742 165.616 389.194 163.829 391.111C165.611 391.082 184.694 390.061 177.586 397.326C175.323 399.64 167.078 398.715 163.829 398.665C165.251 400.126 178.589 412.233 169.704 412.967C165.87 413.285 161.387 406.631 158.541 404.336L158.246 404.1C158.257 407.815 159.39 415.529 156.153 418.189C148.631 419.895 150.703 408.381 150.754 404.1C148.342 406.827 144.218 412.458 140.436 412.79C129.285 413.771 144.229 399.73 145.185 398.665C141.956 398.689 133.82 399.591 131.496 397.316C124.277 390.25 142.939 390.937 145.185 391.111C143.023 388.892 137.802 383.845 136.97 381.052C136.107 378.153 139.333 375.202 141.939 376.996C145.044 379.134 147.636 382.535 150.754 384.894C150.783 380.967 150.411 376.893 150.754 372.994C151.66 372.164 152.653 371.465 153.644 370.743Z"/>
	<path fill="#96CCE9" transform="scale(2 2)" d="M279.118 369.723C285.393 369.932 283.428 380.72 283.421 384.894C285.523 382.884 295.2 370.969 296.658 379.861C297.143 382.813 291.441 387.707 289.663 390.043C292.119 390.012 308.83 389.687 301.622 397.023C299.849 398.828 292.603 397.767 289.986 397.864L289.663 397.878C290.293 399.398 301.423 410.541 293.614 410.934C290.22 411.105 285.667 405.612 283.421 403.405C283.473 407.208 284.947 415.132 280.325 416.78C273.984 416.805 276.119 408.345 276.161 404.1C273.96 405.148 263.436 416.201 262.98 407.746C262.792 404.249 267.978 400.436 270.127 397.878C266.415 397.506 262.907 397.644 259.198 397.878C250.121 389.41 265.555 390.08 270.127 390.043C267.701 386.59 264.156 384.259 262.593 380.217C265.381 370.863 273.009 381.448 276.161 384.894C276.354 380.19 274.001 372.342 279.118 369.723Z"/>
	<path fill="#96CCE9" transform="scale(2 2)" d="M221.424 427.61C226.83 426.936 231.774 430.734 232.517 436.132C233.26 441.529 229.527 446.522 224.139 447.334C220.592 447.869 217.031 446.454 214.818 443.63C212.606 440.807 212.083 437.011 213.45 433.695C214.818 430.378 217.864 428.054 221.424 427.61Z"/>
	<path fill="#FDF6E2" transform="scale(2 2)" d="M420.859 116.824C422.868 116.674 424.877 117.554 425.486 119.648C427.336 126.019 407.731 134.731 403.89 135.867C400.288 135.662 397.231 132.979 399.228 129.338C400.758 126.547 417.36 117.847 420.859 116.824Z"/>
	<path fill="#FDF6E2" transform="scale(2 2)" d="M240.169 134.883C236.52 133.197 225.261 128.025 223.773 124.49C222.841 122.274 224.312 119.341 226.568 118.599C229.198 117.735 251.727 127.261 253.456 132.704C249.035 133.49 244.581 134.032 240.169 134.883Z"/>
	<path fill="#FDF6E2" transform="scale(2 2)" d="M270.127 78.546C275.642 77.6632 282.213 91.4514 283.939 95.7332C285.283 99.0691 284.824 101.588 281.196 102.739C273.194 103.587 264.957 83.1831 266.657 80.2822C267.385 79.041 268.851 78.8465 270.127 78.546Z"/>
	<path fill="#FDF6E2" transform="scale(2 2)" d="M323.957 61.2923C326.118 61.0771 327.44 61.6343 328.562 63.6227C329.922 66.0331 331.268 86.8048 325.782 89.509C316.551 89.4224 319.477 70.2222 319.981 62.9473C321.289 62.2628 322.552 61.747 323.957 61.2923Z"/>
	<path fill="#FDF6E2" transform="scale(2 2)" d="M401.797 215.759C407.387 215.295 433.62 229.358 420.859 233.792C417.775 233.785 389.373 223.116 401.797 215.759Z"/>
	<path fill="#FDF6E2" transform="scale(2 2)" d="M377.249 78.546C391.401 78.2219 372.731 102.596 370.741 103.511C360.342 101.326 366.723 94.1469 369.969 88.4037C371.544 85.6184 373.83 79.3635 377.249 78.546Z"/>
	<path fill="#FDF6E2" transform="scale(2 2)" d="M417.531 171.642C423.02 171.31 432.578 169.827 436.861 173.971C438.402 179.442 435.969 180.169 431.049 180.508C427.057 180.528 415.161 181.353 412.29 179.37C407.965 176.382 411.791 171.83 417.531 171.642Z"/>
</svg>
