<?xml version="1.0" encoding="utf-8" ?>
<svg xmlns="http://www.w3.org/2000/svg" xmlns:xlink="http://www.w3.org/1999/xlink" width="1024" height="1024">
	<path fill="#FDFDFD" transform="scale(2 2)" d="M139.913 215.113C142.893 210.067 144.203 204.246 146.819 199.024C171.613 149.539 246.291 154.14 262.272 210.196C264.293 217.284 266.453 213.013 272.484 211.869C293.841 207.814 312.374 224.154 308.109 246.434C305.813 258.428 303.302 252.414 318.848 255.945C337.556 260.194 352.518 278.049 355.183 296.878C355.673 300.339 355.7 303.822 356.139 307.277C361.544 304.451 365.843 297.126 370.25 292.995C367.784 310.98 362.138 325.066 346.921 336.352C346.197 336.889 345.279 337.662 344.446 337.998C327.62 348.596 317.037 349.231 298.331 349.216L136.551 349.213C122.683 349.216 108.527 349.797 94.7026 348.713C45.8754 344.887 31.7959 277.127 78.0376 258.095C82.3426 255.943 87.4817 256.653 91.6804 254.64C94.2225 253.42 93.501 245.718 93.8876 243.246C97.3291 221.237 119.225 209.182 139.913 215.113ZM272.612 333.774C274.385 334.179 276.041 333.284 278.096 333.993L278.409 333.774C277.511 331.641 276.666 329.459 275.568 327.42C274.421 329.488 273.474 331.573 272.612 333.774Z"/>
	<path fill="#C7C7C8" transform="scale(2 2)" d="M78.0376 258.095C77.7886 261.98 75.9662 265.863 75.4508 269.839C71.1751 302.816 95.3508 330.38 127.913 333.403C134.21 333.987 140.505 333.82 146.816 333.784L233.688 333.804C240.313 333.828 256.215 332.843 261.87 333.774C264.897 338.916 269.369 338.249 272.612 333.774C274.385 334.179 276.041 333.284 278.096 333.993L278.409 333.774C282.132 339.392 287.28 337.663 290.148 332.521L290.437 332.508C316.104 331.197 347.994 318.753 364.956 299.802C366.418 298.167 367.792 296.274 369.401 294.796C368.053 308.123 362.238 321.628 352.503 330.944C350.595 332.769 345.39 335.875 344.446 337.998C327.62 348.596 317.037 349.231 298.331 349.216L136.551 349.213C122.683 349.216 108.527 349.797 94.7026 348.713C45.8754 344.887 31.7959 277.127 78.0376 258.095Z"/>
	<path fill="#799FD2" transform="scale(2 2)" d="M264.688 300.918C261.771 295.049 259.104 281.542 269.641 286.164C272.779 287.541 274.299 292.778 275.568 295.768C282.565 277.926 291.601 286.684 288.797 294.736C287.895 296.806 287.273 298.723 286.743 300.918C287.998 300.105 289.212 299.3 290.656 298.849C296.716 296.347 304.705 297.866 301.395 304.971C299.96 308.051 294.951 310.304 291.974 311.688C295.124 313.733 300.833 315.575 301.807 319.619C304.244 329.738 290.88 324.655 286.743 322.569C287.839 325.603 289.987 329.175 290.14 332.393L290.148 332.521C287.28 337.663 282.132 339.392 278.409 333.774C277.511 331.641 276.666 329.459 275.568 327.42C274.421 329.488 273.474 331.573 272.612 333.774C269.369 338.249 264.897 338.916 261.87 333.774C260.907 329.803 262.616 325.892 264.688 322.569C261.537 324.116 256.149 327.149 252.648 326.371C249.614 325.697 248.181 321.858 249.098 319.089C250.277 315.529 256.642 313.287 259.662 311.688C256.739 310.482 251.077 308.365 249.8 305.181C245.712 294.988 258.905 297.695 264.688 300.918Z"/>
	<path fill="#C7C7C8" transform="scale(2 2)" d="M314.74 83.0655C321.867 79.419 341.169 72.3364 348.744 74.7106C354.027 76.3661 356.74 81.9999 355.079 87.2444C353.842 91.1458 349.443 94.0625 346.617 96.8026C327.816 115.027 322.764 147.284 334.209 170.605C353.649 210.214 406.411 223.566 440.91 194.462C445.144 190.89 449.267 183.939 455.82 186.221C473.936 192.53 448.358 231.552 441.203 240.067C424.816 259.686 396.06 276.177 370.25 278.826C363.588 254.646 348.592 244.344 326.352 237.607C325.807 232.952 325.231 228.678 323.84 224.191C319.056 211.276 308.478 198.585 294.48 195.706C288.13 193.811 282.08 193.929 275.568 194.469C272.916 184.831 265.092 177.999 258.482 171.019C258.141 137.311 285.547 97.9887 314.74 83.0655Z"/>
	<path fill="#A1A1AE" transform="scale(2 2)" d="M258.482 171.019C258.141 137.311 285.547 97.9887 314.74 83.0655C314.569 85.7658 308.422 91.9355 306.65 94.4333C287.897 120.856 280.903 157.365 291.888 188.3C292.736 190.689 293.992 193.23 294.48 195.706C288.13 193.811 282.08 193.929 275.568 194.469C272.916 184.831 265.092 177.999 258.482 171.019Z"/>
	<path fill="#A1A1AE" transform="scale(2 2)" d="M323.84 224.191C325.665 223.691 327.918 226.641 329.279 227.675C359.562 250.689 395.12 256.176 431.232 242.959C433.547 242.112 438.834 238.861 441.203 240.067C424.816 259.686 396.06 276.177 370.25 278.826C363.588 254.646 348.592 244.344 326.352 237.607C325.807 232.952 325.231 228.678 323.84 224.191Z"/>
	<path fill="#A9D1F0" transform="scale(2 2)" d="M103.117 380.079C111.238 380.795 109.28 390.451 109.237 396.268C113.359 394.883 117.703 389.7 122.317 390.533C125.583 391.123 127.546 394.778 126.833 397.897C125.913 401.916 118.563 404.629 115.203 406.647C118.558 409.781 125.981 411.838 127.001 416.657C127.678 419.857 124.826 422.41 121.894 422.926C117.388 423.72 112.744 419.509 109.237 417.083C108.785 423.65 111.623 431.744 103.117 433.381C94.786 432.837 97.2726 422.911 97.0228 417.083C92.8941 419.383 89.5038 422.236 84.8225 423.413C82.9982 422.869 81.3388 422.339 80.2479 420.663C75.5306 413.417 86.1673 409.919 90.9495 407.166C86.9197 404.007 73.4616 399.359 81.2459 392.043C86.6081 387.004 92.6015 396.075 96.4962 396.153C97.6663 394.609 96.8708 385.478 97.0055 383.026L97.0228 382.748C98.9736 381.137 100.632 380.384 103.117 380.079Z"/>
	<path fill="#A9D1F0" transform="scale(2 2)" d="M290.148 380.079C299.073 378.899 297.206 390.677 297.185 396.268C302.885 393.426 310.154 385.635 314.74 394.082C315.179 401.913 308.967 402.283 303.996 406.364L303.653 406.647C306.645 409.124 312.877 410.926 314.402 414.571C315.711 417.701 313.982 421.691 310.709 422.713C306.07 424.161 301.005 418.441 297.185 416.513C297.153 422.592 299.466 431.316 291.974 433.381C289.747 433.303 288.499 432.907 286.743 431.504C286.709 431.448 286.674 431.394 286.641 431.338L286.478 431.058C284.286 427.353 285.658 421.782 285.232 417.584L285.178 417.083C282.013 419.131 276.369 423.561 272.49 422.75C269.401 422.103 267.979 417.978 268.649 415.208C269.648 411.072 277.055 408.714 280.422 406.647C276.989 404.301 269.511 401.716 268.408 397.401C267.638 394.391 269.699 390.986 272.733 390.294C276.42 389.453 282.118 394.279 285.178 396.268C285.251 390.136 282.788 382.45 290.148 380.079Z"/>
	<path fill="#799FD2" transform="scale(2 2)" d="M197.109 381.277C206.339 380.778 204.258 391.284 204.246 397.617C207.721 395.917 212.726 390.819 216.748 391.532C220.417 392.183 222.632 395.664 221.701 399.265C220.63 403.41 214.612 405.18 211.227 407.166C214.145 409.118 220.471 411.457 221.674 414.797C222.731 417.734 221.447 421.898 218.164 422.727C213.792 423.832 207.869 419.238 204.246 417.083C204.075 423.67 206.789 431.933 198.176 433.381C190.622 431.844 192.532 422.902 192.543 417.083C188.817 418.84 184.576 423.259 180.266 422.825C177.084 422.505 174.605 419.314 175.153 416.144C175.832 412.21 183.867 409.426 186.917 407.345L187.174 407.166C182.062 403.514 176.615 402.841 174.612 396.268C177.38 385.159 187.878 394.149 192.543 397.617C192.719 391.35 189.827 384.217 197.109 381.277Z"/>
</svg>
