<?xml version="1.0" encoding="utf-8" ?>
<svg xmlns="http://www.w3.org/2000/svg" xmlns:xlink="http://www.w3.org/1999/xlink" width="1024" height="1024">
	<path fill="#FBFBFB" transform="scale(2 2)" d="M283.854 156.764C290.062 128.101 317.517 110.359 346.165 117.232C354.814 119.307 368.286 125.722 373.049 133.549C398.242 159.396 383.539 207.539 346.209 217.107C343.059 217.915 340.006 218.515 336.751 218.227C337.764 224.052 337.953 229.987 337.811 235.888C339.605 236.088 345.175 236.329 346.469 237.224C392.595 245.573 408.915 309.324 368.155 337.001C353.304 347.085 342.291 346.139 325.389 345.669C322.527 345.914 319.621 345.568 316.753 345.559L143.711 345.678C128.046 345.675 115.434 344.605 102.932 333.452C81.1265 313.998 78.019 281.964 97.907 260.066C111.171 245.461 121.385 245.09 139.024 244.294C138.997 229.844 143.423 217.099 158.439 211.92C170.366 207.806 177.768 211.013 188.375 216.254C190.177 211.748 191.433 207.042 193.169 202.511C205.194 171.114 236.78 151.305 270.378 154.638C273.223 154.92 281.917 157.324 283.854 156.764Z"/>
	<path fill="#FDD979" transform="scale(2 2)" d="M283.854 156.764C290.062 128.101 317.517 110.359 346.165 117.232C354.814 119.307 368.286 125.722 373.049 133.549C398.242 159.396 383.539 207.539 346.209 217.107C343.059 217.915 340.006 218.515 336.751 218.227C334.1 205.568 330.261 197.579 324.023 186.463C322.69 185.371 320.297 181.415 319.029 179.825C312.155 171.209 301.982 164.186 291.852 159.869C290.443 159.268 284.681 157.626 283.854 156.764Z"/>
	<path fill="#FEC205" transform="scale(2 2)" d="M324.023 186.463C324.696 186.142 347.314 186.867 352.387 185.817C372.667 181.618 373.113 156.939 373.073 140.973C373.067 138.622 372.263 135.805 373.049 133.549C398.242 159.396 383.539 207.539 346.209 217.107C343.059 217.915 340.006 218.515 336.751 218.227C334.1 205.568 330.261 197.579 324.023 186.463Z"/>
	<path fill="#BBC4C5" transform="scale(2 2)" d="M346.469 237.224C392.595 245.573 408.915 309.324 368.155 337.001C353.304 347.085 342.291 346.139 325.389 345.669C327.958 344.645 330.695 343.97 333.289 342.898C356.602 333.261 368.785 307.772 364.2 283.31C363.532 279.748 361.736 275.976 361.282 273.314L361.466 273.241C366.974 290.468 367.699 301.743 359.525 318.983C358.197 321.784 354.892 325.354 354.163 328.029C357.007 327.974 355.862 326.118 359.005 327.978L359.537 327.794C360.463 326.691 360.273 324.033 361.829 323.685C370.621 321.719 366.798 333.124 360.808 334.829C358.321 335.536 352.639 339.972 352.879 343.079L353.436 343.209L353.831 342.718C359.112 342.661 367.801 336.844 371.802 333.526C394.593 314.631 397.394 279.689 378.301 257.22C369.169 246.473 359.699 241.526 346.687 237.682L346.469 237.224Z"/>
	<path fill="#A5DEF6" transform="scale(2 2)" d="M160.05 436.018C139.92 437.536 147.536 414.656 158.777 405.703L160.05 407.771C163.735 413.049 170.494 420.203 169.359 427.186C168.693 431.281 164.196 435.42 160.05 436.018Z"/>
	<path fill="#71C0E7" transform="scale(2 2)" d="M160.05 436.018C139.92 437.536 147.536 414.656 158.777 405.703L160.05 407.771C155.279 420.6 145.453 423.955 160.05 436.018Z"/>
	<path fill="#A5DEF6" transform="scale(2 2)" d="M344.686 389.816C339.32 389.796 333.383 385.955 333.099 380.177C332.762 373.307 340.251 364.475 344.686 359.707L346.469 361.894C351.484 370.082 363.648 387.534 344.686 389.816Z"/>
	<path fill="#71C0E7" transform="scale(2 2)" d="M344.686 389.816C339.32 389.796 333.383 385.955 333.099 380.177C332.762 373.307 340.251 364.475 344.686 359.707L346.469 361.894L346.341 362.171C344.014 367.088 337.03 376.29 338.867 381.732C340.204 385.691 345.374 389.065 344.686 389.816Z"/>
	<path fill="#A5DEF6" transform="scale(2 2)" d="M236.267 436.018C229.519 437.423 222.723 431.747 223.461 424.808C223.715 422.412 232.842 401.89 236.267 407.771L236.435 408.107C239.697 414.504 254.633 433.045 236.267 436.018Z"/>
	<path fill="#71C0E7" transform="scale(2 2)" d="M236.267 436.018C229.519 437.423 222.723 431.747 223.461 424.808C223.715 422.412 232.842 401.89 236.267 407.771C229.395 420.24 223.811 426.892 236.267 436.018Z"/>
	<path fill="#A5DEF6" transform="scale(2 2)" d="M273.308 359.707L274.401 361.894C277.782 366.42 284.122 374.907 283.278 380.825C282.622 385.421 277.84 389.344 273.308 389.816C267.343 390.385 261.396 386.071 261.352 379.753C261.306 372.914 268.787 364.439 273.308 359.707Z"/>
	<path fill="#71C0E7" transform="scale(2 2)" d="M273.308 359.707L274.401 361.894C270.537 372.49 260.502 379.794 273.308 389.816C267.343 390.385 261.396 386.071 261.352 379.753C261.306 372.914 268.787 364.439 273.308 359.707Z"/>
	<path fill="#A5DEF6" transform="scale(2 2)" d="M309.344 436.018C300 436.948 295.172 429.275 298.306 420.41C298.97 418.53 306.812 403.486 309.344 407.771C314.078 415.406 327.982 432.86 309.344 436.018Z"/>
	<path fill="#71C0E7" transform="scale(2 2)" d="M309.344 436.018C300 436.948 295.172 429.275 298.306 420.41C298.97 418.53 306.812 403.486 309.344 407.771C305.98 417.556 296.003 428.685 309.344 436.018Z"/>
	<path fill="#A5DEF6" transform="scale(2 2)" d="M199.309 359.707L200.275 361.894C208.446 371.871 215.482 384.712 199.309 389.816C190.952 389.279 184.58 383.249 188.555 374.58C190.352 370.661 196.226 362.94 199.309 359.707Z"/>
	<path fill="#71C0E7" transform="scale(2 2)" d="M199.309 359.707L200.275 361.894C198.631 368.695 190.198 375.743 194.409 383.075C195.361 384.732 199.467 388.073 199.428 389.625L199.309 389.816C190.952 389.279 184.58 383.249 188.555 374.58C190.352 370.661 196.226 362.94 199.309 359.707Z"/>
	<path fill="#EBAF6E" transform="scale(2 2)" d="M403.446 158.511C407.716 158.244 418.968 158.143 422.88 158.949C430.147 160.447 430.047 171.828 420.193 172.732C415.411 172.668 406.271 173.349 402.043 172.568C394.286 171.136 393.3 159 403.446 158.511Z"/>
	<path fill="#A5DEF6" transform="scale(2 2)" d="M129.3 388.955C121.45 390.446 115.841 383.344 117.72 376.014C118.372 373.47 126.981 357.071 129.3 361.274C134.605 369.648 146.087 385.128 129.3 388.955Z"/>
	<path fill="#71C0E7" transform="scale(2 2)" d="M129.3 388.955C121.45 390.446 115.841 383.344 117.72 376.014C118.372 373.47 126.981 357.071 129.3 361.274L129.199 361.634C126.327 371.607 115.814 380.782 129.3 388.955Z"/>
	<path fill="#FDD979" transform="scale(2 2)" d="M392.552 98.7702C397.617 97.5643 402.301 102.722 400.003 107.681C398.709 110.474 387.125 123.85 382.938 125.433C378.116 125.772 373.066 121.602 375.446 116.432C377.366 112.262 387.595 100.463 392.552 98.7702Z"/>
	<path fill="#FDD979" transform="scale(2 2)" d="M274.401 98.7702C279.356 98.4812 303.832 120.486 287.312 124.367C280.379 124.699 256.837 103.295 274.401 98.7702Z"/>
	<path fill="#B7A6AB" transform="scale(2 2)" d="M382.938 207.827C388.84 207.931 412.264 229.658 395.309 233.234C388.114 233.517 365.812 211.676 382.938 207.827Z"/>
	<path fill="#FDD979" transform="scale(2 2)" d="M332.984 74.5134C342.542 74.8534 340.957 90.4837 340.183 96.8254C339.723 100.587 337.698 102.524 333.914 103.078C331.275 102.82 327.858 101.618 326.839 98.9278C325.817 96.2317 325.77 80.593 327.11 78.1052C328.224 76.0375 330.843 75.05 332.984 74.5134Z"/>
</svg>
