<?xml version="1.0" encoding="utf-8" ?>
<svg xmlns="http://www.w3.org/2000/svg" xmlns:xlink="http://www.w3.org/1999/xlink" width="1024" height="1024">
	<path fill="#FCFCFC" transform="scale(2 2)" d="M239.519 165.148C239.007 115.26 272.008 74.803 320.278 64.3705C334.251 61.3505 328.296 66.7653 323.038 72.9114C288.597 113.167 300.028 176.816 349.094 199.188C377.239 212.021 408.406 208.488 433.59 191.301C436.959 189.001 446.683 179.66 444.249 191.714C436.211 231.514 406.344 256.98 369.333 268.63C365.597 269.806 361.37 272.526 358.918 268.147L358.747 267.836C355.4 268.966 351.643 268.659 348.252 269.542C350.231 272.48 351.819 275.581 352.688 279.033C357.763 303.1 348.425 327.113 322.552 332.512C321.594 332.712 317.944 333.067 317.281 333.483C310.842 338.61 267.069 345.678 258.427 346.434C256.232 346.626 235.597 347.177 234.851 347.832C234.344 348.277 236.45 350.58 236.675 351.241L235.885 351.241C248.307 376.514 223.901 373.671 221.054 365.309C219.405 360.467 222.855 354.731 224.848 350.468C208.721 350.848 176.617 344.528 162.046 339.574C156.533 337.7 151.396 335.047 146.016 332.86L145.176 332.86C136.791 332.623 126.256 326.08 121.138 319.674C103.152 297.161 110.407 271.243 131.522 254.652C131.421 244.989 132.281 235.644 134.913 226.316C147.27 182.523 194.792 152.41 239.519 165.148ZM265.491 183.147C214.029 145.464 143.183 180.448 137.115 245.537C135.99 257.596 140.338 254.247 131.269 261.793C119.94 271.219 114.726 283.724 117.078 298.43C118.697 308.554 125.721 320.677 136.006 324.164C134.96 321.736 131.959 320.235 130.855 317.39C125.423 303.4 127.122 286.193 137.832 275.207C149.34 263.404 146.429 269.779 147.556 252.272C150.368 208.579 187.388 176.462 231.001 177.24C239.639 177.394 247.544 178.316 255.734 181.171C257.491 181.783 263.504 184.432 265.221 183.764L265.491 183.147Z"/>
	<path fill="#C9D7E2" transform="scale(2 2)" d="M239.519 165.148C239.007 115.26 272.008 74.803 320.278 64.3705C334.251 61.3505 328.296 66.7653 323.038 72.9114C288.597 113.167 300.028 176.816 349.094 199.188C377.239 212.021 408.406 208.488 433.59 191.301C436.959 189.001 446.683 179.66 444.249 191.714C436.211 231.514 406.344 256.98 369.333 268.63C365.597 269.806 361.37 272.526 358.918 268.147L358.747 267.836C355.4 268.966 351.643 268.659 348.252 269.542C350.231 272.48 351.819 275.581 352.688 279.033C357.763 303.1 348.425 327.113 322.552 332.512C321.594 332.712 317.944 333.067 317.281 333.483C315.323 333.186 312.888 332.033 313.017 329.602C313.165 326.817 319.928 327.07 321.785 326.716C350.585 321.234 357.338 281.08 335.006 262.573C332.691 260.655 329.912 259.384 327.719 257.306C328.182 252.44 329.456 247.831 329.52 242.882C329.821 219.617 311.956 210.123 290.874 210.047C284.284 199.435 276.324 189.695 265.491 183.147C214.029 145.464 143.183 180.448 137.115 245.537C135.99 257.596 140.338 254.247 131.269 261.793C119.94 271.219 114.726 283.724 117.078 298.43C118.697 308.554 125.721 320.677 136.006 324.164C139.583 326.626 149.377 326.176 145.176 332.86C136.791 332.623 126.256 326.08 121.138 319.674C103.152 297.161 110.407 271.243 131.522 254.652C131.421 244.989 132.281 235.644 134.913 226.316C147.27 182.523 194.792 152.41 239.519 165.148Z"/>
	<path fill="#7A91B9" transform="scale(2 2)" d="M239.519 165.148C239.007 115.26 272.008 74.803 320.278 64.3705C334.251 61.3505 328.296 66.7653 323.038 72.9114C288.597 113.167 300.028 176.816 349.094 199.188C377.239 212.021 408.406 208.488 433.59 191.301C436.959 189.001 446.683 179.66 444.249 191.714C436.211 231.514 406.344 256.98 369.333 268.63C365.597 269.806 361.37 272.526 358.918 268.147L358.747 267.836C359.854 264.873 365.996 264.146 368.617 263.323C396.637 254.526 420.6 235.627 432.808 208.441C434.704 204.219 436.249 199.911 438.305 195.755C434.31 197.258 430.912 199.579 427.242 201.707C383.199 227.246 321.337 206.179 303.41 158.229C291.545 126.492 297.47 97.0558 317.281 70.8979C271.262 82.7934 244.77 120.044 244.979 166.56C263.005 170.956 283.931 188.319 294.045 204.457C322.729 204.865 340.802 226.179 334.291 254.652C344.008 260.626 343.237 264.364 348.252 269.542C350.231 272.48 351.819 275.581 352.688 279.033C357.763 303.1 348.425 327.113 322.552 332.512C321.594 332.712 317.944 333.067 317.281 333.483C315.323 333.186 312.888 332.033 313.017 329.602C313.165 326.817 319.928 327.07 321.785 326.716C350.585 321.234 357.338 281.08 335.006 262.573C332.691 260.655 329.912 259.384 327.719 257.306C328.182 252.44 329.456 247.831 329.52 242.882C329.821 219.617 311.956 210.123 290.874 210.047C284.284 199.435 276.324 189.695 265.491 183.147C214.029 145.464 143.183 180.448 137.115 245.537C135.99 257.596 140.338 254.247 131.269 261.793C119.94 271.219 114.726 283.724 117.078 298.43C118.697 308.554 125.721 320.677 136.006 324.164C139.583 326.626 149.377 326.176 145.176 332.86C136.791 332.623 126.256 326.08 121.138 319.674C103.152 297.161 110.407 271.243 131.522 254.652C131.421 244.989 132.281 235.644 134.913 226.316C147.27 182.523 194.792 152.41 239.519 165.148Z"/>
	<path fill="#92C5EE" transform="scale(2 2)" d="M230.29 343.218C232.341 345.819 234.319 348.307 235.885 351.241C248.307 376.514 223.901 373.671 221.054 365.309C219.405 360.467 222.855 354.731 224.848 350.468C225.539 349.567 226.05 348.322 226.596 347.314C227.928 346.035 229.039 344.571 230.29 343.218Z"/>
	<path fill="#C9D7E2" transform="scale(2 2)" d="M230.29 349.435C234.682 354.029 240.461 364.897 230.29 367.042C219.641 366.999 227.085 353.688 230.29 349.435Z"/>
	<defs>
		<linearGradient id="gradient_0" gradientUnits="userSpaceOnUse" x1="191.04457" y1="337.02725" x2="190.94287" y2="349.51541">
			<stop offset="0" stop-color="#D3D0DA"/>
			<stop offset="1" stop-color="#D8E3E6"/>
		</linearGradient>
	</defs>
	<path fill="url(#gradient_0)" transform="scale(2 2)" d="M146.016 332.86C148.375 332.111 151.718 334.464 153.889 335.293C179.415 345.038 200.3 345.548 226.596 347.314C226.05 348.322 225.539 349.567 224.848 350.468C208.721 350.848 176.617 344.528 162.046 339.574C156.533 337.7 151.396 335.047 146.016 332.86Z"/>
	<path fill="#C9D7E2" transform="scale(2 2)" d="M352.688 279.033C372.708 273.457 390.647 292.585 382.484 312.399C381.612 314.516 380.433 316.538 379.659 318.686C384.374 321.515 389.125 321.496 394.468 321.433L407.154 321.345C416.442 321.348 424.328 321.938 431.024 329.161C443.497 342.615 437.926 365.989 419.188 370.39C412.423 371.979 400.547 371.26 393.22 371.26L318.37 371.187C317.31 371.187 316.226 371.36 315.175 371.252C312.552 370.369 309.58 371.822 306.521 370.674C300.486 368.408 299.638 362.186 301.835 356.834C298.295 354.764 297.55 351.213 292.821 350.717C284.503 349.844 274.222 351.121 265.659 351.221C256.704 351.325 245.281 350.492 236.675 351.241C236.45 350.58 234.344 348.277 234.851 347.832C235.597 347.177 256.232 346.626 258.427 346.434C267.069 345.678 310.842 338.61 317.281 333.483C317.944 333.067 321.594 332.712 322.552 332.512C348.425 327.113 357.763 303.1 352.688 279.033Z"/>
	<path fill="#92C5EE" transform="scale(2 2)" d="M301.835 356.834C304.184 353.127 307.808 346.081 310.589 343.218C319.642 354.344 323.308 360.404 315.175 371.252C312.552 370.369 309.58 371.822 306.521 370.674C300.486 368.408 299.638 362.186 301.835 356.834Z"/>
	<path fill="#C9D7E2" transform="scale(2 2)" d="M310.589 349.435C314.573 354.715 320.177 365.065 310.589 367.985C300.368 365.153 306.639 355.141 310.589 349.435Z"/>
	<path fill="#C9D7E2" transform="scale(2 2)" d="M85.5336 328.023C90.9582 327.743 103.692 327.607 108.837 328.396C129.903 331.63 135.323 363.137 106.56 371.252C94.914 369.601 84.428 374.309 73.5031 365.841C58.9346 354.55 66.2161 330.195 85.5336 328.023Z"/>
	<path fill="#92C5EE" transform="scale(2 2)" d="M151.561 343.218C158.918 351.084 168.984 368.562 151.561 371.809C147.185 371.622 142.849 368.752 141.815 364.32C140.427 358.372 148.389 348.217 151.561 343.218Z"/>
	<path fill="#C9D7E2" transform="scale(2 2)" d="M152.148 350.468C155.937 354.432 161.366 366.714 151.561 367.985C141.209 365.571 147.616 355.552 152.148 350.468Z"/>
	<path fill="#92C5EE" transform="scale(2 2)" d="M230.29 418.901C233.4 420.473 249.848 445.668 230.29 446.984C224.427 446.792 218.708 441.557 220.673 435.289C221.605 432.315 228.22 422.143 230.29 418.901Z"/>
	<path fill="#C9D7E2" transform="scale(2 2)" d="M230.29 425.685C232.627 429.724 235.367 433.765 236.675 438.271C235.357 441.337 233.574 442.497 230.29 443.311C219.076 442.103 227.773 430.763 230.29 425.685Z"/>
	<path fill="#92C5EE" transform="scale(2 2)" d="M271.171 375.688C273.565 377.116 279.539 389.292 280.201 392.248C281.689 398.884 277.239 402.668 271.171 403.765C253.82 402.669 264.332 382.888 271.171 375.688Z"/>
	<path fill="#C9D7E2" transform="scale(2 2)" d="M271.171 382.189C275.829 387.061 280.523 396.689 271.171 399.824C268.021 399.74 266.357 398.092 265.491 395.106C266.311 390.232 268.716 386.391 271.171 382.189Z"/>
	<path fill="#92C5EE" transform="scale(2 2)" d="M190.467 375.688C197.562 382.504 207.914 401.994 190.467 403.765C172.609 400.591 185.236 383.9 190.467 375.688Z"/>
	<path fill="#C9D7E2" transform="scale(2 2)" d="M190.467 382.189C192.178 383.045 201.613 396.931 191.48 399.824C188.468 398.978 186.56 397.794 184.971 395.106C185.709 390.449 188.165 386.232 190.467 382.189Z"/>
	<path fill="#C9D7E2" transform="scale(2 2)" d="M131.522 122.57C137.637 122.023 136.168 127.614 136.006 131.963C148.785 131.214 150.028 138.882 136.006 137.836C135.825 140.706 137.164 145.457 133.936 146.898C128.354 147.045 130.124 141.851 129.997 137.836C125.924 137.588 117.105 138.859 122.142 131.963C124.677 131.682 127.452 131.84 129.997 131.963C130.073 129.271 129.087 124.443 131.522 122.57Z"/>
	<path fill="#C9D7E2" transform="scale(2 2)" d="M91.1004 216.425C94.7524 215.737 98.2718 218.136 98.9666 221.787C99.6614 225.437 97.2693 228.961 93.62 229.663C89.9607 230.367 86.425 227.967 85.7283 224.306C85.0316 220.646 87.4385 217.115 91.1004 216.425Z"/>
	<path fill="#C9D7E2" transform="scale(2 2)" d="M437.969 266.628C441.668 266.51 444.761 269.416 444.874 273.115C444.987 276.815 442.077 279.904 438.378 280.013C434.685 280.122 431.602 277.218 431.489 273.525C431.376 269.832 434.276 266.745 437.969 266.628Z"/>
</svg>
