<?xml version="1.0" encoding="utf-8" ?>
<svg xmlns="http://www.w3.org/2000/svg" xmlns:xlink="http://www.w3.org/1999/xlink" width="1024" height="1024">
	<path fill="#E2E9EE" transform="scale(2 2)" d="M237.781 150.878C233.689 149.393 236.51 145.004 237.593 140.693C247.423 101.539 279.747 71.25 318.228 60.666C322.681 59.4412 327.394 57.9839 332.063 58.2586C339.809 62.5661 334.128 67.2014 330.522 71.8962C314.607 92.6191 311.426 123.371 318.338 147.934C332.319 197.615 384.23 221.186 432.239 207.494C439.003 205.564 447.632 198.114 450.657 206.306C449.628 211.641 446.596 217.244 444.021 222.001C432.188 243.863 404.165 275.099 378.83 282.059L378.926 282.24C380.666 285.441 383.004 288.233 384.56 291.56C398.246 320.83 381.557 360.15 347.757 364.307C340.921 365.148 333.925 364.875 327.048 364.875L193.995 364.867C193.686 364.193 193.518 363.626 192.924 363.156C191.028 365.303 188.686 365.43 186.074 364.867C183.799 365.631 181.497 365.027 179.167 364.867C177.681 365.173 176.135 365.403 174.674 364.867C174.554 377.746 163.298 375.555 162.55 366.288C162.517 363.492 162.548 360.691 162.55 357.894C159.886 360.227 156.953 362.295 154.124 364.424C151.953 365.196 150.027 365.439 147.885 364.424C145.242 365.319 119.976 364.974 115.783 364.752C94.3342 363.615 72.0328 342.663 65.7782 322.814C57.1933 295.57 70.5468 265.667 95.9113 252.81C100.07 250.702 104.851 250.047 108.827 247.548C111.296 242.229 111.641 235.553 113.351 229.834C119.827 208.181 128.215 192.097 144.912 176.245C167.2 155.084 201.347 141.845 231.934 149.847C233.771 150.328 235.978 151.849 237.781 150.878ZM181.531 361.457C179.303 360.313 177.196 358.931 174.986 357.747L174.674 357.894C174.927 359.108 174.815 360.666 175.478 361.701L175.911 361.894C178.43 360.774 178.289 363.362 181.468 361.784L181.531 361.457Z"/>
	<path fill="#8AA4CD" transform="scale(2 2)" d="M237.781 150.878C233.689 149.393 236.51 145.004 237.593 140.693C247.423 101.539 279.747 71.25 318.228 60.666C322.681 59.4412 327.394 57.9839 332.063 58.2586C339.809 62.5661 334.128 67.2014 330.522 71.8962C314.607 92.6191 311.426 123.371 318.338 147.934C332.319 197.615 384.23 221.186 432.239 207.494C439.003 205.564 447.632 198.114 450.657 206.306C449.628 211.641 446.596 217.244 444.021 222.001C432.188 243.863 404.165 275.099 378.83 282.059C377.069 277.707 366.09 270.298 362.215 267.117C362.225 258.98 363.09 252.54 359.457 244.868C350.31 225.552 330.157 222.051 311.897 230.76C310.638 221.436 306.456 211.95 302.114 203.667C288.197 177.116 265.921 159.682 237.781 150.878Z"/>
	<path fill="#8AA4CD" transform="scale(2 2)" d="M162.55 337.33C162.551 333.683 161.561 324.975 164.104 322.29C166.427 319.837 170.551 319.998 172.834 322.428C175.637 325.412 174.687 333.369 174.674 337.33C177.976 335.812 185.212 330.726 188.596 331.17C191.767 331.586 194.425 334.985 193.827 338.179C193.076 342.193 184.834 345.531 181.531 347.778C188.962 352.95 196.669 352.061 192.924 363.156C191.028 365.303 188.686 365.43 186.074 364.867C183.799 365.631 181.497 365.027 179.167 364.867C177.681 365.173 176.135 365.403 174.674 364.867C174.554 377.746 163.298 375.555 162.55 366.288C162.517 363.492 162.548 360.691 162.55 357.894C159.886 360.227 156.953 362.295 154.124 364.424C151.953 365.196 150.027 365.439 147.885 364.424C139.93 355.188 151.175 351.734 158.099 347.778C153.373 344.943 142.022 341.953 145.589 334.247C146.567 332.134 148.546 331.306 150.617 330.607C154.827 332.011 158.687 335.128 162.55 337.33ZM181.531 361.457C179.303 360.313 177.196 358.931 174.986 357.747L174.674 357.894C174.927 359.108 174.815 360.666 175.478 361.701L175.911 361.894C178.43 360.774 178.289 363.362 181.468 361.784L181.531 361.457Z"/>
	<path fill="#E2E9EE" transform="scale(2 2)" d="M174.674 357.894C174.927 359.108 174.815 360.666 175.478 361.701L175.911 361.894C178.43 360.774 178.289 363.362 181.468 361.784L181.531 361.457L183.727 363.156C184.58 363.644 185.312 364.252 186.074 364.867C183.799 365.631 181.497 365.027 179.167 364.867C177.681 365.173 176.135 365.403 174.674 364.867C174.763 362.546 174.642 360.218 174.674 357.894Z"/>
	<path fill="#E2E9EE" transform="scale(2 2)" d="M295.939 393.057L296.268 393.044C304.364 392.799 302.196 406.295 302.038 411.472C305.407 408.78 312.108 403.297 316.506 403.916C319.107 404.282 322.269 406.684 321.726 409.623C321.052 413.266 310.853 418.782 307.627 421.008C311.354 423.022 318.848 426.134 320.604 430.086C321.846 432.881 320.234 435.943 317.529 437.001C312.733 438.877 306.551 432.525 302.394 430.612L302.038 430.452C302.067 435.185 303.425 444.849 299.721 448.376C288.887 453.788 290.976 435.889 291.002 430.452C287.596 432.612 280.979 438.058 276.799 437.136C273.79 436.472 272.119 433.013 272.951 430.159C274.007 426.536 282.512 422.848 285.864 421.008C282.702 418.742 273.559 414.897 273.073 410.6C271.562 397.24 286.716 407.616 291.002 411.472C290.594 405.717 287.993 394.429 295.939 393.057Z"/>
</svg>
