<?xml version="1.0" encoding="utf-8" ?>
<svg xmlns="http://www.w3.org/2000/svg" xmlns:xlink="http://www.w3.org/1999/xlink" width="1024" height="1024">
	<path fill="#FCFCFC" transform="scale(2 2)" d="M276.893 156.225C279.776 152.926 282.616 149.651 286.024 146.87C304.595 131.712 334.765 133.607 352.446 149.1C376.072 169.804 376.225 197.962 361.295 223.52C393.009 261.771 373.173 318.89 324.257 329.821C316.501 331.554 308.112 331.241 300.192 331.247L258.181 331.25C254.607 331.252 240.24 332.133 238.071 329.825C230.794 336.824 222.451 350.11 215.942 355.324C212.484 358.094 207.87 355.39 208.177 351.169C208.539 346.205 213.879 336.647 215.652 331.247C208.352 332.391 193.226 331.388 184.627 331.415L142.224 331.259C136.472 331.261 130.577 331.525 124.841 331.115C100.801 329.398 80.6642 308.676 82.6062 284.098C84.4388 260.906 105.003 242.793 128.376 244.875C129.492 238.228 129.707 231.666 132.63 225.431C143.059 203.189 166.305 198.457 187.3 208.702C202.29 178.171 225.732 156.286 262.174 158.523C266.21 158.771 270.023 159.911 274.007 160.419L274.261 160.192C275.021 158.731 275.882 157.517 276.893 156.225Z"/>
	<path fill="#FDC20A" transform="scale(2 2)" d="M276.893 156.225C279.776 152.926 282.616 149.651 286.024 146.87C304.595 131.712 334.765 133.607 352.446 149.1C376.072 169.804 376.225 197.962 361.295 223.52C356.632 214.495 336.892 204.327 327.557 202.356C325.086 201.807 322.591 201.475 320.086 201.129C312.915 184.883 303.761 173.142 287.111 165.128C282.965 163.132 278.342 162.332 274.261 160.192C275.021 158.731 275.882 157.517 276.893 156.225Z"/>
	<path fill="#FCA802" transform="scale(2 2)" d="M276.893 156.225C297.139 159.441 324.805 181.513 327.557 202.356C325.086 201.807 322.591 201.475 320.086 201.129C312.915 184.883 303.761 173.142 287.111 165.128C282.965 163.132 278.342 162.332 274.261 160.192C275.021 158.731 275.882 157.517 276.893 156.225Z"/>
	<path fill="#C7D0DC" transform="scale(2 2)" d="M215.652 331.247C217.347 328.9 221.476 319.329 220.648 316.782C217.891 308.302 198.759 316.67 192.006 313.183C185.041 309.585 196.542 295.998 198.93 292.306L209.149 276.234C212.162 271.583 219.029 255.075 225.325 259.153C231.792 263.342 214.363 287.223 216.203 294.8C218.213 303.08 235.504 299.536 242.421 299.11C274.57 297.126 244.72 319.039 238.071 329.825C230.794 336.824 222.451 350.11 215.942 355.324C212.484 358.094 207.87 355.39 208.177 351.169C208.539 346.205 213.879 336.647 215.652 331.247Z"/>
	<path fill="#73C5F8" transform="scale(2 2)" d="M268.186 347.091C275.752 346.332 273.305 357.517 273.287 362.308C276.42 360.453 282.092 355.84 285.752 356.145C288.066 356.338 290.437 358.921 289.938 361.31C289.152 365.074 281.693 368.619 278.688 370.451C281.395 372.564 289.085 376.823 289.88 379.977C290.464 382.296 288.387 384.996 286.114 385.397C282.487 386.037 276.229 380.444 273.287 378.33C273.382 383.496 275.81 394.891 268.186 395.223C261.891 394.128 264.255 383.68 264.207 378.33C261.16 379.893 254.359 385.263 251.137 384.756C248.831 384.394 246.306 381.99 247.04 379.494C248.078 375.962 255.62 372.183 258.78 370.451C257.159 369.194 238.064 357.593 250.495 355.203C254.201 354.491 261.084 360.25 264.207 362.308C264.175 355.874 261.496 348.154 268.186 347.091Z"/>
	<path fill="#73C5F8" transform="scale(2 2)" d="M169.29 347.091C177.754 346.419 174.422 357.171 174.962 362.308C178.169 360.401 182.718 356.274 186.574 356.791C188.901 357.103 191.275 359.147 190.708 361.685C189.94 365.121 181.938 368.441 178.965 370.451C182.041 371.76 188.736 374.723 189.987 377.889C190.784 379.904 189.788 383.189 187.548 383.865C184.326 384.837 177.843 379.991 174.962 378.33C174.869 384.781 177.615 391.559 170.343 393.323C163.569 391.913 165.563 383.504 165.701 378.33C162.561 380.036 156.405 384.91 152.819 384.101C150.558 383.591 148.929 380.752 149.666 378.547C150.814 375.116 157.484 371.942 160.657 370.451C158.796 368.767 142.303 359.514 152.866 356.236C156.618 355.072 162.483 360.499 165.701 362.308C165.728 357.104 163.625 349.86 169.29 347.091Z"/>
	<path fill="#FCFCFC" transform="scale(2 2)" d="M219.152 375.171C219.816 375.804 220.116 377.624 220.457 378.522C223.921 387.628 229.08 395.159 238.071 399.113C233.688 407.466 224.116 419.536 218.328 426.963L218.11 426.741L218.03 426.913C215.119 416.658 208.224 406.7 198.486 402.001C206.765 395.628 217.183 386.113 219.152 375.171Z"/>
	<path fill="#FEECBC" transform="scale(2 2)" d="M225.927 130.524C230.353 130.371 234.735 134.105 238.427 136.19C243.694 139.164 252.335 141.728 254.183 147.967C253.348 150.388 252.204 151.933 249.749 152.963C244.521 153.317 236.976 147.686 232.594 145.197C228.777 143.029 218.749 139.185 222.107 133.087C222.924 131.602 224.379 130.975 225.927 130.524Z"/>
	<path fill="#FEECBC" transform="scale(2 2)" d="M408.669 130.524C410.972 129.652 412.998 129.744 414.373 132.047C417.764 137.728 410.306 140.859 406.589 143.231C401.331 146.586 396.053 150.081 390.518 152.963C385.869 153.348 381.851 148.567 384.979 144.296C386.878 141.704 404.753 131.226 408.669 130.524Z"/>
	<path fill="#FEECBC" transform="scale(2 2)" d="M388.391 223.52C389.692 223.48 427.36 239.993 412.364 247.805C409.696 248.303 372.116 229.152 388.391 223.52Z"/>
	<path fill="#FEECBC" transform="scale(2 2)" d="M405.321 181.827C409.245 181.819 440.128 179.056 428.01 191.604C425.747 192.392 423.491 192.332 421.125 192.371L408.242 192.392C404.313 192.402 396.592 193.548 396.171 187.77C395.737 181.822 400.822 181.984 405.321 181.827Z"/>
	<path fill="#FEECBC" transform="scale(2 2)" d="M265.375 93.5268C270.011 92.7402 272.375 98.3151 274.393 101.558C278.565 108.261 288.272 117.697 278.688 122.932C271.752 123.669 263.543 105.776 261.291 100.588C259.809 97.1725 262.292 94.6785 265.375 93.5268Z"/>
	<path fill="#FEECBC" transform="scale(2 2)" d="M369.427 93.5268C384.476 94.5173 362.851 122.099 359.085 122.932C348.229 121.75 355.494 112.29 358.257 107.703C360.763 103.544 364.352 94.6721 369.427 93.5268Z"/>
	<path fill="#FEECBC" transform="scale(2 2)" d="M316.884 76.2673C319.112 76.0961 321.441 76.7449 322.417 78.9917C323.857 82.3059 326.493 105.543 318.738 108.32C314.547 108.857 313.083 105.814 312.67 102.291C312.125 97.6437 312.081 83.9829 312.523 79.0603C313.856 77.7484 315.172 76.9657 316.884 76.2673Z"/>
</svg>
