<?xml version="1.0" encoding="utf-8" ?>
<svg xmlns="http://www.w3.org/2000/svg" xmlns:xlink="http://www.w3.org/1999/xlink" width="1024" height="1024">
	<path fill="#E5E4E3" transform="scale(2 2)" d="M271.143 155.2C280.81 143.312 296.68 135.029 311.815 133.472C365.623 127.936 398.786 189.304 363.864 231.46C362.639 232.938 361.416 234.307 359.835 235.411C364.625 250.803 361.879 253.134 363.296 265.996C366.209 268.681 369.342 271.018 372.076 273.909C388.561 291.343 387.758 319.866 371.64 337.211C357.101 352.857 342.107 351.599 323.136 351.593L154.391 351.598C149.327 351.596 144.138 351.364 139.086 351.602C134.864 351.118 131.08 351.535 126.873 351.567C65.0588 352.035 57.4148 281.141 102.005 262.785C104.641 261.7 107.404 261.051 110.105 260.161C112.767 255.649 114.131 250.467 116.974 245.956C123.34 235.855 133.748 231.075 144.436 226.902L144.701 226.779C152.016 223.372 152.75 217.957 155.253 211.128C171.189 167.644 223.247 147.671 264.488 168.419C265.483 168.92 266.355 169.623 267.451 169.903C265.358 164.654 267.995 159.41 271.143 155.2Z"/>
	<path fill="#F8B830" transform="scale(2 2)" d="M271.143 155.2C280.81 143.312 296.68 135.029 311.815 133.472C365.623 127.936 398.786 189.304 363.864 231.46C362.639 232.938 361.416 234.307 359.835 235.411C350.209 215.516 335.843 204.14 312.703 204.266C308.215 204.409 303.966 205.117 299.627 206.231C293.005 192.323 281.457 177.265 267.451 169.903C265.358 164.654 267.995 159.41 271.143 155.2Z"/>
	<path fill="#C4C7CE" transform="scale(2 2)" d="M144.436 226.902C143.684 231.59 130.342 242.258 129.475 260.161C126.591 262.455 123.146 263.892 120.166 266.046C89.436 288.257 97.1205 333.911 131.476 348.295C133.705 349.228 137.271 350.173 139.086 351.602C134.864 351.118 131.08 351.535 126.873 351.567C65.0588 352.035 57.4148 281.141 102.005 262.785C104.641 261.7 107.404 261.051 110.105 260.161C112.767 255.649 114.131 250.467 116.974 245.956C123.34 235.855 133.748 231.075 144.436 226.902Z"/>
	<path fill="#C4C7CE" transform="scale(2 2)" d="M409.306 186.265C417.776 186.09 426.422 186.016 434.891 186.265C438.977 190.569 438.524 195.914 432.591 197.742C424.547 198.111 399.843 202.078 404.962 188.44C406.411 187.117 407.374 186.627 409.306 186.265Z"/>
	<path fill="#C4C7CE" transform="scale(2 2)" d="M398.487 107.075C403.064 107.388 404.467 110.223 404.207 114.522C402.143 118.266 389.139 133.448 383.994 135.223C367.136 128.807 396.142 107.458 398.487 107.075Z"/>
	<path fill="#C4C7CE" transform="scale(2 2)" d="M242.604 108.78C246.449 108.586 261.025 123.996 262.886 127.989C262.72 131.978 262.305 134.27 258.049 135.223C257.063 135.254 256.069 135.225 255.083 135.223C252.442 133.737 238.412 119.502 237.528 117.044C236.795 115.009 237.497 113.291 238.425 111.482C239.682 109.846 240.675 109.347 242.604 108.78Z"/>
	<path fill="#C4C7CE" transform="scale(2 2)" d="M318.569 73.3203C320.987 73.1295 324.265 73.9384 325.118 76.5216C326.497 80.7031 328.602 101.044 321.271 103.244C310.044 103.964 313.367 84.0248 313.755 76.1799C315.309 74.823 316.581 73.9422 318.569 73.3203Z"/>
	<path fill="#C4C7CE" transform="scale(2 2)" d="M382.99 251.057C385.887 250.948 413.429 272.825 397.573 277.135C393.421 276.871 366.803 254.283 382.99 251.057Z"/>
	<path fill="#6285A9" transform="scale(2 2)" d="M255.083 411.275L255.186 411.517C253.266 420.404 255.652 435.999 245.301 436.989C242.505 437.256 240.492 436.165 238.425 434.436C227.439 424.331 248.191 414.711 255.083 411.275Z"/>
	<path fill="#6285A9" transform="scale(2 2)" d="M304.765 376.497L304.84 376.569C303.383 386.803 303.014 406.894 287.652 398.484C277.891 386.198 294.929 378.645 304.765 376.497Z"/>
	<path fill="#6285A9" transform="scale(2 2)" d="M144.436 376.497L144.666 376.777C144.886 380.624 144.812 390.057 143.994 393.633C142.333 400.896 135.012 402.777 129.475 398.484C118.92 387.236 138.097 380.168 144.436 376.497Z"/>
	<path fill="#6285A9" transform="scale(2 2)" d="M221.387 374.216L221.819 374.39C221.952 376.258 220.052 389.228 219.479 391.491C217.602 398.903 211.44 400.64 205.376 396.764C194.147 386.608 214.538 377.807 221.387 374.216Z"/>
	<path fill="#6285A9" transform="scale(2 2)" d="M174.367 413.514L174.614 413.576C175.182 415.47 174.162 428.188 173.688 430.62C172.306 437.695 165.728 439.314 160.239 435.654C149.097 424.509 166.601 417.36 174.367 413.514Z"/>
</svg>
