<?xml version="1.0" encoding="utf-8" ?>
<svg xmlns="http://www.w3.org/2000/svg" xmlns:xlink="http://www.w3.org/1999/xlink" width="1024" height="1024">
	<path fill="#FBFCFC" transform="scale(2 2)" d="M227.245 179.227C226.253 114.868 267.665 71.686 331.041 66.2436C329.478 68.4004 327.402 70.0895 325.605 72.0364C308.878 90.1602 301.515 116.832 304.836 141.039C313.491 204.13 384.221 230.525 435.296 198.01C438.76 195.804 441.899 192.861 445.472 190.905C439.253 215.644 428.979 235.278 410.203 252.742C406.764 255.941 389.006 270.597 384.377 271.312C381.986 274.841 389.671 300.436 368.262 319.239C352.011 333.514 339.802 333.949 319.996 333.775L144.525 333.797C141.351 333.806 137.989 334.087 134.843 333.778C116.131 335.319 97.1817 333.755 83.3861 319.226C64.5986 299.44 63.8403 268.415 84.1887 249.434C96.3143 238.124 108.312 236.23 124.239 236.772C124.032 225.783 127.372 215.412 132.347 205.724C151.063 169.275 192.611 161.346 227.245 179.227Z"/>
	<path fill="#C7C9D2" transform="scale(2 2)" d="M227.245 179.227C226.253 114.868 267.665 71.686 331.041 66.2436C329.478 68.4004 327.402 70.0895 325.605 72.0364C308.878 90.1602 301.515 116.832 304.836 141.039C313.491 204.13 384.221 230.525 435.296 198.01C438.76 195.804 441.899 192.861 445.472 190.905C439.253 215.644 428.979 235.278 410.203 252.742C406.764 255.941 389.006 270.597 384.377 271.312C384.055 269.746 383.169 268.079 382.569 266.576C375.646 249.215 361.984 233.361 342.235 231.361C338.133 230.946 333.91 231.246 329.786 231.241C329.846 227.67 329.638 223.924 328.242 220.592C325.979 211.185 320.587 207.525 313.989 202.152L314.02 201.492C309.227 191.197 284.33 185.77 273.748 187.35C268.384 188.152 254.258 192.638 251.045 197C246.866 191.851 240.325 188.385 234.461 185.463L234.612 185.036C234.001 183.502 228.74 180.301 227.245 179.227Z"/>
	<path fill="#A9D2E9" transform="scale(2 2)" d="M124.239 236.772C124.032 225.783 127.372 215.412 132.347 205.724C151.063 169.275 192.611 161.346 227.245 179.227C228.74 180.301 234.001 183.502 234.612 185.036L234.461 185.463C195.91 168.283 151.232 197.012 150.281 239.369C150.197 243.084 150.51 246.793 150.265 250.506C114.455 238.75 84.5979 276.691 101.713 310.193C108.584 323.642 121.545 331.155 135.984 333.467L134.843 333.778C116.131 335.319 97.1817 333.755 83.3861 319.226C64.5986 299.44 63.8403 268.415 84.1887 249.434C96.3143 238.124 108.312 236.23 124.239 236.772Z"/>
	<path fill="#A9D2E9" transform="scale(2 2)" d="M251.045 197C254.258 192.638 268.384 188.152 273.748 187.35C284.33 185.77 309.227 191.197 314.02 201.492L313.989 202.152C304.377 196.817 297.151 195.3 286.21 197.633C275.379 199.55 266.852 208.082 262.296 217.714C260.623 210.119 256.474 202.55 251.045 197Z"/>
	<path fill="#A9D2E9" transform="scale(2 2)" d="M132.111 387.3C139.291 386.692 138.083 394.488 137.455 399.308C139.484 397.233 149.489 387.04 150.456 396.209C150.807 399.545 146.53 403.243 144.494 405.659C148.72 405.42 162.429 405.994 154.707 413.406C152.179 415.832 147.678 414.889 144.494 414.734C147.014 417.739 155.448 428.479 145.286 427.954C141.655 427.766 140.004 423.637 137.786 421.32L137.455 420.979C137.435 425.052 138.592 430.965 133.939 432.834C125.985 433.609 128.336 425.36 128.74 420.134C125.733 423.168 123.198 425.992 119.037 427.323C111.28 423.992 118.291 417.776 122.066 414.223C118.844 414.111 113.185 414.823 110.936 412.063C104.753 404.477 118.978 405.373 122.066 405.659C119.937 403.269 116.03 400.214 116.063 396.783C116.158 386.754 126.149 396.214 128.74 399.308C128.776 394.684 127.307 389.888 132.111 387.3Z"/>
	<path fill="#A9D2E9" transform="scale(2 2)" d="M312.579 353.28C319.764 352.315 318.701 359.958 318.26 364.764C322.615 358.624 331.969 355.237 331.244 363.174C330.911 366.816 327.596 369.077 324.988 371.205C340.065 367.501 341.228 386.113 323.34 380.14C326.736 382.457 331.715 384.887 330.927 389.918C329.711 397.679 321.507 392.713 318.26 387.3C318.264 390.502 318.715 393.603 316.721 396.352C309.291 403.087 308.732 390.743 308.754 386.303C306.256 388.584 303.138 391.933 299.507 391.576C292.677 390.903 299.025 382.633 303.137 380.14C299.934 379.94 294.151 380.31 291.93 377.704C286.565 371.408 298.066 370.175 303.137 371.205C300.859 368.996 297.064 365.938 297.01 362.512C296.878 353.973 306.56 360.757 309.73 364.764C309.16 361.209 309.006 358.207 310.541 354.842C311.183 354.279 311.892 353.788 312.579 353.28Z"/>
	<path fill="#A9D2E9" transform="scale(2 2)" d="M201.727 346.347C209.057 345.657 207.89 352.188 207.711 357.605C217.764 348.141 226.184 353.027 214.539 364.261C233.671 362.457 226.775 377.305 214.539 373.25C224.265 381.062 220.021 393.02 207.711 380.14C208.15 384.513 208.769 389.083 204.874 392.099C197.155 393.873 198.229 385.215 198.25 380.14C194.81 384.895 188.784 388.149 186.085 381.223C187.158 377.653 189.308 375.727 191.915 373.25C188.985 373.467 185.909 373.548 182.983 373.25L182.643 372.954C180.436 371.048 179.388 367.152 182.12 365.135C184.497 363.379 189.148 364.441 191.915 364.764C189.975 362.608 186.273 359.752 186.53 356.614C187.294 347.262 195.132 353.931 198.25 357.605C198.17 353.282 197.22 348.642 201.727 346.347Z"/>
	<path fill="#A9D2E9" transform="scale(2 2)" d="M246.101 400.04C252.645 400.136 251.275 407.306 251.045 411.913C262.491 401.743 268.9 406.925 258.105 418.753C261.429 418.613 266.323 417.884 268.776 420.682C273.546 426.12 262.825 428.081 258.105 427.323C268.159 435.963 261.723 446.189 251.045 434.029C251.154 437.783 251.297 441.802 248.305 444.559C241.657 446.7 241.014 438.73 242.78 434.029C227.973 445.874 226.098 433.786 236.029 427.323C232.075 427.119 218.92 425.348 226.11 418.709C228.11 416.862 232.588 417.688 235.173 417.822C231.471 413.265 226.765 408.692 234.461 405.659C237.944 407.231 240.151 409.142 242.78 411.913C241.85 407.753 240.696 401.26 246.101 400.04Z"/>
</svg>
