<?xml version="1.0" encoding="utf-8" ?>
<svg xmlns="http://www.w3.org/2000/svg" xmlns:xlink="http://www.w3.org/1999/xlink" width="1024" height="1024">
	<path fill="#FCFCFC" transform="scale(2 2)" d="M264.69 131.155C280.685 104.184 309.344 83.4212 341.478 83.6202C347.479 86.789 343.994 90.8072 341.048 94.9215C329.977 110.388 326.968 131.776 332.191 149.886C343.402 188.759 389.242 208.527 424.282 186.34C427.118 184.544 429.051 182.537 432.378 181.551C434.971 182.477 436.361 183.034 437.625 185.628C435.523 212.132 412.548 243.969 388.775 256.008C384.107 258.711 379.392 261.015 374.127 262.323C373.894 262.59 373.818 262.896 373.831 263.247C374.899 293.275 364.643 317.685 333.853 327.725C321.663 331.7 309.067 330.476 296.472 330.692C271.152 331.127 245.813 330.688 220.488 330.798L140.623 330.842C135.988 330.844 131.33 330.965 126.712 330.519C70.2719 325.073 55.2444 247.603 105.376 220.69C110.686 217.839 116.158 215.995 121.883 214.203C123.974 209.588 125.284 204.53 127.253 199.818C147.301 151.849 201.069 128.954 249.778 144.614C251.799 145.264 255.553 147.84 257.539 147.525C259.172 141.929 261.786 136.206 264.69 131.155Z"/>
	<path fill="#99A6BE" transform="scale(2 2)" d="M264.69 131.155C280.685 104.184 309.344 83.4212 341.478 83.6202C347.479 86.789 343.994 90.8072 341.048 94.9215C329.977 110.388 326.968 131.776 332.191 149.886C343.402 188.759 389.242 208.527 424.282 186.34C427.118 184.544 429.051 182.537 432.378 181.551C434.971 182.477 436.361 183.034 437.625 185.628C435.523 212.132 412.548 243.969 388.775 256.008C384.107 258.711 379.392 261.015 374.127 262.323C374.425 257.906 372.871 254.109 371.24 250.071C361.69 226.416 336.549 208.438 310.376 214.203C305.151 190.905 291.133 169.326 271.551 155.563C267.18 152.491 262.371 150.516 257.882 147.739L257.539 147.525C259.172 141.929 261.786 136.206 264.69 131.155Z"/>
	<path fill="#7792BA" transform="scale(2 2)" d="M264.69 131.155L265.092 131.449C266.683 132.594 268.516 133.495 270.189 134.526C292.598 148.324 314.731 171.396 322.312 197.305C350.241 194.873 376.918 218.65 385.409 243.925C386.739 247.884 387.368 252.098 388.775 256.008C384.107 258.711 379.392 261.015 374.127 262.323C374.425 257.906 372.871 254.109 371.24 250.071C361.69 226.416 336.549 208.438 310.376 214.203C305.151 190.905 291.133 169.326 271.551 155.563C267.18 152.491 262.371 150.516 257.882 147.739L257.539 147.525C259.172 141.929 261.786 136.206 264.69 131.155Z"/>
	<path fill="#7792BA" transform="scale(2 2)" d="M275.884 401.845C291.632 402.327 281.559 421.117 271.156 423.019C265.128 423.004 262.531 418.489 262.77 412.948C265.142 408.487 270.704 402.942 275.884 401.845Z"/>
	<path fill="#75CFF1" transform="scale(2 2)" d="M210.983 401.845C216.359 401.93 221.8 407.237 218.802 412.603C216.875 416.053 211.208 421.923 207.132 423.019C201.506 423.332 195.514 417.363 198.925 411.792C201.015 408.377 206.854 402.904 210.983 401.845Z"/>
	<path fill="#7792BA" transform="scale(2 2)" d="M311.362 353.555C324.249 351.479 322.669 369.14 308.11 374.199C302.476 374.622 296.39 368.025 299.946 362.712C302.25 359.269 307.067 354.391 311.362 353.555Z"/>
	<path fill="#75CFF1" transform="scale(2 2)" d="M181.529 353.555C197.211 352.706 189.558 371.723 178.191 374.199C173.233 374.354 167.494 368.779 169.771 363.677C171.332 360.178 177.988 354.863 181.529 353.555Z"/>
	<path fill="#75CFF1" transform="scale(2 2)" d="M243.782 353.555C249.1 353.332 255.485 357.397 253.002 363.501C251.694 366.715 245.116 372.804 241.992 374.199C236.893 374.909 231.384 369.719 232.849 364.483C233.841 360.939 240.516 355.409 243.782 353.555Z"/>
</svg>
