<?xml version="1.0" encoding="utf-8" ?>
<svg xmlns="http://www.w3.org/2000/svg" xmlns:xlink="http://www.w3.org/1999/xlink" width="1024" height="1024">
	<path fill="#FBFBFC" transform="scale(2 2)" d="M204.975 222.39C206.091 220.589 206.397 218.479 207.149 216.528C225.701 168.395 288.841 148.544 333.417 173.741C355.133 186.017 373.382 210.77 378.486 235.233C381.888 235.288 388.263 234.726 391.312 235.911C447.353 247.9 439.993 332.463 381.538 339.449C372.903 340.481 362.091 339.887 353.259 339.883L218.397 339.881C196.471 339.878 176.953 335.842 164.174 315.226C163.092 313.48 162.064 311.658 160.703 310.11C160.317 307.779 158.74 305.515 157.977 303.263C154.938 294.298 154.08 285.037 155.716 275.729C158.104 253.744 174.239 236.907 195.806 232.105L201.803 231.235C202.676 228.412 203.633 225.841 204.975 223.2C204.879 222.953 204.954 222.651 204.975 222.39Z"/>
	<path fill="#BED0DE" transform="scale(2 2)" d="M391.312 235.911C447.353 247.9 439.993 332.463 381.538 339.449C372.903 340.481 362.091 339.887 353.259 339.883L218.397 339.881C196.471 339.878 176.953 335.842 164.174 315.226C163.092 313.48 162.064 311.658 160.703 310.11C160.317 307.779 158.74 305.515 157.977 303.263C154.938 294.298 154.08 285.037 155.716 275.729C155.637 277.973 156.505 280.096 157.096 282.226C171.494 334.091 214.29 326.443 255.891 326.445L361.099 326.45C367.66 326.452 374.557 326.809 381.031 325.598C421.867 317.96 436.398 265.986 399.25 240.606C397.178 239.19 392.597 237.938 391.312 235.911Z"/>
	<path fill="#569AC4" transform="scale(2 2)" d="M128.71 289.708C106.302 273.281 89.6168 245.134 83.576 218.417C69.7589 157.309 109.887 90.0612 171.499 76.6105C174.384 75.9807 177.595 76.7728 177.651 80.3757C177.679 82.2034 170.855 89.5083 169.487 91.3008C138.346 133.019 148.117 195.209 196.259 218.508C199.114 219.89 202.17 220.928 204.975 222.39C204.954 222.651 204.879 222.953 204.975 223.2C203.633 225.841 202.676 228.412 201.803 231.235L195.806 232.105C174.239 236.907 158.104 253.744 155.716 275.729C154.08 285.037 154.938 294.298 157.977 303.263C158.74 305.515 160.317 307.779 160.703 310.11C154.962 307.176 149.34 304.281 143.887 300.827C138.615 297.373 133.646 293.625 128.71 289.708Z"/>
	<path fill="#72ABD0" transform="scale(2 2)" d="M128.71 289.708C106.302 273.281 89.6168 245.134 83.576 218.417C69.7589 157.309 109.887 90.0612 171.499 76.6105C174.384 75.9807 177.595 76.7728 177.651 80.3757C177.679 82.2034 170.855 89.5083 169.487 91.3008C166.262 90.1943 154.239 99.0136 151.942 100.974C146.103 103.068 135.141 114.333 130.527 119.24C86.3004 166.278 86.089 230.386 122.879 280.818C124.372 282.864 129.136 287.161 128.71 289.708Z"/>
	<path fill="#3482B2" transform="scale(2 2)" d="M151.942 100.974C154.239 99.0136 166.262 90.1943 169.487 91.3008C138.346 133.019 148.117 195.209 196.259 218.508C199.114 219.89 202.17 220.928 204.975 222.39C204.954 222.651 204.879 222.953 204.975 223.2C203.633 225.841 202.676 228.412 201.803 231.235L195.806 232.105C174.239 236.907 158.104 253.744 155.716 275.729C154.08 285.037 154.938 294.298 157.977 303.263C158.74 305.515 160.317 307.779 160.703 310.11C154.962 307.176 149.34 304.281 143.887 300.827C145.401 298.842 142.38 291.44 141.97 288.925C137.171 259.536 158.128 235.616 184.75 226.119C149.461 208.2 129.633 157.819 142.942 120.505C145.326 113.82 149.904 107.276 151.829 101.332L151.942 100.974Z"/>
	<path fill="#146C9D" transform="scale(2 2)" d="M184.75 226.119C187.303 224.488 202.38 220.604 204.975 223.2C203.633 225.841 202.676 228.412 201.803 231.235L195.806 232.105C193.798 230.05 187.558 227.521 184.75 226.119Z"/>
	<path fill="#89D9ED" transform="scale(2 2)" d="M146.845 372.515C154.603 372.958 151.744 384.864 151.942 390.041C153.12 388.881 167.747 371.905 168.756 383.008C169.146 387.296 161.423 392.374 158.936 395.67L158.688 396.004L173.443 396.004C183.245 406.911 163.888 405.349 158.688 404.987C161.997 409.114 166.831 412.624 169.487 417.161C164.019 428.493 157.193 416.646 151.942 411.538C151.834 416.201 152.049 420.873 151.942 425.54C150.361 427.4 149.302 428.143 146.845 428.358C141.042 427.208 143.046 416.397 143.043 411.538C141.429 412.585 126.781 430.738 126.378 417.144C126.269 413.459 134.124 407.643 136.741 404.987C132.185 405.013 110.412 406.85 120.741 396.004C125.971 395.543 131.465 396.113 136.741 396.004C134.316 393.211 126.61 387.29 126.352 384.015C126.181 381.854 128.459 379.649 130.581 379.697C134.284 379.782 140.499 387.374 143.043 390.041C142.932 384.642 140.709 374.137 146.845 372.515Z"/>
	<path fill="#89D9ED" transform="scale(2 2)" d="M253.031 374.254C260.779 373.945 258.289 386.311 258.291 391.167C261.803 387.855 267.501 378.375 273.234 382.889C278.46 387.003 267.123 395.224 264.98 397.743C268.613 397.796 278.003 396.714 280.626 398.764C282.499 400.229 282.822 403.445 281.169 405.197C278.62 407.898 268.63 406.9 264.98 406.874L271.356 413.046C274.923 416.533 276.314 422.777 270.264 422.44C265.935 422.199 261.089 415.432 258.291 412.357C259.03 417.836 260.722 427.087 254.169 429.472C252.522 429.208 251.697 428.595 250.44 427.539C248.961 423.566 249.725 416.675 249.741 412.357C247.284 414.863 234.77 430.314 233.981 418.471C233.754 415.069 240.886 408.779 243.228 406.076C239.568 406.105 229.26 406.95 226.656 404.752C224.217 402.693 226.03 398.758 228.744 397.943C231.809 397.022 238.944 398.087 242.72 397.787L243.228 397.743C241.498 396.186 226.964 382.477 237.217 381.843C240.888 381.616 246.989 389.723 249.741 392.325C249.917 385.974 247.012 377.461 253.031 374.254Z"/>
	<path fill="#89D9ED" transform="scale(2 2)" d="M345.358 376.207C352.905 376.443 350.635 387.438 350.747 392.325C354.556 389.94 367.145 374.493 366.728 389.211C364.462 392.672 360.898 395.171 358.151 398.251C362.691 398.2 374.495 396.355 373.699 403.664C373.533 405.192 372.34 405.999 371.223 406.874C367.308 408.206 362.294 407.628 358.151 407.738C360.156 409.62 372.217 419.596 364.549 422.654C360.639 424.212 354.858 416.47 350.747 414.26C351.424 419.026 352.842 427.324 347.189 429.472C339.84 428.686 341.954 419.568 342.003 414.26C340.814 415.251 326.782 429.479 326.015 419.298C325.711 415.275 332.258 411 334.736 408.066L335.009 407.738C330.571 407.786 317.75 409.663 319.131 401.775C319.435 400.038 320.76 399.165 322.114 398.251C326.436 398.127 330.697 398.748 335.009 398.251C332.576 396.225 318.733 384.017 329.886 383.166C333.242 382.91 339.311 390.007 342.003 392.325C341.931 386.885 339.928 379.518 345.358 376.207Z"/>
	<path fill="#89D9ED" transform="scale(2 2)" d="M96.3321 312.317C105.923 311.724 114.173 319.033 114.741 328.625C115.309 338.218 107.98 346.449 98.3862 346.993C88.826 347.536 80.6303 340.238 80.0641 330.679C79.4979 321.121 86.7748 312.907 96.3321 312.317Z"/>
	<path fill="#BED0DE" transform="scale(2 2)" d="M398.552 103.801L398.883 103.786C406.145 103.515 404.213 112.982 404.002 117.66C407.841 115.946 410.613 113.209 414.823 112.169C425.135 116.636 412.529 122.922 408.338 125.307C409.924 126.355 425.141 133.357 416.744 137.51C412.849 139.437 407.968 134.073 404.002 132.79C403.774 136.54 405.448 143.121 402.2 145.84C393.505 148.693 395.446 138.12 395.553 132.79C392.899 134.847 388.481 138.464 384.986 137.738C382.797 137.284 380.602 135.126 381.281 132.741C382.243 129.364 388.494 126.981 391.312 125.307C387.562 122.919 374.53 116.184 385.847 112.169C389.492 113.198 392.291 115.834 395.553 117.66C395.814 113.214 393.463 106.01 398.552 103.801Z"/>
	<path fill="#89D9ED" transform="scale(2 2)" d="M434.561 362.878C439.643 362.139 444.728 364.2 447.861 368.269C450.994 372.337 451.687 377.78 449.674 382.504C447.661 387.228 443.254 390.498 438.15 391.056C430.449 391.897 423.494 386.414 422.515 378.73C421.537 371.045 426.895 363.994 434.561 362.878Z"/>
</svg>
