<?xml version="1.0" encoding="utf-8" ?>
<svg xmlns="http://www.w3.org/2000/svg" xmlns:xlink="http://www.w3.org/1999/xlink" width="1024" height="1024">
	<path fill="#FCFBFB" transform="scale(2 2)" d="M264.771 136.239C274.845 108.853 285.872 90.2549 312.283 74.8303C316.574 72.3241 321.27 69.7365 326.109 68.5187C333.948 66.5458 338.395 72.6084 333.701 79.0374C311.826 110.359 318.347 151.296 350.191 173.338C370.348 187.289 399.377 190.854 421.349 178.958C425.544 176.686 430.63 171.961 435.489 175.35C443.948 181.251 426.021 204.459 421.756 209.856C412.367 221.737 401.698 229.39 388.508 236.541C384.936 237.844 381.336 239.293 377.678 240.336C400.929 272.288 384.262 319.426 344.107 324.378C329.38 326.194 313.931 325.285 299.133 325.279L149.017 325.219C128.331 325.038 104.608 327.467 89.7146 310.872L89.6626 310.524C82.2969 304.443 77.6165 292.81 75.9916 283.626C70.7491 253.994 91.3399 227.498 120.439 222.47C121.896 217.51 122.63 212.457 124.336 207.532C143.871 151.139 206.156 123.025 261.821 142.511C262.141 142.489 262.428 142.446 262.744 142.511C263.397 140.414 264.094 138.329 264.771 136.239Z"/>
	<path fill="#6F8EBA" transform="scale(2 2)" d="M264.771 136.239C274.845 108.853 285.872 90.2549 312.283 74.8303C316.574 72.3241 321.27 69.7365 326.109 68.5187C333.948 66.5458 338.395 72.6084 333.701 79.0374C311.826 110.359 318.347 151.296 350.191 173.338C370.348 187.289 399.377 190.854 421.349 178.958C425.544 176.686 430.63 171.961 435.489 175.35C443.948 181.251 426.021 204.459 421.756 209.856C412.367 221.737 401.698 229.39 388.508 236.541C384.936 237.844 381.336 239.293 377.678 240.336C361.523 221.582 349.402 221.287 327.774 220.739C326.768 217.204 325.712 213.711 324.529 210.231C313.179 183.336 307.121 175.697 286.698 156.99C288.006 154.592 287.667 150.142 287.726 147.412C280.967 144.834 272.477 136.641 264.771 136.239Z"/>
	<path fill="#5772A2" transform="scale(2 2)" d="M264.771 136.239C274.845 108.853 285.872 90.2549 312.283 74.8303C316.574 72.3241 321.27 69.7365 326.109 68.5187C333.948 66.5458 338.395 72.6084 333.701 79.0374C324.852 80.0708 311.405 93.1784 305.769 100.309C292.194 117.482 291.335 128 287.726 147.412C280.967 144.834 272.477 136.641 264.771 136.239Z"/>
	<path fill="#5772A2" transform="scale(2 2)" d="M324.529 210.231C327.023 207.785 338.071 207.411 341.511 207.444C357.179 207.593 383.9 220.837 388.508 236.541C384.936 237.844 381.336 239.293 377.678 240.336C361.523 221.582 349.402 221.287 327.774 220.739C326.768 217.204 325.712 213.711 324.529 210.231Z"/>
	<path fill="#DADADA" transform="scale(2 2)" d="M120.439 222.47C121.896 217.51 122.63 212.457 124.336 207.532C143.871 151.139 206.156 123.025 261.821 142.511C255.064 142.507 248.311 142.386 241.584 143.136C200.978 147.664 165.49 181.206 157.402 220.959C156.313 226.312 156.573 233.446 154.096 238.23C150.738 244.714 143.314 242.389 137.371 242.72C109.226 244.286 117.203 271.248 109.501 276.639C101.982 281.902 93.1555 271.755 86.0023 278.645C76.0437 288.236 87.0263 302.353 89.6626 310.524C82.2969 304.443 77.6165 292.81 75.9916 283.626C70.7491 253.994 91.3399 227.498 120.439 222.47Z"/>
	<path fill="#2C5D9A" transform="scale(2 2)" d="M264.771 136.239C272.477 136.641 280.967 144.834 287.726 147.412C287.667 150.142 288.006 154.592 286.698 156.99C279.304 151.012 271.186 146.778 262.744 142.511C263.397 140.414 264.094 138.329 264.771 136.239Z"/>
	<path fill="#88C2FB" transform="scale(2 2)" d="M179.163 404.124C183.74 412.88 193.027 428.41 183.94 437.31C169.994 449.573 149.87 435.005 165.424 415.782C169.391 410.847 173.739 407.377 179.163 404.124Z"/>
	<path fill="#17A7F7" transform="scale(2 2)" d="M165.424 415.782C166.994 418.337 162.42 429.203 174.289 434.966C176.748 436.16 183.56 437.019 183.94 437.31C169.994 449.573 149.87 435.005 165.424 415.782Z"/>
	<path fill="#88C2FB" transform="scale(2 2)" d="M126.036 363.612C128.327 359.251 135.262 354.129 139.537 351.883C144.493 360.028 151.636 374.596 144.951 383.548C133.435 397.69 109.593 380.599 126.036 363.612Z"/>
	<path fill="#17A7F7" transform="scale(2 2)" d="M126.036 363.612C128.094 369.691 122.83 374.543 134.81 381.531C139.446 384.235 143.049 382.561 144.951 383.548C133.435 397.69 109.593 380.599 126.036 363.612Z"/>
	<path fill="#88C2FB" transform="scale(2 2)" d="M248.877 415.782C250.539 413.495 258.095 404.924 261.452 407.631C266.084 411.368 272.333 430.999 264.771 437.31C248.676 452.621 231.248 426.035 248.877 415.782Z"/>
	<path fill="#17A7F7" transform="scale(2 2)" d="M264.771 437.31C248.676 452.621 231.248 426.035 248.877 415.782C246.168 429.552 251.078 435.312 264.771 437.31Z"/>
	<path fill="#88C2FB" transform="scale(2 2)" d="M208.706 363.612C212.543 360.014 216.061 356.551 221.172 354.886L221.861 354.66C226.618 363.977 233.544 376.815 224.249 385.653C209.827 397.278 193.479 376.772 208.706 363.612Z"/>
	<path fill="#17A7F7" transform="scale(2 2)" d="M208.706 363.612C209.144 365.115 208.445 366.876 208.227 368.381C206.82 378.1 215.967 384.016 224.249 385.653C209.827 397.278 193.479 376.772 208.706 363.612Z"/>
	<path fill="#88C2FB" transform="scale(2 2)" d="M290.696 362.535C292.779 360.534 300.274 353.898 303.019 353.712C305.116 353.57 315.377 373.78 308.193 382.067C297.184 394.674 271.076 380.056 290.696 362.535Z"/>
	<path fill="#17A7F7" transform="scale(2 2)" d="M290.696 362.535C290.844 364.422 290.565 366.246 290.476 368.124C290.09 376.279 297.192 382.583 305.114 382.137C306.092 382.082 307.232 381.868 308.193 382.067C297.184 394.674 271.076 380.056 290.696 362.535Z"/>
</svg>
