<?xml version="1.0" encoding="utf-8" ?>
<svg xmlns="http://www.w3.org/2000/svg" xmlns:xlink="http://www.w3.org/1999/xlink" width="1024" height="1024">
	<path fill="#FCFCFC" transform="scale(2 2)" d="M237.193 119.451L237.338 119.274C239.689 116.35 241.586 113.141 244.054 110.273C277.409 71.5182 339.899 84.0188 353.684 134.9C354.482 137.846 354.947 142.918 356.416 145.403C358.896 140.946 372.754 142.918 376.655 143.826C395.404 148.194 401.355 168.538 391.829 184.52L392.265 184.605C393.947 184.92 395.668 184.855 397.346 185.249C433.141 193.646 441.129 241.559 410.171 262.868C399.256 270.381 384.526 269.475 371.938 269.476L329.235 269.457C326.938 269.464 324.588 269.332 322.3 269.465C317.066 269.823 311.521 269.442 306.256 269.446L132.619 269.532C117.759 269.529 106.603 267.293 95.7383 256.322C70.5541 230.89 85.3564 185.796 122.118 182.373C125.164 182.09 128.303 182.239 131.36 182.263C134.366 169.945 138.592 158.726 153.284 156.479C164.328 154.79 169.655 158.061 178.105 164.311C179.17 162.192 179.946 159.876 180.885 157.693C188.243 140.585 203.23 126.364 221.663 122.019C226.564 120.864 232.659 121.631 237.193 119.451Z"/>
	<path fill="#DEDEDF" transform="scale(2 2)" d="M237.193 119.451L237.338 119.274C239.689 116.35 241.586 113.141 244.054 110.273C277.409 71.5182 339.899 84.0188 353.684 134.9C354.482 137.846 354.947 142.918 356.416 145.403C358.896 140.946 372.754 142.918 376.655 143.826C395.404 148.194 401.355 168.538 391.829 184.52L392.265 184.605C393.947 184.92 395.668 184.855 397.346 185.249C433.141 193.646 441.129 241.559 410.171 262.868C399.256 270.381 384.526 269.475 371.938 269.476L329.235 269.457C326.938 269.464 324.588 269.332 322.3 269.465L320.885 269.113C332.808 264.336 340.797 260.515 347.56 248.856C368.018 213.587 337.335 172.782 296.977 183.757C297.121 150.791 278.719 124.431 244.063 120.304C241.759 120.03 239.373 120.411 237.193 119.451Z"/>
	<path fill="#9FD4ED" transform="scale(2 2)" d="M356.416 145.403C358.896 140.946 372.754 142.918 376.655 143.826C395.404 148.194 401.355 168.538 391.829 184.52C387.506 184.037 387.371 185.529 385.617 180.701C381.286 168.774 374.969 157.63 364.021 150.606C361.435 148.948 358.607 147.604 356.416 145.403Z"/>
	<path fill="#FEE58F" transform="scale(2 2)" d="M248.535 356.377L236.091 356.421C229.304 356.438 221.541 356.516 224.766 347.296C228.128 337.684 235.107 322.325 239.714 312.88C241.409 309.406 242.297 308.715 246.263 308.346C250.511 307.952 263.625 307.751 268.001 308.256C278.345 313.479 268.19 323.17 263.873 328.769C260.883 332.646 257.992 336.592 255.046 340.502L255.388 340.529C261.143 340.935 287.774 337.232 284.418 346.292L246.544 387.134C241.458 392.524 236.576 398.122 231.319 403.345L240.981 377.204C243.574 370.27 246.263 363.433 248.535 356.377ZM237.193 337.747C237.942 336.851 238.739 335.97 239.448 335.043C244.773 327.284 247.448 316.686 258.212 315.426C257.114 315.327 256.146 315.245 255.046 315.426C241.192 316.142 243.427 325.388 237.193 337.747Z"/>
	<path fill="#FED241" transform="scale(2 2)" d="M268.001 308.256C278.345 313.479 268.19 323.17 263.873 328.769C260.883 332.646 257.992 336.592 255.046 340.502C254.222 341.562 253.498 342.676 252.765 343.799C250.857 343.934 247.911 343.316 248.36 340.791C249.808 332.634 268.335 319.682 268.001 308.256Z"/>
	<path fill="#FED241" transform="scale(2 2)" d="M252.765 343.799C253.498 342.676 254.222 341.562 255.046 340.502L255.388 340.529C261.143 340.935 287.774 337.232 284.418 346.292C277.989 342.249 260.822 343.931 252.765 343.799Z"/>
	<path fill="#9FD4ED" transform="scale(2 2)" d="M169.886 393.748C175.547 393.414 173.409 407.929 173.73 411.552C175.268 409.927 187.199 395.632 189.473 402.405C190.729 406.145 181.685 412.978 179.207 417.04C180.726 416.809 203.671 415.543 196.707 422.188C194.651 424.149 182.383 423.28 179.207 423.26C179.843 424.024 196.303 438.713 186.979 439.008C183.934 439.105 176.068 430.876 173.73 428.577C173.727 432.769 175.178 443.012 171.824 446.052C164.302 448.389 166.709 432.902 166.744 429.087C166.301 429.507 152.847 444.81 151.339 437.545C150.644 434.195 159.981 426.234 162.255 423.26C160.796 423.213 138.898 424.938 145.255 418.034C147.804 415.265 157.542 416.455 161.338 416.394C161.036 416.007 144.399 401.585 153.868 401.42C156.994 401.366 164.125 409.123 166.744 411.552C166.616 405.786 164.169 396.505 169.886 393.748Z"/>
	<path fill="#01BBF1" transform="scale(2 2)" d="M332.749 393.748C338.74 393.534 336.262 408.105 336.242 412.809C337.656 411.046 352.905 392.142 352.204 404.367C352.029 407.422 343.192 414.673 340.653 417.04C344.562 417.283 356.678 416.01 359.181 418.245C361.956 420.722 358.469 423.534 355.996 423.944C352.477 424.528 344.63 424.027 340.653 424.005C342.048 425.235 358.69 439.386 348.332 439.639C345.52 439.707 338.516 430.893 336.242 428.577C336.24 434.827 339.052 445.484 332.749 446.968C327.634 445.51 329.662 431.488 329.684 427.189C327.618 430.385 320.44 438.878 316.886 439.358C305.575 440.886 324.067 424.153 324.216 424.005C320.464 423.887 308.507 424.986 305.998 422.837C303.393 420.605 306.154 418.052 308.538 417.626C312.186 416.975 320.798 417.564 325.018 417.515C322.278 414.061 310.542 405.351 314.078 401.589C317.406 398.047 326.971 409.721 329.684 412.809C329.697 406.556 326.9 395.741 332.749 393.748Z"/>
	<path fill="#DEDEDF" transform="scale(2 2)" d="M104.984 318.583C111.102 318.361 108.501 330.536 108.535 335.043C112.014 331.666 123.101 320.059 123.66 327.673C123.884 330.726 116.357 336.889 114.267 339.371L113.941 339.762C116.844 339.801 127.354 339.301 129.247 341.459C134.832 347.825 113.813 346.299 112.667 346.292C115.859 349.571 124.812 356.445 122.595 360.46C119.877 365.383 110.678 353.289 108.226 351.576C108.036 355.64 110.305 366.114 104.984 367.442C100.052 366.268 101.931 356.242 101.886 351.576C98.6302 353.755 93.0666 360.347 90.1772 360.841C86.8591 361.41 86.8197 357.403 88.2759 355.377C89.3751 353.848 95.6405 348.392 97.6063 346.292C94.1675 345.573 74.7451 346.573 81.4629 340.465C83.7308 338.403 93.5086 339.134 96.7245 339.286C94.4275 337.392 87.1817 331.218 86.7915 328.456C86.434 325.926 89.4311 324.338 91.5301 325.591C94.1797 327.172 99.0695 332.59 101.886 335.043C101.381 330.839 100.171 320.045 104.984 318.583Z"/>
	<path fill="#9FD4ED" transform="scale(2 2)" d="M313.396 291.712L313.651 292.12C311.898 302.491 312.44 322.449 301.374 325.025C298.393 325.719 296.355 324.896 293.901 323.303C282 311.064 305.582 297.161 313.396 291.712Z"/>
	<path fill="#9FD4ED" transform="scale(2 2)" d="M201.637 305.949C202.3 308.312 200.801 324.129 200.156 327.128C198.641 334.17 192.594 336.146 187.188 331.921C177.487 322.328 194.632 310.265 201.637 305.949Z"/>
	<path fill="#DEDEDF" transform="scale(2 2)" d="M379.03 336.42C378.994 333.6 377.944 318.778 379.984 317.403C380.97 318.814 380.599 333.661 380.577 336.42C383.699 334.53 392.819 323.14 395.521 323.911L395.741 324.404C394.455 327.285 386.518 333.229 383.57 337.747C386.974 337.822 400.617 336.509 402.604 338.694C400.872 340.077 386.67 339.642 383.57 339.762C385.809 342.363 395.393 350.097 395.105 353.144L394.723 353.417C390.793 352.647 384.516 341.143 380.773 341.737L380.577 342.433C380.834 345.341 381.034 359.199 380.577 362.116C378.71 356.072 379.235 348.808 379.03 342.433L378.976 341.952C375.639 342.505 369.171 352.284 366.388 352.362L366.275 351.948C367.13 349.973 375.195 342.123 377.318 339.762C374.563 339.747 359.579 339.648 358.148 338.673L358.409 338.37C362.378 337.006 372.749 337.483 377.318 337.747C375.175 335.527 366.468 326.737 366.001 324.395L366.25 324.151C368.951 325.054 376.498 333.825 379.03 336.42Z"/>
</svg>
