<?xml version="1.0" encoding="utf-8" ?>
<svg xmlns="http://www.w3.org/2000/svg" xmlns:xlink="http://www.w3.org/1999/xlink" width="1024" height="1024">
	<path fill="#FAFAFA" transform="scale(2 2)" d="M138.271 232.787C139.344 230.48 139.928 227.899 140.683 225.472C155.478 177.878 205.303 145.112 254.739 156.63C275.052 159.235 297.839 175.203 309.971 190.919C319.849 203.716 324.09 214.186 328.313 229.613C338.114 230.293 350.256 235.316 357.78 241.627C382.047 263.32 390.142 300.912 367.377 326.397C346.794 349.44 328.031 346.831 300.815 346.821L251.023 346.818C250.316 345.661 250.571 344.454 250.295 343.182L249.541 342.954C251.206 339.909 252.725 336.886 254.739 334.048C244.571 333.359 231.999 334.344 222.342 332.966C220.052 337.411 219.46 342.355 217.4 346.818C216.267 346.411 209.683 346.828 207.932 346.822L160.788 346.827C152.729 346.826 144.281 347.325 136.272 346.523C87.7045 341.657 63.8114 282.66 98.7439 248.065C110.242 236.677 122.357 232.72 138.271 232.787Z"/>
	<path fill="#FDE474" transform="scale(2 2)" d="M254.739 156.63C254.346 103.331 285.95 63.4694 339.371 56.7849C306.814 78.0737 296.735 123.635 318.308 156.323C344.037 195.306 396.664 201.982 431.237 170.218C419.828 206.81 397.024 233.056 357.78 241.627C350.256 235.316 338.114 230.293 328.313 229.613C324.09 214.186 319.849 203.716 309.971 190.919C297.839 175.203 275.052 159.235 254.739 156.63Z"/>
	<path fill="#FDB020" transform="scale(2 2)" d="M222.342 332.966C231.999 334.344 244.571 333.359 254.739 334.048C252.725 336.886 251.206 339.909 249.541 342.954L247.622 346.818C243.79 351.967 239.96 359.925 237.025 365.717C243.261 366.046 249.476 366.937 255.718 367.203C253.065 372.605 249.061 377.576 245.835 382.67L231.328 405.266C228.385 409.811 225.524 414.5 222.342 418.878C225.675 405.383 228.511 391.714 232.024 378.28C225.204 378.287 214.617 377.389 208.417 378.28C210.957 367.703 214.452 357.289 217.4 346.818C219.46 342.355 220.052 337.411 222.342 332.966Z"/>
	<path fill="#58B1E9" transform="scale(2 2)" d="M285.534 394.187L285.975 394.504C291.796 406.978 298.136 426.709 293.293 439.951C289.413 450.563 278.566 453.837 268.42 450.085C260.025 446.219 255.572 438.181 257.137 428.909C259.621 414.186 274.088 402.368 285.534 394.187Z"/>
	<path fill="#58B1E9" transform="scale(2 2)" d="M169.731 397.264C178.352 398.767 179.767 431.884 175.967 440.019C171.902 448.725 162.041 452.762 153.172 448.585C126.817 440.864 153.865 402.203 169.731 397.264Z"/>
</svg>
