<?xml version="1.0" encoding="utf-8" ?>
<svg xmlns="http://www.w3.org/2000/svg" xmlns:xlink="http://www.w3.org/1999/xlink" width="1024" height="1024">
	<path fill="#FBFBFB" transform="scale(2 2)" d="M143.944 220.691C145.319 216.655 146.074 212.427 147.201 208.317C160.052 161.447 215.585 136.456 257.934 162.716C269.45 154.84 281.896 167.423 271.35 175.223C272.716 176.91 279.558 188.502 279.817 188.609C283.105 187.029 286.383 185.538 289.806 184.267C317.175 177.696 340.247 186.959 353.515 213.118C354.764 215.581 355.724 218.29 357.032 220.691C359.534 228.419 360.18 237.355 358.996 245.367C385.039 246.641 405.713 270.894 405.478 296.427C405.244 321.84 387.194 343.891 361.933 348.012C354.884 349.162 344.827 348.722 337.516 348.644L151.26 347.753C143.379 347.802 135.764 348.326 127.935 346.742C97.7599 340.638 78.932 313.122 79.4963 282.903C80.1284 249.052 110.054 220.076 143.944 220.691Z"/>
	<path fill="#F9EEB0" transform="scale(2 2)" d="M257.934 162.716C269.45 154.84 281.896 167.423 271.35 175.223C266.517 170.427 263.952 167.09 257.934 162.716Z"/>
	<path fill="#F9BF11" transform="scale(2 2)" d="M289.806 184.267C282.943 153.901 299.349 122.155 330.491 115.103C397.843 99.8488 426.972 200.562 357.032 220.691C355.724 218.29 354.764 215.581 353.515 213.118C340.247 186.959 317.175 177.696 289.806 184.267Z"/>
	<path fill="#A8D3E6" transform="scale(2 2)" d="M194.242 371.273C204.836 368.158 201.462 387.508 202.061 394.069C207.599 392.24 218.966 383.387 222.153 383.523C225.51 383.666 228.659 387.032 228.306 390.432C227.846 394.862 214.404 401.397 209.904 404.791C213.953 407.275 225.267 412.166 227.172 415.574C229.513 419.764 226.144 425.193 221.341 424.137C216.754 423.128 208.989 417.989 204.025 416L203.726 415.883L203.665 416.749C203.271 422.211 205.833 433.909 201.434 437.66C188.978 444.136 191.226 422.149 191.255 415.883C185.408 418.146 180.571 422.749 174.506 424.374C167.675 426.205 165.762 419.926 168.647 414.945C170.97 411.506 182.668 407.402 186.802 404.791C179.244 401.055 165.809 397.17 168.647 387.958C174.541 381.738 185.039 389.089 189.965 393.449C190.128 387.092 188.834 379.452 189.965 373.425C191.435 371.839 192.122 371.538 194.242 371.273Z"/>
	<path fill="#A8D3E6" transform="scale(2 2)" d="M280.94 371.273C291.498 370.722 287.921 385.963 287.975 393.449L288.277 393.309C291.246 391.958 312.674 376.936 311.274 391.655C310.791 396.739 299.086 400.77 294.466 404.791C299.18 406.889 305.217 409.696 309.049 413.126C313.679 417.272 310.255 422.537 305.303 423.826C299.167 422.268 293.58 417.834 287.975 414.945C288.37 422.83 291.109 438.166 279.57 436.672C273.572 434.061 275.762 420.398 275.764 414.945C271.754 416.66 259.397 424.969 255.476 423.408C241.969 418.033 263.369 406.601 268.908 404.791C264.782 401.072 252.721 396.761 251.264 391.998C250.343 388.985 252.324 385.118 255.445 384.376C260.676 383.134 271.249 391.408 275.764 394.069C275.746 388.086 275.072 380.037 276.498 374.36C277.892 372.835 278.99 371.991 280.94 371.273Z"/>
	<path fill="#F9EEB0" transform="scale(2 2)" d="M283.668 102.038C292.525 102.537 304.389 119.705 289.806 121.978C281.928 121.638 267.989 104.439 283.668 102.038Z"/>
	<path fill="#F9EEB0" transform="scale(2 2)" d="M416.942 161.363C438.186 159.676 435.1 173.682 426.056 175.223C422.17 175.274 416.26 175.958 412.963 173.654C407.666 169.952 410.313 162.291 416.942 161.363Z"/>
	<path fill="#F9EEB0" transform="scale(2 2)" d="M401.801 102.038C415.359 102.503 406.621 119.118 396.552 121.978C382.81 121.203 392.256 103.832 401.801 102.038Z"/>
	<path fill="#F9EEB0" transform="scale(2 2)" d="M396.552 215.322C401.363 215.656 408.017 224.041 409.101 228.206C408.427 231.58 407.162 233.801 403.648 234.835C393.254 235.234 382.254 218.058 396.552 215.322Z"/>
	<path fill="#F9EEB0" transform="scale(2 2)" d="M344.21 76.7948C354.688 76.044 354.927 96.67 346.338 98.8576C336.631 99.6149 336.916 84.5155 339.327 79.8625C340.307 77.9705 342.327 77.3753 344.21 76.7948Z"/>
</svg>
