<?xml version="1.0" encoding="utf-8" ?>
<svg xmlns="http://www.w3.org/2000/svg" xmlns:xlink="http://www.w3.org/1999/xlink" width="1024" height="1024">
	<path fill="#D0D0D3" transform="scale(2 2)" d="M230.242 109.943C230.503 102.428 242.69 88.8898 248.415 83.5466C293.692 41.2887 375.634 72.3986 373.375 136.662C374.45 136.644 375.674 136.501 376.73 136.662C393.432 139.68 405.333 145.889 415.234 160.131C433.322 186.15 426.937 218.489 402.208 237.576L402.229 237.938C403.768 265.271 382.376 291.809 354.593 292.868C351.893 292.971 349.177 292.662 346.474 292.666L179.062 292.636C166 292.641 152.277 293.556 139.393 291.149C109.251 285.517 88.1844 260.844 87.0777 230.13C85.8011 194.7 114.8 163.68 150.271 162.636C156.493 129.566 188.971 106.599 222.186 108.809C224.841 108.985 227.695 109.15 230.242 109.943Z"/>
	<path fill="#FDFDFD" transform="scale(2 2)" d="M230.242 109.943C230.503 102.428 242.69 88.8898 248.415 83.5466C293.692 41.2887 375.634 72.3986 373.375 136.662C374.45 136.644 375.674 136.501 376.73 136.662C378.177 139.264 385.711 142.017 388.493 143.807C415.911 161.447 415.846 198.449 398.938 224.073C387.117 203.575 375.713 194.651 351.006 191.108C345.144 165.921 330.158 145.972 303.259 140.736C294.989 139.126 281.656 139.559 273.792 142.371C264.798 125.879 248.146 114.711 230.242 109.943Z"/>
	<path fill="#6FC5ED" transform="scale(2 2)" d="M242.467 323.396C247.191 327.553 255.322 330.768 260.733 334.632C260.732 336.893 260.945 356.906 260.88 357.025L260.733 357.098C253.659 360.28 247.905 363.854 242.467 369.412C237.132 362.922 230.885 358.958 223.42 355.343L223.42 334.632C226.607 332.816 229.78 330.974 233.044 329.298C235.55 326.979 239.491 325.139 242.467 323.396Z"/>
	<path fill="#3FABDC" transform="scale(2 2)" d="M233.044 329.298C233.466 330.913 233.023 332.459 233.006 334.086C232.906 344.15 234.337 350.746 243.79 355.343C247.718 353.67 251.536 351.758 255.308 349.761C256.499 352.864 257.324 355.858 260.733 357.098C253.659 360.28 247.905 363.854 242.467 369.412C237.132 362.922 230.885 358.958 223.42 355.343L223.42 334.632C226.607 332.816 229.78 330.974 233.044 329.298Z"/>
	<path fill="#6FC5ED" transform="scale(2 2)" d="M287.974 376.207C293.56 379.752 301.03 383.557 305.898 387.6L305.868 401.11C305.864 403.367 305.718 405.733 305.898 407.979C302.008 410.738 293.241 414.962 287.974 418.44C281.548 415.566 276.023 410.783 269.614 407.979L269.614 387.6C273.668 385.22 277.65 382.708 281.655 380.247C283.695 378.805 285.841 377.506 287.974 376.207Z"/>
	<path fill="#3FABDC" transform="scale(2 2)" d="M269.614 387.6C273.668 385.22 277.65 382.708 281.655 380.247C282.069 382.756 280.495 385.091 279.858 387.443C275.732 402.7 288.827 410.472 303.142 404.224C304.021 405.437 305.152 406.703 305.898 407.979C302.008 410.738 293.241 414.962 287.974 418.44C281.548 415.566 276.023 410.783 269.614 407.979L269.614 387.6Z"/>
	<path fill="#A9E1F5" transform="scale(2 2)" d="M223.42 437.19C220.408 426.153 250.905 405.282 250.795 417.916C250.708 427.842 248.439 445.131 236.279 447.172C229.657 447.041 224.318 444.113 223.42 437.19Z"/>
	<path fill="#6FC5ED" transform="scale(2 2)" d="M223.42 437.19L223.852 436.688C224.771 437.042 225.999 439.755 226.895 440.658C229.595 443.376 233.932 444.35 236.279 447.172C229.657 447.041 224.318 444.113 223.42 437.19Z"/>
	<path fill="#A9E1F5" transform="scale(2 2)" d="M208.854 390.052C218.695 389.068 210.919 409.677 209.089 413.679C205.632 421.24 198.668 423.74 191.22 420.054C173.165 409.183 197.388 392.228 208.854 390.052Z"/>
	<path fill="#A9E1F5" transform="scale(2 2)" d="M167.951 415.3C176.639 414.618 171.328 456.585 150.271 445.512C133.342 433.909 156.113 418.061 167.951 415.3Z"/>
	<path fill="#A9E1F5" transform="scale(2 2)" d="M326.156 432.257C328.746 425.204 350.185 409.814 352.427 417.848C354.478 425.195 350.109 444.591 339.84 446.986L339.013 447.172C330.297 448.284 323.633 440.604 326.156 432.257Z"/>
	<path fill="#6FC5ED" transform="scale(2 2)" d="M326.156 432.257C327.543 433.674 327.755 438.789 330.359 441.795C333.582 445.517 337.128 445.502 339.013 447.172C330.297 448.284 323.633 440.604 326.156 432.257Z"/>
	<path fill="#A9E1F5" transform="scale(2 2)" d="M188.517 347.28C191.197 347.045 191.815 347.35 193.214 349.761C193.758 361.32 190.005 384.924 172.935 376.752C167.419 373.82 164.85 367.005 167.795 361.373C171.312 354.645 181.474 349.44 188.517 347.28Z"/>
	<path fill="#A9E1F5" transform="scale(2 2)" d="M165.948 314.824C174.191 315.991 168.493 354.803 147.923 343.278C132.983 330.922 153.901 316.776 165.948 314.824Z"/>
	<path fill="#A9E1F5" transform="scale(2 2)" d="M313.407 328.016C316.008 324.192 330.576 314.047 335.593 315.716C339.916 319.919 336.782 347.623 321.546 345.915C312.811 344.412 307.995 335.414 313.407 328.016Z"/>
	<path fill="#6FC5ED" transform="scale(2 2)" d="M313.407 328.016C315.364 333.17 310.581 339.83 321.87 345.183L322.091 345.591L321.546 345.915C312.811 344.412 307.995 335.414 313.407 328.016Z"/>
	<path fill="#A9E1F5" transform="scale(2 2)" d="M341.395 359.049C344.656 354.62 364.955 338.35 365.899 350.63C366.618 359.99 363.224 376.535 351.006 376.207C342.413 375.363 337.502 366.699 341.395 359.049Z"/>
	<path fill="#6FC5ED" transform="scale(2 2)" d="M341.395 359.049C342.955 362.322 341.785 365.662 344.003 369.082C345.929 372.051 350.665 374.536 351.216 375.903L351.006 376.207C342.413 375.363 337.502 366.699 341.395 359.049Z"/>
</svg>
