<?xml version="1.0" encoding="utf-8" ?>
<svg xmlns="http://www.w3.org/2000/svg" xmlns:xlink="http://www.w3.org/1999/xlink" width="1024" height="1024">
	<path fill="#F6F9FB" transform="scale(2 2)" d="M293.188 170.513C295.433 139.829 316.516 116.123 348.52 118.763C398.194 122.861 408.453 195.563 359.836 213.554C377.214 252.621 355.65 299.196 314.703 311.101C303.894 314.244 292.66 313.815 281.529 313.807L155.622 313.802C148.429 313.805 141.073 314.254 133.911 313.527C81.0616 308.163 69.5911 228.914 121.396 210.594C125.005 209.317 128.78 208.634 132.463 207.614C133.534 203.055 134.013 198.355 134.993 193.771C147.763 134.019 221.003 113.288 262.721 156.002C264.092 157.406 265.421 159.019 266.925 160.26L267.263 160.535C271.238 160.515 278.879 159.523 281.899 162.33C284.699 164.933 283.338 168.351 280.794 170.513L282.686 170.359C286.11 170.094 289.852 171.14 293.188 170.513ZM359.836 213.554C408.453 195.563 398.194 122.861 348.52 118.763C316.516 116.123 295.433 139.829 293.188 170.513C318.945 168.755 349.965 189.573 359.836 213.554Z"/>
	<path fill="#FECD1B" transform="scale(2 2)" d="M293.188 170.513C295.433 139.829 316.516 116.123 348.52 118.763C398.194 122.861 408.453 195.563 359.836 213.554C349.965 189.573 318.945 168.755 293.188 170.513ZM370.865 151.506C373.362 151.132 375.461 149.438 376.356 147.078C377.251 144.717 376.801 142.057 375.18 140.122C373.559 138.187 371.019 137.278 368.538 137.745C364.8 138.448 362.313 142.016 362.947 145.767C363.582 149.518 367.103 152.071 370.865 151.506Z"/>
	<path fill="#F7E8B0" transform="scale(2 2)" d="M267.263 160.535C271.238 160.515 278.879 159.523 281.899 162.33C284.699 164.933 283.338 168.351 280.794 170.513C279.073 170.693 276.864 171.732 275.186 172.262C273.294 169.135 268.058 162.903 267.263 160.535Z"/>
	<path fill="#F6F9FB" transform="scale(2 2)" d="M260.357 352.295C265.266 352.969 263.447 359.438 263.452 363.017C265.18 362.229 271.435 359.051 271.665 362.882C271.836 365.739 265.859 368.87 264.077 370.915L264.077 380.537C267.357 379.075 270.817 377.634 273.392 375.053C274.019 372.113 272.892 363.992 278.086 365.456C281 366.278 279.293 370.546 278.724 372.458C280.145 371.613 292.076 361.867 291.771 368.831C291.664 371.272 285.359 375.4 283.504 377.189C288.604 377.48 290.717 385.665 277.216 380.537C274.343 381.946 271.722 384.185 269.364 386.318C271.552 387.899 273.737 389.686 276.196 390.819C278.837 390.571 285.22 388.177 287.131 390.894C287.682 393.231 285.313 394.29 283.504 394.942C285.334 396.094 296.298 402.624 290.724 405.696C287.414 405.975 283.031 401.632 280.011 400.247L279.672 400.095C278.83 413.262 274.514 402.857 273.392 397.369C270.372 394.976 267.521 392.587 264.077 390.819C264.197 393.91 264.12 397.003 264.077 400.095C266.81 402.198 269.31 404.365 271.164 407.29C269.396 411.694 266.999 409.325 264.077 407.29L264.077 416.574C263.662 418.271 261.243 420.977 259.464 419.56C257.488 417.986 257.915 409.878 257.748 407.29C256.544 408.066 255.415 408.701 254.084 409.237C248.678 405.483 253.956 402.51 257.748 400.095C257.648 397.238 257.626 394.456 257.748 391.6C253.991 393.112 251.183 394.59 248.213 397.369C247.951 410.072 243.314 406.527 242.877 400.095C241.731 400.498 227.391 408.437 230.575 400.299C231.68 397.473 237.041 396.007 239.66 394.942C238.542 393.511 235.481 389.239 238.395 387.999C240.033 387.304 244.379 390.112 246.126 390.819C248.948 388.854 251.991 387.25 254.973 385.546C251.744 384.197 248.947 382.614 246.126 380.537C244.244 381.582 241.023 384.573 238.818 384.071C235.455 383.305 237.907 378.733 240.795 377.189C238.585 376.023 225.599 369.861 232.565 366.922C235.466 365.698 239.784 369.626 242.475 370.75L242.877 370.915C243.523 364.254 248.523 361.835 248.213 374.134C251.229 376.535 254.783 378.062 257.748 380.537C257.847 377.331 257.808 374.122 257.748 370.915C255.643 368.687 252.987 366.994 250.993 364.674C252.431 360.421 254.478 360.057 257.748 363.017C257.625 359.651 256.077 353.478 260.357 352.295Z"/>
	<path fill="#F6F9FB" transform="scale(2 2)" d="M359.836 309.508L360.17 309.515C364.976 309.647 363.365 317.401 363.205 320.489C364.837 319.081 368.148 316.484 369.338 320.024C370.4 323.184 364.601 327.5 363.205 330.137L363.205 336.791C365.71 335.508 368.071 334.237 370.814 333.546C371.566 322.617 378.847 316.296 378.219 328.722C380.339 327.423 384.49 323.543 387.142 324.327C395.914 326.92 381.933 332.859 380.332 333.546C382.658 334.308 386.494 337.168 383.85 339.312C382.618 340.311 375.347 338.651 373.439 338.36C370.712 339.247 368.187 340.845 365.73 342.302C376.593 348.569 378.064 343.508 383.471 345.895C386.837 349.414 381.929 350.547 379.393 350.791L379.289 351.082L379.03 350.925L379.463 350.784L379.523 351.165C381.918 351.904 387.318 353.8 388.42 356.1C389.21 357.751 388.818 359.832 386.934 360.442C384.731 361.155 380.272 357.53 378.219 356.507C378.279 358.456 378.824 364.685 374.366 362.302C372.078 361.079 371.775 355.024 370.941 352.652L370.814 352.295C368.698 350.127 365.899 348.767 363.205 347.467C362.91 350.072 362.77 352.354 363.205 354.952C365.254 357.292 372.708 362.821 369.096 366.078C367.19 366.532 364.896 364.868 363.205 364.026C362.875 367.151 364.358 372.464 361.032 374.134C356.607 373.728 357.968 367.268 357.757 364.026C356.496 365.009 351.513 368.253 351.014 365.012C350.62 362.453 355.609 357.406 357.287 355.604C357.309 352.85 357.369 350.202 357.757 347.467C347.486 351.336 351.387 352.452 347.836 359.947C345.86 364.117 341.825 363.733 344.252 355.604C343.367 355.98 330.706 363.154 332.051 357.173C332.628 354.609 338.854 351.406 341.087 350.186C333.367 350.607 332.594 341.932 347.903 346.834C349.94 345.081 352.028 343.63 354.366 342.302C352.299 340.877 350.15 339.483 347.903 338.36C346.614 338.475 332.388 341.606 336.036 336.051C337.208 334.266 339.146 333.929 341.087 333.546C337.106 331.878 329.393 328.817 334.739 324.209C338.364 325.3 341.24 327.321 344.252 329.532C343.207 327.642 340.778 323.059 344.298 322.258C348.963 321.197 349.38 330.799 351.36 333.287C352.777 335.067 355.824 336.387 357.757 337.64L357.757 329.532C355.758 326.779 348.901 321.756 351.944 317.987C354.2 316.768 356.309 318.931 357.757 320.489C357.465 317.116 356.303 311.465 359.836 309.508Z"/>
	<path fill="#F6F9FB" transform="scale(2 2)" d="M153.885 337.64C159.482 337.672 156.693 345.993 156.913 350.186C158.528 348.611 159.901 347.679 162 346.834L162.497 347.093C169.337 350.62 159.996 353.89 156.913 355.604C156.926 359.09 156.772 362.578 156.913 366.061C159.923 364.151 162.948 362.071 166.22 360.646C165.084 343.884 172.639 351.433 171.713 357.441C172.896 356.74 174.244 356.195 175.491 355.604C178.303 348.469 184.483 352.056 183.373 356.357C182.659 359.122 176.778 359.505 173.482 361.443C184.025 367.181 177.431 371.985 168.967 364.674C165.726 366.271 162.606 368.097 159.511 369.956C162.725 371.615 165.854 373.194 168.967 375.053C175.879 369.823 183.559 370.939 175.491 378.65C176.372 379.455 177.255 380.013 178.323 380.537C185.524 379.269 185.141 386.537 181.152 387.58C178.687 388.224 174.309 383.557 171.713 382.07C171.775 383.938 171.816 385.781 171.713 387.648C164.622 391.463 166.296 383.061 166.22 378.65C162.91 377.698 160.093 375.458 156.913 374.134L156.913 384.438C168.774 390.514 164.639 395.475 156.913 390.819C156.782 394.318 159.994 401.565 154.169 401.759C152.818 401.804 151.994 400.924 151.044 400.095C150.178 398.713 151.77 393.276 151.766 390.819C149.972 391.765 148.17 392.624 146.18 393.064C140.657 388.813 148.127 386.283 151.766 384.438L151.766 374.134C149.446 375.378 147.032 376.563 144.816 377.983C139.994 381.075 144.061 386.571 140.686 388.619C136.256 389.368 136.645 385.195 136.487 382.07C134.071 383.645 132.68 386.286 130.378 387.774C127.944 389.349 116.408 385.741 134.733 378.65C133.069 377.935 124.591 374.205 130.338 371.928C132.652 371.011 137.508 373.982 139.649 375.053C142.854 373.266 146.142 371.264 149.576 369.956C146.134 368.563 143.225 367.124 140.413 364.674C127.447 373.008 125.62 365.351 134.733 361.443C132.145 360.438 126.6 359.798 125.445 356.9C124.634 354.864 126.68 352.887 128.515 352.402C130.642 351.839 134.943 356.891 137.548 358.297C135.81 354.494 137.245 349.492 141 351.77C142.174 353.345 142.282 358.507 142.656 360.646C145.416 362.681 148.74 364.441 151.766 366.061C151.969 362.887 151.823 359.685 151.766 356.507C150.028 355.288 144.009 352.009 143.599 350.179C143.254 348.636 144.399 346.234 146.144 346.103C147.821 345.977 150.547 349.101 151.766 350.186C151.608 348.281 151.847 346.327 151.766 344.402C148.631 341.688 149.933 338.722 153.885 337.64Z"/>
	<path fill="#F6F9FB" transform="scale(2 2)" d="M400.815 386.442C406.201 385.78 411.112 389.589 411.811 394.97C412.51 400.351 408.735 405.288 403.359 406.024C397.93 406.767 392.934 402.947 392.229 397.513C391.523 392.079 395.377 387.11 400.815 386.442Z"/>
	<path fill="#F7E8B0" transform="scale(2 2)" d="M342.041 82.0359C353.299 81.2178 350.066 100.675 344.79 103.142C336.103 104.13 333.782 84.9428 342.041 82.0359Z"/>
	<path fill="#F7E8B0" transform="scale(2 2)" d="M290.214 104.586C294.594 105.125 309.438 118.533 296.273 122.385C289.832 121.81 277.52 106.024 290.214 104.586Z"/>
	<path fill="#F7E8B0" transform="scale(2 2)" d="M411.094 163.171C414.461 162.971 417.934 163.149 421.311 163.171L421.553 163.343C426.839 167.001 425.506 174.338 418.806 173.921C415.19 173.981 409.834 174.627 406.768 172.438C401.914 168.971 406.143 163.497 411.094 163.171Z"/>
	<path fill="#F7E8B0" transform="scale(2 2)" d="M396.806 107.061C406.003 106.674 400.232 121.751 391.495 123.921C378.711 122.438 389.398 108.149 396.806 107.061Z"/>
	<path fill="#F7E8B0" transform="scale(2 2)" d="M390.138 210.256C394.703 210.709 408.45 223.305 396.806 227.368C390.321 227.831 378.873 214.54 390.138 210.256Z"/>
</svg>
