<?xml version="1.0" encoding="utf-8" ?>
<svg xmlns="http://www.w3.org/2000/svg" xmlns:xlink="http://www.w3.org/1999/xlink" width="1024" height="1024">
	<path fill="#FBFBFB" transform="scale(2 2)" d="M102.546 240.963C103.552 236.801 104.031 232.535 105.151 228.391C117.12 184.131 155.496 146.801 202.027 141.891C210.706 140.976 219.335 141.799 228.027 141.458C238.165 143.77 248.642 146.027 258.376 149.782C262.616 151.418 266.368 154.268 270.614 155.712C271.588 156.044 275.979 158.406 276.283 158.113C288.249 165.255 307.217 183.054 313.149 196.443L312.954 196.803C313.214 197.455 318.734 208.314 318.782 208.36C332.888 209.008 343.561 220.721 345.617 234.144C345.753 235.029 345.798 237.854 346.189 238.462C346.733 239.308 371.244 244.258 372.308 257.143C371.85 256.804 371.365 256.235 370.794 256.314C380.026 263.862 387.117 279.101 388.267 290.755C391.469 323.225 367.157 351.561 334.996 354.545C329.916 355.016 324.649 354.759 319.547 354.757L138.812 354.77C136.669 354.775 134.178 355.046 132.072 354.745C116.11 354.693 108.115 356.325 93.2806 349.68C64.6175 336.841 52.1324 301.522 65.027 273.141C73.2204 255.108 85.1431 247.423 102.546 240.963Z"/>
	<path fill="#DBDBDA" transform="scale(2 2)" d="M102.546 240.963C103.552 236.801 104.031 232.535 105.151 228.391C117.12 184.131 155.496 146.801 202.027 141.891C210.706 140.976 219.335 141.799 228.027 141.458C224.523 144.189 215.192 146.263 210.627 147.996C189.164 156.142 168.899 169.541 153.849 186.915C137.577 205.699 132.181 221.47 129.168 245.009C125.467 247.078 121.295 248.107 117.554 250.097C91.0198 264.211 80.8488 297.252 95.1361 323.718C106.672 345.088 119.531 346.113 137.751 354.745C136.019 354.808 133.662 354.353 132.072 354.745C116.11 354.693 108.115 356.325 93.2806 349.68C64.6175 336.841 52.1324 301.522 65.027 273.141C73.2204 255.108 85.1431 247.423 102.546 240.963Z"/>
	<path fill="#6285C3" transform="scale(2 2)" d="M268.57 153.696C273.605 125.733 286.938 101.395 310.804 84.8324C315.773 81.3836 334.584 70.3094 340.066 71.5318C345.211 72.6791 337.874 80.0755 336.75 81.686C308.325 122.396 322.909 179.721 369.019 200.72C391.815 211.101 419.922 210.853 441.297 197.188C451.172 190.876 453.193 190.29 447.582 201.823C430.79 236.338 410.307 248.184 374.84 255.924C366.735 246.264 358.947 241.152 346.508 238.593C345.087 222.74 335.718 209.041 318.857 207.923C317.289 204.064 315.388 199.959 313.149 196.443C307.217 183.054 288.249 165.255 276.283 158.113C273.869 156.426 271.259 154.901 268.57 153.696Z"/>
	<path fill="#B6D6F9" transform="scale(2 2)" d="M273.75 439.093C266.502 443.881 255.425 440.855 252.656 432.318C249.444 422.413 264.523 395.998 268.57 400.401L268.79 400.802C275.042 411.963 289.328 427.687 273.75 439.093Z"/>
	<path fill="#95C2F8" transform="scale(2 2)" d="M273.75 439.093C266.502 443.881 255.425 440.855 252.656 432.318C249.444 422.413 264.523 395.998 268.57 400.401C260.933 413.619 257.356 431.355 273.75 439.093Z"/>
	<path fill="#B6D6F9" transform="scale(2 2)" d="M142.562 403.938C129.832 411.701 117.571 399.399 122.544 384.163C123.873 380.093 130.764 363.561 136.447 365.656C144.053 372.444 156.571 398.18 142.562 403.938Z"/>
	<path fill="#95C2F8" transform="scale(2 2)" d="M142.562 403.938C129.832 411.701 117.571 399.399 122.544 384.163C123.873 380.093 130.764 363.561 136.447 365.656C132.027 372.783 128.768 381.807 130.774 390.231C133.311 400.88 134.905 400.307 142.562 403.938Z"/>
	<path fill="#B6D6F9" transform="scale(2 2)" d="M186.469 439.093C172.664 445.844 160.124 434.136 166.266 419.264C167.807 415.532 175.843 396.819 181.165 400.401C190.179 412.877 198.534 426.44 186.469 439.093Z"/>
	<path fill="#95C2F8" transform="scale(2 2)" d="M186.469 439.093C172.664 445.844 160.124 434.136 166.266 419.264C167.807 415.532 175.843 396.819 181.165 400.401C176.528 408.046 172.35 416.769 174.636 425.905C177.254 436.368 180.225 434.653 186.469 439.093Z"/>
	<path fill="#B6D6F9" transform="scale(2 2)" d="M322.24 400.401C313.424 406.751 299.508 402.431 298.527 390.63C297.819 382.129 310.385 359.3 314.337 364.726C320.9 372.664 333.504 391.384 322.24 400.401Z"/>
	<path fill="#95C2F8" transform="scale(2 2)" d="M322.24 400.401C313.424 406.751 299.508 402.431 298.527 390.63C297.819 382.129 310.385 359.3 314.337 364.726C308.242 377.212 303.447 396.927 322.24 400.401Z"/>
	<path fill="#B6D6F9" transform="scale(2 2)" d="M233.281 399.473C220.602 410.018 203.656 398.157 212.797 379.539C214.404 376.267 221.145 362.96 226.043 365.656C233.33 372.849 243.817 390.663 233.281 399.473Z"/>
	<path fill="#95C2F8" transform="scale(2 2)" d="M233.281 399.473C220.602 410.018 203.656 398.157 212.797 379.539C214.404 376.267 221.145 362.96 226.043 365.656C218.581 377.207 214.256 398.174 233.281 399.473Z"/>
</svg>
