<?xml version="1.0" encoding="utf-8" ?>
<svg xmlns="http://www.w3.org/2000/svg" xmlns:xlink="http://www.w3.org/1999/xlink" width="1024" height="1024">
	<path fill="#FCFCFC" transform="scale(2 2)" d="M237.609 147.018C237.676 143.029 239.061 138.672 240.14 134.833C252.036 92.5111 287.701 60.5734 330.876 52.7566C334.248 52.1462 354.167 47.9583 353.992 54.4436C353.922 57.0218 342.602 65.3911 340.134 67.9964C315.015 94.5174 311.188 136.91 331.016 167.599C358.652 210.371 418.449 220.047 456.773 186.129C459.927 183.337 469.04 174.301 467.592 186.189C464.706 209.87 444.806 247.079 423.513 258.452C411.325 266.73 396.515 275.491 381.854 278.176C382.347 316.285 360.857 340.162 322.246 340.546L274.733 340.568C270.878 340.566 251.364 341.839 249.317 339.954C249.397 339.243 251.877 337.246 252.812 332.649C249.717 335.026 245.672 337.259 243.178 339.35C244.004 340.411 245.284 340.762 245.946 341.941C246.566 342.787 258.182 350.407 249.117 353.504C245.388 354.777 240.032 350 236.746 348.361C236.565 352.156 237.962 359.721 235.358 362.615C233.741 364.412 230.371 364.513 228.673 362.783C226.278 360.341 227.167 351.806 227.188 348.361C224.101 350.008 218.985 354.317 215.393 353.545C205.68 351.456 216.637 342.451 221.241 340.209C219.835 338.983 218.508 337.759 216.84 336.898C215.111 337.061 212.881 334.547 211.623 333.477C212.507 336.143 214.217 337.594 214.936 339.798C213.393 341.231 196.928 340.573 194.123 340.574L145.117 340.493C142.093 340.507 138.288 341.361 135.378 340.569C133.099 340.839 130.677 340.603 128.379 340.591L114.478 340.572C108.601 340.571 102.453 341.165 96.6234 340.756C41.4806 336.886 24.4424 262.711 73.6811 236.802C88.4939 229.008 103.884 230.453 119.286 235.201C120.478 231.367 120.854 227.383 122.181 223.535C136.428 182.207 177.835 155.234 221.18 156.754C226.228 156.931 231.231 157.799 236.244 158.373C236.132 154.302 236.412 150.922 237.609 147.018Z"/>
	<path fill="#D4D3D1" transform="scale(2 2)" d="M237.609 147.018C237.676 143.029 239.061 138.672 240.14 134.833C252.036 92.5111 287.701 60.5734 330.876 52.7566C334.248 52.1462 354.167 47.9583 353.992 54.4436C353.922 57.0218 342.602 65.3911 340.134 67.9964C315.015 94.5174 311.188 136.91 331.016 167.599C358.652 210.371 418.449 220.047 456.773 186.129C459.927 183.337 469.04 174.301 467.592 186.189C464.706 209.87 444.806 247.079 423.513 258.452C411.325 266.73 396.515 275.491 381.854 278.176C381.645 273.407 380.094 268.611 378.325 264.218C377.195 262.577 376.417 260.35 375.523 258.546C365.389 238.108 344.474 231.167 322.789 231.4C319.568 232.225 316.377 233.164 313.181 234.081C309.522 214.746 292.392 186.441 274.721 176.367C261.772 165.333 251.074 163.217 236.244 158.373C236.132 154.302 236.412 150.922 237.609 147.018Z"/>
	<path fill="#BEBCBA" transform="scale(2 2)" d="M237.609 147.018C238.193 149.722 269.293 156.745 274.721 163.707C297.009 178.225 313.604 200.513 321.637 225.821C322.09 227.647 322.649 229.519 322.789 231.4C319.568 232.225 316.377 233.164 313.181 234.081C309.522 214.746 292.392 186.441 274.721 176.367C261.772 165.333 251.074 163.217 236.244 158.373C236.132 154.302 236.412 150.922 237.609 147.018Z"/>
	<path fill="#BEBCBA" transform="scale(2 2)" d="M385.821 264.218C398.825 263.234 411.767 259.262 423.513 258.452C411.325 266.73 396.515 275.491 381.854 278.176C381.645 273.407 380.094 268.611 378.325 264.218C380.854 264.143 383.287 264.098 385.821 264.218Z"/>
	<path fill="#A2D2F2" transform="scale(2 2)" d="M135.378 340.569C133.099 340.839 130.677 340.603 128.379 340.591L114.478 340.572C108.601 340.571 102.453 341.165 96.6234 340.756C41.4806 336.886 24.4424 262.711 73.6811 236.802C88.4939 229.008 103.884 230.453 119.286 235.201C119.006 237.495 111.719 240.569 109.772 242.06C74.6219 268.978 82.1474 322.535 124.662 337.981C128.143 339.246 131.743 340.059 135.417 340.285L135.45 340.484L135.378 340.569Z"/>
	<path fill="#02C1EC" transform="scale(2 2)" d="M227.188 328.548L227.19 328.282C227.195 325.208 225.902 320.054 228.349 317.735C230.05 316.121 233.448 315.517 235.17 317.411C237.691 320.183 236.649 326.659 236.746 330.184C239.834 328.487 245.403 324.384 248.942 325.522C251.323 326.288 253.12 329.36 252.177 331.781C250.766 335.404 244.761 337.425 241.854 340.209C243.292 340.661 244.615 341.245 245.946 341.941C246.566 342.787 258.182 350.407 249.117 353.504C245.388 354.777 240.032 350 236.746 348.361C236.565 352.156 237.962 359.721 235.358 362.615C233.741 364.412 230.371 364.513 228.673 362.783C226.278 360.341 227.167 351.806 227.188 348.361C224.101 350.008 218.985 354.317 215.393 353.545C205.68 351.456 216.637 342.451 221.241 340.209C219.835 338.983 218.508 337.759 216.84 336.898C215.008 335.586 212.389 334.116 211.697 331.827C209.464 324.439 217.041 324.407 222.684 328.548C224.19 329.337 225.815 329.996 227.188 331.003L227.188 328.548Z"/>
	<path fill="#02C1EC" transform="scale(2 2)" d="M141.565 355.766C149.93 355.538 148.043 364.491 148.139 370.308C152.401 368.653 155.921 365.833 160.405 364.629C173.036 368.54 159.225 376.903 154.143 379.612C157.674 382.329 173.73 390.327 159.464 394.316C155.427 393.468 151.679 390.866 148.139 388.853C148.134 394.326 149.992 400.638 143.992 403.359C135.785 404.179 137.604 394.074 137.745 388.853C134.374 390.547 128.974 395.019 125.114 394.248C122.56 393.738 120.579 390.657 121.279 388.124C122.314 384.383 129.184 381.54 132.439 379.612C129.117 377.026 122.761 375.436 121.258 371.254C120.261 368.478 121.993 365.82 124.743 365.041C128.562 363.96 134.368 368.438 137.745 370.308C137.708 365.262 135.931 358.278 141.565 355.766Z"/>
	<path fill="#02C1EC" transform="scale(2 2)" d="M333.989 355.766C342.374 355.015 340.365 364.689 340.32 370.308C342.897 368.998 357.278 360.335 356.719 370.149C356.47 374.515 349.235 376.796 346.169 379.612C349.57 381.288 358.402 385.306 356.34 390.431C353.382 397.781 344.532 390.05 340.32 388.096C340.252 394.017 342.356 400.178 336.065 403.359C328.876 401.7 330.424 393.818 330.482 388.096C327.343 389.57 321.159 394.152 317.879 393.501C315.231 392.975 314.021 389.578 314.631 387.198C315.513 383.754 321.775 381.308 324.793 379.612L324.428 379.316C321.704 377.062 316.669 375.378 315.039 372.236C313.947 370.13 314.364 366.049 316.941 365.149C320.867 363.778 326.941 368.648 330.482 370.308C330.558 365.157 328.517 358.748 333.989 355.766Z"/>
	<path fill="#02C1EC" transform="scale(2 2)" d="M247.962 408.783C255.388 409.485 253.309 419.288 253.008 424.429C256.729 422.209 259.933 419.322 264.176 418.104C276.714 422.256 263.241 429.642 258.411 432.771C262.119 434.707 275.566 443.024 265.544 446.945C262.211 448.25 256.677 443.437 253.48 442.117L253.008 441.924C252.977 446.394 255.027 454.568 249.134 455.943C241.171 456.474 243.115 447.229 243.163 441.924C240.185 443.355 235.4 447.347 232.167 447.2C229.602 447.083 227.515 443.771 227.844 441.399C228.24 438.536 235.126 434.539 237.609 432.771C233.404 429.44 220.53 422.718 232.65 418.104C236.512 419.542 239.768 422.143 243.163 424.429C243.39 418.755 240.767 410.752 247.962 408.783Z"/>
</svg>
