<?xml version="1.0" encoding="utf-8" ?>
<svg xmlns="http://www.w3.org/2000/svg" xmlns:xlink="http://www.w3.org/1999/xlink" width="1024" height="1024">
	<path fill="#FBFBFB" transform="scale(2 2)" d="M294.821 144.229C309.572 120.455 323.131 114.652 349.398 115.043C378.251 124.765 397.527 142.048 394.726 175.46C393.115 188.429 388.868 197.951 380.217 207.693C381.856 208.319 384.292 206.368 385.629 205.56C389.476 208.288 406.295 226.014 406.835 229.739C407.329 233.148 404.712 236.186 401.352 236.587C396.252 237.196 393.253 231.948 390.138 228.919C391.117 231.894 391.446 235.298 391.784 238.406C395.488 272.482 378.993 304.328 345.212 315.397C335.69 318.517 325.736 319.736 315.944 321.678L252.532 333.447C231.407 337.245 210.361 341.226 189.164 344.614C167.661 348.052 154.785 351.518 133.457 343.434C126.157 340.283 118.512 338.251 111.252 335.129C63.7628 314.712 68.0574 250.283 115.758 231.219C115.33 211.771 126.127 193.093 143.216 183.676C159.078 174.935 172.59 176.918 188.713 181.59C189.85 179.288 190.974 176.972 192.219 174.726C211.392 140.153 259.91 124.981 294.821 144.229Z"/>
	<path fill="#D6D7D8" transform="scale(2 2)" d="M188.713 181.59C189.85 179.288 190.974 176.972 192.219 174.726C211.392 140.153 259.91 124.981 294.821 144.229C294.493 145.138 294.192 146.066 293.797 146.948C250.4 135.461 212.951 161.324 202.651 203.971C171.951 204.324 149.133 230.365 157.204 261.202C131.376 262.706 111.723 280.829 113.38 307.659C114.873 331.829 132.755 340.079 133.457 343.434C126.157 340.283 118.512 338.251 111.252 335.129C63.7628 314.712 68.0574 250.283 115.758 231.219C115.33 211.771 126.127 193.093 143.216 183.676C159.078 174.935 172.59 176.918 188.713 181.59Z"/>
	<path fill="#FECA5C" transform="scale(2 2)" d="M294.821 144.229C309.572 120.455 323.131 114.652 349.398 115.043C378.251 124.765 397.527 142.048 394.726 175.46C393.115 188.429 388.868 197.951 380.217 207.693C379.705 208.05 379.181 208.671 378.722 209.109C375.889 206.133 373.059 203.216 370.089 200.373C358.216 189.181 347.104 181.947 330.201 181.59C322.448 167.297 315.133 158.755 301.457 150.454C298.97 149.147 296.374 148.066 293.797 146.948C294.192 146.066 294.493 145.138 294.821 144.229Z"/>
	<path fill="#FEB50C" transform="scale(2 2)" d="M294.821 144.229C309.572 120.455 323.131 114.652 349.398 115.043C349.241 119.05 340.639 117.957 336.545 118.955C318.814 123.278 308.727 133.353 301.721 149.818L301.457 150.454C298.97 149.147 296.374 148.066 293.797 146.948C294.192 146.066 294.493 145.138 294.821 144.229Z"/>
	<path fill="#FEB50C" transform="scale(2 2)" d="M370.089 200.373C377.461 196.346 384.561 189.123 389.246 182.216C390.62 180.191 391.802 175.343 394.726 175.46C393.115 188.429 388.868 197.951 380.217 207.693C379.705 208.05 379.181 208.671 378.722 209.109C375.889 206.133 373.059 203.216 370.089 200.373Z"/>
	<path fill="#86B6ED" transform="scale(2 2)" d="M158.385 437.803C148.906 435.649 141.594 425.755 147.553 416.413C148.993 414.156 159.351 400.171 160.596 399.901L161.058 400.441L161.186 400.662C165.915 408.682 177.054 418.576 174.509 428.344C172.902 434.515 164.575 439.331 158.385 437.803Z"/>
	<path fill="#4791E4" transform="scale(2 2)" d="M158.385 437.803C148.906 435.649 141.594 425.755 147.553 416.413C148.993 414.156 159.351 400.171 160.596 399.901L161.058 400.441C158.134 413.795 142.007 423.011 160.299 436.773C162.228 438.225 159.543 437.815 158.385 437.803Z"/>
	<path fill="#86B6ED" transform="scale(2 2)" d="M237.003 426.425C229.861 427.527 221.852 422.555 220.558 415.235C219.414 408.763 230.038 390.223 233.813 389.627L234.323 390.165L234.619 390.571C239.409 397.062 249.788 405.954 248.557 414.937C247.771 420.676 242.675 425.539 237.003 426.425Z"/>
	<path fill="#4791E4" transform="scale(2 2)" d="M237.003 426.425C229.861 427.527 221.852 422.555 220.558 415.235C219.414 408.763 230.038 390.223 233.813 389.627L234.323 390.165C231.308 399.095 223.663 406.519 228.361 416.51C231.095 422.325 234.505 422.948 237.003 426.425Z"/>
	<path fill="#86B6ED" transform="scale(2 2)" d="M310.254 414.417C299.641 416.496 287.474 405.417 293.788 394.775C294.996 392.74 303.582 379.077 305.433 378.605L306.164 379.166C310.995 386.914 322.93 393.151 320.738 403.696C319.677 408.798 315.467 413.43 310.254 414.417Z"/>
	<path fill="#4791E4" transform="scale(2 2)" d="M310.254 414.417C299.641 416.496 287.474 405.417 293.788 394.775C294.996 392.74 303.582 379.077 305.433 378.605L306.164 379.166L306.052 379.577C303.302 389.37 296.455 395.717 302.344 406.355C304.809 410.808 308.021 411.458 310.254 414.417Z"/>
	<path fill="#86B6ED" transform="scale(2 2)" d="M205.539 392.184C194.294 394.69 184.038 384.766 187.494 374.79C188.471 371.97 197.351 357.143 200.244 357.194C209.053 365.191 226.302 387.014 205.539 392.184Z"/>
	<path fill="#4791E4" transform="scale(2 2)" d="M205.539 392.184C194.294 394.69 184.038 384.766 187.494 374.79C188.471 371.97 197.351 357.143 200.244 357.194C199.858 365.17 187.999 374.535 197.959 386.49C200.129 389.095 202.826 390.314 205.539 392.184Z"/>
	<path fill="#86B6ED" transform="scale(2 2)" d="M279.049 376.921C268.438 379.848 256.077 369.803 261.597 358.968C262.624 356.952 272.208 343.461 273.498 343.054L273.913 343.434C277.841 348.179 285.026 354.711 287.464 360.029C290.624 366.923 286.256 374.961 279.049 376.921Z"/>
	<path fill="#4791E4" transform="scale(2 2)" d="M279.049 376.921C268.438 379.848 256.077 369.803 261.597 358.968C262.624 356.952 272.208 343.461 273.498 343.054L273.913 343.434C272.475 353.476 263.472 359.06 271.811 370.857C274.148 374.162 278.097 375.606 279.049 376.921Z"/>
	<path fill="#D6D7D8" transform="scale(2 2)" d="M341.545 70.0718C343.958 70.0501 346.398 70.9067 347.268 73.3696C349.06 78.444 350.974 96.6296 343.043 99.3299C341.832 99.4675 340.616 99.3772 339.402 99.3299C333.335 94.3983 335.167 74.0787 337.05 71.8252C338.035 70.6462 340.101 70.2561 341.545 70.0718Z"/>
	<path fill="#D6D7D8" transform="scale(2 2)" d="M413.099 161.266C417.554 161.163 429.992 160.561 433.432 162.353C438.59 165.039 436.467 172.437 431.293 173.86C426.563 174.011 417.374 174.421 412.831 173.809C405.999 172.888 405.442 162.889 413.099 161.266Z"/>
	<path fill="#FBFBFB" transform="scale(2 2)" d="M279.964 98.3007C284.458 98.0254 306.007 117.537 290.55 121.287C285.406 120.794 264.013 103.073 279.964 98.3007Z"/>
	<path fill="#D6D7D8" transform="scale(2 2)" d="M400.293 99.3299C415.831 99.9514 401.884 119.094 393.192 121.287C389.262 121.389 385.211 118.889 386.217 114.518C387.093 110.709 396.866 101.555 400.293 99.3299Z"/>
</svg>
