<?xml version="1.0" encoding="utf-8" ?>
<svg xmlns="http://www.w3.org/2000/svg" xmlns:xlink="http://www.w3.org/1999/xlink" width="1024" height="1024">
	<path fill="#FBFAF8" transform="scale(2 2)" d="M291.722 170.812C298.306 137.365 327.443 112.517 362.375 119.583C420.061 131.251 426.945 211.366 371.323 233.607C371.574 234.07 377.68 237.145 378.771 237.962C415.289 265.322 399.143 321.279 356.115 324.596C349.795 325.083 343.393 324.799 337.061 324.793L134.587 324.824C132.139 324.852 129.297 325.199 126.913 324.789C110.73 324.724 94.7224 318.079 82.7419 307.263C42.0125 270.495 65.9973 201.258 119.86 197.4C125.208 197.017 130.58 197.454 135.938 197.246C136.164 196.619 136.078 188.809 136.428 186.593C147.244 118.094 232.413 97.0711 274.961 154.936C279.144 160.625 282.267 166.879 286.362 172.615C287.504 172.569 290.9 171.583 291.722 170.812ZM358.718 231.013C364.678 230.833 367.311 233.243 371.323 233.607C426.945 211.366 420.061 131.251 362.375 119.583C327.443 112.517 298.306 137.365 291.722 170.812C332.287 159.294 367.818 188.488 358.718 231.013Z"/>
	<path fill="#C3D0D2" transform="scale(2 2)" d="M126.913 324.789C110.73 324.724 94.7224 318.079 82.7419 307.263C42.0125 270.495 65.9973 201.258 119.86 197.4C125.208 197.017 130.58 197.454 135.938 197.246C136.655 199.376 136.022 202.574 136.219 204.908C136.95 213.58 139.278 223.27 143.399 231.013C157.323 228.156 167.954 234.716 169.845 249.18C186.495 245.438 196.532 252.553 202.279 267.72C216.295 242.106 252.707 246.036 260.383 272.672C261.653 277.08 261.759 281.408 261.771 285.958C271.702 276.355 288.879 277.483 298.34 287.249C301.939 290.964 303.765 295.686 305.669 300.395C324.75 292.058 345.781 302.669 346.075 324.789L150.739 324.785C142.865 324.781 134.768 324.379 126.913 324.789Z"/>
	<path fill="#FEC807" transform="scale(2 2)" d="M291.722 170.812C298.306 137.365 327.443 112.517 362.375 119.583C420.061 131.251 426.945 211.366 371.323 233.607C367.311 233.243 364.678 230.833 358.718 231.013C367.818 188.488 332.287 159.294 291.722 170.812ZM400.875 176.854C403.964 175.052 403.237 172.42 402.741 169.332C399.298 147.879 378.405 124.569 355.657 125.759C347.957 130.606 357.991 132.592 361.387 133.208C378.121 136.242 392.682 151.875 395.346 168.412C396.031 172.658 394.766 177.766 400.875 176.854Z"/>
	<path fill="#9AD3F1" transform="scale(2 2)" d="M130.659 344.513C131.172 345.247 131.669 345.993 132.174 346.732C141.339 358.084 156.536 380.189 135.938 388.518C130.951 389.547 125.529 389.042 121.313 385.994C105.726 374.728 122.576 355.05 130.659 344.513Z"/>
	<path fill="#88C8F0" transform="scale(2 2)" d="M130.659 344.513C131.172 345.247 131.669 345.993 132.174 346.732C130.666 348.257 130.776 351.051 130.11 353.027C127.161 361.781 120.216 375.016 128.475 382.907C130.568 384.906 134.642 386.061 135.938 388.518C130.951 389.547 125.529 389.042 121.313 385.994C105.726 374.728 122.576 355.05 130.659 344.513Z"/>
	<path fill="#9AD3F1" transform="scale(2 2)" d="M248.616 391.971C255.329 399.217 262.619 409.883 263.298 419.918C263.947 429.51 257.252 436.097 247.853 436.437C239.855 436.06 233.393 430.288 233.099 422.105C232.784 413.342 242.707 398.28 248.616 391.971Z"/>
	<path fill="#9AD3F1" transform="scale(2 2)" d="M209.122 343.423C213.667 349.389 223.574 364.125 224.318 370.884C225.325 380.034 219.289 387.473 210.239 388.518C198.341 388.696 191.253 378.622 195.023 367.133C196.963 361.22 204.881 347.917 209.122 343.423Z"/>
	<path fill="#9AD3F1" transform="scale(2 2)" d="M288.877 389.462C280.713 390.435 272.415 385.023 272.224 376.356C271.995 365.969 280.269 351.989 287.318 344.513C288.137 345.856 289.09 347.131 289.935 348.463C298.528 359.509 311.209 385.644 288.877 389.462Z"/>
	<path fill="#88C8F0" transform="scale(2 2)" d="M288.877 389.462C280.713 390.435 272.415 385.023 272.224 376.356C271.995 365.969 280.269 351.989 287.318 344.513C288.137 345.856 289.09 347.131 289.935 348.463C286.046 351.338 281.113 367.065 280.379 371.92C278.6 383.687 286.142 383.035 288.877 389.462Z"/>
	<defs>
		<linearGradient id="gradient_0" gradientUnits="userSpaceOnUse" x1="154.05978" y1="415.0498" x2="182.85378" y2="415.45966">
			<stop offset="0" stop-color="#81C4F0"/>
			<stop offset="1" stop-color="#A7DDF5"/>
		</linearGradient>
	</defs>
	<path fill="url(#gradient_0)" transform="scale(2 2)" d="M168.902 393.901C169.617 394.609 171.415 397.804 172.121 398.835C178.147 407.63 189.028 420.806 180.034 431.291C177.035 434.788 173.414 436.088 168.902 436.437C160.421 435.826 153.475 429.884 153.555 420.948C153.621 413.568 163.312 399.388 168.902 393.901Z"/>
	<path fill="#FBFAF8" transform="scale(2 2)" d="M399.962 224.849C406.778 224.843 416.251 232.354 420.368 237.055C425.212 242.586 422.441 250.283 415.557 251.992C408.17 252.596 398.118 243.937 394.662 238.523C391.59 233.712 392.696 225.683 399.962 224.849Z"/>
	<path fill="#FBFAF8" transform="scale(2 2)" d="M349.868 74.81C354.947 74.5031 358.82 77.6084 359.759 82.611C361.092 89.7039 362.558 106.198 352.617 107.907C338.62 108.176 340.777 83.9292 343.64 78.8035C344.97 76.4219 347.411 75.5381 349.868 74.81Z"/>
	<path fill="#FBFAF8" transform="scale(2 2)" d="M413.312 102.843C419.743 103.111 425.201 110.366 421.238 116.312C418.259 120.78 408.407 128.992 402.708 130.209C396.173 130.644 391.266 124.967 394.945 118.652C397.66 113.99 407.619 104.247 413.312 102.843Z"/>
	<path fill="#FBFAF8" transform="scale(2 2)" d="M435.457 169.313C447.235 167.188 453.542 177.144 446.402 184.109C442.797 187.625 436.567 186.904 431.924 186.881C424.405 187.095 418.005 186.827 418.157 177.732C418.301 169.11 429.078 169.026 435.457 169.313Z"/>
	<path fill="#FBFAF8" transform="scale(2 2)" d="M287.318 102.843C297.536 101.437 317.709 126.808 299.35 129.166C288.065 129.186 268.748 108.393 287.318 102.843Z"/>
</svg>
