<?xml version="1.0" encoding="utf-8" ?>
<svg xmlns="http://www.w3.org/2000/svg" xmlns:xlink="http://www.w3.org/1999/xlink" width="1024" height="1024">
	<defs>
		<linearGradient id="gradient_0" gradientUnits="userSpaceOnUse" x1="261.53827" y1="435.99652" x2="249.46484" y2="72.096931">
			<stop offset="0" stop-color="#FDD289"/>
			<stop offset="1" stop-color="#FCF9EE"/>
		</linearGradient>
	</defs>
	<path fill="url(#gradient_0)" transform="scale(2 2)" d="M220.183 73.6209L220.52 73.6131C242.619 73.2843 264.779 73.6324 286.885 73.6233C321.468 73.609 349.758 70.222 380.801 87.4451C418.603 108.418 437.712 146.39 437.77 188.573L437.771 312.896C437.796 348.905 434.829 373.32 406.946 401.207C380.986 427.17 350.681 434.593 315.464 434.602L290.875 434.592L221.147 434.599C188.696 434.61 161.769 436.595 132.105 420.72C94.9628 400.842 74.0382 366.681 73.455 324.363C73.0302 293.541 73.4439 262.655 73.4488 231.824L73.447 196.91C73.4232 183.857 72.8774 170.976 75.8813 158.165C86.5284 112.76 123.563 78.0523 170.757 74.3629C178.958 73.7218 188.973 74.2431 197.351 74.2108C204.947 74.1814 212.571 73.6983 220.183 73.6209Z"/>
	<defs>
		<linearGradient id="gradient_1" gradientUnits="userSpaceOnUse" x1="298.19235" y1="315.52551" x2="218.95799" y2="199.90816">
			<stop offset="0" stop-color="#FF8F00"/>
			<stop offset="1" stop-color="#FFEF72"/>
		</linearGradient>
	</defs>
	<path fill="url(#gradient_1)" transform="scale(2 2)" d="M183.293 236.571C192.316 199.311 228.033 174.893 266.026 180.009C280.24 181.923 293.604 187.88 304.529 197.171C335.852 223.811 339.819 270.731 313.413 302.252C287.008 333.773 240.119 338.089 208.402 311.92C186.298 293.681 176.548 264.423 183.293 236.571Z"/>
	<path fill="#FFEE8A" transform="scale(2 2)" d="M183.293 236.571C192.316 199.311 228.033 174.893 266.026 180.009C262.167 181.916 254.895 178.877 251.43 180.504C250.376 180.999 249.7 182.548 248.595 183.132C245.192 184.934 241.454 186.113 238.036 187.932C232.623 190.814 218.824 200.021 213.996 203.697C204.553 210.886 198.506 220.664 190.83 229.388C188.151 232.432 186.901 231.808 183.293 236.571Z"/>
	<defs>
		<linearGradient id="gradient_2" gradientUnits="userSpaceOnUse" x1="255.02333" y1="161.55113" x2="256.34259" y2="122.24472">
			<stop offset="0" stop-color="#FFE552"/>
			<stop offset="1" stop-color="#FFF9AC"/>
		</linearGradient>
	</defs>
	<path fill="url(#gradient_2)" transform="scale(2 2)" d="M253.982 122.034C259.416 121.469 264.814 124.638 265.871 130.247C266.31 132.581 266.383 151.269 266.023 153.66C265.353 158.114 262.246 161.5 257.68 162.192C253.517 162.448 247.024 160.789 245.846 156.078C245.057 152.926 245.241 135.917 245.603 132.118C246.127 126.633 248.329 123.435 253.982 122.034Z"/>
	<defs>
		<linearGradient id="gradient_3" gradientUnits="userSpaceOnUse" x1="367.73309" y1="265.58325" x2="371.36093" y2="243.84897">
			<stop offset="0" stop-color="#FEC829"/>
			<stop offset="1" stop-color="#FFF66D"/>
		</linearGradient>
	</defs>
	<path fill="url(#gradient_3)" transform="scale(2 2)" d="M358.517 245.051C361.324 244.608 379.157 244.886 382.293 245.352C393.502 247.019 391.442 262.385 381.685 264.766L367.427 264.786C361.097 264.774 351.104 265.59 349.532 257.261C348.407 251.299 352.664 245.943 358.517 245.051Z"/>
	<path fill="#FFEE8A" transform="scale(2 2)" d="M169.424 158.074C174.91 157.615 188.379 172.459 191.315 176.38C196.195 182.897 191.083 190.451 184.153 192.038C174.949 192.189 143.063 163.747 169.424 158.074Z"/>
	<defs>
		<linearGradient id="gradient_4" gradientUnits="userSpaceOnUse" x1="143.03032" y1="265.21115" x2="143.94781" y2="245.75246">
			<stop offset="0" stop-color="#FFD32F"/>
			<stop offset="1" stop-color="#FFF26D"/>
		</linearGradient>
	</defs>
	<path fill="url(#gradient_4)" transform="scale(2 2)" d="M130.296 245.935C139.306 245.793 160.077 243.043 163.095 252.637C164.742 257.875 161.665 263.07 156.605 264.766C151.604 265.955 134.603 266.176 129.95 264.461C120.863 261.111 121.931 249.121 130.296 245.935Z"/>
	<defs>
		<linearGradient id="gradient_5" gradientUnits="userSpaceOnUse" x1="253.9406" y1="384.66498" x2="257.81485" y2="347.78308">
			<stop offset="0" stop-color="#FFB300"/>
			<stop offset="1" stop-color="#FFE52A"/>
		</linearGradient>
	</defs>
	<path fill="url(#gradient_5)" transform="scale(2 2)" d="M254.907 347.325C268.879 346.587 267.256 367.116 265.796 376.162C265.004 381.065 262.505 383.932 257.68 385.368C250.692 386.216 246.808 381.179 245.924 374.81C244.725 366.163 243.273 348.9 254.907 347.325Z"/>
	<defs>
		<linearGradient id="gradient_6" gradientUnits="userSpaceOnUse" x1="329.96222" y1="342.27469" x2="341.69443" y2="323.66644">
			<stop offset="0" stop-color="#FFB800"/>
			<stop offset="1" stop-color="#FFE932"/>
		</linearGradient>
	</defs>
	<path fill="url(#gradient_6)" transform="scale(2 2)" d="M327.322 316.81C335.263 315.728 366.84 341.947 344.554 349.297C338.007 350.402 334.023 344.38 329.955 340.408C322.587 333.211 311.293 322.961 327.322 316.81Z"/>
	<defs>
		<linearGradient id="gradient_7" gradientUnits="userSpaceOnUse" x1="177.75552" y1="348.73785" x2="174.53012" y2="319.08984">
			<stop offset="0" stop-color="#FFB500"/>
			<stop offset="1" stop-color="#FFE634"/>
		</linearGradient>
	</defs>
	<path fill="url(#gradient_7)" transform="scale(2 2)" d="M184.153 317.837C191.393 318.734 195.252 326.633 190.94 332.613C187.6 337.245 175.796 349.262 169.424 350.317C161.549 349.453 156.694 341.323 161.906 334.843C166.606 329 176.258 318.729 184.153 317.837Z"/>
	<defs>
		<linearGradient id="gradient_8" gradientUnits="userSpaceOnUse" x1="335.73541" y1="190.19817" x2="336.53241" y2="158.0833">
			<stop offset="0" stop-color="#FFE24B"/>
			<stop offset="1" stop-color="#FFF7A3"/>
		</linearGradient>
	</defs>
	<path fill="url(#gradient_8)" transform="scale(2 2)" d="M341.195 158.074C348.753 157.505 355.694 165.147 350.936 172.375C348.402 176.225 335.615 189.845 331.49 190.727C323.935 190.94 317.321 185.173 321.287 177.699C323.915 172.747 335.102 159.919 341.195 158.074Z"/>
</svg>
