<?xml version="1.0" encoding="utf-8" ?>
<svg xmlns="http://www.w3.org/2000/svg" xmlns:xlink="http://www.w3.org/1999/xlink" width="1024" height="1024">
	<path fill="#F6F6F6" transform="scale(2 2)" d="M276.296 142.694C274.922 128.053 294.389 99.9979 304.37 90.8113C315.532 80.5385 334.192 69.6088 349.725 68.0357C346.374 72.3116 342.6 76.1231 339.574 80.6725C316.221 115.782 324.99 164.876 357.974 190.729C386.868 213.377 424.316 214.652 454.824 195.096C453.184 201.084 448.206 213.719 444.489 218.387C427.02 243.575 418.021 248.71 391.851 260.171C394.896 278.242 392.745 293.275 381.945 308.434C363.932 333.719 342.803 330.888 316.195 331.028C311.314 331.054 306.475 332.518 302.901 329.824C296.193 342.149 285.28 355.493 277.691 368.13C277.114 369.089 275.773 370.848 274.807 369.315C274.378 365.454 280.404 334.778 281.466 331.021C279.948 330.696 278.44 330.234 276.941 329.824C276.026 330.747 272.129 354.295 271.581 356.842C270.741 360.743 268.959 365.669 268.889 369.605C259.667 380.061 263.247 359.132 263.789 355.796L265.964 342.162C266.591 338.453 267.351 334.762 267.765 331.021C263.406 331.856 258.539 330.89 254.088 331.021C249.573 330.695 244.94 331.006 240.407 331.014L121.04 330.884C118.522 330.856 116.015 331.063 113.496 331.021C109.957 330.633 106.391 330.789 102.848 330.338C75.9277 326.912 56.563 302.67 56.7065 275.894C56.8882 242.01 84.7278 220.946 116.877 221.295C123.828 167.769 171.223 125.367 225.692 128.499C233.474 128.946 241.096 130.494 248.764 131.79C252.161 132.986 275.79 142.63 276.296 142.694Z"/>
	<path fill="#FEDB7B" transform="scale(2 2)" d="M276.296 142.694C274.922 128.053 294.389 99.9979 304.37 90.8113C315.532 80.5385 334.192 69.6088 349.725 68.0357C346.374 72.3116 342.6 76.1231 339.574 80.6725C316.221 115.782 324.99 164.876 357.974 190.729C386.868 213.377 424.316 214.652 454.824 195.096C453.184 201.084 448.206 213.719 444.489 218.387C427.02 243.575 418.021 248.71 391.851 260.171C390.325 254.683 388.283 249.537 385.594 244.516C383.732 241.926 382.043 239.241 380.04 236.749C368.004 221.783 344.382 214.598 326.476 222.328C325.411 218.71 325.035 214.793 324.358 211.08C318.427 178.522 302.005 160.454 276.296 142.694Z"/>
	<path fill="#FED042" transform="scale(2 2)" d="M385.594 244.516C387.476 243.453 393.859 243.243 396.557 242.567C409.937 239.211 422.63 233.925 433.574 225.417C435.217 224.14 442.339 217.167 443.422 216.878L444.489 218.387C427.02 243.575 418.021 248.71 391.851 260.171C390.325 254.683 388.283 249.537 385.594 244.516Z"/>
	<path fill="#CCCFD5" transform="scale(2 2)" d="M116.877 221.295C123.828 167.769 171.223 125.367 225.692 128.499C233.474 128.946 241.096 130.494 248.764 131.79C242.974 132.74 232.693 131.631 225.491 132.364C178.201 137.177 143.462 178.479 138.541 224.228C113.23 216.002 88.4808 235.337 80.936 259.034C70.9278 290.469 88.2939 319.021 117.746 331.021C116.361 331.008 114.869 330.891 113.496 331.021C109.957 330.633 106.391 330.789 102.848 330.338C75.9277 326.912 56.563 302.67 56.7065 275.894C56.8882 242.01 84.7278 220.946 116.877 221.295Z"/>
	<defs>
		<linearGradient id="gradient_0" gradientUnits="userSpaceOnUse" x1="261.33435" y1="327.40472" x2="310.85153" y2="311.03806">
			<stop offset="0" stop-color="#FDA200"/>
			<stop offset="1" stop-color="#FFDC08"/>
		</linearGradient>
	</defs>
	<path fill="url(#gradient_0)" transform="scale(2 2)" d="M276.296 295.494C279.775 289.778 283.402 284.194 287.093 278.614C289.015 275.709 292.398 267.604 296.833 270.118C297.99 272.26 295.65 277.34 295.024 279.496L291.165 292.683C290.214 295.865 286.611 305.111 288.039 307.927C291.394 314.538 318.84 305.041 310.376 318.062C307.836 321.969 305.093 325.696 302.901 329.824C296.193 342.149 285.28 355.493 277.691 368.13C277.114 369.089 275.773 370.848 274.807 369.315C274.378 365.454 280.404 334.778 281.466 331.021C279.948 330.696 278.44 330.234 276.941 329.824C272.973 328.656 263.684 328.689 262.182 323.685C261.131 320.182 273.909 299.825 276.296 295.494Z"/>
	<path fill="#CCCFD5" transform="scale(2 2)" d="M254.088 331.021C252.577 328.425 249.692 327.362 249.566 323.889C249.418 319.813 273.631 275.963 275.582 274.177C277.67 272.264 280.008 273.977 281.466 275.683C280.21 281.082 275.817 290.504 276.296 295.494C273.909 299.825 261.131 320.182 262.182 323.685C263.684 328.689 272.973 328.656 276.941 329.824C276.026 330.747 272.129 354.295 271.581 356.842C270.741 360.743 268.959 365.669 268.889 369.605C259.667 380.061 263.247 359.132 263.789 355.796L265.964 342.162C266.591 338.453 267.351 334.762 267.765 331.021C263.406 331.856 258.539 330.89 254.088 331.021Z"/>
	<path fill="#6FA7EA" transform="scale(2 2)" d="M206.167 384.685C207.63 383.295 209.099 382.003 210.724 380.807C213.683 388.401 219.544 400.669 215.957 408.71C209.467 421.614 193.008 415.845 193.615 401.945C193.959 394.075 200.887 389.526 206.167 384.685Z"/>
	<path fill="#347CD6" transform="scale(2 2)" d="M206.167 384.685L206.918 385.099C207.498 388.263 199.263 395.231 200.282 401.805C202.304 414.846 212.484 408.62 215.957 408.71C209.467 421.614 193.008 415.845 193.615 401.945C193.959 394.075 200.887 389.526 206.167 384.685Z"/>
	<path fill="#6FA7EA" transform="scale(2 2)" d="M150.812 368.736C153.138 365.976 156.124 363.458 159.225 361.61C160.477 368.867 167.37 384.104 163.935 390.704C155.913 406.545 129.911 392.764 150.812 368.736Z"/>
	<path fill="#347CD6" transform="scale(2 2)" d="M150.812 368.736C151.339 368.702 151.695 368.654 152.14 368.323L152.444 368.387L152.249 368.531L152.438 368.523C149.933 374.848 145.868 379.193 149.005 386.349C154.035 397.825 161.06 389.482 163.935 390.704C155.913 406.545 129.911 392.764 150.812 368.736Z"/>
	<defs>
		<linearGradient id="gradient_1" gradientUnits="userSpaceOnUse" x1="242.21483" y1="427.43759" x2="265.12427" y2="419.729">
			<stop offset="0" stop-color="#3278D3"/>
			<stop offset="1" stop-color="#82B5EE"/>
		</linearGradient>
	</defs>
	<path fill="url(#gradient_1)" transform="scale(2 2)" d="M260.699 403.508L260.904 403.751C259.524 415.295 268.085 425.758 263.451 434.461C260.447 440.104 254.394 442.292 248.764 439.28C244.487 435.956 241.66 431.098 242.603 425.492C243.572 419.737 255.415 407.204 260.699 403.508Z"/>
</svg>
