<?xml version="1.0" encoding="utf-8" ?>
<svg xmlns="http://www.w3.org/2000/svg" xmlns:xlink="http://www.w3.org/1999/xlink" width="1024" height="1024">
	<path fill="#FCFCFA" transform="scale(2 2)" d="M265.955 142.932C268.805 137.817 271.942 132.917 275.784 128.476C314.798 83.3852 389.586 101.595 405.171 158.683C412.637 186.03 403.488 217.595 380.762 235.052C380.929 238.02 383.058 243.88 383.628 248.029C388.26 281.75 370.833 316.008 334.365 318.924C320.873 320.002 307.955 318.679 294.534 318.812C274.979 319.006 255.339 319.656 235.798 318.915C232.957 318.807 230.036 318.847 227.221 318.442C228.671 311.677 230.421 304.517 230.977 297.623C228.82 293.762 226.726 293.914 224.163 297.407C219.513 303.746 214.366 312.316 209.95 319.042C204.328 319.225 198.702 319.024 193.066 319.036L154.806 319.026C147.323 319.011 135.625 319.964 128.773 319.042C109.645 319.508 93.5195 316.372 78.8358 303.101C39.7522 267.778 63.77 201.11 115.762 198.739C133.058 138.205 193.962 106.289 252.368 134.788C257.725 137.402 264.089 143.117 267.759 144.608L265.955 142.932Z"/>
	<path fill="#FED006" transform="scale(2 2)" d="M265.955 142.932C268.805 137.817 271.942 132.917 275.784 128.476C314.798 83.3852 389.586 101.595 405.171 158.683C412.637 186.03 403.488 217.595 380.762 235.052C374.489 224.007 372.298 219.189 361.177 210.844C358.181 208.864 356.668 207.536 355.163 204.232C350.694 178.267 315.693 159.152 291.154 167.94L291.154 167.94C283.408 159.154 279.662 152.676 268.985 145.617C268.595 145.238 268.192 144.933 267.759 144.608L265.955 142.932Z"/>
	<path fill="#FEE68F" transform="scale(2 2)" d="M291.154 167.94C297.193 132.554 346.612 122.268 367.196 151.819C379.805 169.922 377.736 195.923 361.177 210.844C358.181 208.864 356.668 207.536 355.163 204.232C350.694 178.267 315.693 159.152 291.154 167.94Z"/>
	<path fill="#B6C3D9" transform="scale(2 2)" d="M115.762 198.739C133.058 138.205 193.962 106.289 252.368 134.788C257.725 137.402 264.089 143.117 267.759 144.608C268.192 144.933 268.595 145.238 268.985 145.617C267.937 145.994 263.407 143.164 262.354 142.597C207.367 113.011 143.996 154.11 141.306 216.132C125.709 212.598 113.42 212.317 99.3419 221.157C59.1566 246.391 72.5452 307.457 118.545 317.33C121.857 318.04 125.605 317.961 128.773 319.042C109.645 319.508 93.5195 316.372 78.8358 303.101C39.7522 267.778 63.77 201.11 115.762 198.739Z"/>
	<path fill="#B6C3D9" transform="scale(2 2)" d="M291.154 167.94C315.693 159.152 350.694 178.267 355.163 204.232C341.146 188.846 320.777 181.795 300.271 187.435C297.524 180.081 293.871 174.552 291.154 167.94L291.154 167.94Z"/>
	<path fill="#FEE68F" transform="scale(2 2)" d="M209.95 319.042C214.366 312.316 219.513 303.746 224.163 297.407C226.726 293.914 228.82 293.762 230.977 297.623C230.421 304.517 228.671 311.677 227.221 318.442C226.142 324.285 220.321 339.804 226.434 342.318C229.612 342.149 246.822 338.415 247.154 343.036C247.299 345.058 220.613 379.922 218.103 383.407C216.005 386.32 205.083 406.511 200.322 399.689C196.913 394.807 209.71 367.577 206.817 362.99C203.801 358.207 187.351 365.309 184.462 360.862C182.58 357.965 207.103 324.047 209.95 319.042Z"/>
	<path fill="#68AADD" transform="scale(2 2)" d="M135.736 320.598L135.799 320.708C135.948 322.757 131.242 343.131 130.175 346.361C127.565 354.268 119.853 355.821 113.635 350.876C100.713 337.769 126.91 325.751 135.736 320.598Z"/>
	<path fill="#68AADD" transform="scale(2 2)" d="M166.443 384.414C166.638 387.158 165.452 390.766 164.998 393.515C163.676 401.517 163.981 415.582 153.218 416.726C150.258 417.041 147.609 415.791 145.352 414.003C142.34 410.919 141.042 406.552 142.424 402.337C143.937 397.721 161.731 386.679 166.443 384.414Z"/>
	<path fill="#68AADD" transform="scale(2 2)" d="M319.147 321.937C323.22 322.887 316.485 348.377 314.549 350.85C311.059 355.309 304.565 355.709 300.271 352.189C295.178 348.567 295.183 341.729 299.33 337.222C301.831 334.504 315.581 323.877 319.147 321.937Z"/>
	<path fill="#68AADD" transform="scale(2 2)" d="M278.733 384.414C281.498 385.553 276.591 404.784 275.662 407.932C273.227 416.186 265.94 418.61 258.98 414.003C254.637 409.409 254.22 402.788 258.808 398.334C261.005 396.201 275.833 385.823 278.733 384.414Z"/>
	<path fill="#68AADD" transform="scale(2 2)" d="M218.942 421.517L219.119 421.773C218.405 427.357 215.905 445.194 213.001 449.333C209.415 454.446 202.16 454.002 197.651 450.495C186.667 438.034 209.854 426.918 218.942 421.517Z"/>
	<path fill="#FCFCFA" transform="scale(2 2)" d="M330.91 56.5598C334.056 56.3694 336.681 57.3698 337.705 60.6001C339.159 65.1872 341.965 91.6591 333.419 93.7605C330.727 93.8184 327.413 92.9824 326.646 90.0504C325.663 86.2942 324.978 61.5602 326.711 58.8946C327.599 57.529 329.403 56.9024 330.91 56.5598Z"/>
	<path fill="#FCFCFA" transform="scale(2 2)" d="M396.463 234.287C401.756 234.072 421.57 253.341 421.985 254.489C423.313 258.167 420.618 261.972 417.085 263.004C411.023 263.017 398.295 250.05 394.063 245.638C389.251 240.62 389.599 236.507 396.463 234.287Z"/>
	<path fill="#FCFCFA" transform="scale(2 2)" d="M249.865 91.0788C256.369 89.2875 272.842 107.932 273.857 111.386C274.917 114.994 272.232 117.58 268.985 118.535C262.329 118.883 233.1 93.896 249.865 91.0788Z"/>
	<path fill="#FCFCFA" transform="scale(2 2)" d="M414.583 91.0788C418.81 91.4187 423.216 95.2879 420.655 99.808C419.239 102.306 402.837 117.396 399.196 118.535C394.144 117.551 389.624 112.641 393.36 107.803C396.102 104.251 409.865 91.6054 414.583 91.0788Z"/>
	<path fill="#FCFCFA" transform="scale(2 2)" d="M423.531 171.076C429.939 170.736 451.418 169.235 453.201 175.238C454.391 179.245 450.717 181.903 447.313 182.747C442.659 182.695 421.448 183.741 418.707 181.52C414.446 178.067 417.206 171.505 423.531 171.076Z"/>
</svg>
