<?xml version="1.0" encoding="utf-8" ?>
<svg xmlns="http://www.w3.org/2000/svg" xmlns:xlink="http://www.w3.org/1999/xlink" width="1024" height="1024">
	<path fill="#FCFCFC" transform="scale(2 2)" d="M273.084 119.003C279.214 103.315 299.15 86.2815 314.347 79.6261C331.703 72.0251 347.287 71.0369 365.85 73.2218C363.654 76.4901 361.348 79.7312 359.578 83.2544C334.629 132.905 389.44 182.627 432.307 153.338C434.229 152.025 436.028 150.498 437.991 149.256C442.287 178.679 430.878 214.23 405.357 231.239C404.935 230.464 404.547 229.591 403.912 228.972L403.746 229.37C404.901 231.2 409.616 242.6 410.127 244.266C416.065 263.618 414.487 285.393 403.115 302.526C381.099 335.693 351.225 331.357 317.106 331.169C313.003 331.146 301.293 332.471 297.865 330.808L297.773 330.63L298.876 330.716C298.062 329.147 295.379 327.118 294.036 325.845C294.978 327.471 296.665 329.384 296.629 331.295C299.103 339.334 301.828 345.767 297.546 353.908C293.87 360.897 284.234 365.184 276.753 361.683C261.386 355.526 263.231 342.866 271.423 331.295C268.916 330.644 265.722 331.586 263.091 331.556L224.414 331.302C219.978 331.303 202.749 332.368 199.596 330.723L199.731 330.528L200.175 330.651C199.848 329.558 197.232 326.851 196.42 325.845C197.178 327.372 198.508 329.553 198.339 331.295C201.008 338.319 203.482 344.944 200.135 352.267C196.404 360.429 187.562 364.072 179.053 361.683C161.451 355.946 166.071 343.057 173.693 331.295C172.667 331.022 166.433 331.569 164.464 331.527C151.721 331.253 132.521 332.448 120.625 330.461C65.5435 321.258 56.0975 245.581 105.892 224.461C108.863 221.574 109.661 215.856 111.429 212.122C118.98 196.176 136.285 187.291 153.273 185.607C155.415 179.705 157.441 173.735 160.241 168.102C180.378 127.597 228.99 104.677 272.643 119.206L273.084 119.003Z"/>
	<path fill="#526292" transform="scale(2 2)" d="M273.084 119.003C279.214 103.315 299.15 86.2815 314.347 79.6261C331.703 72.0251 347.287 71.0369 365.85 73.2218C363.654 76.4901 361.348 79.7312 359.578 83.2544C334.629 132.905 389.44 182.627 432.307 153.338C434.229 152.025 436.028 150.498 437.991 149.256C442.287 178.679 430.878 214.23 405.357 231.239C404.935 230.464 404.547 229.591 403.912 228.972C393.424 209.806 366.389 199.267 345.411 200.747C344.192 171.081 326.312 144.35 299.89 130.883C294.69 128.233 289.096 126.806 283.924 124.261L283.567 124.083C281.552 122.521 273.634 119.721 273.084 119.003Z"/>
	<path fill="#D1D1D9" transform="scale(2 2)" d="M153.273 185.607C155.415 179.705 157.441 173.735 160.241 168.102C180.378 127.597 228.99 104.677 272.643 119.206L273.084 119.003C273.634 119.721 281.552 122.521 283.567 124.083C280.013 124.679 276.262 123.307 272.741 122.9C226.192 117.517 179.47 154.516 175.595 201.537C161.449 200.777 149.273 203.2 138.27 213.129C121.012 228.701 108.02 255.156 118.065 278.004C119.399 281.037 121.211 284.002 122.025 287.23C102.206 270.093 96.7706 248.516 105.892 224.461C108.863 221.574 109.661 215.856 111.429 212.122C118.98 196.176 136.285 187.291 153.273 185.607Z"/>
	<path fill="#49A9FD" transform="scale(2 2)" d="M271.423 331.295C276.034 325.545 286.238 312.804 292.439 323.7C293.832 326.208 295.119 328.865 296.629 331.295C299.103 339.334 301.828 345.767 297.546 353.908C293.87 360.897 284.234 365.184 276.753 361.683C261.386 355.526 263.231 342.866 271.423 331.295Z"/>
	<path fill="#1284FD" transform="scale(2 2)" d="M271.423 331.295C276.034 325.545 286.238 312.804 292.439 323.7L292.167 323.997C284.664 332.101 272.695 338.604 273.041 351.265C273.156 355.502 277.142 359.677 276.753 361.683C261.386 355.526 263.231 342.866 271.423 331.295Z"/>
	<path fill="#49A9FD" transform="scale(2 2)" d="M173.693 331.295C177.45 328.234 188.921 310.093 194.176 323.7C195.973 326.084 196.96 328.682 198.339 331.295C201.008 338.319 203.482 344.944 200.135 352.267C196.404 360.429 187.562 364.072 179.053 361.683C161.451 355.946 166.071 343.057 173.693 331.295Z"/>
	<path fill="#1284FD" transform="scale(2 2)" d="M173.693 331.295C177.45 328.234 188.921 310.093 194.176 323.7C186.936 331.36 174.894 336.583 175.033 350.275C175.086 355.48 178.879 358.76 179.053 361.683C161.451 355.946 166.071 343.057 173.693 331.295Z"/>
	<path fill="#49A9FD" transform="scale(2 2)" d="M120.507 427.651C111.511 425.276 104.742 418.521 106.943 408.64C108.28 402.641 125.634 372.241 133.478 388.609C137.749 393.968 142.526 406.315 141.834 412.763C140.709 423.249 130.633 429.749 120.507 427.651Z"/>
	<path fill="#1284FD" transform="scale(2 2)" d="M120.507 427.651C111.511 425.276 104.742 418.521 106.943 408.64C108.28 402.641 125.634 372.241 133.478 388.609C123.774 394.104 110.239 410.386 116.759 421.752C117.862 423.674 119.707 425.623 120.507 427.651Z"/>
	<path fill="#49A9FD" transform="scale(2 2)" d="M218.321 427.651C209.54 425.124 203.28 417.599 205.837 408.194C207.781 401.043 223.87 373.611 232.012 388.609C236.565 396.76 242.06 405.785 239.362 415.484C237.029 423.87 227.087 430.924 218.321 427.651Z"/>
	<path fill="#1284FD" transform="scale(2 2)" d="M218.321 427.651C209.54 425.124 203.28 417.599 205.837 408.194C207.781 401.043 223.87 373.611 232.012 388.609C223.085 397.849 207.708 407.944 215.666 422.747C216.379 424.074 218.45 426.006 218.591 427.405L218.321 427.651Z"/>
	<path fill="#49A9FD" transform="scale(2 2)" d="M316.217 427.651C307.038 425.4 300.211 418.255 302.145 408.375C303.467 401.625 319.041 374.434 328.195 388.609C332.865 396.829 338.99 405.691 336.166 415.646C334.005 423.265 324.135 429.733 316.217 427.651Z"/>
	<path fill="#1284FD" transform="scale(2 2)" d="M316.217 427.651C307.038 425.4 300.211 418.255 302.145 408.375C303.467 401.625 319.041 374.434 328.195 388.609L327.946 388.872C318.888 398.352 302.961 408.594 314.075 424.339C314.819 425.393 315.716 426.456 316.217 427.651Z"/>
</svg>
