<?xml version="1.0" encoding="utf-8" ?>
<svg xmlns="http://www.w3.org/2000/svg" xmlns:xlink="http://www.w3.org/1999/xlink" width="1024" height="1024">
	<path fill="#DEDDDD" transform="scale(2 2)" d="M165.727 167.122C176.893 115.846 217.444 87.1602 270.168 96.0649C280.216 97.5165 298.9 106.329 306.233 112.331C310.927 116.172 314.877 120.793 319.447 124.764C348.245 121.04 374.827 135.939 378.669 166.607C379.035 169.522 379.23 172.46 379.601 175.373L379.837 175.554C383.213 178.116 386.992 180.11 390.346 182.718C430.773 214.163 409.595 280.133 359.473 287.103C353.828 287.888 347.991 288.094 342.304 288.602L204.034 301.076C183.819 303.015 173.561 305.394 153.837 298.522C152.242 297.966 150.04 297.516 148.775 296.353C138.646 294.142 127.635 287.183 120.5 279.899C79.8081 238.36 109.294 166.16 165.727 167.122Z"/>
	<path fill="#C7CAD6" transform="scale(2 2)" d="M165.727 167.122C176.893 115.846 217.444 87.1602 270.168 96.0649C267.243 97.4976 258.266 97.2684 254.519 97.6583C216.441 101.621 188.133 132.922 180.889 169.315C166.734 168.355 150.425 177.097 140.044 186.137C108.06 213.986 109.635 267.696 143.584 292.758C145.216 293.963 147.359 294.933 148.775 296.353C138.646 294.142 127.635 287.183 120.5 279.899C79.8081 238.36 109.294 166.16 165.727 167.122Z"/>
	<path fill="#6CD7FD" transform="scale(2 2)" d="M292.671 340.801C295.831 337.189 312.122 322.92 316.508 321.073C316.659 328.243 316.01 355.546 307.753 358.169C297.125 366.632 283.687 351.207 292.671 340.801Z"/>
	<path fill="#039BF6" transform="scale(2 2)" d="M292.671 340.801C293.732 342.761 290.196 351.926 299.066 356.903C302.023 358.562 304.658 357.722 307.753 358.169C297.125 366.632 283.687 351.207 292.671 340.801Z"/>
	<path fill="#6CD7FD" transform="scale(2 2)" d="M197.646 339.638C201.75 334.863 215.153 324.843 220.534 321.073C220.806 329.963 220.931 353.018 212.229 358.169C199.853 366.774 187.738 350.049 197.646 339.638Z"/>
	<path fill="#039BF6" transform="scale(2 2)" d="M197.646 339.638C198.084 345.07 195.754 350.297 200.636 354.762C205.669 359.367 209.744 356.835 212.229 358.169C199.853 366.774 187.738 350.049 197.646 339.638Z"/>
	<path fill="#6CD7FD" transform="scale(2 2)" d="M231.213 376.851C229.864 386.555 230.377 405.367 223.534 412.617C213.312 423.024 196.489 408.356 206.396 396.529C211.455 391.049 224.728 380.563 231.213 376.851Z"/>
	<path fill="#039BF6" transform="scale(2 2)" d="M206.396 396.529C207.928 400.109 204.074 407.088 212.114 412.071C216.576 414.837 219.13 412.599 223.534 412.617C213.312 423.024 196.489 408.356 206.396 396.529Z"/>
	<path fill="#6CD7FD" transform="scale(2 2)" d="M254.911 396.529C259.249 391.275 273.558 380.201 279.56 376.851C278.907 386.706 278.501 408.714 270.168 413.57C259.736 421.799 246.148 407.835 254.911 396.529Z"/>
	<path fill="#039BF6" transform="scale(2 2)" d="M254.911 396.529C256.416 400.852 252.679 407.636 261.008 412.273C264.878 414.427 267.725 412.64 270.168 413.57C259.736 421.799 246.148 407.835 254.911 396.529Z"/>
	<path fill="#6CD7FD" transform="scale(2 2)" d="M147.185 341.328C150.799 336.508 166.177 323.897 171.705 320.292C171.347 328.966 170.475 352.669 162.224 358.169C151.672 365.694 138.675 353.623 147.185 341.328Z"/>
	<path fill="#039BF6" transform="scale(2 2)" d="M147.185 341.328C147.574 342.577 147.32 343.902 147.304 345.184C147.18 355.078 152.901 357.603 161.546 357.954C161.904 357.968 161.809 357.982 162.224 358.169C151.672 365.694 138.675 353.623 147.185 341.328Z"/>
	<path fill="#6CD7FD" transform="scale(2 2)" d="M302.423 396.529C305.522 392.012 320.488 379.851 325.389 377.688C325.417 386.098 325.928 407.256 318.525 412.617C307.498 423.016 291.631 405.079 302.423 396.529Z"/>
	<path fill="#039BF6" transform="scale(2 2)" d="M302.423 396.529C302.24 401.319 301.689 405.239 305.252 409.109C310.914 415.26 315.407 411.238 318.525 412.617C307.498 423.016 291.631 405.079 302.423 396.529Z"/>
	<path fill="#C7CAD6" transform="scale(2 2)" d="M339.958 340.801L340.22 340.863L340.386 341.263C337.78 352.454 346.602 357.882 356.761 357.39C355.514 358.265 354.245 359.073 352.94 359.86C339.919 362.756 331.248 350.802 339.958 340.801Z"/>
	<path fill="#C7CAD6" transform="scale(2 2)" d="M159.763 394.672L159.975 394.786C161.42 397.406 156.071 416.496 176.232 412.617C175.06 413.582 173.915 414.45 172.618 415.241C159.179 418.636 151.779 405.937 159.763 394.672Z"/>
	<path fill="#C7CAD6" transform="scale(2 2)" d="M116.988 393.907C118.357 396.843 108.949 412.989 130.638 413.57C129.306 414.235 127.993 414.762 126.583 415.241C113.347 417.331 107.029 402.728 116.988 393.907Z"/>
	<path fill="#C7CAD6" transform="scale(2 2)" d="M245.407 339.638L245.637 339.844C247.245 343.531 239.132 358.511 261.41 358.169C260.3 358.806 259.209 359.349 258.038 359.86C245.199 364.042 237.356 349.881 245.407 339.638Z"/>
</svg>
