<svg width="2029" height="2018" viewBox="0 0 2029 2018" fill="none" xmlns="http://www.w3.org/2000/svg">
<path d="M434.028 1665.31L436.065 1664.29C464.36 1678.35 456.287 1676.08 489.726 1678.36C512.128 1679.88 534.538 1684.44 557.119 1682.26C595.698 1678.53 624.698 1666.04 668.944 1666.04L670.204 1666.06L670.882 1664.51L670.937 1665.6C690.645 1651.18 746.161 1659.6 769.011 1659.55C804.031 1659.47 838.873 1655.64 873.714 1655.06C885.199 1654.87 935.171 1658.11 943.537 1655.51C954.244 1652.19 985.028 1648.96 995.958 1649.49C1001.31 1655.3 998.993 1651.32 1000.22 1647.94C1009.74 1645.17 1019.93 1643.08 1028.13 1647.21C1031.96 1649.14 1080.54 1640.86 1090.82 1645.15C1093.2 1646.14 1092.07 1647.7 1095.44 1647.98L1095.43 1645.88C1096.37 1644.87 1143.6 1646.62 1150.06 1645.66C1170.44 1642.64 1196.2 1635.29 1216.1 1641.8L1219.28 1639.63C1248.08 1641.78 1265.46 1641.43 1293.83 1642.05C1313.68 1642.48 1402.85 1647.97 1418.11 1655.61C1425.69 1659.4 1442.29 1658.48 1450.64 1657.92L1452.47 1657.79C1456.19 1661.67 1456.47 1661.65 1460.84 1659.03L1463.64 1661.95C1492.31 1663.23 1508.71 1668.55 1543.07 1668.24L1543.33 1671.64C1548.78 1673.88 1581.42 1665.72 1592.81 1664.35C1621.4 1640.15 1636.91 1631.8 1662.69 1598.4C1667.14 1592.63 1670.64 1586.54 1677.04 1582.67C1639.32 1645.98 1563.71 1694.93 1492.92 1712.99C1455.51 1722.54 1418.33 1720.62 1380.13 1720.57L700.587 1720.55C601.745 1720.56 519.705 1726.53 434.028 1665.31Z" fill="#6CC1F1"/>
<path d="M975.006 558.438C1010.63 521.014 1030.03 529.54 1061.88 566.274C1174.82 670.205 1391.05 919.057 1397.02 1057.13C1398.22 1141.4 1383.61 1257.45 1329.38 1322.24C1294.5 1373.39 1255.94 1404.52 1205.81 1438.23C1112.85 1483.82 1050.59 1497.29 946.782 1483.63C832.607 1456.15 767.219 1409.62 698.61 1315.61C651.765 1260.9 625.883 1162.37 628.994 1091.47C620.616 989.975 685.707 898.4 743.993 821.838C792.578 758.023 843.814 698.157 897.931 639.111C922.985 611.773 947.269 583.19 975.006 558.438Z" fill="url(#paint0_linear_36_6)"/>
<path d="M628.994 1091.47C637.046 1093.31 657.875 1105.79 667.485 1110.05C758.866 1150.6 879.476 1150.57 971.17 1114.72C1011.86 1098.81 1026.31 1085.87 1060.56 1061.2C1171.95 980.973 1286.47 984.461 1397.02 1057.13C1398.22 1141.4 1383.61 1257.45 1329.38 1322.24C1294.5 1373.39 1255.94 1404.52 1205.81 1438.23C1112.85 1483.82 1050.59 1497.29 946.782 1483.63C832.607 1456.15 767.219 1409.62 698.61 1315.61C651.765 1260.9 625.883 1162.37 628.994 1091.47Z" fill="url(#paint1_linear_36_6)"/>
<path d="M1279.33 1375.07C1298.07 1361.18 1313.84 1341 1327.58 1322.28L1329.38 1322.24C1294.5 1373.39 1255.94 1404.52 1205.81 1438.23C1112.86 1483.82 1050.59 1497.29 946.782 1483.63V1479.39C1037.32 1500.77 1114.26 1476.35 1193.86 1438.23C1220.3 1421.67 1260.2 1399.7 1279.33 1375.07Z" fill="#207AE9"/>
<path d="M698.61 1315.61C703.242 1316.45 739.523 1360.32 748.118 1368C812.408 1432.07 857.744 1459.81 946.782 1479.39V1483.63C832.607 1456.15 767.219 1409.62 698.61 1315.61Z" fill="#207AE9"/>
<path d="M975.006 558.438C1010.63 521.014 1030.03 529.54 1061.88 566.274C1056.27 563.542 1043.26 544.391 1041.35 551.876L1041.12 552.81C1035.57 553.507 1032.97 556.795 1029.44 560.539C1025.96 564.248 1014.58 563.992 1009.55 566.522C1006.16 568.225 1002.82 572.485 999.144 572.738L998.145 570.834C998.486 565.324 1000.38 552.144 992.137 551.399C984.489 550.709 981.232 557.811 975.006 558.438Z" fill="#6CC1F1"/>
<defs>
<linearGradient id="paint0_linear_36_6" x1="1009.81" y1="1144.37" x2="1025.51" y2="548.4" gradientUnits="userSpaceOnUse">
<stop stop-color="#69B4F4"/>
<stop offset="1" stop-color="#B6D8F0"/>
</linearGradient>
<linearGradient id="paint1_linear_36_6" x1="1006.93" y1="1016.89" x2="1039.91" y2="1484.39" gradientUnits="userSpaceOnUse">
<stop stop-color="#1361E4"/>
<stop offset="1" stop-color="#77C4FF"/>
</linearGradient>
</defs>
</svg>
